<svg id="Grupo_129444" data-name="Grupo 129444" xmlns="http://www.w3.org/2000/svg" width="216.988" height="170.754" viewBox="0 0 216.988 170.754">
  <path id="Trazado_165314" data-name="Trazado 165314" d="M702.142,124.569c-11.31,14.362-36.174,19.44-49.22,9.121-35.17-27.817,16.443-60.474,0-67.73-13.7-7.258-43.848,2.419-46.589-16.933-2.743-21.769-10.963-50.8-41.11-43.541-19.184,4.839-35.767,10.43-54.808,7.258-35.275-5.876-22.655-33.47-21.609-34.471H702.142Z" transform="translate(-485.765 21.728)" fill="#d1ebea"/>
  <g id="Grupo_128341" data-name="Grupo 128341" transform="translate(0.458 2.518)">
    <path id="Trazado_165315" data-name="Trazado 165315" d="M486.267-5.73a23.194,23.194,0,0,0,1.032,7c2.8,8.874,10.915,14.536,24.107,16.83,16.6,2.886,31.557-1.206,47.391-5.538,2.442-.668,4.916-1.345,7.435-2.008,8.742-2.2,16.2-1.232,22.163,2.867,9.213,6.335,15.189,20.353,17.762,41.669C607.963,68.4,621.018,69.1,633.644,69.776c7.059.378,14.357.769,19.228,3.461a4.577,4.577,0,0,1,2.7,2.676c1.068,3.281-1.994,8.769-5.543,15.125-8.089,14.49-19.168,34.334,2.723,52.4,5.606,4.628,13.586,6.6,22.472,5.554,11.09-1.306,21.4-6.968,27.57-15.148l-1.222-.921c-5.838,7.736-16,13.312-26.528,14.55-8.466,1-16.037-.855-21.318-5.213-20.907-17.256-10.188-36.458-2.362-50.476,3.877-6.945,6.94-12.427,5.661-16.347a6.032,6.032,0,0,0-3.466-3.566c-5.129-2.837-12.606-3.237-19.837-3.625-12.556-.671-24.416-1.306-26.052-13.354-2.663-22.066-8.687-36.048-18.413-42.735-6.339-4.358-14.216-5.4-23.41-3.087-2.533.666-5.013,1.345-7.458,2.015-15.666,4.285-30.462,8.333-46.725,5.506C499.641,14.5,492.055,9.544,489.123,1.858c-3.5-9.174.973-19.116,1.49-19.768l-1.1-1.058C488.916-18.375,486.267-12.6,486.267-5.73Z" transform="translate(-486.267 18.968)" fill="#d1ebea"/>
  </g>
</svg>
