<svg xmlns="http://www.w3.org/2000/svg" xmlns:xlink="http://www.w3.org/1999/xlink" width="1240" height="476.117" viewBox="0 0 1240 476.117">
  <defs>
    <clipPath id="clip-path">
      <path id="Trazado_168593" data-name="Trazado 168593" d="M120.592,101.153H1321.538c10.784,0,19.527,7.891,19.527,17.634V559.637c0,9.739-8.743,17.634-19.527,17.634H120.592c-10.784,0-19.527-7.895-19.527-17.634V118.787C101.065,109.044,109.808,101.153,120.592,101.153Z" transform="translate(34.936 2641.564)" fill="#f8f8f8"/>
    </clipPath>
    <linearGradient id="linear-gradient" y1="0.5" x2="1" y2="0.5" gradientUnits="objectBoundingBox">
      <stop offset="0.25" stop-color="#00bcd4" stop-opacity="0.102"/>
      <stop offset="1" stop-color="#81d4fa" stop-opacity="0.2"/>
    </linearGradient>
  </defs>
  <g id="Enmascarar_grupo_236" data-name="Enmascarar grupo 236" transform="translate(-136.001 -2742.718)" clip-path="url(#clip-path)">
    <path id="Trazado_168585" data-name="Trazado 168585" d="M120.592,101.153H1321.538c10.784,0,19.527,7.891,19.527,17.634V559.637c0,9.739-8.743,17.634-19.527,17.634H120.592c-10.784,0-19.527-7.895-19.527-17.634V118.787C101.065,109.044,109.808,101.153,120.592,101.153Z" transform="translate(34.936 2641.564)" fill="#f8f8f8"/>
    <path id="Trazado_168586" data-name="Trazado 168586" d="M1123.2,108.118c31.356-.83,63.1,7.851,89.263,25.127,29.476,19.368,51.63,48.137,77.352,72.581,0,.188.188.188.375.376a182.028,182.028,0,0,0,85.425,45.129l14.575,3.524V577.69H911.649l1.062-3.329c20.47-54.723,75.071-99.974,86.664-159.252,11.641-59.231-21.778-119.026-15.958-179.009,4.881-50.2,39.051-95.9,85.048-116.016A146.317,146.317,0,0,1,1123.2,108.118Z" transform="translate(-14.19 2641.145)" fill-rule="evenodd" fill="url(#linear-gradient)"/>
    <g id="Grupo_131762" data-name="Grupo 131762" transform="translate(56.605 2615.89)">
      <g id="Grupo_131759" data-name="Grupo 131759" transform="translate(17.81 373.851)">
        <path id="Trazado_168587" data-name="Trazado 168587" d="M-25.574,243.561c19.552-24.827,62.532-33.6,85.086-15.767,60.8,48.087-28.426,104.541,0,117.083,23.688,12.547,75.8-4.181,80.535,29.271,4.741,37.632,18.952,87.812,71.065,75.27,33.162-8.367,61.829-18.032,94.745-12.548,60.979,10.159,39.165,57.859,37.354,59.591H-25.574Z" transform="translate(26.629 -201.282)" fill="#d1ebea"/>
        <g id="Grupo_131758" data-name="Grupo 131758">
          <path id="Trazado_168588" data-name="Trazado 168588" d="M348.064,475.481a40.1,40.1,0,0,0-1.784-12.1c-4.847-15.338-18.868-25.128-41.673-29.093-28.7-4.987-54.55,2.085-81.924,9.575-4.219,1.155-8.5,2.325-12.853,3.471-15.111,3.795-28.006,2.128-38.312-4.956-15.926-10.95-26.257-35.186-30.7-72.032-3.123-23.016-25.691-24.223-47.516-25.391-12.2-.653-24.819-1.328-33.239-5.982-2.535-1.17-4.034-2.669-4.672-4.626-1.847-5.672,3.446-15.158,9.581-26.147,13.983-25.049,33.135-59.351-4.708-90.588-9.69-8-23.486-11.408-38.845-9.6-19.172,2.255-36.99,12.043-47.66,26.185l2.11,1.595c10.092-13.375,27.664-23.011,45.858-25.153,14.635-1.722,27.722,1.479,36.853,9.014,36.14,29.828,17.611,63.023,4.082,87.257-6.7,12-12,21.481-9.786,28.257.866,2.658,2.883,4.731,5.993,6.165,8.865,4.9,21.79,5.6,34.29,6.265,21.705,1.161,42.209,2.257,45.035,23.085,4.6,38.144,15.016,62.315,31.829,73.874,10.958,7.534,24.574,9.331,40.468,5.339,4.378-1.153,8.665-2.325,12.892-3.482,27.082-7.408,52.659-14.406,80.773-9.518,20.792,3.615,33.9,12.182,38.974,25.468,6.052,15.86-1.683,33.047-2.576,34.173l1.908,1.828C343.485,497.341,348.064,487.352,348.064,475.481Z" transform="translate(26.243 -207.541)" fill="#d1ebea"/>
        </g>
      </g>
      <g id="Grupo_131761" data-name="Grupo 131761" transform="translate(1072.308 85.814)">
        <path id="Trazado_168589" data-name="Trazado 168589" d="M859.809,231.17c-19.551,24.827-62.532,33.605-85.085,15.767-60.8-48.087,28.424-104.539,0-117.083-23.69-12.547-75.8,4.181-80.536-29.271-4.741-37.632-18.952-87.812-71.065-75.268-33.162,8.365-61.829,18.03-94.745,12.547C467.4,27.7,489.214-20,491.023-21.728H859.809Z" transform="translate(-485.765 21.728)" fill="#d1ebea"/>
        <g id="Grupo_131760" data-name="Grupo 131760" transform="translate(0.791 4.353)">
          <path id="Trazado_168590" data-name="Trazado 168590" d="M486.267,3.915a40.093,40.093,0,0,0,1.784,12.1c4.847,15.34,18.868,25.128,41.672,29.093,28.7,4.989,54.552-2.085,81.924-9.574,4.221-1.155,8.5-2.325,12.852-3.471,15.111-3.795,28.006-2.129,38.312,4.956,15.926,10.95,26.257,35.184,30.7,72.032,3.123,23.014,25.691,24.222,47.516,25.39,12.2.653,24.819,1.33,33.239,5.982,2.535,1.172,4.035,2.67,4.672,4.626,1.847,5.672-3.446,15.158-9.581,26.147-13.984,25.049-33.135,59.353,4.708,90.588,9.69,8,23.486,11.408,38.846,9.6,19.171-2.257,36.988-12.045,47.66-26.186l-2.112-1.593c-10.092,13.373-27.664,23.011-45.858,25.151-14.635,1.724-27.722-1.478-36.851-9.012-36.141-29.829-17.613-63.023-4.083-87.257,6.7-12.006,12-21.483,9.787-28.259-.866-2.658-2.882-4.732-5.992-6.164-8.867-4.9-21.792-5.6-34.291-6.266-21.705-1.161-42.207-2.257-45.035-23.085-4.6-38.144-15.016-62.315-31.829-73.874-10.958-7.534-24.574-9.329-40.468-5.337-4.378,1.151-8.665,2.325-12.892,3.482-27.08,7.408-52.659,14.4-80.773,9.518-20.792-3.615-33.9-12.184-38.974-25.47-6.052-15.859,1.683-33.045,2.576-34.171l-1.908-1.83C490.846-17.943,486.267-7.954,486.267,3.915Z" transform="translate(-486.267 18.968)" fill="#d1ebea"/>
        </g>
      </g>
      <path id="Trazado_168591" data-name="Trazado 168591" d="M936.625,277.284c-44.947-6.328-94.179-11.818-132.683,12.217-32.189,20.093-50.308,57.194-81.255,79.151-31.837,22.592-73.562,26.407-112.356,22.052S533.9,374.7,495.248,369.228s-80.156-4.143-113.821,15.62c-39.455,23.163-62.081,69.665-62.485,115.414H936.625Z" transform="translate(511.272 171.908)" fill="#bdc2b5" opacity="0.128"/>
      <path id="Trazado_168592" data-name="Trazado 168592" d="M-47.53,282.3a347.3,347.3,0,0,0,183.585-86.616c19.259-17.571,36.525-37.326,56.716-53.822s44.152-29.867,70.165-31.626c23.268-1.574,46.007,6.181,68.393,12.718,37.449,10.935,76.759,18.742,115.376,13.209S523.4,109.837,541.636,75.35,552.834-7.476,520.63-29.5H-47.53Z" transform="translate(47.53 29.495)" fill="#bdc2b5" opacity="0.128"/>
    </g>
  </g>
</svg>
