<svg xmlns="http://www.w3.org/2000/svg" xmlns:xlink="http://www.w3.org/1999/xlink" width="109.978" height="109.978" viewBox="0 0 109.978 109.978">
  <defs>
    <radialGradient id="radial-gradient" cx="0.076" cy="0.019" r="1.465" gradientTransform="translate(0.001)" gradientUnits="objectBoundingBox">
      <stop offset="0" stop-color="#f6f6f7"/>
      <stop offset="0.477" stop-color="#f9f9fa"/>
      <stop offset="0.715" stop-color="#fff"/>
    </radialGradient>
  </defs>
  <g id="Grupo_129558" data-name="Grupo 129558" transform="translate(0.149 0.188)">
    <g id="Grupo_42274" data-name="Grupo 42274" transform="translate(-0.149 -0.188)">
      <g id="Grupo_18423" data-name="Grupo 18423" transform="translate(0 0)">
        <g id="Grupo_18421" data-name="Grupo 18421">
          <g id="Grupo_18420" data-name="Grupo 18420">
            <g id="Grupo_18419" data-name="Grupo 18419">
              <path id="Trazado_40936" data-name="Trazado 40936" d="M304.6,2200.708a54.989,54.989,0,1,1-54.988-54.988A54.988,54.988,0,0,1,304.6,2200.708Z" transform="translate(-194.623 -2145.721)" fill="#fff"/>
            </g>
          </g>
        </g>
        <path id="Trazado_40937" data-name="Trazado 40937" d="M304.05,2200.108a54.987,54.987,0,1,0-54.988,54.99A54.771,54.771,0,0,0,304.05,2200.108Z" transform="translate(-194.072 -2145.121)" fill="url(#radial-gradient)"/>
        <path id="Trazado_40938" data-name="Trazado 40938" d="M286.162,2195.259a41.973,41.973,0,1,0-41.973,41.972A41.817,41.817,0,0,0,286.162,2195.259Z" transform="translate(-189.034 -2140.088)" fill="none" stroke="#1d272b" stroke-miterlimit="10" stroke-width="2"/>
        <g id="Grupo_18422" data-name="Grupo 18422" transform="translate(9.742 30.872)">
          <path id="Trazado_40939" data-name="Trazado 40939" d="M295.221,2164.488a55,55,0,0,1-94.676,54.761,54.821,54.821,0,0,0,94.676-54.761Z" transform="translate(-200.545 -2164.488)" fill="#eceef0"/>
        </g>
      </g>
    </g>
    <g id="Edc2to" transform="translate(-4186.54 -2714.091)">
      <g id="Grupo_129654" data-name="Grupo 129654" transform="translate(4218.892 2743.829)">
        <path id="Trazado_166657" data-name="Trazado 166657" d="M4266.348,2794.33H4219.99a1.9,1.9,0,0,1-1.1-1.986q.027-23.368.013-46.736c0-1.218.555-1.77,1.778-1.77q12.5,0,25-.009a2.184,2.184,0,0,1,1.66.694q4.658,4.686,9.344,9.342a2.177,2.177,0,0,1,.694,1.661c-.017,4.864-.009,9.728-.009,14.593v.555l.3-.162a6.355,6.355,0,0,1,9.465,4.68,33.867,33.867,0,0,1,.091,4.281.594.594,0,0,0,.321.584,3.255,3.255,0,0,1,1.648,2.857q.039,4.017,0,8.036a3.24,3.24,0,0,1-1.563,2.806A8.794,8.794,0,0,1,4266.348,2794.33Zm-45.274-1.877h32.083v-.387c0-2.778-.007-5.556,0-8.334a3.458,3.458,0,0,1,1.635-3.054.835.835,0,0,0,.442-.818q-.016-11.621-.008-23.243v-.579h-.631q-3.961,0-7.921,0a1.6,1.6,0,0,1-1.8-1.818q0-3.986,0-7.972v-.536h-23.8Zm39.966-.319h5.3c.789,0,.927-.139.927-.934q0-4.3,0-8.605c0-.774-.143-.926-.877-.927q-5.324,0-10.648,0c-.712,0-.87.157-.87.875q0,4.362,0,8.722c0,.712.16.868.876.869Q4258.392,2792.135,4261.04,2792.133Zm4.375-12.616c0-1.385.018-2.721,0-4.057a4.027,4.027,0,0,0-3.665-3.956,3.876,3.876,0,0,0-4.258,3.259,38.612,38.612,0,0,0-.039,4.753Zm-19.578-34.1c0,2.045.072,6.346.107,8.355a1.112,1.112,0,0,0,1.1,1.093l8.652.126S4248.539,2748.117,4245.837,2745.414Z" transform="translate(-4218.892 -2743.829)"/>
        <path id="Trazado_166658" data-name="Trazado 166658" d="M4256.1,2887.665q-3.472,0-6.943,0a.953.953,0,0,1-.937-1.345.94.94,0,0,1,.919-.565h2.771q5.558,0,11.116,0a.956.956,0,0,1,.961,1.331.97.97,0,0,1-.974.581q-3.154-.005-6.307,0Z" transform="translate(-4242.204 -2856.986)"/>
        <path id="Trazado_166659" data-name="Trazado 166659" d="M4257.049,2913.833q3.88,0,7.76,0a1.065,1.065,0,0,1,1.065,1.469,1.032,1.032,0,0,1-1,.665c-.7.008-1.4,0-2.1,0q-6.656,0-13.312,0a2.188,2.188,0,0,1-.46-.027,1.065,1.065,0,0,1,.257-2.107q3.577-.007,7.154,0Z" transform="translate(-4242.216 -2879.374)"/>
        <path id="Trazado_166660" data-name="Trazado 166660" d="M4255.26,2942.466c1.985,0,3.971-.005,5.956,0a1.126,1.126,0,1,1-.049,2.248q-3.315,0-6.63,0c-1.735,0-3.471.005-5.206,0a1.119,1.119,0,0,1-1.078-1.6,1.14,1.14,0,0,1,1.127-.652Q4252.32,2942.471,4255.26,2942.466Z" transform="translate(-4242.209 -2902.202)"/>
        <path id="Trazado_166661" data-name="Trazado 166661" d="M4348,2824.567c-.762,0-1.524,0-2.287,0a1.188,1.188,0,1,1,.016-2.368q2.268-.006,4.536,0a1.189,1.189,0,1,1-.016,2.369C4349.5,2824.569,4348.75,2824.567,4348,2824.567Z" transform="translate(-4318.995 -2806.31)"/>
        <path id="Trazado_166662" data-name="Trazado 166662" d="M4348,2847.96c-.762,0-1.525,0-2.287,0a1.186,1.186,0,1,1-.013-2.368q2.308-.008,4.615,0a1.185,1.185,0,1,1,.013,2.367C4349.547,2847.966,4348.771,2847.96,4348,2847.96Z" transform="translate(-4318.995 -2824.961)"/>
        <path id="Trazado_166663" data-name="Trazado 166663" d="M4419.5,2947.456c0-.328-.012-.656,0-.983a1.475,1.475,0,0,1,2.949,0c.021.687.024,1.377,0,2.064a1.474,1.474,0,0,1-2.946,0C4419.49,2948.178,4419.5,2947.817,4419.5,2947.456Z" transform="translate(-4378.837 -2904.247)"/>
        <path id="Trazado_166664" data-name="Trazado 166664" d="M4254.51,2794.187h-7.929c-.729,0-.918-.185-.908-.927.013-.927-.014-1.859.075-2.779a3.638,3.638,0,0,1,2.2-3.073c.67-.318,1.4-.511,2.067-.832a4.654,4.654,0,0,0,1.3-.875c.354-.359.269-.557-.123-.885a4.787,4.787,0,0,1-1.889-3.5,20.791,20.791,0,0,1,.122-4.447,5.253,5.253,0,0,1,10.331.573,24.409,24.409,0,0,1-.012,4.039,4.768,4.768,0,0,1-1.973,3.4c-.242.189-.311.388-.146.594a3.342,3.342,0,0,0,.848.832,10.12,10.12,0,0,0,1.438.586c.313.123.631.236.94.37a3.981,3.981,0,0,1,2.535,3.834c.021.759.008,1.519.005,2.278,0,.589-.221.8-.823.8Q4258.538,2794.188,4254.51,2794.187Zm-7.511-1.295h15.11c0-.688.032-1.348-.007-2a2.7,2.7,0,0,0-1.832-2.495c-.364-.146-.733-.282-1.1-.413-1.208-.426-2.39-.884-2.809-2.2a15.391,15.391,0,0,1-1.846.21,14.861,14.861,0,0,1-1.814-.217,3.272,3.272,0,0,1-2.206,1.993c-.653.255-1.321.475-1.961.76a2.394,2.394,0,0,0-1.519,2.069C4246.95,2791.344,4247,2792.1,4247,2792.892Zm11.615-13.46-.052,0c0-.464.016-.928,0-1.391a4.048,4.048,0,0,0-3.55-3.928,3.9,3.9,0,0,0-4.37,3.11,16.137,16.137,0,0,0-.1,3.821,4,4,0,0,0,7.9.57A15.693,15.693,0,0,0,4258.613,2779.432Z" transform="translate(-4240.244 -2766.949)"/>
      </g>
    </g>
  </g>
</svg>
