<svg xmlns="http://www.w3.org/2000/svg" xmlns:xlink="http://www.w3.org/1999/xlink" width="109.978" height="109.978" viewBox="0 0 109.978 109.978">
  <defs>
    <radialGradient id="radial-gradient" cx="0.076" cy="0.019" r="1.465" gradientTransform="translate(0.001)" gradientUnits="objectBoundingBox">
      <stop offset="0" stop-color="#f6f6f7"/>
      <stop offset="0.477" stop-color="#f9f9fa"/>
      <stop offset="0.715" stop-color="#fff"/>
    </radialGradient>
  </defs>
  <g id="Grupo_129560" data-name="Grupo 129560" transform="translate(-0.089 0.188)">
    <g id="Grupo_42274" data-name="Grupo 42274" transform="translate(0.089 -0.188)">
      <g id="Grupo_18423" data-name="Grupo 18423" transform="translate(0 0)">
        <g id="Grupo_18421" data-name="Grupo 18421">
          <g id="Grupo_18420" data-name="Grupo 18420">
            <g id="Grupo_18419" data-name="Grupo 18419">
              <path id="Trazado_40936" data-name="Trazado 40936" d="M304.6,2200.708a54.989,54.989,0,1,1-54.988-54.988A54.988,54.988,0,0,1,304.6,2200.708Z" transform="translate(-194.623 -2145.721)" fill="#fff"/>
            </g>
          </g>
        </g>
        <path id="Trazado_40937" data-name="Trazado 40937" d="M304.05,2200.108a54.987,54.987,0,1,0-54.988,54.99A54.771,54.771,0,0,0,304.05,2200.108Z" transform="translate(-194.072 -2145.121)" fill="url(#radial-gradient)"/>
        <path id="Trazado_40938" data-name="Trazado 40938" d="M286.162,2195.259a41.973,41.973,0,1,0-41.973,41.972A41.817,41.817,0,0,0,286.162,2195.259Z" transform="translate(-189.034 -2140.088)" fill="none" stroke="#1d272b" stroke-miterlimit="10" stroke-width="2"/>
        <g id="Grupo_18422" data-name="Grupo 18422" transform="translate(9.742 30.872)">
          <path id="Trazado_40939" data-name="Trazado 40939" d="M295.221,2164.488a55,55,0,0,1-94.676,54.761,54.821,54.821,0,0,0,94.676-54.761Z" transform="translate(-200.545 -2164.488)" fill="#eceef0"/>
        </g>
      </g>
    </g>
    <g id="Grupo_129656" data-name="Grupo 129656" transform="translate(-4537.802 -2731.869)">
      <g id="uAeX5t" transform="translate(4568.891 2761.681)">
        <g id="Grupo_129655" data-name="Grupo 129655" transform="translate(0 0)">
          <path id="Trazado_166665" data-name="Trazado 166665" d="M4569.471,2844.951a1.176,1.176,0,0,1-.482-1.06q-.036-6.13-.1-12.259c-.008-.954.185-1.142,1.158-1.143h.837v-5.333c0-.132-.006-.264.007-.395a.764.764,0,0,1,.756-.758.735.735,0,0,1,.714.787c.011,1.68.006,3.361.007,5.042v.619h8.437a12.955,12.955,0,0,1,2.233-12.676h-.583q-3.658,0-7.316,0c-.839,0-1.042-.206-1.042-1.052q0-5.882,0-11.765c0-.837.21-1.044,1.052-1.044h9.392c.792,0,1.026.233,1.026,1.034q0,4.968,0,9.936v.565c5.16-2.978,10.278-3.1,15.015.6s5.82,8.691,4.186,14.4h4.07v-.6q0-7.291,0-14.582a2.424,2.424,0,0,1,.042-.587.726.726,0,0,1,1.431.121c.014.164.008.329.008.494q0,7.267,0,14.533v.661c.363,0,.685,0,1.008,0,.774.006.991.22.992,1.007,0,2.768.008,5.536-.006,8.3a1.083,1.083,0,0,0,.361.862c.957.93,1.894,1.881,2.835,2.826.574.577.555.938-.065,1.461h-.495c-.185-.161-.381-.31-.555-.483q-2.936-2.929-5.868-5.864c-.113-.113-.233-.221-.328-.31l-3.184,3.189c.659.656,1.346,1.336,2.028,2.022.577.579.547.95-.1,1.447h-29.565c-.355-.232-.62-.523-.461-.979s.539-.534.966-.506c.115.007.23,0,.346,0h26.58c-.025-.086-.024-.124-.042-.142q-.521-.528-1.044-1.052c-.712-.714-.72-.875-.074-1.634.017-.02.009-.061.006-.031l-1.43-1.468c-.848.685-.957.677-1.753-.119-.467-.466-.951-.915-1.392-1.4a.563.563,0,0,0-.8-.13,12.7,12.7,0,0,1-16.543-5.118.686.686,0,0,0-.69-.4c-3.377.012-6.754.007-10.131.009-.172,0-.344.02-.469.028v11.466c1.186,0,2.3.006,3.416,0,.418,0,.8.038.973.494s-.111.736-.425.992Zm23.285-7.691a11.234,11.234,0,1,0-11.223-11.268A11.2,11.2,0,0,0,4592.755,2837.26Zm-17.141-31.835v10.823h8.445v-10.823ZM4603.986,2832c.764.75,1.428,1.388,2.076,2.042a.743.743,0,0,1,.042,1.17l-.219.258,1.444,1.471c.047-.035.1-.07.149-.112.585-.525.853-.518,1.415.04.408.406.814.815,1.222,1.221.211.211.425.419.692.682V2832Zm-2.667,5.751,3.149-3.12-1.178-1.219-3.132,3.132Zm4.813.338-1.323-1.373-1.354,1.359,1.331,1.409Z" transform="translate(-4568.891 -2794.323)"/>
          <path id="Trazado_166666" data-name="Trazado 166666" d="M4597.4,2769.568h-17.5c-.747,0-.748,0-.748.77q0,8.823,0,17.645c0,.132,0,.264,0,.4-.007.677-.254,1-.75,1s-.732-.336-.732-1.024q0-9.144,0-18.287a1.949,1.949,0,0,1,.8-1.714.665.665,0,0,0,.2-.45c.029-.443.007-.889.02-1.333a1.81,1.81,0,0,1,.7-1.358.911.911,0,0,0,.279-.553c.043-.441,0-.889.025-1.333a1.707,1.707,0,0,1,1.663-1.636c.148-.007.3,0,.445,0h31.187c1.511,0,2.129.618,2.129,2.127a4.168,4.168,0,0,1,0,.494,1.135,1.135,0,0,0,.446,1.094,2.429,2.429,0,0,1,.532,1.117,2.4,2.4,0,0,1,.016.836,1.377,1.377,0,0,0,.479,1.282,1.881,1.881,0,0,1,.5,1.27c.042,2.9.024,5.8.021,8.7,0,.56-.26.872-.708.885-.47.014-.769-.311-.77-.885-.006-2.471,0-4.942,0-7.413,0-.412-.007-.824,0-1.236.005-.273-.118-.393-.386-.383-.148.006-.3,0-.445,0Zm-17.173-1.521h34.4c0-.316,0-.595,0-.874,0-.819,0-.819-.8-.819h-32.22c-1.6,0-1.6,0-1.428,1.606A.453.453,0,0,0,4580.225,2768.047Zm33.409-3.2c0-.325,0-.619,0-.911,0-.771,0-.771-.744-.771h-31c-.115,0-.253-.04-.341.01-.144.081-.352.211-.364.337a13.015,13.015,0,0,0-.018,1.336Z" transform="translate(-4575.674 -2761.681)"/>
          <path id="Trazado_166667" data-name="Trazado 166667" d="M4660.575,2805.387h-8.741a2.185,2.185,0,0,1-.492-.021.734.734,0,0,1,.032-1.449,2.462,2.462,0,0,1,.444-.012H4669.3a2.86,2.86,0,0,1,.444.01.735.735,0,0,1,.016,1.456,2.54,2.54,0,0,1-.492.016Z" transform="translate(-4632.152 -2794.311)"/>
          <path id="Trazado_166668" data-name="Trazado 166668" d="M4660.514,2819.437h-8.6a4.059,4.059,0,0,1-.542-.018.679.679,0,0,1-.626-.658.667.667,0,0,1,.509-.75,1.884,1.884,0,0,1,.536-.055q8.775,0,17.55,0c.2,0,.455-.028.571.079.207.192.463.49.444.722s-.322.481-.556.641c-.138.094-.384.037-.582.037Z" transform="translate(-4632.15 -2805.173)"/>
          <path id="Trazado_166669" data-name="Trazado 166669" d="M4657.595,2833.553q-2.889,0-5.778,0a2.15,2.15,0,0,1-.538-.048.721.721,0,0,1,.068-1.409,2.9,2.9,0,0,1,.492-.023H4663.3a2.845,2.845,0,0,1,.492.023.724.724,0,0,1,.072,1.41,2.119,2.119,0,0,1-.538.048Q4660.459,2833.555,4657.595,2833.553Z" transform="translate(-4632.152 -2816.083)"/>
          <path id="Trazado_166670" data-name="Trazado 166670" d="M4641.56,2878.355a9.534,9.534,0,1,1,9.535-9.514A9.543,9.543,0,0,1,4641.56,2878.355Zm.023-1.484a8.05,8.05,0,1,0-8.073-8.027A8.044,8.044,0,0,0,4641.583,2876.872Z" transform="translate(-4617.687 -2837.119)"/>
        </g>
      </g>
      <path id="Trazado_166671" data-name="Trazado 166671" d="M4659.237,2885.731h-3.783c-.348,0-.437-.088-.433-.443,0-.442-.007-.886.035-1.325a1.735,1.735,0,0,1,1.049-1.466c.319-.152.667-.244.985-.4a2.218,2.218,0,0,0,.621-.417c.168-.171.128-.266-.059-.422a2.285,2.285,0,0,1-.9-1.667,9.922,9.922,0,0,1,.059-2.122,2.506,2.506,0,0,1,4.928.273,11.646,11.646,0,0,1-.006,1.927,2.273,2.273,0,0,1-.941,1.624c-.115.09-.148.186-.07.283a1.607,1.607,0,0,0,.4.4,4.825,4.825,0,0,0,.686.28c.15.059.3.113.449.177a1.9,1.9,0,0,1,1.209,1.829c.01.362,0,.724,0,1.086,0,.281-.105.383-.392.383Z" transform="translate(-66.568 -88)"/>
    </g>
  </g>
</svg>
