<?xml version="1.0" encoding="utf-8"?>
<!-- Generator: Adobe Illustrator 26.0.1, SVG Export Plug-In . SVG Version: 6.00 Build 0)  -->
<svg version="1.1" id="Layer_1" xmlns="http://www.w3.org/2000/svg" xmlns:xlink="http://www.w3.org/1999/xlink" x="0px" y="0px"
	 viewBox="0 0 263.3 216" style="enable-background:new 0 0 263.3 216;" xml:space="preserve">
<style type="text/css">
	.st0{opacity:0.354;fill:#A4A4B4;enable-background:new    ;}
	.st1{opacity:0.31;fill:#A4A4B4;enable-background:new    ;}
	.st2{fill:#A4A4B4;}
	.st3{fill:#F3F9FF;}
	.st4{fill:#12263F;}
	.st5{fill:#D2E1F1;}
	.st6{fill:#839EB6;}
	.st7{fill:#FFBF9D;}
	.st8{fill:#FF9A6C;}
	.st9{fill:#344154;}
	.st10{fill:#FFFFFF;}
	.st11{opacity:0.3;}
	.st12{fill:#D9A171;}
	.st13{fill:#B42218;}
	.st14{fill:#00978E;}
	.st15{fill:#B8695E;}
	.st16{fill:#925249;}
	.st17{fill:#5E6178;}
	.st18{fill:#E7E7E7;}
</style>
<g id="Grupo_131763" transform="translate(5248.219 12573)">
	<g id="Grupo_129524" transform="translate(-5241.88 -12573)">
		<g id="Grupo_127748" transform="translate(0 0)">
			<path id="Trazado_151846" class="st0" d="M220.3,210.3c9.6-13.7,12.3-31.1,7.3-47c-3.2-9.9-9.4-19.1-10.2-29.4
				c-1.6-20.6,18.3-37.3,22.4-57.6c1.8-8.9-0.2-19.3-7.9-24.8c-7.7-5.4-18.6-4.3-27.3-0.5s-16,9.8-24.4,14.2s-18.6,7.1-27.4,3.6
				c-8.9-3.5-14-12.5-16.8-21.2s-4.2-18-9.1-25.8c-8-13-25-20.1-40.8-18.2s-30,11.9-37.6,25.1s-8.9,29.1-5.1,43.7
				c1.9,7.4,5.1,14.5,6.8,21.9s1.9,15.6-2,22.3c-8,14-29.3,15.9-40.4,27.9c-9.2,9.9-9.5,25-4.3,37.2s15,22.1,24.7,31.5
				c45.5,1.4,91.8,1.5,137.3,3C183.1,216.5,202.6,211.3,220.3,210.3z"/>
			<path id="Trazado_151847" class="st1" d="M206.5,71.6c-0.1,12.1,11.4,22.6,9.4,34.4c-1.1,6.4-5.9,12.8-3.1,18.6
				c2.5,5.1,9.6,6,15.1,4.4c12.8-3.9,20.5-17,24.3-29.8c3.5-12.1,4.4-25.6-1.2-36.8c-4.5-9.1-14.9-17.1-25.5-16.3
				C215.7,46.7,206.6,62.5,206.5,71.6z"/>
			<path id="Trazado_151848" class="st1" d="M24.3,33c-8.5,14.6-8.9,32.6-1,47.6c2.5,4.6,5.9,8.9,10.5,11.5s10.5,3.1,15,0.5
				c6.9-3.9,8.4-13.2,7.9-21.2s-2.3-16.3,0.7-23.6c2-4.8,5.8-8.5,9.2-12.4s6.6-8.5,6.7-13.7C73.8,8.2,59.6,9.2,51,12
				C39.9,15.6,30.4,23,24.3,33z"/>
			<g id="Grupo_107069" transform="translate(4.776)">
				<path id="Trazado_151849" class="st2" d="M213.3,213.1l-1-0.8c2.7-2.8,7-9.1,5.5-20.5c-0.8-5.1-2.1-10.1-3.8-14.9
					c-0.7-2.2-1.4-4.4-2-6.6c-6.6-24-3.8-49.7,8-71.7c1-1.9,2.2-3.9,3.3-5.8c3.2-5.6,6.6-11.4,8.1-17.6c2.5-10.9-2.5-19.2-8.2-22.1
					c-5.5-2.9-13.2-2.4-21.3,1.2c-2.9,1.3-5.8,3-8.5,4.5c-3.7,2.2-7.5,4.1-11.5,5.8c-15.9,6-35.8,0.9-46.3-11.8
					c-5-6.1-7.9-13.5-10.6-20.7c-1.1-2.8-2.2-5.6-3.4-8.4c-3.8-8.5-10.7-19.2-22.1-21.8C89.4-0.5,79.2,4.5,72.4,9
					c-13,8.7-22.1,20.5-25.8,33.2c-2.4,8.6-2.5,17.9-2.6,26.9c-0.1,13.4-0.3,27.3-8.4,38.5c-3.7,5.1-8.7,9.1-13.6,13.1
					c-4.6,3.7-9.3,7.5-12.9,12.1c-8,10.4-10,25.2-5.4,40.5c4.1,13.8,12.5,26,20.6,37.8l-1.1,0.7c-8.2-11.9-16.6-24.2-20.8-38.1
					c-4.7-15.7-2.7-30.8,5.6-41.6c3.6-4.7,8.4-8.6,13.1-12.3c4.8-3.9,9.8-7.9,13.4-12.8c7.9-10.9,8-23.9,8.1-37.8
					c0.1-9.1,0.2-18.5,2.7-27.2c3.7-13,13-25,26.3-33.9c7-4.7,17.6-9.8,28.1-7.4c12,2.7,19.2,13.7,23,22.5c1.2,2.8,2.3,5.7,3.4,8.4
					c2.7,7.1,5.5,14.4,10.4,20.3c10.1,12.3,29.4,17.2,44.8,11.4c3.9-1.6,7.7-3.5,11.3-5.7c2.8-1.6,5.7-3.2,8.7-4.6
					c8.4-3.8,16.6-4.2,22.5-1.2c6.1,3.2,11.5,11.9,8.9,23.5c-1.5,6.4-4.9,12.3-8.2,17.9c-1.1,1.9-2.2,3.8-3.3,5.7
					c-11.7,21.7-14.5,47.1-7.9,70.8c0.6,2.2,1.3,4.4,2,6.6c1.7,4.9,3,10,3.9,15.1C220.7,203.5,216.2,210.1,213.3,213.1z"/>
			</g>
		</g>
	</g>
	<g id="Grupo_129614" transform="translate(-5514.951 -13063)">
		<g id="Trazado_140574" transform="translate(266.732 526.518)">
			<path class="st3" d="M118.6,98.5H25.5c-3.3,0-6.4-1.3-8.7-3.6c-2.3-2.3-3.6-5.4-3.6-8.7V39.8v-0.2l-0.1-0.1L1.2,26.7h11.6h0.5
				v-0.5V12.8c0-3.3,1.3-6.4,3.6-8.7c2.3-2.3,5.4-3.6,8.7-3.6h93.1c3.3,0,6.4,1.3,8.7,3.6c2.3,2.3,3.6,5.4,3.6,8.7v73.3
				c0,3.3-1.3,6.4-3.6,8.7C125,97.2,121.9,98.5,118.6,98.5z"/>
			<path class="st4" d="M25.5,1c-3.2,0-6.1,1.2-8.4,3.5c-2.2,2.2-3.5,5.2-3.5,8.4v14.3H2.3l11.4,12.2v46.7c0,3.2,1.2,6.1,3.5,8.4
				c2.2,2.2,5.2,3.5,8.4,3.5h93.1c3.2,0,6.1-1.2,8.4-3.5c2.2-2.2,3.5-5.2,3.5-8.4V12.8c0-3.2-1.2-6.1-3.5-8.4
				c-2.2-2.2-5.2-3.5-8.4-3.5H25.5 M25.5,0h93.1c7.1,0,12.8,5.7,12.8,12.8v73.3c0,7.1-5.7,12.8-12.8,12.8H25.5
				c-7.1,0-12.8-5.7-12.8-12.8V39.8L0,26.2h12.7V12.8C12.7,5.7,18.5,0,25.5,0z"/>
		</g>
		<g id="Trazado_140575" transform="translate(390.013 566.569)">
			<path class="st5" d="M112.8,104.9H13.7c-3.5,0-6.8-1.4-9.3-3.9c-2.5-2.5-3.9-5.8-3.9-9.3V13.7c0-3.5,1.4-6.8,3.9-9.3
				c2.5-2.5,5.8-3.9,9.3-3.9h99.1c3.5,0,6.8,1.4,9.3,3.9c2.5,2.5,3.9,5.8,3.9,9.3v14.2v0.5h0.5h12.4L126.1,42l-0.1,0.1v0.2v49.4
				c0,3.5-1.4,6.8-3.9,9.3C119.6,103.5,116.3,104.9,112.8,104.9z"/>
			<path class="st4" d="M13.7,1c-3.4,0-6.6,1.3-9,3.7C2.3,7.1,1,10.3,1,13.7v78.1c0,3.4,1.3,6.6,3.7,9c2.4,2.4,5.6,3.7,9,3.7h99.1
				c3.4,0,6.6-1.3,9-3.7c2.4-2.4,3.7-5.6,3.7-9V42l12.2-13.1h-12.2V13.7c0-3.4-1.3-6.6-3.7-9c-2.4-2.4-5.6-3.7-9-3.7H13.7 M13.7,0
				h99.1c7.6,0,13.7,6.1,13.7,13.7v14.2H140l-13.5,14.5v49.4c0,7.6-6.1,13.7-13.7,13.7H13.7C6.1,105.4,0,99.3,0,91.7V13.7
				C0,6.1,6.1,0,13.7,0z"/>
		</g>
		<g id="Grupo_59399" transform="translate(407.206 564.569)">
			<g id="Grupo_59390" transform="translate(23.666 0)">
				<path id="Trazado_115061" class="st6" d="M21.2,3c-0.6-1.3-2-2-3.4-1.9c-1.6-1.4-4-1.4-5.7-0.2C10.2-0.4,7.7,0.2,6.4,2
					C6,2.6,5.8,3.3,5.7,3.9C3.9,3.5,2.1,4.7,1.6,6.5c-0.3,1.1,0,2.3,0.8,3.1c-1.8,0.5-2.8,2.3-2.3,4.1c0.4,1.5,1.8,2.5,3.4,2.4
					l16.9-9.3C21.5,5.8,21.8,4.3,21.2,3z"/>
				<g id="Grupo_59389" transform="translate(1.114 3.282)">
					<g id="Grupo_59388" transform="translate(0 0.063)">
						<path id="Trazado_115062" class="st7" d="M1.9,13.2C2.8,5.9,9.2,0.6,16.5,1l0.7,0c7.8,0.8,11.5,8,10.4,15.7l-2.4,26l-0.1,1.3
							L6.8,46.8l0.4-6.6c0,0-7.5-1.5-7.2-9.1C0.1,27.4,1,19.9,1.9,13.2z"/>
						<path id="Trazado_115063" class="st8" d="M7.1,40.1c3.5,0.2,7-0.7,10-2.4c0,0-2.6,5.3-10.1,4.2L7.1,40.1z"/>
						<path id="Trazado_115064" class="st9" d="M3.5,20.5c0,0.6,0.4,1.1,1,1.1c0.6,0.1,1.1-0.3,1.1-0.9c0-0.6-0.4-1.1-1-1.1
							C4.1,19.5,3.6,19.9,3.5,20.5C3.5,20.5,3.5,20.5,3.5,20.5L3.5,20.5z"/>
						<path id="Trazado_115065" class="st9" d="M3.3,17c0.1,0.1,1-0.4,2.1-0.4s2,0.7,2.1,0.6s-0.1-0.3-0.4-0.6
							C6.7,16.2,6.1,16,5.5,16c-0.6,0-1.2,0.1-1.7,0.5C3.4,16.6,3.3,16.9,3.3,17z"/>
						<path id="Trazado_115066" class="st9" d="M13.7,21.2c0,0.6,0.4,1.1,1,1.1c0.6,0.1,1.1-0.3,1.1-0.9c0,0,0,0,0,0
							c0-0.6-0.4-1.1-1-1.1C14.3,20.2,13.8,20.6,13.7,21.2C13.7,21.2,13.7,21.2,13.7,21.2z"/>
						<path id="Trazado_115067" class="st9" d="M14.7,17.7c0.1,0.1,1-0.4,2.1-0.4s2,0.7,2.1,0.6s-0.1-0.3-0.4-0.6
							c-0.5-0.4-1.1-0.6-1.7-0.6c-0.6,0-1.2,0.1-1.7,0.5C14.8,17.4,14.7,17.7,14.7,17.7z"/>
						<path id="Trazado_115068" class="st9" d="M10,26.1c-0.6-0.2-1.2-0.4-1.9-0.4c-0.3,0-0.6-0.1-0.6-0.3c0-0.3,0.1-0.6,0.2-0.9
							l1-2.2c0.9-1.9,1.7-3.8,2.3-5.8c-1,1.8-1.9,3.7-2.7,5.6c-0.3,0.8-0.6,1.5-1,2.2c-0.2,0.3-0.3,0.7-0.2,1.1
							c0.1,0.2,0.2,0.4,0.5,0.5C7.8,26,8,26,8.2,26C8.8,26.1,9.4,26.2,10,26.1z"/>
						<path id="Trazado_115069" class="st9" d="M13.5,27.1c-0.2,0-0.3,1.2-1.4,2.1S9.6,29.8,9.6,30c0,0.1,0.3,0.3,0.8,0.3
							c0.7,0,1.5-0.2,2.1-0.6c0.6-0.4,1-1,1.1-1.7C13.6,27.4,13.5,27.1,13.5,27.1z"/>
						<path id="Trazado_115070" class="st6" d="M14.6,13.2c0.1,0.3,1.3,0.2,2.6,0.5s2.4,0.7,2.6,0.4c0.1-0.1-0.1-0.4-0.5-0.8
							c-0.6-0.4-1.2-0.7-1.9-0.8c-0.7-0.1-1.4-0.1-2.1,0.1C14.8,12.8,14.6,13,14.6,13.2z"/>
						<path id="Trazado_115071" class="st6" d="M3.9,13.6c0.2,0.3,1,0,2,0.1s1.8,0.3,2,0c0.1-0.1,0-0.4-0.4-0.7
							c-0.9-0.7-2.2-0.7-3.2-0.1C3.9,13.2,3.8,13.5,3.9,13.6z"/>
						<path id="Trazado_115072" class="st6" d="M2.8,9.8c0,0,2.2-4.6,4.6-5.6c2.8-1.2,3.9,1.9,6.5,1.3s5.3-1.7,7.9,0.4
							c2.8,2.4,1.4,3.9,1.4,7.2c0.1,13.6,2.3,17.5,3.4,11.2c0.1-0.7,2.1-1.1,2.5-4.1c0.6-3.8,0.9-8.5,0.2-11.2
							c-0.7-2.4-2.1-4.4-4.1-5.8C21.6,0.2,16.6-0.1,13.1,0S2.7,3.9,2.8,9.8z"/>
						<path id="Trazado_115073" class="st7" d="M26,24c0.1-1.1,1.1-2,2.2-1.9c0,0,0.1,0,0.1,0c1.4,0.2,2.9,1.1,2.7,4
							c-0.4,5.1-5.5,3.7-5.5,3.5S25.9,26.2,26,24z"/>
						<path id="Trazado_115074" class="st8" d="M26.8,27.8c0.1,0.1,0.1,0.1,0.2,0.2c0.2,0.1,0.4,0.1,0.7,0.1
							c0.7-0.4,1.2-1.1,1.2-1.9c0.1-0.4,0-0.9-0.1-1.3c-0.1-0.3-0.3-0.6-0.6-0.7c-0.2-0.1-0.5,0-0.6,0.2c-0.1,0.1-0.1,0.2-0.1,0.2
							s-0.1-0.1,0-0.3c0-0.1,0.1-0.2,0.2-0.3c0.2-0.1,0.3-0.1,0.5-0.1c0.4,0.1,0.8,0.4,0.9,0.9c0.2,0.5,0.2,1,0.2,1.5
							c0,0.9-0.6,1.8-1.5,2.1c-0.3,0.1-0.6,0-0.8-0.2C26.9,28,26.9,27.9,26.8,27.8z"/>
					</g>
					<path id="Trazado_115075" class="st6" d="M26.4,14.1c-0.7,0.5-1.4,0.8-2.2,0.9c-0.8,0.1-1.6-0.5-1.8-1.3c0-0.4,0.1-0.8-0.2-1.1
						s-0.8-0.3-1.2-0.2c-1.6,0-2.9-1-3.3-2.5c-0.5,0.5-1.3,0.5-1.9,0.1c-0.5-0.5-1-1-1.3-1.6c-0.4-0.6-1-0.9-1.7-1
						c-0.4,0.1-0.8,0.2-1.1,0.2c-0.7-0.1-1-0.9-1-1.6S10.6,4.6,10,4.2S8.8,4,8.2,4.1S6.8,3.9,6.6,3.3c0-0.3,0.1-0.7,0.3-0.9
						c0.9-1.2,2.6-1.7,4-1.1c4.2,0.2,8.4-0.3,12.5-1.3c1.4,0.4,2.6,1.5,3.1,2.9c1.8-0.4,3.6,0.8,3.9,2.6c0.2,0.8,0,1.7-0.4,2.5
						c1,0.5,1.6,1.5,1.6,2.6c0,1-0.9,1.8-1.9,1.8c-0.1,0-0.2,0-0.3,0c0.4,0.9,0,2-1,2.4c-0.8,0.4-1.8,0-2.3-0.7"/>
				</g>
				<path id="Trazado_115076" class="st10" d="M31,15.6c0,0.4-0.1,0.7-0.4,1c-0.3,0.3-0.6,0.5-1.1,0.6c-0.5,0.1-1.1-0.1-1.4-0.5h0.2
					c-0.3,0.5-0.7,0.9-1.1,1.2c-0.3,0.2-0.6,0.4-1,0.5c-0.9,0.3-1.9-0.1-2.5-0.9c-0.2-0.3-0.3-0.7-0.4-1.1c0-0.1,0-0.3,0-0.4
					c0.1,0.1,0.1,0.3,0.1,0.4c0.1,0.4,0.2,0.7,0.4,1c0.7,0.9,2,1.1,3,0.3c0,0,0.1-0.1,0.1-0.1c0.4-0.3,0.7-0.7,1-1.1l0.1-0.1
					l0.1,0.1c0.3,0.3,0.8,0.5,1.2,0.5c0.4,0,0.7-0.2,1-0.4C30.7,16.2,30.9,15.9,31,15.6z"/>
				<path id="Trazado_115077" class="st10" d="M21.8,3.3c-0.1,0-0.3,0.1-0.4,0.1c-0.3,0.1-0.6,0.4-0.8,0.6l-0.1,0.1l-0.1-0.1
					c-0.6-0.9-1.4-1.6-2.4-2.1c-0.6-0.3-1.3-0.5-2-0.6c-1.4-0.1-2.7,0.6-3.6,1.7c-0.3,0.4-0.6,1-0.6,1.5v0.2l-0.2-0.1
					C11,4.5,10.2,4.5,9.6,4.8C9,5.1,8.6,5.5,8.3,6C8.1,6.5,8,7,7.9,7.5c0-0.1-0.1-0.3,0-0.4C7.9,6.7,8,6.3,8.2,6
					c0.3-0.6,0.7-1,1.3-1.3c0.7-0.4,1.6-0.5,2.3-0.2l-0.2,0.1c0.1-0.6,0.3-1.2,0.7-1.7c0.9-1.2,2.3-1.9,3.8-1.8
					c0.7,0,1.5,0.2,2.1,0.6c1,0.5,1.8,1.3,2.4,2.3h-0.1c0.2-0.3,0.6-0.5,0.9-0.6C21.6,3.3,21.7,3.3,21.8,3.3z"/>
				<path id="Trazado_115078" class="st8" d="M16.3,31.3c-0.1,0-0.1-0.6-0.5-1s-0.9-0.6-0.9-0.7s0.1-0.1,0.4,0
					c0.3,0.1,0.6,0.3,0.8,0.5c0.2,0.2,0.3,0.5,0.4,0.8C16.4,31.1,16.3,31.3,16.3,31.3z"/>
				<path id="Trazado_115079" class="st8" d="M16.8,29.9c-0.1,0-0.3-0.1-0.5-0.3s-0.5-0.2-0.5-0.3s0.3-0.2,0.7,0
					S16.9,29.8,16.8,29.9z"/>
				<path id="Trazado_115080" class="st8" d="M22.4,42.2c0.1,0,0.1-0.1,0.1-0.1c0.1-0.1,0.1-0.3,0-0.5c-0.1-0.2-0.3-0.4-0.4-0.7
					c-0.1-0.2-0.1-0.4,0-0.6c0.1-0.2,0.2-0.3,0.4-0.4c0.4-0.5-0.7-0.9-0.6-1.5c0-0.2,0.1-0.4,0.3-0.5c0.1-0.1,0.2-0.1,0.2-0.1
					c-0.2,0.2-0.3,0.4-0.3,0.6c0,0.3,0.1,0.5,0.4,0.6c0.1,0.1,0.3,0.3,0.3,0.4c0.1,0.2,0,0.5-0.1,0.6c-0.1,0.1-0.2,0.3-0.3,0.4
					c-0.1,0.1-0.1,0.2,0,0.4c0.1,0.3,0.3,0.5,0.4,0.7c0.1,0.2,0,0.5-0.2,0.6C22.4,42.3,22.3,42.2,22.4,42.2z"/>
				<path id="Trazado_115081" class="st8" d="M24,42c0-0.1,0-0.1-0.1-0.2c-0.1-0.2-0.2-0.3-0.3-0.4c-0.1-0.1-0.1-0.2-0.2-0.3
					c-0.1-0.2-0.1-0.3-0.1-0.5c0.1-0.4,0.4-0.6,0.6-0.8s0-0.5-0.2-0.7c-0.1-0.1-0.2-0.2-0.3-0.4c-0.1-0.1-0.1-0.3-0.1-0.4
					c0.1-0.5,0.4-0.7,0.4-0.6c-0.1,0.2-0.2,0.4-0.2,0.6c0,0.2,0.1,0.5,0.3,0.6c0.1,0.1,0.2,0.3,0.3,0.4c0.1,0.2,0,0.4-0.1,0.6
					c-0.2,0.3-0.5,0.5-0.6,0.8c0,0.2,0,0.5,0.2,0.7c0.1,0.2,0.2,0.3,0.2,0.5C24,41.9,24,42,24,42z"/>
			</g>
			<g id="Grupo_59395" transform="translate(0.873 41.456)">
				<path id="Trazado_115082" class="st6" d="M59.4,42.2l6.8,6.6L64,36.2l13.9-4.4c0,0,3.7,17.3,4.3,21.4c1.1,7.3-0.3,17.8-7.1,18.5
					c-7.4,0.8-13-6.5-16.5-11.3c-2.7-3.7-7.1-10.1-7.1-10.1L59.4,42.2"/>
				<path id="Trazado_115083" class="st6" d="M6.6,31C4.4,38,1.3,39,0,59.1c-0.2,3.9,0.6,9.1,4.3,10.4c4.1,1.4,10.4-1.1,12.4-4.6
					V51.1L6.6,31z"/>
				<path id="Trazado_115084" class="st9" d="M15.8,60.3c-0.7-2-1.8-3.9-3.2-5.6c0.3,0.2,0.5,0.4,0.7,0.6c1.1,1.2,1.9,2.5,2.3,4
					C15.7,59.7,15.8,60,15.8,60.3L15.8,60.3z"/>
				<path id="Trazado_115085" class="st6" d="M3.2,39c0.1-0.4,7-19.1,9.1-23.1c2.6-4.9,8.1-7,11.5-7.2s39.9,2.7,39.9,2.7
					S74,13.9,76,23.2c2.6,11.6,4.7,23,4.7,23l-18.3,3.9l-2.1-5.4L26,52.4L17.6,40L3.2,39z"/>
				<g id="Grupo_59392" transform="translate(16.628)">
					<path id="Trazado_115086" class="st6" d="M49.6,12.4L35.3,6.1L33.7,0L17.1,7.9L13.6,4l-1.5,4.3L8.5,9.5L1.3,23.7L0,56.5L0.1,65
						l49.2,0.3l-0.4-13.9L49.6,12.4z"/>
					<path id="Trazado_115087" class="st6" d="M33.7,0c-2.3,0.8-4.5,1.9-6.6,3.1c-4.7,2.5-10,4.8-10,4.8l0.4,7.5l17.7-8.9"/>
					<path id="Trazado_115088" class="st6" d="M13.6,4l3.5,3.8l-1.9,8.1l-3.1-7.3"/>
					<g id="Grupo_59391" transform="translate(15.896 7.27)" class="st11">
						<path id="Trazado_115089" class="st12" d="M1.1,1.4C1,1.5,0,10.7,0,10.7L17.7,0L1.6,8.1L1.1,1.4z"/>
					</g>
				</g>
				<path id="Trazado_115090" class="st13" d="M33.8,65.1c0,0-0.4-13.6,0-22.1C34.1,35.9,33,18,33,18l-2.3-0.4
					c-2.9,12.7-4.9,25.7-5.9,38.7L24.1,65"/>
				<path id="Trazado_115091" class="st9" d="M62,29c0.1,0.2,0.1,0.5,0.2,0.7c0.1,0.5,0.2,1.2,0.4,2c0.3,1.7,0.7,4,1.1,6.6
					s0.8,4.9,1.1,6.6c0.1,0.8,0.2,1.5,0.3,2c0,0.2,0.1,0.5,0.1,0.7c-0.1-0.2-0.1-0.5-0.2-0.7c-0.1-0.5-0.2-1.2-0.4-2
					c-0.3-1.7-0.7-4-1.1-6.6s-0.8-4.9-1.1-6.6c-0.1-0.8-0.2-1.5-0.3-2C62,29.5,62,29.2,62,29L62,29z"/>
				<path id="Trazado_115092" class="st9" d="M67.3,13.5c0,0-0.5,0.4-1.2,1.2c-0.9,1-1.7,2.1-2.4,3.2c-0.6,1.2-1.1,2.4-1.4,3.8
					c-0.2,1-0.3,1.7-0.3,1.6c0-0.2,0-0.3,0-0.5c0-0.4,0.1-0.8,0.1-1.2c0.5-2.7,1.8-5.2,3.8-7.1c0.3-0.3,0.6-0.6,0.9-0.8
					C67.1,13.6,67.2,13.5,67.3,13.5z"/>
				<path id="Trazado_115093" class="st13" d="M33.8,11.5l-1.6-0.6l-1.5,2.6l-0.3,4.2l2.1,0.3l1.6-2.6L33.8,11.5z"/>
				<path id="Trazado_115094" class="st9" d="M16.6,24c0.1,0,0.1,9.2,0.1,20.5S16.7,65,16.6,65s-0.1-9.2-0.1-20.5S16.6,24,16.6,24z"
					/>
				<path id="Trazado_115095" class="st9" d="M33.9,7.8c0,0-0.3,0.6-0.9,1.5s-1.3,2.3-2,3.8c-0.1,0.1-0.1,0.2-0.2,0.4l-0.1,0.2
					l-0.1-0.2c-0.6-1.2-1.1-2.5-1.5-3.7c-0.2-0.5-0.3-0.9-0.3-1.1c0-0.1-0.1-0.3-0.1-0.4c0.2,0.5,0.4,1,0.6,1.5
					c0.5,1.3,1,2.5,1.5,3.7h-0.2c0.1-0.1,0.1-0.2,0.2-0.4c0.6-1.3,1.3-2.6,2.1-3.8c0.3-0.5,0.6-0.8,0.7-1.1
					C33.7,8,33.8,7.9,33.9,7.8L33.9,7.8z"/>
				<path id="Trazado_115096" class="st9" d="M52,6.1c-0.1,0.1-0.2,0.1-0.2,0.1L51,6.7L48.3,8c-2.2,1.1-5.3,2.8-8.7,4.6
					c-2.1,1.1-4,2.1-5.7,3l-0.2,0.1v-0.2c0-2.2,0-4.1-0.1-5.4V8.6c0-0.2,0-0.4,0-0.6c0,0.2,0,0.4,0,0.6c0,0.4,0,0.9,0.1,1.5
					c0,1.3,0.1,3.2,0.1,5.4l-0.2-0.1c1.7-0.9,3.6-1.9,5.7-3c3.4-1.8,6.5-3.4,8.7-4.6c1.1-0.6,2-1,2.7-1.3l0.7-0.3
					C51.8,6.2,51.9,6.2,52,6.1z"/>
				<path id="Trazado_115097" class="st9" d="M18.7,11.9c0,0-0.2,0.5-0.6,1.3c-0.9,2.1-1.4,4.4-1.2,6.7c0,0.9,0.1,1.4,0.1,1.4
					c-0.1-0.1-0.1-0.2-0.1-0.4c-0.1-0.3-0.1-0.7-0.2-1c-0.2-2.3,0.2-4.7,1.2-6.8c0.2-0.3,0.3-0.6,0.5-0.9
					C18.6,12.1,18.7,12,18.7,11.9z"/>
				<path id="Trazado_115098" class="st9" d="M32.1,18.3c0,0.1-0.4-0.1-0.9-0.4s-0.8-0.6-0.8-0.6s0.4,0.1,0.9,0.4
					S32.2,18.2,32.1,18.3z"/>
				<g id="Grupo_59393" transform="translate(4.042 44.418)" class="st11">
					<path id="Trazado_115100" class="st4" d="M38.9,10.3c-0.1-0.4-0.3-0.8-0.6-1c-0.6-0.4-1.3,0.1-1.9,0.5
						c-1.6,0.9-3.5,0.9-5.4,0.8C25.4,10.4,19.9,9.9,14.4,9C11.7,8.6,9,7.9,6.6,6.7c-2.5-1.2-4.4-3.4-5.3-6L0,0
						c1,2.1,0.9,8.1,1.3,10.5s1.4,4,3.6,4.7c0.9,0.2,1.9,0.3,2.8,0.2c9.1-0.5,18.4,0,27.5-0.5c1.3-0.1,2.8-0.2,3.5-1.3
						C39.2,12.5,39.3,11.3,38.9,10.3z"/>
				</g>
				<path id="Trazado_115101" class="st9" d="M77.3,59.9l-0.1-0.1l-0.2-0.3L76.8,59c-0.1-0.2-0.3-0.4-0.5-0.7
					c-1-1.4-2.2-2.7-3.6-3.9c-1.7-1.5-3.8-3.2-6.1-5.2c-1.2-1-2.4-2-3.7-3.2c-1.3-1.2-2.6-2.5-3.7-3.8h0.2l-7.1,7.5l-1,1v-0.2
					c2.7,3.9,5.1,7.7,7.7,10.9c1.2,1.5,2.5,3,3.9,4.3c1.2,1.2,2.4,2.3,3.8,3.4c1.9,1.6,4.2,2.5,6.7,2.6h0.6l0.5-0.1l0.5-0.1l0.4-0.1
					l0.5-0.1h0.2c-0.1,0-0.1,0-0.2,0.1l-0.5,0.1L75,71.8l-0.5,0.1l-0.5,0.1h-0.6c-2.5-0.1-4.8-1-6.8-2.6c-1.4-1-2.6-2.1-3.8-3.4
					c-1.4-1.4-2.7-2.8-3.9-4.3c-2.6-3.2-5.1-7-7.7-10.9l-0.1-0.1l0.1-0.1l1-1c2.5-2.6,4.9-5.1,7.1-7.4l0.1-0.1l0.1,0.1
					c1.1,1.4,2.3,2.6,3.7,3.8c1.2,1.1,2.5,2.2,3.7,3.2c2.3,2,4.4,3.7,6.1,5.2c1.3,1.2,2.5,2.5,3.5,3.9l0.4,0.7
					c0.1,0.2,0.2,0.4,0.3,0.5s0.1,0.2,0.1,0.3C77.3,59.9,77.3,59.9,77.3,59.9z"/>
				<g id="Grupo_59394" transform="translate(52.317 52.611)" class="st11">
					<path id="Trazado_115102" class="st4" d="M0.8,0.2L0,0c0.9,4.4,2.5,8.7,4.7,12.7h5.6C8.1,10.1,0.8,0.2,0.8,0.2z"/>
				</g>
			</g>
			<g id="Grupo_59398" transform="translate(0 71.146)">
				<g id="Grupo_59396" transform="translate(30.702)">
					<path id="Trazado_115103" class="st7" d="M28.5,13.6L17.3,1.3L10.5,0L2.8,1c-0.2,0.8,0.2,1.6,1,1.9L1,3
						C0.7,3.8,1.1,4.7,1.9,5.1c0,0,0.1,0,0.1,0L0,5.4c0.5,1.2,1.8,1.9,3.1,1.7c2-0.3,4-0.4,6-0.4l4,2.2L7.2,8.7L2.9,9.5
						c0,0-0.6,1.1,0.4,1.4c1.6,0.1,3.1,0.1,4.7,0l5.3,1.7c0,0,2.1,3,2.8,3.8c0.7,0.8,4.2,2.3,4.2,2.3l1.7,1.5L28.5,13.6z"/>
					<path id="Trazado_115104" class="st8" d="M1,3c0.7,0,1.5,0,2.2-0.1c1.4-0.1,3.2-0.3,5.3-0.5l2-0.2h-0.1c1.5,0.4,2.8,0.8,3.8,1
						c0.5,0.2,1,0.3,1.5,0.3c-0.5-0.2-1-0.4-1.5-0.6c-0.9-0.3-2.2-0.7-3.8-1.2h-0.1L8.4,2C6.4,2.2,4.5,2.4,3.2,2.6
						C2.4,2.7,1.7,2.8,1,3z"/>
					<path id="Trazado_115105" class="st8" d="M0.5,5.4c0.7,0,1.3,0,2-0.1c1.2-0.1,2.9-0.4,4.8-0.6l1.9-0.3H9
						C10.5,5,12,5.5,13.6,5.9c-1.5-0.8-3-1.5-4.5-2H9L7.2,4.2C5.3,4.4,3.6,4.7,2.4,4.9C1.8,5,1.1,5.1,0.5,5.4z"/>
				</g>
				<g id="Grupo_59397" transform="translate(0 0.421)">
					<path id="Trazado_115106" class="st9" d="M2.6,3l5.7,21.5c0.3,1.2,1.4,2,2.6,2L40.5,26c1.5,0,2.7-1.3,2.6-2.7
						c0-0.2,0-0.3-0.1-0.5L38.7,2.1C38.4,0.9,37.3,0,36.1,0H4.9C3.6,0,2.5,1.1,2.5,2.4C2.5,2.6,2.5,2.8,2.6,3L2.6,3z"/>
					<path id="Trazado_115107" class="st10" d="M21.9,8.7c0.7,0.4,0.9,1.3,0.4,2c-0.4,0.7-1.3,0.9-2,0.4c-0.6-0.4-0.8-1.2-0.5-1.9
						C20.2,8.5,21.2,8.3,21.9,8.7z"/>
					<path id="Trazado_115108" class="st7" d="M0.4,7.7c-0.5-0.7-0.5-1.7,0-2.4C1,4.7,1.8,4.3,2.7,4.3c0.9,0,1.7,0.2,2.5,0.5
						c1,0.4,1.9,0.9,2.8,1.4c0.7,0.3,1.2,0.9,1.4,1.7c0.1,0.7-0.7,1.6-1.3,1.2c0.9,0.4,1.6,1.2,1.8,2.2c0.1,0.9-0.4,1.4-1.3,1.7
						c0.7,0.3,1.1,1.1,0.8,1.8c-0.4,0.7-1.3,0.9-2,0.6c-0.7-0.3-1.3-0.8-1.8-1.5c0.5,0.9,0.7,1.9,0.5,3c-2-0.7-3.5-2.5-3.8-4.7
						c-1-0.8-1.3-2.2-0.7-3.3C0.7,8.5,0.1,7.7,0,6.6"/>
					<path id="Trazado_115109" class="st8" d="M8.6,13c-0.3-0.2-0.6-0.4-0.9-0.7c-0.7-0.5-1.4-0.9-2.3-1.1c-0.5-0.1-0.9-0.1-1.4,0
						c-0.4,0.1-0.7,0.3-1,0.5c-0.3,0.2-0.5,0.5-0.7,0.8c0-0.1,0-0.2,0.1-0.3C2.6,12,2.8,11.8,3,11.6C3.3,11.3,3.6,11.1,4,11
						c0.5-0.1,1-0.1,1.5,0c0.9,0.2,1.7,0.7,2.3,1.3C8.1,12.5,8.4,12.7,8.6,13z"/>
					<path id="Trazado_115110" class="st8" d="M8.4,9.2C8,9.1,7.7,8.9,7.3,8.8C7,8.6,6.6,8.4,6.2,8.3C5.7,8.1,5.2,8,4.8,7.9
						c-0.5-0.1-1-0.1-1.5,0C2.9,8,2.5,8.1,2.2,8.4C1.9,8.6,1.7,8.9,1.5,9.2c0-0.1,0-0.2,0.1-0.3c0.1-0.3,0.3-0.5,0.5-0.7
						C2.5,8,2.8,7.8,3.3,7.7c0.5-0.1,1-0.1,1.5,0c0.5,0.1,1,0.2,1.5,0.4C6.7,8.2,7,8.4,7.4,8.6C7.8,8.8,8.1,9,8.4,9.2L8.4,9.2z"/>
				</g>
			</g>
		</g>
		<g id="Grupo_59402" transform="translate(370.541 551.372)">
			<g id="Grupo_59400" transform="translate(0 0)">
				<path id="Trazado_115111" class="st14" d="M0,9.2l7.2-0.2c4.3-8.2,14.4-11.4,22.7-7.2c8.2,4.3,11.4,14.4,7.2,22.7
					c-4.3,8.2-14.4,11.4-22.7,7.2c-6.2-3.2-9.8-10-8.9-16.9l0,0L0,9.2z"/>
				<path id="Trazado_115112" class="st9" d="M0,9.2l5.4,5.6l0.1,0.1l0-0.1l0,0l-0.1,0c-0.4,2.9,0,5.9,1.2,8.7
					c0.3,0.8,0.8,1.6,1.2,2.4c0.3,0.4,0.5,0.8,0.8,1.1l0.9,1.1c2.9,3.2,6.9,5.2,11.2,5.5c2.4,0.2,4.8-0.1,7-0.9
					c2.4-0.8,4.5-2.2,6.3-4c1.9-1.9,3.3-4.1,4.1-6.6l0.3-1c0.1-0.3,0.1-0.7,0.2-1c0.1-0.3,0.1-0.7,0.2-1l0.1-1c0-0.3,0.1-0.7,0-1v-1
					l-0.1-1c0-0.3-0.1-0.7-0.1-1c-0.4-2.5-1.4-4.9-2.8-7.1c-1.4-2-3.2-3.7-5.3-4.9c-3.8-2.2-8.3-2.8-12.5-1.8
					c-1.8,0.5-3.5,1.2-5.1,2.2c-2.5,1.6-4.5,3.8-5.9,6.4l0,0L0,9.2l7.2-0.1l0,0C7.8,8,8.6,6.9,9.5,5.9c1-1.2,2.3-2.2,3.6-3.1
					c1.6-1,3.2-1.7,5-2.1c4.2-1,8.6-0.4,12.4,1.8c2.1,1.2,3.9,2.9,5.2,4.8c1.5,2.1,2.4,4.5,2.8,7c0.1,0.3,0.1,0.6,0.1,1l0.1,1v1
					c0,0.3,0,0.7,0,1l-0.1,1c0,0.3-0.1,0.7-0.2,1c0,0.3-0.1,0.7-0.2,1l-0.3,1c-0.8,2.5-2.2,4.7-4,6.6c-1.8,1.8-3.9,3.1-6.2,4
					c-2.2,0.8-4.6,1.1-7,0.9c-4.2-0.3-8.2-2.3-11.1-5.5l-0.9-1.1c-0.3-0.4-0.5-0.8-0.8-1.1C7.5,25,7,24.3,6.7,23.5
					c-0.6-1.5-1-3-1.2-4.6c-0.2-1.3-0.2-2.7,0-4l0-0.4l-0.1,0.4h0.1L0,9.2z"/>
			</g>
			<g id="Grupo_59401" transform="translate(13.214 14.709)">
				<path id="Trazado_115113" class="st10" d="M13.8,1.7c0,0.9,0.8,1.7,1.7,1.7s1.7-0.8,1.7-1.7c0-0.9-0.8-1.7-1.7-1.7
					C14.6,0,13.8,0.8,13.8,1.7C13.8,1.7,13.8,1.7,13.8,1.7z"/>
				<path id="Trazado_115114" class="st10" d="M7,1.7c0,0.9,0.8,1.7,1.7,1.7s1.7-0.8,1.7-1.7C10.4,0.8,9.7,0,8.7,0
					C7.8,0,7,0.8,7,1.7C7,1.7,7,1.7,7,1.7z"/>
				<path id="Trazado_115115" class="st10" d="M0.2,0.9C-0.2,1.7,0,2.7,0.8,3.2c0.8,0.5,1.9,0.2,2.3-0.6c0.5-0.8,0.2-1.9-0.6-2.3
					c0,0,0,0,0,0C1.7-0.2,0.7,0,0.2,0.9z"/>
			</g>
		</g>
		<g id="Grupo_59416" transform="translate(292.81 532.087)">
			<g id="Grupo_59415" transform="translate(0 0)">
				<path id="Trazado_115118" class="st15" d="M100.8,73c0,0,3.2-4.1,4.6-4.3s10.8,0.2,12.1,0s8.7-3.3,8.7-3.3s1.3,0.4,1.1,1.6
					s-8.3,5.6-9.3,5.7s-8.8,0.7-8.8,0.7l-2,3.6L100.8,73z"/>
				<g id="Grupo_59410" transform="translate(40.159)">
					<path id="Trazado_115119" class="st9" d="M33.6,20.9c2.5-1.1,3.6-4.1,2.5-6.6c-0.4-0.8-1-1.5-1.7-2l-5.7-1.9
						c-0.8,7.4-1.7,14.8-2.6,22.2c1.6,0,3.1-0.4,4.4-1.2c1.3-0.8,2-2.4,1.6-4c2.1-0.7,3.2-2.9,2.5-5C34.3,21.9,34,21.3,33.6,20.9
						L33.6,20.9z"/>
					<g id="Grupo_59408" transform="translate(3.388 12.525)">
						<g id="Grupo_59407">
							<path id="Trazado_115120" class="st15" d="M2,4l0.2-2.6L18.3,0c4.9,0,9.7,5.4,9.5,10.3c-0.2,5.5-0.7,12.1-1.7,16.1
								c-2.1,8-8.5,8.4-8.5,8.4L17,43c-0.4,4.7-4.5,5.3-9.2,4.9l0,0c-4.6-0.4-8.1-4.4-7.8-9L2,4z"/>
							<g id="Grupo_59405" transform="translate(21.644 12.301)">
								<path id="Trazado_115121" class="st9" d="M3.6,3.8c0,0.6-0.6,1-1.1,1c0,0,0,0,0,0c-0.6,0-1-0.5-1-1c0,0,0,0,0,0
									c0.1-0.6,0.6-1,1.1-1c0,0,0,0,0,0c0.3,0,0.5,0.1,0.7,0.3C3.6,3.3,3.7,3.6,3.6,3.8z"/>
								<path id="Trazado_115122" class="st9" d="M4.1,1.3C4,1.4,3.3,0.8,2.1,0.7S0.1,1,0,0.9s0.1-0.3,0.5-0.5C1,0.1,1.6,0,2.2,0
									c0.6,0.1,1.1,0.3,1.6,0.7C4.1,1,4.2,1.3,4.1,1.3z"/>
							</g>
							<g id="Grupo_59406" transform="translate(10.534 11.383)">
								<path id="Trazado_115123" class="st9" d="M4.3,4.1c-0.1,0.6-0.6,1-1.1,1c-0.6,0-1-0.5-1-1c0,0,0,0,0,0c0.1-0.6,0.6-1,1.1-1
									C3.8,3.1,4.3,3.5,4.3,4.1C4.3,4.1,4.3,4.1,4.3,4.1L4.3,4.1z"/>
								<path id="Trazado_115124" class="st9" d="M4.1,1.3C4,1.4,3.3,0.8,2.1,0.7S0.1,1,0,0.9s0.1-0.3,0.5-0.5C1,0.1,1.6,0,2.2,0
									c0.6,0.1,1.1,0.3,1.6,0.7C4.1,1,4.2,1.3,4.1,1.3z"/>
							</g>
							<path id="Trazado_115125_00000053534898339063773090000011781314882547733681_" class="st9" d="M20.2,17.8l0.6,2.3
								c0.1,0.4,0.2,0.8,0,1.1c-0.1,0.2-0.3,0.3-0.5,0.4c-0.2,0-0.3,0-0.5,0c-0.6,0-1.2,0-1.8-0.2c0.6-0.1,1.2-0.2,1.9-0.1
								c0.3,0,0.6,0,0.6-0.2c0.1-0.3,0-0.6-0.1-0.9c-0.2-0.7-0.4-1.5-0.6-2.3L20.2,17.8z"/>
							<path id="Trazado_115126" class="st16" d="M17.6,34.9c-3.9-0.3-7.7-1.7-10.9-4.1c0,0,2.2,6,10.7,6.1L17.6,34.9z"/>
						</g>
						<path id="Trazado_115127" class="st9" d="M15.3,9.5c-0.1,0.3-1.3,0-2.6,0.1s-2.4,0.3-2.6,0c-0.1-0.1,0.2-0.4,0.6-0.7
							c0.6-0.3,1.3-0.5,2-0.5c0.7,0,1.4,0.1,2,0.4C15.1,9.1,15.3,9.4,15.3,9.5z"/>
						<path id="Trazado_115128" class="st9" d="M26.1,9.8c-0.2,0.2-1-0.1-1.9-0.2s-1.7,0-1.9-0.3c-0.1-0.1,0.1-0.4,0.5-0.6
							c1-0.5,2.2-0.3,3.1,0.4C26.2,9.4,26.2,9.6,26.1,9.8z"/>
					</g>
					<path id="Trazado_115129" class="st9" d="M34.9,15.8c1.8-1,2.7-3,2.5-5c-0.3-2-1.6-3.7-3.5-4.5c-0.4-0.1-0.7-0.3-1.1-0.3
						c-0.7-0.5-1.6-0.9-2.5-1c-0.1-1.1-0.8-2-1.9-2.4c-1-0.3-2.1-0.4-3.2-0.2c-1.6-2.5-4.9-3.2-7.4-1.6c-0.5,0.3-0.9,0.7-1.2,1.1
						c-3.4,0.9-6.7,2-10,3.2C6,5.9,5.4,6.8,4.9,7.7c-2.7,0-4.9,2.2-4.9,5c0,1.4,0.7,2.8,1.8,3.7c-1.9,1.6-2.3,4.4-0.7,6.3
						c0.3,0.3,0.6,0.6,1,0.9c-0.6,1.5-0.6,3.1,0,4.6c0.2,0.6,0.7,1.2,1.3,1.5c0,0.1,0.1,0.2,0.1,0.3c0.4,0.8,1.6,0.6,2.4,0.1
						c1.8-1.3,3.1-3.2,3.7-5.4c0.7-2.1,1.1-4.3,1.7-6.4c0-0.1,0-0.1,0-0.2c0.3-0.9,0.8-1.7,1.4-2.3c0.6,0.5,1.2,1,1.8,1.5
						c2.5,1.5,5.6,1.2,7.7-0.7c1.6,1.6,3.6,2.6,5.8,2.8c2.2,0.4,4.4-0.1,6.3-1.2c0.5-0.3,0.9-0.8,1.1-1.3
						C35.6,16.5,35.3,16,34.9,15.8L34.9,15.8z"/>
					<path id="Trazado_115130" class="st15" d="M5.6,27.5c-0.1-0.1-4.2-2.1-4.9,2.3s3.9,4.2,4,4.1S5.6,27.5,5.6,27.5z"/>
					<path id="Trazado_115131" class="st16" d="M3.6,32c0,0-0.1,0-0.2,0.1c-0.2,0-0.4,0-0.6-0.1c-0.5-0.5-0.8-1.2-0.6-1.9
						c0-0.4,0.2-0.8,0.4-1.1c0.1-0.3,0.4-0.5,0.7-0.5c0.2,0,0.4,0.1,0.4,0.3c0,0.1,0,0.2,0,0.2c0,0,0.1-0.1,0.1-0.2
						c0-0.1-0.1-0.2-0.1-0.3c-0.1-0.1-0.3-0.2-0.4-0.2c-0.4,0-0.7,0.2-0.9,0.6c-0.2,0.4-0.4,0.8-0.5,1.2c-0.2,0.8,0.2,1.6,0.8,2.1
						c0.2,0.1,0.5,0.1,0.7,0C3.5,32.1,3.6,32.1,3.6,32z"/>
					<path id="Trazado_115132" class="st17" d="M37.2,10.1v0.1c0,0.1,0,0.2,0,0.3c0,0.4,0,0.9-0.2,1.3c-0.2,0.6-0.6,1.2-1.1,1.6
						c-0.7,0.5-1.6,0.8-2.5,0.7l0.1-0.1c-0.4,1.4-1.2,2.7-2.3,3.7c-0.6,0.6-1.3,1-2.1,1.2c-0.8,0.3-1.8,0.3-2.6,0.1
						c-0.8-0.2-1.7-0.5-2.4-0.9c-0.7-0.4-1.4-0.9-1.9-1.5h0.1c-1.2,0.9-2.5,1.5-4,1.6c-1.2,0.1-2.3-0.2-3.3-0.7
						c-0.7-0.3-1.3-0.8-1.8-1.3c-0.1-0.1-0.3-0.3-0.4-0.5l-0.1-0.2c0,0,0.2,0.2,0.6,0.6c0.5,0.5,1.1,0.9,1.8,1.2
						c1,0.5,2.1,0.7,3.3,0.6c1.4-0.2,2.8-0.8,3.9-1.6l0.1-0.1l0.1,0.1c0.5,0.6,1.2,1.1,1.9,1.4c0.7,0.4,1.5,0.7,2.4,0.9
						c0.8,0.2,1.7,0.2,2.5-0.1c0.8-0.3,1.5-0.7,2.1-1.2c1.1-1,1.9-2.2,2.3-3.6v-0.1h0.1c0.9,0.1,1.7-0.1,2.4-0.7
						c0.5-0.4,0.9-0.9,1.1-1.6c0.1-0.4,0.2-0.8,0.2-1.2C37.2,10.2,37.2,10.1,37.2,10.1z"/>
					<path id="Trazado_115133" class="st17" d="M5.5,7.5C5.3,8,5.1,8.5,5,9c-0.4,1.3-0.3,2.8,0.2,4.1l0,0.1l-0.1,0
						c-0.6,0.4-1.1,1-1.4,1.7c-0.3,0.7-0.5,1.6-0.3,2.4c0.2,1,0.8,2,1.6,2.6l0.1,0.1L5,20c-0.5,0.8-0.8,1.7-0.9,2.7
						c0,0.8,0.1,1.5,0.4,2.2c0.3,0.6,0.6,1.2,1.1,1.7c0,0-0.1-0.1-0.1-0.1c-0.1-0.1-0.2-0.2-0.3-0.3c-0.3-0.4-0.6-0.8-0.8-1.3
						C4.1,24.2,4,23.5,4,22.7c0-1,0.3-2,0.9-2.8V20c-0.9-0.7-1.5-1.6-1.7-2.7c-0.1-0.8,0-1.7,0.4-2.5C3.8,14,4.4,13.5,5,13l0,0.1
						C4.5,11.8,4.4,10.3,4.8,9c0.1-0.4,0.3-0.7,0.5-1.1C5.3,7.8,5.4,7.7,5.5,7.5C5.5,7.6,5.5,7.5,5.5,7.5z"/>
					<path id="Trazado_115134" class="st9" d="M2.3,33.4c-0.1,0.3-0.2,0.5-0.2,0.8c0,0.3,0.1,0.6,0.2,0.8c0.2,0.3,0.5,0.4,0.9,0.4
						c0.3-0.1,0.6-0.3,0.7-0.7c0.1-0.3,0-0.6,0-0.8c-0.1-0.3-0.2-0.5-0.3-0.8c0.2,0.2,0.3,0.5,0.4,0.7c0.1,0.3,0.2,0.6,0.1,0.9
						c0,0.2-0.1,0.4-0.3,0.5c-0.1,0.2-0.3,0.3-0.6,0.3c-0.4,0-0.8-0.1-1.1-0.5C2,34.8,1.9,34.5,2,34.2C2,33.9,2.1,33.6,2.3,33.4z"/>
					<g id="Grupo_59409" transform="translate(17.374 35.008)">
						<path id="Trazado_115135" class="st16" d="M1,0.3C0.1,1.1,0,2.4,0.8,3.3c0.2,0.2,0.3,0.3,0.6,0.5c0.2,0.1,0.5,0.2,0.8,0.2
							c0.5-0.1,0.8-0.5,1-0.9l0.6-1c0.1-0.1,0.1-0.2,0.1-0.4c0-0.1-0.2-0.2-0.3-0.3L1.1,0.2"/>
						<path id="Trazado_115136" class="st9" d="M2.1,3.7c-0.4,0-0.8-0.2-1.1-0.4C0.5,3.1,0.2,2.7,0.1,2.3C0,2,0,1.7,0.1,1.4
							c0.1-0.3,0.2-0.6,0.4-0.8c0.2-0.2,0.4-0.4,0.6-0.6L1.2,0l0.1,0.1c1.6,1,2.9,1.6,2.8,1.7C3,1.4,2,0.9,1.1,0.3h0.2
							C1,0.4,0.8,0.6,0.7,0.8C0.1,1.4,0.1,2.4,0.7,2.9C0.8,3,0.9,3.1,1,3.1C1.7,3.5,2.1,3.7,2.1,3.7z"/>
					</g>
				</g>
				<g id="Grupo_59411" transform="translate(0 48.032)">
					<path id="Trazado_115137" class="st17" d="M0,44.4c0,0,16.2-29.1,18.9-33.8c3.2-5.5,5.9-7.5,8.4-8.7c2.6-1.2,5.5-1.9,8.4-1.9
						l8-0.1c0,0,3.1,4.6,7.2,5.5c5.7,1.2,10-3,10-3l11.5,4.7l-2.3,21.3c-0.6,5.4-2.5,10.5-5.7,14.9l-0.8,1l-42.6,0L26.1,29
						l-9.1,15.4L0,44.4z"/>
					<path id="Trazado_115138" class="st17" d="M72.5,7.2c0,0,3.4,2,5.9,10.1s8,22.7,8,22.7L100,24.5l8.1,5.1
						c0,0-13.1,22.7-15.2,25.4c-3.1,4-10.9,6.3-15.5,1c-3.3-3.9-11.3-22.6-11.3-22.6L72.5,7.2z"/>
					<path id="Trazado_115139" class="st9" d="M67.6,19c0,0.1,0.1,0.2,0.1,0.2c0.1,0.2,0.2,0.4,0.3,0.7c0.3,0.9,0.6,1.8,0.9,2.8
						c1.6,6.3,0.5,12.9-2.8,18.5c-0.5,0.8-1,1.6-1.7,2.4c-0.2,0.3-0.4,0.5-0.5,0.6s-0.2,0.2-0.2,0.2c0.2-0.3,0.4-0.6,0.6-0.9
						c0.6-0.8,1.1-1.6,1.6-2.4c3.2-5.5,4.2-12.1,2.8-18.3c-0.2-0.9-0.5-1.9-0.8-2.8C67.8,19.7,67.7,19.4,67.6,19L67.6,19z"/>
					<path id="Trazado_115140" class="st9" d="M28.8,16.4c0,0.1,0,0.2,0,0.3c0,0.3-0.1,0.6-0.1,0.8c-0.1,0.7-0.3,1.8-0.5,3.1
						c-0.5,2.6-1.2,6.2-2.3,10.1s-2.2,7.4-3.2,9.8c-0.5,1.2-0.8,2.2-1.1,2.9l-0.3,0.8c0,0.1-0.1,0.2-0.1,0.3c0-0.1,0-0.2,0.1-0.3
						c0.1-0.2,0.2-0.5,0.3-0.8c0.3-0.7,0.6-1.7,1-2.9c0.9-2.5,2-6,3.1-9.8s1.9-7.4,2.4-10c0.2-1.3,0.5-2.3,0.6-3.1l0.2-0.8
						C28.7,16.6,28.7,16.5,28.8,16.4z"/>
				</g>
				<g id="Grupo_59413" transform="translate(8.375 89.666)">
					<g id="Grupo_59412">
						<path id="Trazado_115141" class="st15" d="M0,2.8C0.7,1.9,1.4,1,2.3,0.3c0.7-0.4,1.6-0.4,2.3,0l0.5,0.4c0,0,2.4-1.1,3.6-0.3
							c0,0,2.3-1.1,3.4,0.2c0,0,1.8-1.1,2.5-0.1c0.6,1.1,0.8,2.4,0.3,3.6c-0.4,0.9-1,3.8-1.6,3.9c0,0-1.4,0.1-1.6-0.6
							s-0.3-1.1-0.3-1.1S10.9,8.9,10.2,9S8.3,9.1,8.3,7.9c0,0-0.6,0.9-1.2,0.6S5.8,7.8,5.9,7.1s0.1-1.5,0.1-1.5S5.6,6.7,5.1,6.4
							S4,6.3,3.7,5.4s-1-2.6-1-2.6L0,2.8z"/>
						<path id="Trazado_115142" class="st16" d="M5.9,5.6c0,0,0.1-0.3,0.2-0.8C6.3,4.2,6.3,3.6,6.2,3C6.1,2.3,5.8,1.8,5.4,1.2
							C5.2,0.9,4.9,0.6,5,0.6s0.3,0.1,0.6,0.5c0.9,1,1.1,2.4,0.7,3.7C6.2,5.1,6.1,5.4,5.9,5.6L5.9,5.6z"/>
						<path id="Trazado_115143" class="st16" d="M8.8,0.5C8.9,0.8,9,1.2,9.1,1.5c0.3,1.8,0.2,3.6-0.4,5.3c-0.1,0.4-0.2,0.7-0.4,1
							C8.6,6.6,8.9,5.4,9,4.2C9.1,2.9,9,1.7,8.8,0.5z"/>
						<path id="Trazado_115144" class="st16" d="M12.1,0.6c0.3,1.9,0,3.8-0.6,5.6c-0.1,0,0.3-1.2,0.4-2.8S12,0.6,12.1,0.6z"/>
					</g>
					<path id="Trazado_115145" class="st15" d="M21,1.3c-0.1-0.2-0.3-0.4-0.6-0.5c-0.6-0.1-1.3,0-1.7,0.5c-0.5,0.5-0.9,1-1.3,1.6
						h3.4C20.8,2.3,21.3,1.7,21,1.3z"/>
				</g>
			</g>
		</g>
		<g id="Grupo_63676" transform="translate(320.69 643.993)">
			<path id="Rectángulo_10103" class="st4" d="M44,5v15.1c0,2.8-2.3,5-5,5H5c-2.8,0-5-2.3-5-5V5c0-2.8,2.3-5,5-5H39
				C41.8,0,44,2.3,44,5z"/>
			<path id="Trazado_114626" class="st10" d="M22,16.4c-0.2,0-0.3,0-0.4-0.1L3.1,4.6C2.7,4.3,2.7,3.8,2.9,3.4c0.2-0.3,0.7-0.4,1-0.2
				L22,14.6L40.1,3.2C40.5,3,41,3.1,41.2,3.5c0.2,0.4,0.1,0.8-0.2,1L22.4,16.3C22.3,16.3,22.2,16.4,22,16.4z"/>
		</g>
		<g id="Grupo_63677" transform="translate(415.785 530.359)">
			<path id="Trazado_114631" class="st4" d="M49.1,0H8.5C3.8,0,0,3.8,0,8.5v25.7l7.9-7.9h41.2c4.7,0,8.5-3.8,8.5-8.5v0V8.5
				C57.6,3.8,53.8,0,49.1,0z"/>
			<path id="Trazado_114632" class="st18" d="M47.7,11.6H9.4c-0.8,0-1.4-0.6-1.4-1.4l0,0c0-0.8,0.6-1.4,1.4-1.4h38.4
				c0.8,0,1.4,0.6,1.4,1.4l0,0C49.1,11,48.5,11.6,47.7,11.6z"/>
			<path id="Trazado_114633" class="st18" d="M34.6,18.1H9.3c-0.8,0-1.4-0.6-1.4-1.4l0,0c0-0.8,0.6-1.4,1.4-1.4h25.3
				c0.8,0,1.4,0.6,1.4,1.4l0,0C36,17.5,35.4,18.1,34.6,18.1z"/>
		</g>
	</g>
</g>
</svg>
