<?xml version="1.0" encoding="utf-8"?>
<!-- Generator: Adobe Illustrator 26.0.1, SVG Export Plug-In . SVG Version: 6.00 Build 0)  -->
<svg version="1.1" id="Layer_1" xmlns="http://www.w3.org/2000/svg" xmlns:xlink="http://www.w3.org/1999/xlink" x="0px" y="0px"
	 viewBox="0 0 262.8 240.9" style="enable-background:new 0 0 262.8 240.9;" xml:space="preserve">
<style type="text/css">
	.st0{opacity:0.354;fill:#A4A4B4;enable-background:new    ;}
	.st1{opacity:0.31;fill:#A4A4B4;enable-background:new    ;}
	.st2{fill:#A4A4B4;}
	.st3{fill:#262222;}
	.st4{fill:#5E6178;}
	.st5{opacity:0.3;}
	.st6{fill:#344154;}
	.st7{fill:#D9A171;}
	.st8{fill:#AED3F2;}
	.st9{opacity:0.6;}
	.st10{fill:#6595BF;}
	.st11{fill:#12263F;}
	.st12{fill:#008F85;}
	.st13{fill:#727997;}
	.st14{fill:#C78976;}
	.st15{fill:#8B5D54;}
	.st16{opacity:0.2;}
	.st17{opacity:0.85;fill:#38140C;enable-background:new    ;}
	.st18{opacity:0.85;fill:#FFFFFF;enable-background:new    ;}
</style>
<g id="Grupo_131773" transform="translate(2780.271 8088.447)">
	<g id="Grupo_131771" transform="translate(-2770.385 -8088.447)">
		<g id="Grupo_128802" transform="translate(0 0)">
			<path id="Trazado_151846" class="st0" d="M219.5,220.6c9.6-14.5,12.3-32.5,7.2-49.2c-3.2-10.3-9.4-19.9-10.1-30.7
				c-1.6-21.6,18.2-39,22.4-60.2c1.8-9.3-0.2-20.2-7.9-25.9c-7.7-5.6-18.6-4.5-27.2-0.5s-16,10.2-24.3,14.8s-18.6,7.4-27.3,3.8
				c-8.9-3.7-13.9-13-16.8-22.1s-4.2-18.8-9-27c-8-13.6-24.9-21-40.7-19.1S55.8,16.8,48.2,30.6s-8.9,30.4-5.1,45.7
				c1.9,7.7,5.1,15.1,6.8,22.9s1.9,16.3-2,23.3c-8,14.6-29.2,16.7-40.2,29.2c-9.1,10.3-9.4,26.1-4.2,38.9s14.9,23.1,24.7,32.9
				c45.3,1.5,91.5,1.6,136.8,3.1C182.5,227,201.9,221.6,219.5,220.6z"/>
			<path id="Trazado_151847" class="st1" d="M203,66.4c-0.1,12.4,11.7,23.3,9.7,35.6c-1.1,6.6-6.1,13.2-3.2,19.2
				c2.6,5.3,9.9,6.2,15.6,4.5c13.2-4,21.2-17.5,25-30.8c3.6-12.5,4.5-26.4-1.3-38c-4.7-9.4-15.4-17.6-26.3-16.9
				C212.5,40.7,203.1,57,203,66.4z"/>
			<path id="Trazado_151848" class="st1" d="M31.9,43.3c-11.2,19.2-11.7,42.9-1.3,62.6c3.3,6.1,7.8,11.7,13.8,15.1
				s13.8,4.1,19.8,0.7c9.1-5.2,11.1-17.4,10.4-27.8s-3.1-21.4,0.9-31c2.6-6.3,7.6-11.2,12.1-16.4s8.6-11.2,8.9-18
				C97.1,10.8,78.3,12.1,67,15.8C52.4,20.5,39.9,30.2,31.9,43.3z"/>
			<g id="Grupo_107069" transform="translate(6.279)">
				<path id="Trazado_151849" class="st2" d="M210.6,222.7l-1-0.9c2.7-2.9,6.9-9.5,5.5-21.4c-0.8-5.3-2.1-10.5-3.8-15.6
					c-0.7-2.3-1.4-4.6-2-6.9c-6.6-25.1-3.7-51.8,7.9-74.9c1-2,2.2-4.1,3.2-6c3.2-5.8,6.5-11.9,8-18.4c2.5-11.4-2.4-20-8.1-23.1
					c-5.4-3-13.1-2.5-21,1.3c-2.9,1.4-5.7,3.1-8.4,4.7c-3.6,2.3-7.4,4.3-11.3,6c-15.7,6.3-35.4,0.9-45.7-12.4
					c-5-6.4-7.8-14.1-10.5-21.6c-1.1-2.9-2.1-5.9-3.3-8.8c-3.7-8.9-10.5-20.1-21.8-22.8c-9.9-2.4-20,2.8-26.7,7.6
					C58.6,18.5,49.6,30.9,46,44.1c-2.4,8.9-2.5,18.7-2.6,28.1c-0.1,14-0.3,28.5-8.3,40.2c-3.6,5.3-8.6,9.5-13.5,13.6
					c-4.5,3.8-9.2,7.8-12.7,12.6C1.1,149.5-0.8,165,3.7,181c4.1,14.4,12.4,27.1,20.4,39.5l-1.1,0.7c-8.1-12.4-16.4-25.3-20.5-39.8
					c-4.6-16.4-2.6-32.2,5.5-43.4c3.6-4.9,8.3-9,12.9-12.8c4.8-4,9.7-8.2,13.2-13.4c7.8-11.3,7.9-25,8-39.5
					c0.1-9.5,0.2-19.3,2.7-28.4c3.7-13.6,12.9-26.1,25.9-35.4C77.6,3.5,88-1.8,98.5,0.6c11.9,2.8,18.9,14.3,22.8,23.5
					c1.2,2.9,2.3,5.9,3.4,8.8c2.7,7.4,5.5,15,10.3,21.2c10,12.9,29,18,44.2,12c3.9-1.7,7.6-3.6,11.1-5.9c2.8-1.7,5.6-3.4,8.5-4.8
					c8.3-4,16.4-4.4,22.2-1.2c6.1,3.4,11.4,12.5,8.7,24.6c-1.5,6.7-4.8,12.8-8.1,18.7c-1.1,2-2.2,4-3.2,6
					c-11.5,22.9-14.3,49.2-7.8,74c0.6,2.3,1.3,4.6,2,6.9c1.7,5.1,3,10.4,3.8,15.8C217.9,212.6,213.4,219.6,210.6,222.7z"/>
			</g>
		</g>
	</g>
	<g id="Grupo_131772" transform="translate(-2780.271 -8087.967)">
		<g id="freepik--Chart--inject-444" transform="translate(82.991 154.929)">
			<g id="Grupo_61348" transform="translate(17.273 0)">
				<rect id="Rectángulo_12549" x="0" y="0" class="st3" width="83.2" height="72.9"/>
			</g>
			<rect id="Rectángulo_12550" x="0" y="0" width="83.2" height="72.9"/>
			<path id="Trazado_125913" class="st4" d="M96.7,0.2c1,1.1,2.2,2,3.5,2.8C99.2,1.8,98,0.9,96.7,0.2L96.7,0.2z"/>
		</g>
		<g id="freepik--Character--inject-444" transform="translate(59.552 1.406)">
			<g id="Grupo_61351" transform="translate(38.962 151.318)" class="st5">
				<path id="Trazado_125948" class="st6" d="M1.4,0.2c0.7-0.2,1.4-0.2,2-0.1C24.6,2.4,48,4,69.1,6.4v0.2
					c-13.6,3.9-27.7,5.5-41.8,4.8c-1.3-0.1-2.8-0.1-3.7,0.9s-0.7,2.7-0.4,4.1c3,12.9,5.9,25.8,8.9,38.8c0.5,2,0.8,4.5-0.8,5.9
					c-2.2,1.9-5.4-0.3-7.3-2.5C11.5,43.6,5.8,24.3,0.4,5.5C-0.2,3.6-0.4,1,1.4,0.2z"/>
			</g>
			<path id="Trazado_125949" class="st7" d="M13.4,145.2c2.2-1.9,5.1-2.8,8-2.6l4.8,15.5c-3.6,0.2-7.1,2-10.6,1
				c-2.8-0.9-4.9-3.3-5.2-6.2C10.1,150,11.3,147.1,13.4,145.2z"/>
			<path id="Trazado_125950" class="st8" d="M21.3,142.2c0-0.1-0.5-0.2-1.5-0.2c-1.4,0-2.7,0.3-4,0.8c-1.9,0.8-3.6,2.1-4.8,3.8
				c-0.7,1-1.3,2.1-1.6,3.4c-0.3,1.3-0.4,2.7-0.1,4.1c0.3,1.4,0.9,2.6,1.8,3.7c0.8,1,1.9,1.7,3.1,2.2c2,0.7,4.1,0.8,6.1,0.4
				c1.3-0.3,2.6-0.7,3.8-1.2c0.9-0.4,1.3-0.6,1.3-0.8s-0.6-0.1-1.5,0.1s-2.2,0.4-3.8,0.6c-1.8,0.2-3.6,0-5.3-0.7
				c-0.9-0.4-1.7-1-2.4-1.8c-0.7-0.8-1.1-1.8-1.3-2.9c-0.4-2.1,0.1-4.3,1.3-6c1-1.5,2.4-2.7,4-3.5c1.1-0.5,2.3-1,3.6-1.2
				C20.8,142.5,21.3,142.4,21.3,142.2z"/>
			<path id="Trazado_125951" class="st7" d="M65.4,199.1l9.8,27.5L41.1,239c-1-3.3,14.3-16.3,14.3-16.3l-7-17.3L65.4,199.1z"/>
			<g id="Grupo_61352" transform="translate(64.108 217.404)" class="st9">
				<path id="Trazado_125952" class="st10" d="M1.3,0c0.8,0,1.4,0.5,1.5,1.2C2.9,2,2.4,2.7,1.6,2.8C0.8,2.8,0.1,2.3,0,1.5
					C0,0.7,0.7-0.1,1.4,0"/>
			</g>
			<path id="Trazado_125953" class="st8" d="M75.2,226.6l-1-2.8l-32.4,12.9c0,0-1.3,1.2-0.7,2.2L75.2,226.6z"/>
			<path id="Trazado_125954" class="st6" d="M54.8,222.7c0.1,0.2,0.9-0.1,1.9,0.2s1.7,0.8,1.8,0.7s-0.5-1-1.7-1.3
				S54.7,222.6,54.8,222.7z"/>
			<path id="Trazado_125955" class="st6" d="M51.7,225.5c0,0.2,0.9,0.2,1.7,0.7s1.3,1.2,1.4,1.1s-0.1-1-1.1-1.7
				S51.7,225.4,51.7,225.5z"/>
			<path id="Trazado_125956" class="st6" d="M51.2,230.5c0.2,0,0.1-0.9-0.7-1.7s-1.7-0.8-1.7-0.7s0.6,0.5,1.2,1.1
				S51.1,230.5,51.2,230.5z"/>
			<path id="Trazado_125957" class="st6" d="M53.6,218.6c0.1,0.1,0.8-0.4,1.8-0.7s1.8-0.2,1.8-0.4s-0.9-0.5-2-0.2
				C54.5,217.5,53.9,217.9,53.6,218.6z"/>
			<path id="Trazado_125958" class="st6" d="M53,214.2c0.6-0.1,1.2-0.3,1.7-0.6c0.6-0.3,1.1-0.7,1.6-1.2c0.3-0.3,0.5-0.6,0.8-0.9
				c0.2-0.2,0.3-0.4,0.4-0.6c0.1-0.3,0-0.7-0.2-0.9c-0.3-0.2-0.6-0.2-0.9-0.1c-0.2,0.1-0.4,0.2-0.6,0.3c-0.3,0.2-0.6,0.5-0.9,0.7
				c-0.5,0.5-0.9,1-1.2,1.6c-0.3,0.5-0.5,1.1-0.5,1.8c0.1,0,0.3-0.6,0.9-1.5c0.3-0.5,0.7-1,1.2-1.4c0.3-0.3,0.6-0.5,0.9-0.7
				c0.3-0.2,0.6-0.3,0.8-0.2s0.1,0.1,0,0.2c-0.1,0.2-0.2,0.3-0.3,0.4c-0.2,0.3-0.4,0.6-0.7,0.8c-0.4,0.5-0.9,0.9-1.4,1.2
				C53.9,213.5,53.4,213.9,53,214.2L53,214.2z"/>
			<path id="Trazado_125959" class="st6" d="M53.2,214.4c0.1-0.6,0.1-1.2-0.1-1.8c-0.3-1-0.9-2-1.7-2.7c-0.3-0.4-0.9-0.6-1.4-0.5
				c-0.3,0.1-0.5,0.4-0.5,0.7c0,0.2,0,0.5,0,0.7c0.1,0.4,0.2,0.8,0.4,1.1c0.3,0.6,0.8,1.1,1.4,1.5c1,0.6,1.8,0.6,1.7,0.5
				c-0.5-0.3-1-0.6-1.5-0.9c-0.5-0.4-0.9-0.8-1.1-1.4c-0.2-0.3-0.3-0.6-0.3-1c-0.1-0.4,0-0.7,0.1-0.7c0.3,0,0.6,0.1,0.8,0.3
				c0.3,0.2,0.5,0.5,0.8,0.8c0.4,0.5,0.7,1,0.9,1.6C53.1,213.8,53.2,214.4,53.2,214.4z"/>
			<path id="Trazado_125960" class="st11" d="M102.2,121c5.6,0.1,10.9,0.9,14.7,5c5.1,5.4,11.4,13,11.7,18.3
				c0.6,7.9-4.3,10.3-7.7,12.2c-1.6,0.8-3.3,1.2-5.1,1.2l-64.6-0.5l-2-10.9L91,136l-1.7-15.7L102.2,121z"/>
			<path id="Trazado_125961" class="st11" d="M89.2,120.3l-20.3-0.9c0,0-35.1,1.9-42.6,8.8s-6.5,14.7-4.1,22.1s24.5,55.4,24.5,55.4
				c-1,1.9-1.3,4-0.8,6.1c0.8,2.7,3,4.8,5.7,5.5l19.5-7.2c0,0,2.7-0.9,0.8-3.5s-3.1-3-3.1-3v-5c0,0-6.9-12.5-7.5-14.2
				s-7.2-27.1-7.2-27.1l-4.4-7.5c0,0,10.6-5,19.7-8.6L91,136L89.2,120.3z"/>
			<path id="Trazado_125962" class="st4" d="M56.3,209.2c0.6-0.3,1.2-0.7,1.7-1.1c2.8-1.8,5.9-3,9.1-3.5c0.7-0.1,1.4-0.2,2-0.3
				c-0.7-0.1-1.4-0.1-2.1,0c-3.3,0.4-6.5,1.6-9.2,3.5C57.3,208.2,56.7,208.7,56.3,209.2L56.3,209.2z"/>
			<path id="Trazado_125963" class="st4" d="M46.5,205.7c0.4-0.4,0.8-0.8,1.1-1.2c0.7-0.8,1.5-1.9,2.5-3.1s1.7-2.4,2.2-3.3
				c0.3-0.4,0.6-0.9,0.8-1.4c-0.4,0.4-0.7,0.8-1,1.3l-2.3,3.2l-2.4,3.2C47.1,204.8,46.8,205.3,46.5,205.7L46.5,205.7z"/>
			<path id="Trazado_125964" class="st4" d="M39.4,143c0.6,0.2,1.2,0.4,1.8,0.6c1.5,0.5,2.9,1.1,4.2,2c1.3,0.8,2.5,1.8,3.6,2.9
				c0.4,0.5,0.9,0.9,1.3,1.4c-0.3-0.6-0.7-1.1-1.1-1.6c-1-1.2-2.3-2.2-3.6-3.1c-1.3-0.8-2.8-1.5-4.3-1.9C40.7,143.1,40,143,39.4,143
				L39.4,143z"/>
			<path id="Trazado_125965" class="st4" d="M59.3,176.9c0-0.1,0-0.3-0.1-0.4c-0.1-0.3-0.2-0.7-0.3-1.2l-1.2-4.4l-4-14.3
				c-0.8-2.8-1.5-5.5-2.3-7.9c-0.8-2.1-2.1-4-3.7-5.6c-1.1-1.1-2.2-2-3.5-2.9c-0.5-0.3-0.8-0.5-1.1-0.6c-0.1-0.1-0.3-0.1-0.4-0.2
				l1.4,0.9c1.2,0.9,2.3,1.9,3.4,2.9c1.5,1.6,2.7,3.5,3.5,5.5c0.8,2.4,1.4,5.1,2.3,7.9l4.1,14.4l1.3,4.3c0.2,0.5,0.3,0.9,0.4,1.2
				C59.2,176.7,59.3,176.8,59.3,176.9z"/>
			<path id="Trazado_125966" class="st4" d="M77.3,140.4c0.1,0,0.5-3.8,1-8.5s0.7-8.5,0.6-8.5s-0.5,3.8-1,8.5S77.2,140.3,77.3,140.4
				z"/>
			<path id="Trazado_125967" class="st4" d="M111.1,150.5c0.1,0,0.4-0.6,1-1.5c0.8-1.2,1.8-2.2,2.9-3.1c1.1-0.9,2.4-1.6,3.7-2.1
				c1-0.4,1.7-0.6,1.7-0.6c-0.6,0-1.2,0.2-1.8,0.4c-2.8,0.9-5.2,2.8-6.8,5.3C111.6,149.3,111.3,149.9,111.1,150.5z"/>
			<path id="Trazado_125968" class="st4" d="M98.7,136.7c0,0.1,0.9-0.5,2.4-1.2c3.9-1.8,8.2-2.4,12.5-1.8c1.6,0.2,2.6,0.5,2.6,0.5
				c-0.2-0.1-0.4-0.2-0.7-0.3c-0.6-0.2-1.3-0.3-1.9-0.5c-4.3-0.8-8.7-0.1-12.6,1.8c-0.6,0.3-1.2,0.6-1.7,1
				C99.1,136.4,98.9,136.6,98.7,136.7z"/>
			<path id="Trazado_125969" class="st4" d="M50.1,146.3c0.2,0,0.3,0,0.5-0.1l1.4-0.3l5.3-1.2c4.4-1,10.6-2.3,17.4-3.7
				s13-2.5,17.5-3.2l5.3-0.9l1.4-0.3c0.2,0,0.3-0.1,0.5-0.1c-0.2,0-0.3,0-0.5,0l-1.5,0.2c-1.3,0.2-3.1,0.4-5.3,0.8
				c-4.5,0.7-10.7,1.8-17.5,3.1s-13,2.8-17.4,3.8c-2.2,0.5-4,1-5.2,1.3l-1.4,0.4C50.4,146.2,50.2,146.3,50.1,146.3L50.1,146.3z"/>
			<path id="Trazado_125970" class="st4" d="M91,137.9c0.3-0.7,0.6-1.4,0.9-2.1c0.4-0.7,0.9-1.3,1.5-1.9c0.7-0.7,1.5-1.3,2.3-2
				c1.5-1.1,3-2,4.6-2.9c0.7-0.3,1.3-0.7,2-1.1c-0.7,0.2-1.4,0.5-2.1,0.9c-1.7,0.8-3.3,1.7-4.7,2.8c-0.8,0.6-1.6,1.3-2.3,2
				c-0.6,0.6-1.1,1.3-1.5,2c-0.2,0.5-0.4,1-0.6,1.6C91,137.5,91,137.7,91,137.9z"/>
			<path id="Trazado_125971" class="st6" d="M19,147.6c-0.1,0.1,1,1.2,1.8,2.8s1.1,3.2,1.2,3.1C22,151.3,20.9,149.1,19,147.6
				L19,147.6z"/>
			<path id="Trazado_125974" class="st12" d="M47,94.5c0.3-2.1,6.6-9.1,6.6-9.1s5.5-13.4,6.4-17.2c0.7-2.4,1.6-4.7,2.6-6.9
				c2.2-3.7,3.3-3.8,7.1-5.9l7.3-3.2l0.9-2c0.8-1.7,2.1-3.1,3.8-4l18.4-9.5l5.7,10.1c0,0,10.9,5.2,11.6,6c2.2,2.9,0.7,48.8,0.7,48.8
				s1.1,17.9,2.3,22.9s1.9,8.7,1.9,8.7l-5.5-6.3c-3.2-4-10.2-5.9-15.3-5.8l-43.1,0.2l2.6-12.9L25.3,116c0,0-6-11.7-6.5-11.9
				S47,94.5,47,94.5z"/>
			<path id="Trazado_125975" class="st13" d="M101.1,50.7c0.3-0.3-3.5,8.6-5.9,18.4c-1.5,6.1-1.9,15.9-1.9,21.4l-0.9,15.3v13.4
				l-20.7-1.4l3.1-22.5c0,0,2.5-14.5,3.2-20c0.6-5,3.7-25.3,3.7-25.3S92.4,59.5,101.1,50.7z"/>
			<path id="Trazado_125976" class="st6" d="M55.2,103c0-0.2,0-0.4,0-0.5c0-0.5-0.1-0.9-0.3-1.4c-0.4-1.5-1.3-2.9-2.4-4
				c-1.1-1.1-2.5-1.9-4-2.4c-0.5-0.1-0.9-0.2-1.4-0.3h-0.5c0.6,0.1,1.2,0.3,1.8,0.5c2.9,1,5.2,3.3,6.2,6.2
				C55,102.3,55.1,103,55.2,103z"/>
			<path id="Trazado_125977" class="st6" d="M54.1,94.8c-1-0.6-2-0.9-3.2-0.9c-1.1-0.2-2.2,0-3.3,0.4c0,0.1,1.5-0.2,3.2,0
				S54.1,94.9,54.1,94.8z"/>
			<path id="Trazado_125978" class="st12" d="M116.9,52.3c5.9,2.6,10.2,7.8,11.6,14c1.9,7.9,10.2,40.2,8.5,45s-34.9,9.6-34.9,9.6
				l-3.9-16.6l16.8-4.6c0,0-0.2-15.4-0.4-21.7S116.9,52.3,116.9,52.3z"/>
			<path id="Trazado_125979" class="st10" d="M98.7,106.6l-5.9,1.5l3.5,12.8l5.8-0.3L98.7,106.6z"/>
			<path id="Trazado_125980" class="st14" d="M58.1,117.7l5.3-5.6l10.9-2.8c0,0,10,3,10.3,3s8.7-2.3,8.7-2.3l3,10.9L81,121.9
				l-17.5-0.7c0,0-0.9-0.9-0.4-1.4s-2.9,1-3.3,1s-1.2,0.3-1.7-0.3C57.8,120,57.3,118.5,58.1,117.7z"/>
			<path id="Trazado_125981" class="st15" d="M63.2,119.8c0.6-0.1,1.2-0.3,1.7-0.5c1.1-0.3,2.5-0.8,4.1-1.2s3.1-0.7,4.2-1
				c0.6-0.1,1.2-0.2,1.8-0.4c-0.6,0-1.2,0-1.8,0.1c-2.9,0.4-5.7,1.1-8.4,2.2C64.3,119.2,63.7,119.4,63.2,119.8z"/>
			<path id="Trazado_125982" class="st15" d="M58.1,117.7c0.8-0.2,1.6-0.5,2.4-0.8c1.5-0.5,3.6-1.1,5.9-1.8c1.9-0.7,3.9-1.2,5.9-1.5
				c0.8,0,1.7,0,2.5,0.1c-0.2-0.1-0.4-0.2-0.7-0.2c-0.6-0.1-1.2-0.2-1.9-0.2c-2.1,0.2-4.1,0.7-6,1.4c-2.3,0.7-4.4,1.3-5.9,1.9
				c-0.7,0.3-1.3,0.5-1.7,0.7C58.4,117.4,58.3,117.6,58.1,117.7z"/>
			<path id="Trazado_125983" class="st6" d="M137.2,109.6c0,0.3,0,0.5-0.1,0.8c-0.2,0.7-0.6,1.4-1.2,1.9c-1.4,1.3-4.2,2.5-7.7,3.1
				l0,0c-1.6,0.5-3.4,0.9-5.4,1.4s-4,0.9-6.2,1.3c-4.4,0.9-9.3,1.9-14.5,2.8l0.2,0.1l-1.2-4.8c-0.9-3.8-1.8-7.5-2.7-11l-0.1,0.2
				l15-4.3l0,0c2.1-0.9,4.3-1.3,6.5-1.1c1.7,0.1,3.4,0.5,4.9,1.2c1,0.4,1.9,1,2.8,1.6l0.7,0.5l0.2,0.2c-0.1-0.1-0.1-0.1-0.2-0.2
				c-0.2-0.2-0.5-0.4-0.7-0.5c-0.9-0.7-1.8-1.2-2.8-1.7c-1.6-0.7-3.3-1.1-5-1.2c-2.3-0.1-4.6,0.2-6.7,1.1l0,0l-15,4.2l-0.2,0l0,0.2
				c0.9,3.5,1.7,7.2,2.7,11c0.4,1.7,0.8,3.3,1.2,4.8l0,0.2h0.2c5.2-1,10.1-1.9,14.5-2.9c2.2-0.5,4.3-0.9,6.2-1.4s3.8-0.9,5.4-1.4
				l0,0c3.5-0.7,6.3-1.8,7.7-3.2c0.6-0.5,1-1.2,1.1-2C137.2,110.1,137.2,109.8,137.2,109.6L137.2,109.6z"/>
			<path id="Trazado_125984" class="st6" d="M114.2,100.8c0,0.1,0.6-0.5,1.6-1.1c2.7-1.8,5.8-2.7,9-2.6c1.2,0,2,0.2,2,0.1
				c-0.6-0.2-1.3-0.4-2-0.4c-3.3-0.2-6.5,0.7-9.1,2.7C115.1,99.8,114.6,100.2,114.2,100.8z"/>
			<path id="Trazado_125985" class="st6" d="M112,73.8c0,0.3,0,0.7,0,1c0,0.6,0.1,1.6,0.2,2.8c0.2,2.3,0.5,5.5,1.1,9
				c0.5,3,1.2,6,2.1,8.9c0.2,0.5,0.4,1,0.5,1.5l0.5,1.1c0.1,0.3,0.3,0.6,0.5,0.9c-0.1-0.3-0.2-0.6-0.4-0.9c-0.1-0.3-0.3-0.7-0.4-1.1
				s-0.3-0.9-0.5-1.5c-0.8-2.9-1.5-5.8-2-8.8c-0.6-3.5-1-6.7-1.2-9c-0.1-1.1-0.2-2-0.3-2.8C112.1,74.4,112,74.1,112,73.8L112,73.8z"
				/>
			<path id="Trazado_125986" class="st6" d="M96.8,66c0,0,0.1-0.2,0.2-0.5c0.3-0.5,0.6-0.9,1.1-1.2c0.7-0.5,1.5-0.6,2.3-0.3
				c1,0.3,1.8,1.2,2,2.2l0.1,0.5l0.2-0.5c0.8-1.8,1.6-3.6,2.2-5.5c1.1-3.2,1.6-6.5,1.6-9.8c0-0.6-0.1-1.2-0.1-1.7
				c0-0.4-0.1-0.9-0.2-1.3c-0.1-0.4-0.2-0.7-0.3-1.1c0.3,1.3,0.4,2.7,0.4,4.1c-0.1,3.3-0.6,6.6-1.7,9.7c-0.6,1.9-1.3,3.7-2.2,5.5
				l0.3,0c-0.2-1.2-1.1-2.1-2.2-2.4c-1.6-0.4-3.3,0.5-3.7,2.2c0,0,0,0,0,0C96.8,65.9,96.8,65.9,96.8,66z"/>
			<path id="Trazado_125987" class="st6" d="M78.9,67.6c0.1-0.3,0.1-0.6,0.2-0.9c0.2-0.8,0.2-1.6,0.1-2.4c-0.1-1.2-0.7-2.4-1.6-3.2
				c-0.5-0.5-1.2-0.8-2-0.8c-0.8,0-1.6,0.4-2.1,1l0.3,0.2l0.6-1.7c1.3-3.4,2.4-6.5,3.2-8.7c0.4-1.1,0.7-2,0.9-2.7
				c0.1-0.3,0.2-0.7,0.3-1c-0.2,0.3-0.3,0.6-0.4,0.9c-0.3,0.7-0.6,1.6-1,2.6c-0.9,2.2-2,5.3-3.3,8.7l-0.6,1.7L73,62.5l0.7-0.9
				c0.4-0.6,1.1-0.9,1.8-0.9c0.7,0,1.3,0.3,1.8,0.7c0.9,0.8,1.4,1.8,1.6,3c0.1,0.8,0.1,1.6,0,2.4C78.9,67,78.9,67.3,78.9,67.6
				L78.9,67.6z"/>
			<path id="Trazado_125988" class="st6" d="M66.6,69.4c-0.1,0-1.6,10.1-3.5,22.5s-3.2,22.6-3.1,22.6s1.6-10.1,3.5-22.5
				S66.7,69.4,66.6,69.4z"/>
			<g id="Grupo_61353" transform="translate(96.014 60.74)" class="st5">
				<path id="Trazado_125989" class="st6" d="M8.7,0C8.6,2.8,8,5.6,6.9,8.1c-0.7-1-1.7-1.8-2.8-2.3C2.6,5.5,1.1,6.4,0,7.5
					c0.2-1.1,0.6-2.2,1.3-3.1C2,3.5,3,3,4.2,2.9c1.2,0,2.1,0.8,2.4,2L8.7,0"/>
			</g>
			<path id="Trazado_125990" class="st6" d="M112,65.1c0.1,0,0-0.8,0.3-1.9c0.5-2.4,1.6-4.6,3.4-6.2c0.5-0.5,1.1-0.9,1.7-1.3
				c1-0.6,1.7-0.9,1.7-1c-0.2,0-0.4,0.1-0.5,0.1c-0.2,0.1-0.4,0.1-0.6,0.2c-0.3,0.1-0.5,0.2-0.7,0.4c-0.6,0.4-1.2,0.8-1.8,1.3
				c-0.6,0.6-1.2,1.3-1.7,2c-0.9,1.3-1.5,2.9-1.7,4.4c-0.1,0.5-0.1,1-0.1,1.4C112,64.8,112,64.9,112,65.1z"/>
			<g id="Grupo_61354" transform="translate(60.851 73.854)" class="st5">
				<path id="Trazado_125991" class="st6" d="M5.2,0L0.6,32.6l-0.2,0.5C-0.8,21.8,0.9,10.5,5.2,0L5.2,0z"/>
			</g>
			<path id="Trazado_125992" class="st8" d="M40.4,92.6l15,26.3l37,0.8l0.1,1.7L56.7,121l-1.1,0l-37.9,0.1L10,107.9l-9.8-14
				c-0.4-0.6-0.3-1.5,0.3-1.9c0,0,0,0,0,0c0.2-0.2,0.5-0.3,0.8-0.2l37.8,0.1C39.7,91.8,40.2,92.1,40.4,92.6z"/>
			<path id="Trazado_125993" class="st14" d="M10,107.9c0,0-1.9,1.8-1.6,3.3s0.2,2.6,1.6,2.8c0,1.1,0.8,2.1,1.9,2.3
				c-0.2,1.3,0.7,2.5,2,2.7c0.1,0,0.2,0,0.4,0c0,0,0.8,2.5,2.6,1.9c1-0.3,2-0.8,2.9-1.3l0.5-0.9c0,0,2.6-1,1.9-2.4
				c-0.4-0.9-1.7-1.1-1.7-1.1c0.3-0.7,0.2-1.6-0.2-2.3c-0.6-0.8-2.6-0.1-2.6-0.1c0-0.7-0.2-1.4-0.6-2c-0.7-0.8-3.9,1.4-3.9,1.4
				l-1.7-2.1L10,107.9z"/>
			<path id="Trazado_125994" class="st15" d="M14.3,119c2.2-1.1,4.3-2.4,6.2-3.8C18.3,116.2,16.2,117.5,14.3,119L14.3,119z"/>
			<path id="Trazado_125995" class="st15" d="M11.9,116.2c1-0.4,2-0.9,3-1.6c1-0.5,1.9-1.2,2.8-1.9
				C15.6,113.7,13.7,114.8,11.9,116.2L11.9,116.2z"/>
			<path id="Trazado_125996" class="st15" d="M15.1,111c-0.9,0.3-1.8,0.8-2.6,1.4c-0.9,0.5-1.7,1-2.5,1.6c1-0.3,1.9-0.7,2.7-1.3
				C13.5,112.2,14.4,111.6,15.1,111L15.1,111z"/>
			<path id="Trazado_125997" class="st6" d="M0.3,92.7c0.1,0,0.1,0,0.2,0H3l7.5,0.1l24.8,0.1h1.8c0.5-0.1,1.1,0.2,1.4,0.6
				c0.6,1,1.1,2.1,1.7,3l3.2,5.8l5.4,9.7c1.5,2.8,2.8,5,3.7,6.6l1,1.8l0.3,0.5c0,0.1,0.1,0.1,0.1,0.2c0-0.1,0-0.1-0.1-0.2
				c-0.1-0.1-0.1-0.3-0.2-0.5c-0.2-0.4-0.6-1-1-1.8l-3.6-6.6c-1.5-2.8-3.3-6.1-5.4-9.8c-1-1.8-2.1-3.8-3.2-5.8l-1.7-3.1
				c-0.4-0.6-1-0.9-1.7-0.8h-1.8l-24.8,0.1L3,92.6H0.4L0.3,92.7z"/>
			<path id="Trazado_125998" class="st10" d="M26.9,105.9c0.5,0.7,0.3,1.7-0.4,2.2s-1.7,0.3-2.2-0.4c-0.5-0.7-0.4-1.6,0.2-2.1
				C25.2,105.1,26.3,105.2,26.9,105.9z"/>
			<path id="Trazado_125999" class="st14" d="M81.4,48.5l0.2-6c0,0-7.9-1.7-7.5-9.7c0.2-3.9,1.2-11.8,2.3-19
				c1.1-7.7,7.9-13.2,15.7-12.8l0.8,0c8.3,1,12.1,8.6,10.8,16.9l-1.9,31.5c-0.3,5.5-5,9.7-10.4,9.5l0,0
				C85.7,58.8,81.3,54.1,81.4,48.5z"/>
			<path id="Trazado_126000" class="st15" d="M81.6,42.5c3.7,0.2,7.4-0.6,10.6-2.4c0,0-2.7,5.7-10.6,4.5L81.6,42.5z"/>
			<path id="Trazado_126001" class="st6" d="M77.4,21.4c0,0.6,0.4,1.2,1,1.2c0.6,0.1,1.1-0.3,1.2-0.9l0,0c0-0.6-0.4-1.1-1.1-1.2
				C78,20.4,77.5,20.8,77.4,21.4z"/>
			<path id="Trazado_126002" class="st6" d="M77.8,17.9c0.1,0.2,1-0.4,2.3-0.4s2.1,0.8,2.2,0.6s-0.1-0.3-0.4-0.7
				c-1-0.8-2.5-0.9-3.6-0.2C77.9,17.5,77.8,17.8,77.8,17.9z"/>
			<path id="Trazado_126003" class="st6" d="M89.3,21.9c0,0.6,0.4,1.2,1,1.2c0.6,0.1,1.1-0.3,1.2-0.9l0,0c0-0.6-0.4-1.2-1-1.2
				C89.9,20.8,89.4,21.3,89.3,21.9L89.3,21.9z"/>
			<path id="Trazado_126004" class="st6" d="M89.9,18.8c0.1,0.2,1-0.4,2.3-0.4s2.1,0.8,2.2,0.6s-0.1-0.3-0.4-0.6
				c-0.5-0.4-1.1-0.7-1.8-0.7c-0.6,0-1.3,0.1-1.8,0.5C90,18.5,89.8,18.8,89.9,18.8z"/>
			<path id="Trazado_126005_00000142152887532331077790000009457850917115214522_" class="st6" d="M83.1,23.4
				c-0.4,0.8-0.7,1.6-1,2.3c-0.2,0.4-0.3,0.8-0.2,1.2c0.1,0.2,0.3,0.4,0.5,0.5c0.2,0.1,0.3,0.1,0.5,0.1c0.7,0.1,1.4,0.2,2,0.1
				c-0.6-0.2-1.3-0.4-2-0.5c-0.3,0-0.6-0.1-0.6-0.3c0-0.3,0.1-0.6,0.3-0.9l1.1-2.3L83.1,23.4z"/>
			<path id="Trazado_126006" class="st6" d="M88.4,28.7c-0.2,0-0.3,1.3-1.5,2.2s-2.6,0.6-2.6,0.8s0.3,0.3,0.9,0.3
				c0.8,0.1,1.6-0.2,2.2-0.6c0.6-0.4,1-1.1,1.2-1.8C88.7,29.1,88.6,28.7,88.4,28.7z"/>
			<path id="Trazado_126007" class="st6" d="M89.9,14c0.1,0.3,1.3,0.3,2.8,0.5s2.6,0.7,2.8,0.4c0.1-0.1-0.1-0.5-0.5-0.8
				c-0.6-0.4-1.3-0.7-2-0.9c-0.7-0.1-1.5-0.1-2.2,0.1C90.1,13.6,89.8,13.8,89.9,14z"/>
			<path id="Trazado_126008" class="st6" d="M78.5,14.3c0.2,0.3,1.1,0.1,2.1,0.1s1.9,0.3,2.1,0c0.1-0.1,0-0.4-0.4-0.7
				c-0.5-0.4-1.1-0.6-1.7-0.6c-0.6,0-1.2,0.1-1.7,0.5C78.5,13.9,78.4,14.2,78.5,14.3z"/>
			<path id="Trazado_126009" class="st6" d="M77.4,10.2c0,0,2.4-4.9,4.9-5.9c3-1.2,4.1,2.1,6.9,1.4s5.7-1.8,8.4,0.5
				c3,2.5,1.4,4.1,1.4,7.7c-0.1,14.4,2.3,18.7,3.5,11.9c0.1-0.7,2.2-1.2,2.7-4.3c0.7-4,1.1-9,0.4-11.9c-0.6-2.5-1.9-4.2-4.3-6.2
				C97.5,0.3,92.1-0.1,88.4,0S77.4,3.9,77.4,10.2z"/>
			<path id="Trazado_126010" class="st14" d="M101.9,25.7c0.1-1.2,1.2-2.1,2.4-2c0,0,0,0,0,0h0.1c1.5,0.2,3.1,1.2,2.8,4.3
				c-0.5,5.5-5.9,3.8-5.9,3.7S101.7,28,101.9,25.7z"/>
			<path id="Trazado_126011" class="st15" d="M102.7,29.7c0.1,0.1,0.2,0.1,0.2,0.2c0.2,0.1,0.5,0.1,0.7,0.1c0.8-0.4,1.3-1.2,1.3-2
				c0.1-0.5,0-0.9-0.1-1.4c-0.1-0.4-0.3-0.7-0.6-0.8c-0.2-0.1-0.5,0-0.6,0.2c-0.1,0.2-0.1,0.3-0.1,0.3s-0.1-0.1,0-0.3
				c0-0.1,0.1-0.2,0.2-0.3c0.2-0.1,0.4-0.1,0.5-0.1c0.4,0.1,0.8,0.5,0.9,0.9c0.2,0.5,0.3,1,0.2,1.6c0,1-0.7,1.9-1.6,2.2
				c-0.3,0.1-0.6,0-0.9-0.2C102.6,29.8,102.6,29.7,102.7,29.7z"/>
			<path id="Trazado_126012" class="st6" d="M102.4,15.1c-0.7,0.5-1.5,0.8-2.4,0.9c-0.9,0.1-1.7-0.5-1.9-1.4c0-0.4,0.1-0.8-0.2-1.1
				s-0.8-0.3-1.3-0.3c-1.6,0-3.1-1.1-3.5-2.7c-0.5,0.5-1.4,0.6-2,0.1c-0.5-0.5-1-1.1-1.4-1.7c-0.4-0.6-1.1-1-1.8-1
				C87.7,7.9,87.3,8,86.9,8c-0.7-0.1-1-1-1.1-1.7s-0.1-1.6-0.7-2c-0.6-0.3-1.3-0.4-2-0.2c-0.7,0.1-1.5-0.2-1.6-0.8
				c0-0.4,0.1-0.7,0.3-1c1-1.3,2.8-1.8,4.3-1.1c5.2-0.7,10.5-0.6,15.7,0.4c0.4,0.5,0.6,1,0.8,1.5c1.9-0.4,3.8,0.9,4.2,2.8
				c0.2,0.9,0,1.8-0.5,2.6c1,0.6,1.6,1.6,1.7,2.8c0,1.1-0.9,1.9-2,1.9c-0.1,0-0.2,0-0.3,0c0.4,1,0,2.2-1,2.6c-0.9,0.4-2,0.1-2.5-0.8
				l0,0"/>
			<path id="Trazado_126013" class="st4" d="M85.6,2.9L85.6,2.9c0,0.2,0,0.3,0,0.4c0.1,0.4,0.2,0.7,0.3,1.1c0.3,0.5,0.7,1,1.1,1.4
				c0.6,0.5,1.4,0.8,2.2,0.8l-0.1-0.1c-0.2,0.5-0.2,1,0,1.5c0.2,0.5,0.5,1,0.9,1.4c0.2,0.2,0.4,0.5,0.6,0.7c0.2,0.2,0.5,0.3,0.9,0.4
				c0.7,0.1,1.3-0.1,1.8-0.5L93,9.8c0.1,1.2,0.7,2.2,1.6,2.9c0.5,0.4,1.1,0.7,1.8,0.7c0.6,0,1.2-0.1,1.8-0.3L98,13
				c0.2,0.7,0.7,1.3,1.2,1.8c0.5,0.5,1.2,0.7,1.9,0.6c1.2-0.2,2.2-1.1,2.5-2.2l-0.1,0.1c0.6,0.3,1.2,0.5,1.9,0.4
				c0.5-0.1,1-0.2,1.4-0.5c0.2-0.2,0.5-0.4,0.7-0.6c0.1-0.2,0.2-0.3,0.2-0.3c-0.2,0.3-0.5,0.6-0.9,0.8c-0.4,0.2-0.8,0.4-1.3,0.5
				c-0.6,0.1-1.2-0.1-1.8-0.4l-0.1-0.1v0.1c-0.3,1.1-1.2,1.9-2.3,2.1c-0.6,0.1-1.3-0.2-1.7-0.6c-0.5-0.5-0.9-1-1.1-1.7l0-0.1h-0.1
				c-0.6,0.2-1.1,0.3-1.7,0.3c-0.6,0-1.2-0.3-1.6-0.7c-0.9-0.7-1.4-1.7-1.5-2.8V9.5l-0.2,0.2c-0.6,0.6-1.6,0.7-2.3,0.1
				c-0.2-0.2-0.4-0.4-0.5-0.6c-0.3-0.4-0.6-0.9-0.8-1.3c-0.2-0.4-0.2-0.9,0-1.4l0-0.1h-0.1c-0.8,0-1.5-0.2-2.1-0.7
				c-0.5-0.3-0.9-0.8-1.1-1.3C85.9,3.9,85.7,3.4,85.6,2.9z"/>
			<path id="Trazado_126014" class="st6" d="M82.8,22.3c0.2-0.4,0.3-0.8,0.4-1.3c0.5-2.9-1.4-5.7-4.3-6.2c-0.2,0-0.3,0-0.5-0.1
				c-0.5,0-1,0-1.5,0.1c-0.5,0.1-1,0.3-1.5,0.6c-2,1.1-3.1,3.4-2.6,5.7c0.2,1,0.7,2,1.5,2.7c1.3,1.3,3.1,1.8,4.9,1.4
				c1.2-0.3,2.2-0.9,3-1.8C82.4,23.1,82.6,22.8,82.8,22.3c0,0.2-0.1,0.3-0.1,0.4c-0.1,0.1-0.1,0.3-0.2,0.4c-0.1,0.2-0.2,0.3-0.3,0.5
				c-1.3,1.7-3.5,2.4-5.6,1.9c-1-0.2-1.8-0.7-2.5-1.4c-0.4-0.4-0.7-0.8-1-1.3c-0.3-0.5-0.5-1-0.6-1.5c-0.5-2.4,0.6-4.8,2.7-5.9
				c0.5-0.3,1-0.5,1.5-0.6c0.5-0.1,1.1-0.1,1.6-0.1c3,0.2,5.2,2.9,5,5.9c0,0.2,0,0.4-0.1,0.6c0,0.2-0.1,0.4-0.1,0.6
				c0,0.1-0.1,0.3-0.1,0.4C82.9,22.2,82.9,22.3,82.8,22.3L82.8,22.3z"/>
			<path id="Trazado_126015" class="st6" d="M97,23.1c0.1-0.4,0.3-0.8,0.4-1.3c0.2-1.2,0-2.4-0.6-3.5c-0.4-0.7-0.9-1.4-1.6-1.8
				c-0.8-0.6-1.7-0.9-2.6-1c-0.5,0-1,0-1.5,0.1c-0.5,0.1-1,0.3-1.5,0.6c-2.6,1.4-3.5,4.7-2.1,7.2c1.1,2.1,3.5,3.1,5.8,2.6
				c1.2-0.3,2.2-0.9,3-1.8C96.5,23.9,96.8,23.5,97,23.1c0,0.1-0.1,0.2-0.1,0.3c-0.1,0.1-0.1,0.2-0.2,0.4c-0.1,0.2-0.2,0.3-0.3,0.5
				c-0.8,1-1.8,1.7-3,1.9c-1.8,0.4-3.7-0.1-5.1-1.4c-0.4-0.4-0.7-0.8-1-1.3c-1.5-2.7-0.5-6,2.2-7.5c0,0,0,0,0,0
				c0.5-0.3,1-0.5,1.5-0.6c0.5-0.1,1.1-0.1,1.6-0.1c3,0.2,5.2,2.9,5,5.9c0,0.2,0,0.4-0.1,0.6c0,0.2-0.1,0.4-0.1,0.6
				c0,0.1-0.1,0.3-0.1,0.4C97.1,22.9,97,23,97,23.1z"/>
			<path id="Trazado_126016" class="st6" d="M86.6,19.7c-1-0.6-2.3-0.7-3.3-0.2c0.1-0.1,0.3-0.2,0.4-0.3c0.8-0.4,1.7-0.3,2.5,0.1
				C86.5,19.5,86.7,19.7,86.6,19.7z"/>
			<path id="Trazado_126017" class="st6" d="M102.4,24.2c-0.9-0.3-1.7-0.7-2.5-1.2c-0.8-0.4-1.7-0.9-2.4-1.4
				c0.9,0.3,1.7,0.7,2.5,1.2C100.8,23.2,101.7,23.7,102.4,24.2L102.4,24.2z"/>
		</g>
		<g id="Grupo_58081" transform="translate(0 0)">
			<g id="Grupo_58080" transform="translate(0 0)">
				<g id="Grupo_58077" transform="translate(5.46 5.89)" class="st16">
					<path id="Trazado_108254" class="st17" d="M2.9,0h89.9c1.6,0,2.9,1.4,2.9,3v39.4c0,1.6-1.3,3-2.9,3H91l4,12.5L69.6,45.4H2.9
						c-1.6,0-2.9-1.4-2.9-3V3C0,1.4,1.3,0,2.9,0z"/>
				</g>
				<path id="Trazado_108255" class="st18" d="M2.9,0h89.9c1.6,0,2.9,1.4,2.9,3v39.4c0,1.6-1.3,3-2.9,3H91l4,12.5L69.6,45.5H2.9
					c-1.6,0-2.9-1.4-2.9-3V3C0,1.4,1.3,0,2.9,0z"/>
				<g id="Grupo_58079" transform="translate(6.873 9.81)">
					<path id="Trazado_108256" class="st11" d="M46.9,13.6H1.6c-1-0.2-1.7-1.1-1.6-2.1c0.1-0.8,0.8-1.5,1.6-1.6h45.4
						c1,0.2,1.7,1.1,1.6,2.1C48.4,12.8,47.8,13.5,46.9,13.6z"/>
					<path id="Trazado_108257" class="st11" d="M14.4,3.1c0-1,0.8-1.8,1.8-1.8c0,0,0,0,0,0h30.7c1,0.2,1.7,1.1,1.6,2.1
						c-0.1,0.8-0.8,1.5-1.6,1.6H16.2C15.2,5,14.4,4.1,14.4,3.1C14.4,3.1,14.4,3.1,14.4,3.1z"/>
					<path id="Trazado_108258" class="st11" d="M1.6,1.3h8.1c1,0,1.9,0.8,1.9,1.8c0,0,0,0,0,0l0,0c0,1-0.8,1.8-1.9,1.8l0,0H1.6
						C0.6,4.8-0.1,3.9,0,2.8C0.1,2,0.8,1.4,1.6,1.3z"/>
					<path id="Trazado_108259" class="st11" d="M30.9,20.3c0-1,0.8-1.8,1.9-1.8l0,0h14.2c1,0.2,1.7,1.1,1.6,2.1
						c-0.1,0.8-0.8,1.5-1.6,1.6H32.7C31.7,22.2,30.9,21.4,30.9,20.3C30.9,20.3,30.9,20.3,30.9,20.3L30.9,20.3z"/>
					<path id="Trazado_108260" class="st11" d="M1.6,18.5h24.6c1,0,1.9,0.8,1.9,1.8c0,0,0,0,0,0l0,0c0,1-0.8,1.8-1.9,1.8l0,0H1.6
						c-1-0.2-1.7-1.1-1.6-2.1C0.1,19.3,0.8,18.6,1.6,18.5L1.6,18.5z"/>
					<g id="Grupo_58078" transform="translate(55.747)">
						<path id="Trazado_108261" class="st11" d="M0,12c0,6.6,5.4,12,12,12s12-5.4,12-12S18.6,0,12,0S0,5.4,0,12z"/>
						<path id="Trazado_108262" class="st11" d="M1.7,12c0,1.5,0.3,3,1,4.4l0,0c2.4,5.1,8.5,7.3,13.7,4.8c2.1-1,3.8-2.7,4.8-4.8l0,0
							c0.7-1.4,1-2.9,1-4.4c-0.2-5.7-4.9-10.1-10.6-9.9C6.3,2.2,1.9,6.6,1.7,12L1.7,12z"/>
					</g>
				</g>
			</g>
		</g>
	</g>
</g>
</svg>
