<svg xmlns="http://www.w3.org/2000/svg" width="390.349" height="639.387" viewBox="0 0 390.349 639.387">
  <g id="Grupo_131774" data-name="Grupo 131774" transform="translate(-180 -3765.587)">
    <g id="Grupo_129539" data-name="Grupo 129539" transform="translate(-62.441 2464.587)">
      <g id="Grupo_129289" data-name="Grupo 129289" transform="translate(242.442 1304.019)">
        <path id="Trazado_165948" data-name="Trazado 165948" d="M419.676,678.907c14.767-38.025,18.969-87.375,11.149-130.953-4.944-27.551-14.431-53.147-15.644-81.878-2.426-57.442,28.156-103.882,34.5-160.455,2.789-24.863-.254-53.829-12.207-68.932-11.806-14.917-28.657-11.872-42.022-1.425s-24.675,27.17-37.509,39.4-28.634,19.783-42.186,10.054c-13.727-9.856-21.513-34.7-25.875-58.913s-6.5-50-13.946-71.939C263.669,117.709,237.512,98,213.137,103.1S166.983,136.14,155.3,172.85s-13.723,81.111-7.908,121.657c2.95,20.564,7.809,40.257,10.459,60.94s2.892,43.319-3.023,61.948c-12.37,38.955-45.005,44.388-62.095,77.8-14.1,27.572-14.547,69.649-6.543,103.557s23.048,61.419,38.047,87.594c69.959,4,141.172,4.261,211.131,8.257C362.558,696.152,392.518,681.624,419.676,678.907Z" transform="translate(-80.961 -99.317)" fill="#a4a4b4" opacity="0.354" style="mix-blend-mode: multiply;isolation: isolate"/>
        <path id="Trazado_165949" data-name="Trazado 165949" d="M359.21,177.148c-.16,17.148,16.141,32.072,13.3,48.984-1.517,9.049-8.412,18.222-4.4,26.475,3.545,7.3,13.7,8.57,21.463,6.2,18.173-5.56,29.218-24.135,34.5-42.391,4.969-17.171,6.2-36.351-1.755-52.359-6.412-12.9-21.206-24.283-36.229-23.23C372.328,141.788,359.33,164.231,359.21,177.148Z" transform="translate(-37.695 -22.811)" fill="#a4a4b4" opacity="0.31" style="mix-blend-mode: multiply;isolation: isolate"/>
        <path id="Trazado_165950" data-name="Trazado 165950" d="M115.424,142.792a64.935,64.935,0,0,0-1.3,63.186c3.333,6.116,7.835,11.816,13.914,15.217s13.92,4.16,19.971.709c9.176-5.234,11.205-17.58,10.475-28.118s-3.118-21.587.94-31.339c2.646-6.357,7.726-11.314,12.232-16.52s8.713-11.283,8.946-18.165c.6-17.84-18.337-16.507-29.751-12.8A64.871,64.871,0,0,0,115.424,142.792Z" transform="translate(-71.083 -102.901)" fill="#a4a4b4" opacity="0.31" style="mix-blend-mode: multiply;isolation: isolate"/>
        <g id="Grupo_128901" data-name="Grupo 128901" transform="translate(4.542 0)" style="mix-blend-mode: multiply;isolation: isolate">
          <path id="Trazado_151849" data-name="Trazado 151849" d="M419.708,690.366l-1.525-2.332c4.2-7.682,10.892-25.292,8.625-56.954-1.009-14.094-3.51-28.017-5.929-41.48-1.08-6.015-2.2-12.235-3.173-18.411-10.4-65.9-5.852-138.6,12.485-199.449,1.629-5.4,3.391-10.819,5.1-16.058,5.054-15.533,10.28-31.6,12.527-48.948,3.941-30.449-3.85-53.271-12.756-61.589-8.545-7.985-20.606-6.764-33.09,3.35a164.627,164.627,0,0,0-13.3,12.6c-5.673,5.783-11.538,11.762-17.836,15.995-24.778,16.656-55.758,2.5-72.059-32.921-7.834-17.022-12.258-37.594-16.536-57.49-1.657-7.709-3.372-15.682-5.256-23.311-5.863-23.717-16.593-53.487-34.418-60.608-15.662-6.26-31.525,7.5-42.072,20.141-20.18,24.19-34.4,56.952-40.055,92.247-3.81,23.8-3.963,49.707-4.112,74.759-.221,37.309-.449,75.888-13.025,106.957-5.721,14.134-13.59,25.411-21.2,36.318-7.126,10.214-14.5,20.776-19.989,33.578-12.447,29.008-15.5,70.076-8.371,112.675,6.4,38.274,19.46,72.235,32.086,105.079l-1.735,1.87c-12.708-33.057-25.849-67.24-32.337-106.016-7.3-43.617-4.133-85.762,8.682-115.626,5.639-13.141,13.1-23.84,20.321-34.187,7.506-10.758,15.267-21.883,20.831-35.63,12.226-30.207,12.441-66.562,12.669-105.051.15-25.269.3-51.4,4.184-75.623,5.773-36.065,20.28-69.5,40.846-94.163,10.9-13.061,27.331-27.254,43.753-20.691,18.672,7.46,29.8,38.186,35.845,62.649,1.9,7.7,3.627,15.715,5.292,23.462,4.224,19.643,8.59,39.957,16.228,56.549,15.758,34.241,45.7,47.923,69.658,31.823,6.138-4.126,11.93-10.029,17.532-15.738a165.922,165.922,0,0,1,13.471-12.758c13.1-10.608,25.851-11.8,34.994-3.258,9.55,8.922,17.932,33.175,13.768,65.343-2.31,17.838-7.608,34.122-12.733,49.871-1.7,5.216-3.453,10.608-5.065,15.96C413.921,433.4,409.426,505.211,419.7,570.3c.965,6.12,2.078,12.312,3.153,18.3,2.444,13.6,4.972,27.672,6,42.065C431.223,663.7,424.14,682.251,419.708,690.366Z" transform="translate(-87.906 -97.739)" fill="#a4a4b4"/>
        </g>
      </g>
    </g>
    <g id="freepik--Character--inject-258" transform="translate(240.919 3765.587)">
      <path id="Trazado_122355" data-name="Trazado 122355" d="M15513.023,10095.6l-2.725-12.816,33.324-3.687,1.92,18.744-11.535,7.208Z" transform="translate(-15325.588 -9514.136)" fill="#ffcdb0"/>
      <path id="Trazado_122356" data-name="Trazado 122356" d="M15581.6,10068.224l4.484,55.269,25.313-3.684,1.764-54.308Z" transform="translate(-15507.426 -9522.324)" fill="#ffcdb0"/>
      <path id="Trazado_122357" data-name="Trazado 122357" d="M15244.949,9879.921s-17.014,13.729-26.48,3.636l-1.89,5.364-7.45,37.807a4.935,4.935,0,0,0,8.459,4.393c6.873-7.387,32.039-34.669,31.494-38.081l-.785-9.083A4.641,4.641,0,0,0,15244.949,9879.921Z" transform="translate(-15140.818 -9293.361)" fill="#12263f"/>
      <g id="Grupo_60794" data-name="Grupo 60794" transform="translate(72.57 596.507)" opacity="0.6">
        <path id="Trazado_122358" data-name="Trazado 122358" d="M15209,9928.92l35.516-42.788.128,1.986c.352,2.146-.545,3.075-1.489,4.533-2.8,4.312-10.75,14.1-29.764,34.715a5.069,5.069,0,0,1-4.394,1.6Z" transform="translate(-15209 -9886.132)" fill="#6595bf" stroke="#5e6178" stroke-miterlimit="10" stroke-width="0"/>
      </g>
      <g id="Grupo_60795" data-name="Grupo 60795" transform="translate(100.844 590.307)" opacity="0.6">
        <path id="Trazado_122359" data-name="Trazado 122359" d="M15211.146,9882.966a2.9,2.9,0,0,0-.541,3.859,2.934,2.934,0,0,0,3.923.545,2.786,2.786,0,1,0-3.078-4.646,3.086,3.086,0,0,0-.513.433" transform="translate(-15210.102 -9882.26)" fill="#6595bf" stroke="#5e6178" stroke-miterlimit="10" stroke-width="0"/>
      </g>
      <path id="Trazado_122360" data-name="Trazado 122360" d="M15235.415,9901.394c-.271.145-1.6-2.227-4.485-3.349s-5.542-.354-5.623-.643.546-.527,1.6-.752a7.827,7.827,0,0,1,4.373.433,7.531,7.531,0,0,1,3.446,2.658A5.783,5.783,0,0,1,15235.415,9901.394Z" transform="translate(-15153.23 -9283.371)" fill="#344154"/>
      <path id="Trazado_122361" data-name="Trazado 122361" d="M15236.5,9904.728c-.224.224-1.874-1.187-4.405-1.716a45.454,45.454,0,0,0-4.808-.256c-.157-.258,2.1-1.394,4.984-.753S15236.819,9904.582,15236.5,9904.728Z" transform="translate(-15157.519 -9280.186)" fill="#344154"/>
      <path id="Trazado_122362" data-name="Trazado 122362" d="M15235.568,9896.045c-.209.242-2.739-1.937-6.614-3.09s-7.226-.8-7.257-1.123,3.426-1.154,7.576.129S15235.73,9895.9,15235.568,9896.045Z" transform="translate(-15147.621 -9286.528)" fill="#344154"/>
      <path id="Trazado_122363" data-name="Trazado 122363" d="M15234.29,9887.735c-.111.308-2.852-.591-6.312-.479s-6.166,1.121-6.278.85,2.516-1.795,6.248-1.876S15234.452,9887.466,15234.29,9887.735Z" transform="translate(-15146.341 -9289.563)" fill="#344154"/>
      <path id="Trazado_122364" data-name="Trazado 122364" d="M15229.122,9890.17a4.137,4.137,0,0,1,.142-1.778,12.211,12.211,0,0,1,1.991-4.47,5.638,5.638,0,0,1,2.688-2.355,1.982,1.982,0,0,1,2.177.676,3.042,3.042,0,0,1,.514,2.193,6.966,6.966,0,0,1-6.808,5.605,8,8,0,0,1-7.447-4.949,2.74,2.74,0,0,1,.127-2.274,1.987,1.987,0,0,1,2.145-.785,6.765,6.765,0,0,1,2.983,1.938,13.3,13.3,0,0,1,2.852,3.974,3.938,3.938,0,0,1,.544,1.7,21.107,21.107,0,0,0-3.927-5.144,6.224,6.224,0,0,0-2.626-1.6,1.085,1.085,0,0,0-1.168.417,1.9,1.9,0,0,0,0,1.5,7.259,7.259,0,0,0,6.5,4.229,6.085,6.085,0,0,0,5.863-4.692,2.159,2.159,0,0,0-.308-1.6,1.055,1.055,0,0,0-1.183-.387,5.063,5.063,0,0,0-2.326,1.936,18.167,18.167,0,0,0-2.734,5.863Z" transform="translate(-15149.501 -9292.43)" fill="#344154"/>
      <path id="Trazado_122365" data-name="Trazado 122365" d="M15167.677,9655.04c0,1.188-12.366,43-12.366,43s-20.025,39.953-13.553,64.687c3.573,13.633,19.673,98.923,19.673,98.923s6.119,65.024,9.611,93.061,4.806,43.077,4.806,43.077l30.679-1.234,7.208-125.4,2.275-98.474,40.771,123.977s8.7,38.3,13.439,54.469,15.46,50.575,15.46,50.575l33.113-4.9s-3.573-60.283-6.728-74.894-13.619-67.076-13.619-67.076l-9.274-50.99-9.933-83-8.634-31.911-10.733-36.093Z" transform="translate(-15100.713 -9430.067)" fill="#12263f"/>
      <path id="Trazado_122366" data-name="Trazado 122366" d="M15106.364,9625.534s1.185-4.2,3.891-5.655,14.755-.977,17.3-.977,10.685-3.061,14.418,0a2.464,2.464,0,0,1-1.6,3.2h-.307c-4.406.881-12.559,2.6-12.191,3.2s14.3-.944,17.19,0l20.7-.5s3.635,3.365.271,4.7v2.738a9.1,9.1,0,0,1-3.575,1.6c-2.707.815.179,2.434-3.379,3.2a31.853,31.853,0,0,1-7.3.658l-.336,1.6a11.725,11.725,0,0,1-3.557,1.124c-2.882.655-35.1,0-35.1,0l-16.452,5.222-2.37-16.212Z" transform="translate(-14874.875 -9451.311)" fill="#ffcdb0"/>
      <path id="Trazado_122367" data-name="Trazado 122367" d="M15119.3,9622.023c0,.3,3.928.672,8.011,2.994a14.928,14.928,0,0,1,4.487,3.893c.446.722.928,1.411,1.44,2.084a4.51,4.51,0,0,0-.96-2.4,12.954,12.954,0,0,0-4.533-4.312,17.835,17.835,0,0,0-5.88-2.1A6.513,6.513,0,0,0,15119.3,9622.023Z" transform="translate(-14881.244 -9448.647)" fill="#eb996e"/>
      <path id="Trazado_122368" data-name="Trazado 122368" d="M15103.888,9629.24a32.284,32.284,0,0,0,7.226.478,16.065,16.065,0,0,1,4.932.339,4.58,4.58,0,0,1,1.6,1.2c.129,0,0-1.041-1.313-1.73a12.3,12.3,0,0,0-5.176-.639,31.526,31.526,0,0,0-7.271.353Z" transform="translate(-14841 -9444.522)" fill="#eb996e"/>
      <path id="Trazado_122369" data-name="Trazado 122369" d="M15098.045,9626.245a14.131,14.131,0,0,0,3.333.689,38.713,38.713,0,0,0,8.268.368,21.375,21.375,0,0,1,8.007.369,4.9,4.9,0,0,1,2.084,1.072c.385.386.335.737.414.737s.227-.384-.159-.944a4.45,4.45,0,0,0-2.145-1.426,11.7,11.7,0,0,0-3.7-.751,39.539,39.539,0,0,0-4.564.111,53.13,53.13,0,0,1-8.137-.129,13.307,13.307,0,0,0-3.4-.1Z" transform="translate(-14834.196 -9446.111)" fill="#eb996e"/>
      <path id="Trazado_122370" data-name="Trazado 122370" d="M15095.1,9624.188a17.142,17.142,0,0,0,3.605.29c2.227,0,5.3.11,8.7.11,1.7,0,3.316-.145,4.8-.128a21.848,21.848,0,0,1,3.828.241,6.018,6.018,0,0,1,2.4.738c.48.319.611.654.674.621s0-.415-.48-.881a5.38,5.38,0,0,0-2.48-1.073,19.11,19.11,0,0,0-3.943-.416c-1.488,0-3.107.095-4.8,0-3.381,0-6.408,0-8.668.127A14.816,14.816,0,0,0,15095.1,9624.188Z" transform="translate(-14828.367 -9447.61)" fill="#eb996e"/>
      <path id="Trazado_122371" data-name="Trazado 122371" d="M15608.933,9798.723l15.861,19.335-3.685,7.979-18.584,1.378-19.062-3.141-10.574-3.813-6.888-17.524,2.243-13.825,7.369.3Z" transform="translate(-15494.071 -9688.706)" fill="#ffcdb0"/>
      <path id="Trazado_122372" data-name="Trazado 122372" d="M15247.17,9593.529s1.267,6.28-10.125,6.648-40.722-6.648-40.722-6.648l-23.9,42.147,25.36,55.061,78.962-2.18V9674.8s6.873-4.712,7.608-19.225a60.487,60.487,0,0,0-3.621-24.621Z" transform="translate(-15117.568 -9465.764)" fill="#e8e8e8" stroke="#5e6178" stroke-miterlimit="10" stroke-width="0"/>
      <path id="Trazado_122373" data-name="Trazado 122373" d="M15130.406,9581.719s21.787,3.731,24.509,5.094,13.619,13.617,17.016,22.123,6.405,29.268,6.405,29.268,8.507,12.254,8.507,14.289v5.448s6.408,9.869,6.408,10.893v1.023l41.988-23.821,15.877,28.58s-36.847,26.385-54.468,37.116a10.238,10.238,0,0,1-13.6-2.738h0l13.874,86.51-8.683,1.358-19.367-98.232v-13.762s13.984-14.419,2.194-34.012c-4.1-6.793-16.02-25.184-22.429-34.362s-22.685-28.98-22.685-28.98v-10.6Z" transform="translate(-15009.774 -9475.772)" fill="#b42218"/>
      <path id="Trazado_122374" data-name="Trazado 122374" d="M15252.07,9574.4l-10.768,1.795-5.013,6.1s-30.323,7.66-33.914,12.321,18.552,64.079,18.552,64.079l11.422,48.332s-17.525,47.866-18.919,71.5l81.285,24.208s2.516-81.7,0-96.426-12.543-52.336-19.352-68.114-24.03-49.821-24.03-50.895S15252.07,9574.4,15252.07,9574.4Z" transform="translate(-15176.294 -9477.28)" fill="#b42218"/>
      <g id="Grupo_60796" data-name="Grupo 60796" transform="translate(54.602 217.529)" opacity="0.3">
        <path id="Trazado_122375" data-name="Trazado 122375" d="M15203.919,9666.813a5.99,5.99,0,0,1,2.705-2.31c8.013-4.2,17.447-4.693,25.954-7.8,8.089-2.947,16.021-8.331,24.493-6.9,3.318.56,4.968.542,8.283,1.151l.608,2.724c-5.158,2.709-14.033.146-18.888,3.365a53.6,53.6,0,0,0-4.483,4.067,27.808,27.808,0,0,1-6.409,3.735q-6.825,3.2-13.811,6.054c-4.4,1.826-9.179,3.589-13.825,2.5a7.276,7.276,0,0,1-3.973-2.243A4.1,4.1,0,0,1,15203.919,9666.813Z" transform="translate(-15203.571 -9649.563)" fill="#344154"/>
      </g>
      <path id="Trazado_122376" data-name="Trazado 122376" d="M15255.408,9583.9c1.217.48,14.593,25.774,17.7,38.446s-11.806,51.264-11.806,51.264l45.878-3.059,4.455,22.637s-42.26,15.217-56.228,18.646-27.972,5.59-32.042,0a30.145,30.145,0,0,1-4.967-11.5l6.218-47.533,5.958-30.164s.625-13.36,3.732-21.131S15250.762,9582.021,15255.408,9583.9Z" transform="translate(-15218.399 -9471.686)" fill="#b42218"/>
      <path id="Trazado_122377" data-name="Trazado 122377" d="M15202.443,9689.421a4.007,4.007,0,0,0,.143-1.057c0-.785.129-1.795.225-3.045.177-2.738.416-6.536.705-11.214a12.6,12.6,0,0,1,.8-3.509,22.994,22.994,0,0,1,2.082-3.365,14.971,14.971,0,0,0,2.74-8.537,41.315,41.315,0,0,0-4.935-19.768,164.029,164.029,0,0,0-10.732-17.365c-3.427-5.238-6.409-10.044-9.084-13.954a97.028,97.028,0,0,0-6.744-8.985c-.864-1.011-1.6-1.78-2.05-2.275a5.1,5.1,0,0,0-.772-.736,10.511,10.511,0,0,0,.644.847l1.938,2.355c1.6,2.082,3.91,5.158,6.5,9.116s5.513,8.779,8.925,14.049a173.641,173.641,0,0,1,10.619,17.333,40.894,40.894,0,0,1,4.968,19.369,14.392,14.392,0,0,1-2.531,8.169,24.066,24.066,0,0,0-2.117,3.51,12.884,12.884,0,0,0-.8,3.717c-.24,4.8-.354,8.569-.432,11.214v3.044a8.256,8.256,0,0,0-.092,1.088Z" transform="translate(-15046.087 -9464.512)" fill="#344154"/>
      <path id="Trazado_122378" data-name="Trazado 122378" d="M15182.208,9597.651a5.062,5.062,0,0,0,.351.944,24.04,24.04,0,0,0,1.313,2.6,50.58,50.58,0,0,0,6.521,8.425,92.5,92.5,0,0,1,10.046,12.046,70.587,70.587,0,0,1,8.006,17.35,89.577,89.577,0,0,1,2.518,9.611,32.931,32.931,0,0,1,1.041,9.115c-.126,2.917-1.424,5.449-2.177,8.012a23.816,23.816,0,0,0-.722,7.369c.1,4.485,0,8.105-.145,10.62q-.1,1.764-.144,2.883v1.009a3.426,3.426,0,0,0,.173-.992c.083-.658.2-1.6.309-2.884.209-2.5.432-6.137.417-10.636a23.07,23.07,0,0,1,.783-7.18,31.675,31.675,0,0,0,2.275-8.17,33.257,33.257,0,0,0-.992-9.34,93.873,93.873,0,0,0-2.336-9.612,68.982,68.982,0,0,0-8.237-17.524,87.541,87.541,0,0,0-10.254-12.028,54.6,54.6,0,0,1-6.666-8.2C15183.007,9598.9,15182.366,9597.618,15182.208,9597.651Z" transform="translate(-15061.576 -9463.283)" fill="#344154"/>
      <path id="Trazado_122379" data-name="Trazado 122379" d="M15192.039,9596.6a5.152,5.152,0,0,0,.287.963c.34.894.707,1.776,1.125,2.642a63.63,63.63,0,0,0,5.461,9.021c2.547,3.651,5.816,7.815,8.875,12.813a80.922,80.922,0,0,1,8.156,17.126,66.118,66.118,0,0,1,3.2,18.665c.258,5.848,0,11.213,0,15.587s0,8.01.145,10.526a25.127,25.127,0,0,0,.223,2.868,4.845,4.845,0,0,0,.146.977,5.272,5.272,0,0,0,0-.993v-2.852c0-2.483,0-6.071.127-10.526s.352-9.724.145-15.618a65.848,65.848,0,0,0-3.2-18.889,79.547,79.547,0,0,0-8.221-17.284c-3.123-5.015-6.406-9.163-9.051-12.816a71,71,0,0,1-5.652-8.812c-.58-1.105-.98-1.97-1.252-2.562A4.58,4.58,0,0,0,15192.039,9596.6Z" transform="translate(-15084.545 -9463.917)" fill="#344154"/>
      <path id="Trazado_122380" data-name="Trazado 122380" d="M15198.5,9595.651a4.646,4.646,0,0,0,.126.978c.161.945.372,1.874.611,2.788a66.222,66.222,0,0,0,3.46,9.868c1.745,4.068,4.183,8.746,6.857,13.921a117.122,117.122,0,0,1,7.593,17.287,197.643,197.643,0,0,1,8.009,33.4c.627,4.374.853,7.914,1.061,10.381a6.9,6.9,0,0,0,.785,2.755,2.294,2.294,0,0,0,.657.752,4.228,4.228,0,0,1-.517-.832,7.524,7.524,0,0,1-.6-2.709c-.1-2.449-.243-6.036-.787-10.41a181.043,181.043,0,0,0-7.8-33.642,110.709,110.709,0,0,0-7.7-17.382c-2.708-5.176-5.19-9.788-6.985-13.81a75.891,75.891,0,0,1-3.7-9.725C15198.819,9596.964,15198.662,9595.634,15198.5,9595.651Z" transform="translate(-15102.541 -9464.489)" fill="#344154"/>
      <path id="Trazado_122381" data-name="Trazado 122381" d="M15162.953,9664.287c.129,0-.159-1.762-.3-4.6a48.485,48.485,0,0,1,.639-11.006,28.531,28.531,0,0,1,3.526-10.35,15.056,15.056,0,0,1,3.109-3.2,2.88,2.88,0,0,0-1.139.543,9.706,9.706,0,0,0-2.465,2.387,26.216,26.216,0,0,0-3.848,10.541,40.555,40.555,0,0,0-.412,11.213,16.921,16.921,0,0,0,.891,4.473Z" transform="translate(-14986.094 -9440.722)" fill="#344154"/>
      <path id="Trazado_122382" data-name="Trazado 122382" d="M15216.585,9673.936a3.543,3.543,0,0,0,.641-.912,17.618,17.618,0,0,0,1.33-2.917,23.772,23.772,0,0,0,.8-11.663,64.111,64.111,0,0,0-5.765-16.4c-2.773-5.913-5.56-12.527-9.1-19.224a63.6,63.6,0,0,0-6.026-9.29,91.416,91.416,0,0,0-6.968-7.547c-4.8-4.518-7.656-9.612-10.523-13.681s-5.351-7.178-7.145-9.275c-.9-1.058-1.6-1.858-2.116-2.388a4.009,4.009,0,0,0-.783-.786,8.557,8.557,0,0,0,.654.883l1.987,2.5c1.715,2.16,4.15,5.318,6.9,9.4s5.721,9.307,10.477,13.873a94.6,94.6,0,0,1,6.872,7.529,61.763,61.763,0,0,1,5.928,9.181c3.526,6.632,6.408,13.247,9.133,19.224a64.772,64.772,0,0,1,5.89,16.18,24.349,24.349,0,0,1-.525,11.471,27.03,27.03,0,0,1-1.666,3.845Z" transform="translate(-15050.459 -9474.001)" fill="#344154"/>
      <path id="Trazado_122383" data-name="Trazado 122383" d="M15174.291,9684.1a6.975,6.975,0,0,0-.194-1.81c-.191-1.152-.5-2.819-.9-4.807-.88-4.277-2.031-9.835-3.315-16.02a109.511,109.511,0,0,1-2.229-16.132c-.188-4.15,0-6.73-.142-6.744a10.251,10.251,0,0,0-.255,1.809c0,.579-.113,1.3-.146,2.13s0,1.78,0,2.819a89.193,89.193,0,0,0,1.935,16.263c1.236,6.264,2.629,11.854,3.561,15.924q.674,2.865,1.152,4.806a8.334,8.334,0,0,0,.525,1.765Z" transform="translate(-14998.871 -9438.641)" fill="#344154"/>
      <path id="Trazado_122384" data-name="Trazado 122384" d="M15209.383,9579.76a7.293,7.293,0,0,0,0,1.187,32.979,32.979,0,0,0,.3,3.4,119.715,119.715,0,0,0,2.081,12.387,121.15,121.15,0,0,0,5.5,17.8c1.293,3.2,2.8,6.632,4.516,10.028a26.166,26.166,0,0,0,1.426,2.595,4.6,4.6,0,0,0,2.736,1.6l5.8,1.457,1.876.464-.146-.735-6.809,5-.336.241.258.335,20.905,27.233,6.232,8.012,1.713,2.115a5.268,5.268,0,0,0,.623.7,4.147,4.147,0,0,0-.513-.8l-1.6-2.191-6.04-8.14-20.681-27.395v.579l6.808-4.984.72-.527-.864-.209-1.875-.479-5.8-1.46a3.687,3.687,0,0,1-2.288-1.232,22.293,22.293,0,0,1-1.347-2.452c-1.73-3.379-3.2-6.713-4.533-9.947a125.122,125.122,0,0,1-5.639-17.622c-1.234-5.126-1.924-9.355-2.339-12.271-.193-1.409-.353-2.53-.466-3.383a4.286,4.286,0,0,0-.224-1.3Z" transform="translate(-15148.346 -9474.054)" fill="#344154"/>
      <path id="Trazado_122385" data-name="Trazado 122385" d="M15241.466,9584.238a14.44,14.44,0,0,1,3.508.577,16.02,16.02,0,0,1,7.545,5.863,31.273,31.273,0,0,1,3.479,5.75,52.486,52.486,0,0,1,2.945,7.162,57.2,57.2,0,0,1,2.979,17.43c.146,6.295-1.6,12.142-2.673,17.525s-2.275,10.189-3.206,14.226-1.872,7.272-2.544,9.484c-.371,1.105-.627,1.971-.853,2.53a8.329,8.329,0,0,0-.287.9,3.408,3.408,0,0,0,.447-.83c.274-.546.579-1.395,1-2.5.785-2.2,1.745-5.415,2.819-9.436s2.227-8.842,3.444-14.194c.577-2.69,1.2-5.512,1.826-8.442a41.324,41.324,0,0,0,.93-9.274,56.91,56.91,0,0,0-3.093-17.622,49.364,49.364,0,0,0-3.044-7.227,30.56,30.56,0,0,0-3.637-5.8,15.883,15.883,0,0,0-7.912-5.815,8.863,8.863,0,0,0-2.675-.369,3.593,3.593,0,0,0-1,.061Z" transform="translate(-15206.541 -9471.402)" fill="#344154"/>
      <path id="Trazado_122386" data-name="Trazado 122386" d="M15247.3,9674.439a3.919,3.919,0,0,0,.771-.209l2.211-.689,8.217-2.754,28.563-9.611.321-.113v-.336c-1.426-6.9-3-14.419-4.628-22.428v-.657h-.5c-17.816.352-33.914,1.6-45.5,2.979-5.782.657-10.46,1.3-13.681,1.779l-3.718.576a12.243,12.243,0,0,0-1.281.258,6.005,6.005,0,0,0,1.315-.1l3.589-.385c3.2-.385,8.011-.931,13.712-1.6,11.6-1.186,27.65-2.371,45.448-2.723l-.416-.321v.3l4.678,22.428.257-.449-28.45,9.964-8.155,2.933-2.146.815A3.207,3.207,0,0,0,15247.3,9674.439Z" transform="translate(-15193.631 -9439.211)" fill="#344154"/>
      <path id="Trazado_122387" data-name="Trazado 122387" d="M15249.189,9638.356c0,.24,4.119.5,9.147,1.217s9.067,1.6,9.133,1.362a47.893,47.893,0,0,0-18.276-2.579Z" transform="translate(-15223.556 -9438.822)" fill="#344154"/>
      <path id="Trazado_122388" data-name="Trazado 122388" d="M15205.753,9691.327a6.777,6.777,0,0,0,.287-1.059,4.617,4.617,0,0,1,1.6-2.307,4.234,4.234,0,0,1,3.974-.527,4.164,4.164,0,0,1,0,7.8,4.3,4.3,0,0,1-3.974-.53,4.689,4.689,0,0,1-1.605-2.3,5.913,5.913,0,0,0-.284-1.073,2.493,2.493,0,0,0,0,1.151,4.534,4.534,0,0,0,1.6,2.692,4.8,4.8,0,0,0,4.61.785,4.9,4.9,0,0,0,0-9.241,4.806,4.806,0,0,0-4.612.783,4.464,4.464,0,0,0-1.6,2.688A2.063,2.063,0,0,0,15205.753,9691.327Z" transform="translate(-15101.62 -9409.836)" fill="#344154"/>
      <path id="Trazado_122389" data-name="Trazado 122389" d="M15205.148,9665.281s.1-.4.307-1.073a4.65,4.65,0,0,1,1.6-2.29,4.232,4.232,0,0,1,3.988-.527,4.146,4.146,0,0,1,0,7.785,4.232,4.232,0,0,1-3.99-.527,4.663,4.663,0,0,1-1.6-2.293c-.209-.672-.224-1.072-.307-1.072a2.364,2.364,0,0,0,0,1.156,4.637,4.637,0,0,0,1.6,2.688,4.806,4.806,0,0,0,4.6.787,4.9,4.9,0,0,0,0-9.263,4.81,4.81,0,0,0-4.6.788,4.605,4.605,0,0,0-1.6,2.69,2.352,2.352,0,0,0,0,1.153Z" transform="translate(-15100.059 -9425.519)" fill="#344154"/>
      <g id="Grupo_60797" data-name="Grupo 60797" transform="translate(172.4 194.088)" opacity="0.3">
        <path id="Trazado_122390" data-name="Trazado 122390" d="M15173.04,9634.931a13.068,13.068,0,0,0-8.009,6.953,32.8,32.8,0,0,0-2.936,10.973,10.014,10.014,0,0,0,.8,6.664c.578.928,2.02,1.6,2.676.752a1.821,1.821,0,0,0,.306-.882c.8-4.484,1.009-9.066,2-13.521s1.907-8.009,5.4-10.926" transform="translate(-15161.851 -9634.931)" fill="#344154"/>
      </g>
      <g id="Grupo_60798" data-name="Grupo 60798" transform="translate(66.725 134.431)" opacity="0.3">
        <path id="Trazado_122391" data-name="Trazado 122391" d="M15250.259,9662.026c-11.71-4.9-20.441-15.651-27.328-26.306-1.491-2.308-2.948-4.63-4.406-6.951a9.9,9.9,0,0,1-1.747-4.165,3.206,3.206,0,0,1,2.292-3.476,4.521,4.521,0,0,1-5.017-1.956,13.539,13.539,0,0,1-1.811-5.463c-.815-4.646-1.937-11.455-2.752-16.02,1.281,3.333,4.069,8.892,5.35,12.223.914,2.355,1.777,5.1,3.685,6.744,3.06,2.646,6.136,1.73,9.725,2.821-2.324.64-5.064,3.347-6.81,4.981,8.907,12.625,28.836,37.632,28.836,37.632" transform="translate(-15209.49 -9597.69)" fill="#344154"/>
      </g>
      <path id="Trazado_122392" data-name="Trazado 122392" d="M15190.96,9517.05c3.2.642,6.68.159,9.868,1.057,4.614,1.315,8.011,5.367,9.8,9.836a46.463,46.463,0,0,1,2.456,14.112l.893,12.816a41.423,41.423,0,0,0,1.15,8.188c.852,2.962,3.206,10.86,3.3,14.705a41.513,41.513,0,0,1-9.61,29.077c-2.963,3.347-9.132,4.8-13.5,5.7l-9.1-8.01c-.319-.288,6.811-8.009,6.632-8.459a3.111,3.111,0,0,1,.193-2.084,102.536,102.536,0,0,0-4.326-76.365" transform="translate(-15073.694 -9511.805)" fill="#727997"/>
      <path id="Trazado_122393" data-name="Trazado 122393" d="M15235.5,9624.519c.24-16.74,0-23.02,0-22.923s14.42-2.419,17.317-21.2c1.459-9.323.96-24.622.143-37.134-.735-11.214-8.231-25.054-19.445-23.837l-35,8.924a6.632,6.632,0,0,0-5.9,6.713h0l3.941,89.134" transform="translate(-15119.192 -9510.417)" fill="#ffcdb0"/>
      <path id="Trazado_122394" data-name="Trazado 122394" d="M15202.164,9542.116a2.38,2.38,0,0,1-2.3,2.432,2.273,2.273,0,0,1-2.471-2.079h0a2.4,2.4,0,0,1,2.307-2.436,2.3,2.3,0,0,1,2.486,2.082Z" transform="translate(-15075.288 -9497.974)" fill="#344154"/>
      <path id="Trazado_122395" data-name="Trazado 122395" d="M15205.484,9540.164c-.289.321-2.115-1.024-4.712-1.009s-4.484,1.315-4.806.994.159-.707.978-1.313a6.6,6.6,0,0,1,3.825-1.187,6.3,6.3,0,0,1,3.753,1.2C15205.484,9539.461,15205.644,9540.021,15205.484,9540.164Z" transform="translate(-15076.202 -9499.402)" fill="#344154"/>
      <path id="Trazado_122396" data-name="Trazado 122396" d="M15218.084,9542.353a2.388,2.388,0,0,1-2.307,2.437,2.292,2.292,0,0,1-2.486-2.1h0a2.41,2.41,0,0,1,2.306-2.436,2.287,2.287,0,0,1,2.5,2.066Z" transform="translate(-15116.676 -9497.842)" fill="#344154"/>
      <path id="Trazado_122397" data-name="Trazado 122397" d="M15221.385,9540.5c-.289.321-2.117-1.024-4.711-1.024s-4.486,1.313-4.809.992.16-.705.98-1.3a6.578,6.578,0,0,1,3.828-1.186,6.289,6.289,0,0,1,3.75,1.2C15221.385,9539.8,15221.545,9540.362,15221.385,9540.5Z" transform="translate(-15117.573 -9499.199)" fill="#344154"/>
      <path id="Trazado_122398" data-name="Trazado 122398" d="M15202.959,9559.605a17.36,17.36,0,0,1,4.2-.77c.655,0,1.281-.193,1.394-.642a3.219,3.219,0,0,0-.432-1.971l-1.97-4.95c-2.742-7.161-4.713-13.058-4.424-13.152s2.74,5.606,5.463,12.815l1.891,5.062a3.674,3.674,0,0,1,.352,2.6,1.688,1.688,0,0,1-1.088.975,4.965,4.965,0,0,1-1.122.163,15.851,15.851,0,0,1-4.262-.127Z" transform="translate(-15089.536 -9499.123)" fill="#344154"/>
      <path id="Trazado_122399" data-name="Trazado 122399" d="M15230.226,9573.159a50.65,50.65,0,0,1-26.225-6.649s7.451,13.186,26.225,11.392Z" transform="translate(-15113.921 -9482.031)" fill="#eb996e"/>
      <path id="Trazado_122400" data-name="Trazado 122400" d="M15214.035,9556.087a4.589,4.589,0,0,0-4.18-1.714,4.228,4.228,0,0,0-2.948,1.6,2.739,2.739,0,0,0-.193,3.074,3.206,3.206,0,0,0,3.4.851,9.915,9.915,0,0,0,3.3-1.973,2.427,2.427,0,0,0,.736-.769.816.816,0,0,0,0-.961" transform="translate(-15101.734 -9489.358)" fill="#d9a171"/>
      <path id="Trazado_122401" data-name="Trazado 122401" d="M15205.841,9552.661c.418,0,.432,2.788,2.853,4.806s5.4,1.6,5.414,2.066-.656.56-1.922.594a7,7,0,0,1-4.533-1.6,6.142,6.142,0,0,1-2.2-4.007C15205.36,9553.348,15205.682,9552.644,15205.841,9552.661Z" transform="translate(-15100.108 -9490.368)" fill="#344154"/>
      <path id="Trazado_122402" data-name="Trazado 122402" d="M15222.816,9535.579c-.241.706-2.836.371-5.864.736s-5.5,1.218-5.912.579c-.177-.29.258-.962,1.231-1.6a10.345,10.345,0,0,1,8.973-1.011C15222.335,9534.715,15222.816,9535.243,15222.816,9535.579Z" transform="translate(-15117.725 -9501.786)" fill="#344154"/>
      <path id="Trazado_122403" data-name="Trazado 122403" d="M15205.244,9537.314c-.448.577-2.243,0-4.391,0s-3.956.4-4.374-.208c-.19-.3.1-.9.882-1.441a6.407,6.407,0,0,1,7.065.191C15205.244,9536.337,15205.565,9536.946,15205.244,9537.314Z" transform="translate(-15076.925 -9501.183)" fill="#344154"/>
      <path id="Trazado_122404" data-name="Trazado 122404" d="M15222.574,9537.54a20.425,20.425,0,0,0-3.571,1.187,23.563,23.563,0,0,0-3.2,2.1,7.689,7.689,0,0,1,2.978-2.389,7.428,7.428,0,0,1,3.8-.894Z" transform="translate(-15125.173 -9499.469)" fill="#eb996e"/>
      <path id="Trazado_122405" data-name="Trazado 122405" d="M15199.937,9539.952a8.541,8.541,0,0,0-5.235-2.451,4.407,4.407,0,0,1,2.958.468,4.6,4.6,0,0,1,2.279,1.983Z" transform="translate(-15068.734 -9499.546)" fill="#eb996e"/>
      <path id="Trazado_122406" data-name="Trazado 122406" d="M15210.234,9554.554a1.181,1.181,0,0,1-.094-.641,2.687,2.687,0,0,1,1.953-2.292h.656l-.577.226a3.056,3.056,0,0,0-1.153.831,3.43,3.43,0,0,0-.657,1.265A2.407,2.407,0,0,0,15210.234,9554.554Z" transform="translate(-15106.266 -9490.995)" fill="#eb996e"/>
      <path id="Trazado_122407" data-name="Trazado 122407" d="M15211.912,9556.21a2.313,2.313,0,0,1-.271-1.011,4.112,4.112,0,0,1,.61-2.451,4.257,4.257,0,0,1,1.951-1.6,1.883,1.883,0,0,1,1.025-.192,9.366,9.366,0,0,0-.932.4,4.3,4.3,0,0,0-2.433,3.846C15211.912,9555.84,15211.912,9556.192,15211.912,9556.21Z" transform="translate(-15111.147 -9491.4)" fill="#eb996e"/>
      <path id="Trazado_122408" data-name="Trazado 122408" d="M15264.045,9521.472a4.419,4.419,0,0,0-1.922-2.626,26.668,26.668,0,0,0-20.375-4.646,47.767,47.767,0,0,0-19.545,8.477c-5.129,3.554-9.965,7.9-12.561,13.565a45.081,45.081,0,0,0-3.045,12.816c-1.473,10.814-4.373,21.659-4.275,32.569,0,4.245-.723,11.406,0,16.645.77,5.605,6.2,12.431,11.727,13.681l12.416,1.231s-6.729-23.2-6.2-31.559c.449-7.322.385-15.362,1.217-22.651a3,3,0,0,1,2.133-2.916l7.768-3.956a77.413,77.413,0,0,0,7.3-4.085,74.989,74.989,0,0,0,7.4-5.836l10.074-8.6a30.607,30.607,0,0,0,5.816-6.009,9.985,9.985,0,0,0,1.6-7.88" transform="translate(-15144.537 -9513.776)" fill="#727997"/>
      <path id="Trazado_122409" data-name="Trazado 122409" d="M15238.9,9547.158a5.475,5.475,0,0,0-5.67-5.287,5.539,5.539,0,0,0-2.34.624c-1.905,1.107-3.347,3.318-3.2,7.545.466,11.31,11.727,8.507,11.727,8.188S15239.226,9551.837,15238.9,9547.158Z" transform="translate(-15161.046 -9496.864)" fill="#ffcdb0"/>
      <path id="Trazado_122410" data-name="Trazado 122410" d="M15235.126,9552.845a3.269,3.269,0,0,1-.527.307,1.914,1.914,0,0,1-1.462.093,4.8,4.8,0,0,1-2.433-4.275,6.59,6.59,0,0,1,.435-2.854,2.255,2.255,0,0,1,1.406-1.6,1,1,0,0,1,1.188.5c.177.3.113.527.16.545s.24-.194.127-.658a1.15,1.15,0,0,0-.464-.689,1.52,1.52,0,0,0-1.108-.24,2.784,2.784,0,0,0-1.983,1.828,6.873,6.873,0,0,0-.545,3.2,5.211,5.211,0,0,0,3.058,4.808,2.17,2.17,0,0,0,1.795-.37A.863.863,0,0,0,15235.126,9552.845Z" transform="translate(-15160.313 -9495.615)" fill="#eb996e"/>
      <path id="Trazado_122411" data-name="Trazado 122411" d="M15214.85,9608.99c.272,0,.191-1.794-.321-4.806s-1.6-7.466-2.8-12.816a159.538,159.538,0,0,1-3.667-18.81,68.982,68.982,0,0,1-.374-11.081,36.408,36.408,0,0,1,2.262-11.33,16.282,16.282,0,0,1,2.884-4.68,20.784,20.784,0,0,1,4.261-3.49,62.3,62.3,0,0,1,9.884-5c6.633-2.723,12.961-4.806,18.072-7.113s9.082-5.3,10.781-8.168,1.6-4.808,1.331-4.808-.722,1.6-2.646,3.847a25.161,25.161,0,0,1-10.588,6.409c-5.1,1.952-11.407,3.652-18.375,6.279a61.489,61.489,0,0,0-10.654,5.126,24.518,24.518,0,0,0-5.112,4.035,20.453,20.453,0,0,0-3.667,5.881,38.813,38.813,0,0,0-2.483,12.721,64.717,64.717,0,0,0,.657,11.791,122.28,122.28,0,0,0,4.614,19.094c1.6,5.286,3.09,9.518,4.069,12.431S15214.528,9609.054,15214.85,9608.99Z" transform="translate(-15140.355 -9511.9)" fill="#fafafa"/>
      <path id="Trazado_122412" data-name="Trazado 122412" d="M15209.1,9607.831a4.849,4.849,0,0,0-.271-1.2c-.2-.768-.532-1.888-.868-3.362a86.114,86.114,0,0,1-2.05-12.607,89.7,89.7,0,0,1,.462-18.9c.451-3.539,1.092-7.24,1.955-11.021a54.374,54.374,0,0,1,3.525-11.391,25.647,25.647,0,0,1,7.61-8.986,50.076,50.076,0,0,1,9.609-5.578c6.506-2.915,12.673-4.947,17.5-7.479a36.731,36.731,0,0,0,10.462-7.45,15.3,15.3,0,0,0,1.314-1.6,7.9,7.9,0,0,0,.88-1.186,5.421,5.421,0,0,0,.639-1.043,39.242,39.242,0,0,1-3.075,3.526,37.689,37.689,0,0,1-10.539,7.193c-4.806,2.45-10.974,4.4-17.622,7.318a49.638,49.638,0,0,0-9.788,5.624,26.1,26.1,0,0,0-7.851,9.26,55.047,55.047,0,0,0-3.588,11.582,109.181,109.181,0,0,0-1.907,11.1,87.013,87.013,0,0,0-.309,19.05,75.534,75.534,0,0,0,2.341,12.638c.369,1.476.771,2.582,1.01,3.333A7.856,7.856,0,0,0,15209.1,9607.831Z" transform="translate(-15144.863 -9512.425)" fill="#fafafa"/>
      <path id="Trazado_122413" data-name="Trazado 122413" d="M15190.214,9609.815h1.09a19.74,19.74,0,0,0,3.2-.157,7.729,7.729,0,0,0,4.5-2.132,23.7,23.7,0,0,0,3.2-5.7,56.114,56.114,0,0,0,5.653-16.021,75.65,75.65,0,0,0,.864-10.062c.13-3.475.179-7.095,0-10.8-.337-14.8-2.884-28.212-6.937-37.119a19.329,19.329,0,0,0-3.846-5.349,13.232,13.232,0,0,0-4.147-2.756,10.541,10.541,0,0,0-3.046-.8h-1.089a13.687,13.687,0,0,1,4,1.089,13.918,13.918,0,0,1,4.021,2.774,18.367,18.367,0,0,1,3.655,5.269c3.845,8.811,6.312,22.173,6.631,36.847.1,3.685,0,7.289,0,10.765a76.793,76.793,0,0,1-.8,9.947,57.293,57.293,0,0,1-5.432,16.022,24.151,24.151,0,0,1-3.09,5.64,7.541,7.541,0,0,1-4.211,2.128C15191.655,9609.833,15190.214,9609.706,15190.214,9609.815Z" transform="translate(-15069.582 -9510.678)" fill="#fafafa"/>
      <circle id="Elipse_4357" data-name="Elipse 4357" cx="2.227" cy="2.227" r="2.227" transform="translate(70.985 59.89)" fill="#344154"/>
      <path id="Trazado_122414" data-name="Trazado 122414" d="M15150.865,9875.574v2.132s36.111,14,36.575,20.826l-71.369.5.8-23.758C15127.639,9880.172,15138.692,9880.573,15150.865,9875.574Z" transform="translate(-14930.271 -9296.162)" fill="#12263f"/>
      <g id="Grupo_60799" data-name="Grupo 60799" transform="translate(191.951 586.622)" opacity="0.6">
        <path id="Trazado_122415" data-name="Trazado 122415" d="M15155.4,9880.025a2.93,2.93,0,0,0-2,3.331,2.8,2.8,0,0,0,3.3,2,3.04,3.04,0,0,0,2.078-3.541,2.882,2.882,0,0,0-3.649-1.7" transform="translate(-15153.352 -9879.96)" fill="#6595bf" stroke="#5e6178" stroke-miterlimit="10" stroke-width="0"/>
      </g>
      <g id="Grupo_60800" data-name="Grupo 60800" transform="translate(185.832 597.132)" opacity="0.6">
        <path id="Trazado_122416" data-name="Trazado 122416" d="M15116.032,9892.24l.193-5.72,68.34,1.6s3.2,1.36,2.835,3.6Z" transform="translate(-15116.032 -9886.521)" fill="#6595bf" stroke="#5e6178" stroke-miterlimit="10" stroke-width="0"/>
      </g>
      <path id="Trazado_122417" data-name="Trazado 122417" d="M15145.182,9877.038c0,.352-1.761.513-3.46,1.6s-2.609,2.612-2.931,2.468.176-2.146,2.273-3.492S15145.182,9876.717,15145.182,9877.038Z" transform="translate(-14924.268 -9295.299)" fill="#344154"/>
      <path id="Trazado_122418" data-name="Trazado 122418" d="M15138.713,9878.863c.079.335-1.426.944-2.6,2.419s-1.507,3.044-1.858,3.044-.577-1.986.913-3.812S15138.713,9878.526,15138.713,9878.863Z" transform="translate(-14910.269 -9294.082)" fill="#344154"/>
      <path id="Trazado_122419" data-name="Trazado 122419" d="M15130.062,9886.66c-.3,0-.8-1.6,0-3.59s2.5-2.676,2.661-2.386-.866,1.313-1.6,2.9S15130.383,9886.564,15130.062,9886.66Z" transform="translate(-14897.292 -9292.939)" fill="#344154"/>
      <path id="Trazado_122420" data-name="Trazado 122420" d="M15193.771,9643.8l26.081-11.886,18.021,1.809,8.507,10.077s0,2.98-1.825,2.517a11.632,11.632,0,0,1-3.9-2.291l-.221,7.56s-2.739,3.205-4.582,0l-1.826,5.721s-2.051,2.517-3.654,0l-2.753,6.632a5.043,5.043,0,0,1-3.2-2.293,5.2,5.2,0,0,1-.448-3.426s-8.925,1.6-12.594,2.739-21.723.689-21.723.689l-8.009,2.29-3.684-18.793Z" transform="translate(-15088.361 -9442.662)" fill="#ffcdb0"/>
      <path id="Trazado_122421" data-name="Trazado 122421" d="M15181.475,9633.92a9.694,9.694,0,0,1,3.2,0c.976.193,2.128.563,3.444.962s2.722.816,4.165,1.361a23.894,23.894,0,0,1,3.924,1.858,2.043,2.043,0,0,1,1.059,1.249c.159.53.271,1.106.385,1.6a31.639,31.639,0,0,0,.657,3.2,7.627,7.627,0,0,0,0-3.349,11.734,11.734,0,0,0-.3-1.7,2.727,2.727,0,0,0-1.3-1.7,19.685,19.685,0,0,0-4.037-1.983,44.6,44.6,0,0,0-4.261-1.347,26.942,26.942,0,0,0-3.574-.785A4.186,4.186,0,0,0,15181.475,9633.92Z" transform="translate(-15046.105 -9441.898)" fill="#eb996e"/>
      <path id="Trazado_122422" data-name="Trazado 122422" d="M15184,9636.911a8.342,8.342,0,0,0,2.932,1.252c1.873.591,4.563,1.023,7.366,1.841a4.784,4.784,0,0,1,1.794.772,9.778,9.778,0,0,1,1.747,4.8,14.71,14.71,0,0,1-.323,2.243,3.064,3.064,0,0,0,0,.866,5.926,5.926,0,0,0,.307-.8,12.62,12.62,0,0,0,.594-2.275,7.044,7.044,0,0,0-.724-3.477,6.744,6.744,0,0,0-1.041-1.888,5.218,5.218,0,0,0-2.13-.993c-2.9-.851-5.576-1.17-7.466-1.6a21.974,21.974,0,0,0-3.061-.742Z" transform="translate(-15050.068 -9439.65)" fill="#eb996e"/>
      <path id="Trazado_122423" data-name="Trazado 122423" d="M15195.65,9650.8a5,5,0,0,0,1.362-1.955,4.268,4.268,0,0,0,.307-2.673,3.5,3.5,0,0,0-2.326-2.405,8.293,8.293,0,0,0-3.206-.384l-2.528.08a10.52,10.52,0,0,0-1.715.161c-.449.109-.594.4-.527.414a2.931,2.931,0,0,1,.576-.094,8.72,8.72,0,0,1,1.6.11l2.53.1a8.811,8.811,0,0,1,2.9.4,2.766,2.766,0,0,1,1.857,1.811,3.79,3.79,0,0,1-.112,2.273,17.808,17.808,0,0,0-.722,2.165Z" transform="translate(-15053.874 -9435.77)" fill="#eb996e"/>
    </g>
    <g id="Grupo_129616" data-name="Grupo 129616" transform="translate(426.785 3848.285)">
      <path id="Trazado_114631" data-name="Trazado 114631" d="M12355.651,4199.84h-75.238a15.774,15.774,0,0,0-15.773,15.773v47.634l14.609-14.628h76.338a15.774,15.774,0,0,0,15.775-15.773v-17.33A15.768,15.768,0,0,0,12355.651,4199.84Z" transform="translate(-12264.64 -4199.84)" fill="#12263f"/>
      <path id="Trazado_114632" data-name="Trazado 114632" d="M12345.828,4213.325h-71.094a2.621,2.621,0,0,1-2.623-2.6h0a2.643,2.643,0,0,1,2.623-2.623h71.094a2.645,2.645,0,0,1,2.625,2.623h0A2.627,2.627,0,0,1,12345.828,4213.325Z" transform="translate(-12257.383 -4191.814)" fill="#e7e7e7"/>
      <path id="Trazado_114633" data-name="Trazado 114633" d="M12321.6,4219.465h-46.887a2.64,2.64,0,0,1-2.625-2.622h.006a2.631,2.631,0,0,1,2.619-2.623h46.887a2.64,2.64,0,0,1,2.625,2.623h0A2.634,2.634,0,0,1,12321.6,4219.465Z" transform="translate(-12257.407 -4185.869)" fill="#e7e7e7"/>
    </g>
    <g id="Grupo_62143" data-name="Grupo 62143" transform="translate(202.951 4136.587)">
      <g id="Grupo_62135" data-name="Grupo 62135" transform="translate(3.51 0)">
        <g id="Grupo_62129" data-name="Grupo 62129" transform="translate(15.59 81.427)">
          <g id="Grupo_62128" data-name="Grupo 62128">
            <path id="Trazado_133532" data-name="Trazado 133532" d="M213.694,296.144l7.974,15.624,3.987-1.108,20.04,16.3a4.06,4.06,0,0,0,5.639-.5l7.63-8.866s-15.385-6.628-18.23-12.113.442-6.73.442-6.73l-7.241-8.228Z" transform="translate(-213.694 -290.522)" fill="#26aab7"/>
          </g>
        </g>
        <g id="Grupo_62130" data-name="Grupo 62130" transform="translate(25.932)">
          <path id="Trazado_133533" data-name="Trazado 133533" d="M95.007,178.188s11.671-2.581,28.1-18.376,24.141-36.767,26.152-36.665,10.788-3.973,27.484,32.344,10.119,44.751,6.8,44.683-25.881-6.355-39.971-4.753-32.2,8.945-32.2,8.945Z" transform="translate(-95.007 -123.056)" fill="#26aab7"/>
        </g>
        <g id="Grupo_62131" data-name="Grupo 62131" transform="translate(0 48.288)">
          <path id="Trazado_133534" data-name="Trazado 133534" d="M247.863,249.007l3.982,7.571,1.784,3.391a9.88,9.88,0,0,0,12.879,4.376l25.016-8.716-14.569-33.26-24.993,13.319A9.881,9.881,0,0,0,247.863,249.007Z" transform="translate(-246.725 -222.368)" fill="#0d585f"/>
        </g>
        <g id="Grupo_62133" data-name="Grupo 62133" transform="translate(80.593 0.833)">
          <path id="Trazado_133536" data-name="Trazado 133536" d="M125.225,157.033c8.885,19.673,12.584,37.2,8.261,39.157s-15.03-12.414-23.915-32.087-12.584-37.2-8.261-39.156S116.339,137.359,125.225,157.033Z" transform="translate(-99.503 -124.769)" fill="#0d585f"/>
        </g>
      </g>
      <g id="Grupo_62136" data-name="Grupo 62136" transform="translate(0 75.759)">
        <path id="Trazado_133538" data-name="Trazado 133538" d="M329.491,288.972l6.781-2.129-4.2-7.978-5.085,3.161Z" transform="translate(-326.991 -278.865)" fill="#0d585f"/>
      </g>
      <g id="Grupo_62137" data-name="Grupo 62137" transform="translate(4.476 75.759)" opacity="0.6">
        <path id="Trazado_133539" data-name="Trazado 133539" d="M327.6,278.865l4.2,7.978-1.393.438-3.411-8.038Z" transform="translate(-326.991 -278.865)"/>
      </g>
      <g id="Grupo_62138" data-name="Grupo 62138" transform="translate(9.755 70.906)">
        <path id="Trazado_133540" data-name="Trazado 133540" d="M295.659,275.577c.1.219,3.484-1.1,7.557-2.938s7.3-3.513,7.2-3.732-3.482,1.1-7.558,2.938S295.56,275.359,295.659,275.577Z" transform="translate(-295.656 -268.884)" fill="#063338"/>
      </g>
      <g id="Grupo_62139" data-name="Grupo 62139" transform="translate(7.669 66.277)">
        <path id="Trazado_133541" data-name="Trazado 133541" d="M302.955,265.935c.107.216,3.169-1.075,6.84-2.882s6.562-3.449,6.455-3.665-3.167,1.076-6.839,2.884S302.849,265.719,302.955,265.935Z" transform="translate(-302.952 -259.364)" fill="#063338"/>
      </g>
      <g id="Grupo_62140" data-name="Grupo 62140" transform="translate(12.386 76.578)">
        <path id="Trazado_133542" data-name="Trazado 133542" d="M292.931,286.554c.036.116.841-.07,2.126-.467.642-.2,1.4-.449,2.244-.741s1.7-.742,2.634-1.163c3.709-1.722,6.542-3.408,6.449-3.608-.109-.236-3.137,1.111-6.812,2.816-.922.418-1.777.878-2.583,1.215s-1.535.633-2.141.9C293.634,286.047,292.9,286.439,292.931,286.554Z" transform="translate(-292.929 -280.549)" fill="#063338"/>
      </g>
      <g id="Grupo_62141" data-name="Grupo 62141" transform="translate(91.71 27.281)">
        <path id="Trazado_133543" data-name="Trazado 133543" d="M121.9,180.6s10.144-6.29,15.695,7.415-5.123,15.959-5.123,15.959A91.314,91.314,0,0,1,121.9,180.6Z" transform="translate(-121.897 -179.163)" fill="#26aab7"/>
      </g>
      <g id="Grupo_62142" data-name="Grupo 62142" transform="translate(80.908 12.388)" opacity="0.5">
        <path id="Trazado_133544" data-name="Trazado 133544" d="M119.891,148.533a15.278,15.278,0,0,0,.4,2.618c.321,1.675.775,4.106,1.425,7.091.429,1.47.9,3.075,1.4,4.8l.788,2.671.414,1.4c.152.468.349.928.526,1.4l2.292,5.913.6,1.551c.2.524.477,1.016.713,1.532l1.507,3.109,1.513,3.108c.259.505.475,1.029.763,1.509l.846,1.434,3.232,5.458c.264.431.5.87.777,1.279l.843,1.191,1.615,2.275,2.908,4.07c1.94,2.35,3.566,4.2,4.684,5.491a15.406,15.406,0,0,0,1.814,1.933,15.465,15.465,0,0,0-1.553-2.149l-4.469-5.666-2.8-4.1-1.565-2.279-.819-1.19c-.267-.409-.5-.849-.756-1.28l-3.167-5.447-.833-1.428c-.285-.477-.5-1-.754-1.5l-1.5-3.088-1.5-3.085c-.237-.511-.516-1-.713-1.519l-.607-1.537-2.323-5.855c-.18-.468-.382-.922-.539-1.385s-.288-.928-.429-1.382q-.424-1.362-.825-2.642c-.536-1.7-1.036-3.287-1.5-4.74l-1.688-7A15.66,15.66,0,0,0,119.891,148.533Z" transform="translate(-119.877 -148.533)"/>
      </g>
    </g>
    <g id="Grupo_61573" data-name="Grupo 61573" transform="translate(426.785 4025.27)">
      <g id="Grupo_61560" data-name="Grupo 61560" transform="translate(0 0)">
        <circle id="Elipse_4578" data-name="Elipse 4578" cx="42.434" cy="42.434" r="42.434" transform="translate(0 60.01) rotate(-45)" fill="#f5ca56"/>
      </g>
      <g id="Grupo_61562" data-name="Grupo 61562" transform="translate(37.899 41.048)">
        <g id="Grupo_61561" data-name="Grupo 61561">
          <path id="Trazado_133257" data-name="Trazado 133257" d="M619.2,78.886a22.912,22.912,0,0,1,3.124-1.844c1.962-1.076,4.693-2.526,7.723-4.1l.4-.206.017.51c-3.041-1.316-5.764-2.527-7.719-3.426a21.5,21.5,0,0,1-3.111-1.557,21.48,21.48,0,0,1,3.266,1.2c1.995.806,4.744,1.957,7.788,3.268a.282.282,0,0,1,.017.51l-.4.206c-3.031,1.571-5.79,2.966-7.8,3.951A23.137,23.137,0,0,1,619.2,78.886Z" transform="translate(-619.197 -68.257)" fill="#12263f"/>
        </g>
      </g>
      <g id="Grupo_61564" data-name="Grupo 61564" transform="translate(69.524 40.556)">
        <g id="Grupo_61563" data-name="Grupo 61563">
          <path id="Trazado_133258" data-name="Trazado 133258" d="M659.111,77.7a20.476,20.476,0,0,1-3.146-1.312c-1.915-.875-4.544-2.12-7.441-3.528a.283.283,0,0,1,.011-.513l.127-.055c2.979-1.308,5.687-2.462,7.659-3.272a20.862,20.862,0,0,1,3.237-1.2,21.021,21.021,0,0,1-3.077,1.569c-1.931.9-4.615,2.116-7.593,3.424l-.127.055.01-.512c2.9,1.411,5.5,2.712,7.367,3.679A20.454,20.454,0,0,1,659.111,77.7Z" transform="translate(-648.365 -67.804)" fill="#12263f"/>
        </g>
      </g>
      <g id="Grupo_61565" data-name="Grupo 61565" transform="translate(31.519 60.367)">
        <path id="Trazado_133259" data-name="Trazado 133259" d="M613.313,86.3l56.155-.221s-3.683,25.908-27.121,26.384S613.313,86.3,613.313,86.3Z" transform="translate(-613.313 -86.076)" fill="#e0e0e0"/>
      </g>
      <g id="Grupo_61566" data-name="Grupo 61566" transform="translate(37.131 65.688)">
        <path id="Trazado_133260" data-name="Trazado 133260" d="M662.78,100.625c-4.928-6.535-13.406-9.838-21.587-9.632s-16.044,3.594-22.7,8.352c0,0,7.378,13.027,23.422,12.7S662.78,100.625,662.78,100.625Z" transform="translate(-618.489 -90.984)" fill="#f5f5f5"/>
      </g>
      <g id="Grupo_61568" data-name="Grupo 61568" transform="translate(19.738 34.564)">
        <g id="Grupo_61567" data-name="Grupo 61567">
          <path id="Trazado_133261" data-name="Trazado 133261" d="M615.547,115.491a2.4,2.4,0,0,1-.469-.371c-.289-.265-.743-.628-1.261-1.162a35.9,35.9,0,0,1-4.088-4.806A38.677,38.677,0,0,1,606.406,69.5a35.851,35.851,0,0,1,3.23-5.419c.423-.614.81-1.047,1.049-1.356a2.418,2.418,0,0,1,.4-.443c.039.03-.45.692-1.271,1.925a41.306,41.306,0,0,0-3.05,5.466,39.3,39.3,0,0,0,3.29,39.255,41.256,41.256,0,0,0,3.917,4.882C614.988,114.883,615.58,115.455,615.547,115.491Z" transform="translate(-602.447 -62.277)" fill="#fff"/>
        </g>
      </g>
      <g id="Grupo_61570" data-name="Grupo 61570" transform="translate(31.913 28.534)">
        <g id="Grupo_61569" data-name="Grupo 61569">
          <path id="Trazado_133262" data-name="Trazado 133262" d="M617.843,56.757c.049.158-1.052.585-2.174,1.456s-1.833,1.809-1.973,1.72c-.132-.063.4-1.233,1.63-2.167A3.728,3.728,0,0,1,617.843,56.757Z" transform="translate(-613.676 -56.716)" fill="#fff"/>
        </g>
      </g>
      <g id="Grupo_61572" data-name="Grupo 61572" transform="translate(93.014 63.219)">
        <g id="Grupo_61571" data-name="Grupo 61571">
          <path id="Trazado_133263" data-name="Trazado 133263" d="M670.037,106.154c-.164-.105,2.733-3.3,4.253-8.248,1.584-4.931,1.032-9.207,1.226-9.2a8.831,8.831,0,0,1,.309,2.752,21.694,21.694,0,0,1-3.962,12.615A8.879,8.879,0,0,1,670.037,106.154Z" transform="translate(-670.03 -88.706)" fill="#fff"/>
        </g>
      </g>
    </g>
  </g>
</svg>
