<svg xmlns="http://www.w3.org/2000/svg" xmlns:xlink="http://www.w3.org/1999/xlink" width="158.954" height="179.905" viewBox="0 0 158.954 179.905">
  <defs>
    <radialGradient id="radial-gradient" cx="0.076" cy="0.019" r="1.465" gradientTransform="translate(0)" gradientUnits="objectBoundingBox">
      <stop offset="0" stop-color="#f6f6f7"/>
      <stop offset="0.477" stop-color="#f9f9fa"/>
      <stop offset="0.715" stop-color="#fff"/>
    </radialGradient>
  </defs>
  <g id="Grupo_129522" data-name="Grupo 129522" transform="translate(31.445 27.663)">
    <g id="Grupo_87605" data-name="Grupo 87605" transform="translate(-6.446)">
      <rect id="Rectángulo_32801" data-name="Rectángulo 32801" width="108.528" height="152.242" rx="5" fill="#b42218"/>
    </g>
    <g id="Grupo_91879" data-name="Grupo 91879" transform="translate(-421.554 -2837.405)">
      <g id="Grupo_91843" data-name="Grupo 91843" transform="translate(390.109 2809.742)">
        <g id="Grupo_91009" data-name="Grupo 91009" transform="translate(0 0)">
          <g id="Grupo_42274" data-name="Grupo 42274">
            <g id="Grupo_18423" data-name="Grupo 18423" transform="translate(0 0)">
              <g id="Grupo_18421" data-name="Grupo 18421">
                <g id="Grupo_18420" data-name="Grupo 18420">
                  <g id="Grupo_18419" data-name="Grupo 18419">
                    <path id="Trazado_40936" data-name="Trazado 40936" d="M353.577,2225.2a79.477,79.477,0,1,1-79.476-79.476A79.476,79.476,0,0,1,353.577,2225.2Z" transform="translate(-194.623 -2145.721)" fill="#fff"/>
                  </g>
                </g>
              </g>
              <path id="Trazado_40937" data-name="Trazado 40937" d="M352.4,2223.915a79.475,79.475,0,1,0-79.476,79.481A79.164,79.164,0,0,0,352.4,2223.915Z" transform="translate(-193.446 -2144.438)" fill="url(#radial-gradient)"/>
              <path id="Trazado_40938" data-name="Trazado 40938" d="M336.112,2219.854a67.27,67.27,0,1,0-67.27,67.271A67.029,67.029,0,0,0,336.112,2219.854Z" transform="translate(-189.208 -2140.204)" fill="none" stroke="#b42218" stroke-miterlimit="10" stroke-width="5"/>
              <g id="Grupo_18422" data-name="Grupo 18422" transform="translate(14.08 44.621)">
                <path id="Trazado_40939" data-name="Trazado 40939" d="M337.382,2164.488a79.486,79.486,0,0,1-136.837,79.149,79.234,79.234,0,0,0,136.837-79.149Z" transform="translate(-200.545 -2164.488)" fill="#eceef0"/>
              </g>
            </g>
          </g>
        </g>
      </g>
      <g id="y06NP8" transform="translate(-3540.883 -341.172)">
        <g id="Grupo_129604" data-name="Grupo 129604" transform="translate(3978.877 3192.262)">
          <path id="Trazado_166608" data-name="Trazado 166608" d="M4026.011,3254.467c-2.745-.934-5.388-1.809-8.012-2.738-1.164-.412-2.283-.947-3.435-1.4a1.266,1.266,0,0,0-.813-.063c-3.818,1.407-7.627,2.84-11.532,4.3.054.176.176.54.275.909.13.483.054.921-.475,1.093s-.856-.127-1.033-.6c-.146-.39-.264-.79-.409-1.229-1.394.237-2.756.513-4.13.693-3.839.506-7.678.7-11.428-.546-3.176-1.055-5.377-3.071-5.994-6.466a10.88,10.88,0,0,1,.661-5.716,33.452,33.452,0,0,1,6.739-10.553c.19-.216.384-.43.625-.7-.482-.556-.966-1.1-1.434-1.655a30.791,30.791,0,0,1-6.1-10.112,10.178,10.178,0,0,1-.333-5.96,8.254,8.254,0,0,1,5.8-5.732,20.507,20.507,0,0,1,8.516-.838c2.353.213,4.691.58,7.055.88.588-1.513,1.159-3.113,1.826-4.672a26.142,26.142,0,0,1,4.692-7.6,10.207,10.207,0,0,1,5.345-3.321,8.231,8.231,0,0,1,7.209,1.947,20.361,20.361,0,0,1,5.4,7.375c.966,2.057,1.773,4.188,2.678,6.349,1.245-.215,2.58-.491,3.928-.666,1.384-.18,2.779-.271,4.171-.384.578-.047,1.193-.022,1.224.747s-.575.765-1.157.834c-2.481.3-4.958.634-7.437.96a1.667,1.667,0,0,0-.332.132c.358,1.582.773,3.145,1.057,4.73.411,2.293.713,4.606,1.1,6.9a1.768,1.768,0,0,0,.479,1c2.985,2.572,6,5.113,9.006,7.662.076.064.16.119.289.214a40.04,40.04,0,0,0,4.977-6.5,18.368,18.368,0,0,0,2.513-6.066,6.645,6.645,0,0,0-4.431-8.026c-.22-.087-.444-.164-.668-.24-.535-.182-.81-.55-.6-1.086.2-.493.618-.548,1.124-.4,4.792,1.414,7.183,5.532,6.037,10.477-.879,3.793-2.949,6.975-5.3,10-.8,1.033-1.676,2.014-2.479,2.974,1.408,1.823,2.868,3.578,4.176,5.44a20.92,20.92,0,0,1,3.756,8.4,8.18,8.18,0,0,1-5.113,9.345,19.531,19.531,0,0,1-9.246,1.164c-2.382-.2-4.75-.575-7.2-.88-.414,1.117-.834,2.351-1.324,3.556a28.155,28.155,0,0,1-5.2,8.746,10.149,10.149,0,0,1-5.355,3.3,8.293,8.293,0,0,1-7.256-2.052,20.261,20.261,0,0,1-4.829-6.263c-.242-.451-.247-.884.235-1.159.527-.3.868-.008,1.172.432,1.117,1.613,2.18,3.274,3.418,4.791a9.1,9.1,0,0,0,2.454,1.948,6,6,0,0,0,6.45-.024,10.979,10.979,0,0,0,2.343-1.845C4022.875,3262.919,4024.554,3258.749,4026.011,3254.467Zm3.283-22.412c-.113-2.457-.239-5.31-.377-8.162a1.41,1.41,0,0,0-.583-1.275,92.169,92.169,0,0,0-13.682-7.812,1.564,1.564,0,0,0-1.16.011,85.137,85.137,0,0,0-13.588,7.81,1.55,1.55,0,0,0-.6.983,83.727,83.727,0,0,0,.012,15.7,1.544,1.544,0,0,0,.605.978,90.78,90.78,0,0,0,13.437,7.765,1.535,1.535,0,0,0,1.47-.015,89.447,89.447,0,0,0,13.435-7.767,1.525,1.525,0,0,0,.592-.986C4029.032,3237.011,4029.14,3234.733,4029.293,3232.055Zm-29.2,21.17c-.055-.288-.078-.465-.124-.636a74.019,74.019,0,0,1-2.085-11.191,1.9,1.9,0,0,0-.67-1.052c-2.888-2.486-5.8-4.944-8.705-7.408-.112-.1-.23-.184-.43-.344-1.043,1.288-2.092,2.5-3.047,3.777a23.3,23.3,0,0,0-4.271,8.261c-1.061,4.289.768,7.519,5,8.87.35.111.706.212,1.065.292a26.7,26.7,0,0,0,9.593.07C3997.639,3253.691,3998.844,3253.445,4000.1,3253.225Zm25.877-44.84a36.647,36.647,0,0,0-4.241-9.244,13.773,13.773,0,0,0-3.807-4.048,6.386,6.386,0,0,0-7.543-.075,11.982,11.982,0,0,0-2.254,1.953,26.64,26.64,0,0,0-4.834,8.314c-.42,1.058-.783,2.139-1.183,3.238.323.1.522.167.719.234,2.959,1,5.981,1.863,8.854,3.072a5.525,5.525,0,0,0,4.787,0C4019.526,3210.517,4022.726,3209.541,4025.974,3208.385Zm14.216,24.385c-3.263,2.658-6.426,5.22-9.56,7.817a1.656,1.656,0,0,0-.386.965c-.315,1.992-.548,4-.908,5.979-.34,1.873-.8,3.724-1.221,5.62a2.308,2.308,0,0,0,.441.152c2.374.312,4.741.725,7.126.894a16.781,16.781,0,0,0,7.611-1.038,6.543,6.543,0,0,0,4.245-7.769C4046.522,3240.3,4043.348,3236.455,4040.19,3232.771Zm-52.108-2.481a2.814,2.814,0,0,0,.306-.213,77.76,77.76,0,0,1,9-7.659,1.629,1.629,0,0,0,.511-.976c.444-2.606.82-5.224,1.277-7.828.229-1.3.585-2.58.9-3.935-.952-.177-1.825-.362-2.705-.5a28.613,28.613,0,0,0-10.531-.064c-5.236,1.129-7.407,4.8-5.867,9.9a24.366,24.366,0,0,0,4.1,7.566C3986.038,3227.848,3987.081,3229.057,3988.082,3230.29Zm11.351-9.525,12.513-7.187a67.664,67.664,0,0,0-10.425-3.523C4000.818,3213.66,4000.134,3217.164,3999.433,3220.764Zm12.647,28.634-12.477-7.172a67.013,67.013,0,0,0,2.12,10.734Zm16.649-7.267-12.505,7.183a67.849,67.849,0,0,0,10.415,3.53C4027.341,3249.245,4028.024,3245.741,4028.729,3242.131Zm-12.646-28.635,12.643,7.263c-.7-3.592-1.393-7.115-2.128-10.872Zm23.042,17.942-8.446-7.283v14.575Zm-41.642-7.1a67.074,67.074,0,0,0-8.205,7.116,66.421,66.421,0,0,0,8.205,7.088Z" transform="translate(-3978.877 -3192.262)" fill="#1d272b"/>
          <path id="Trazado_166608_-_Contorno" data-name="Trazado 166608 - Contorno" d="M4014.033,3271.134a9.112,9.112,0,0,1-5.906-2.345,20.363,20.363,0,0,1-4.951-6.412,1.258,1.258,0,0,1,.427-1.83,1.318,1.318,0,0,1,.656-.189,1.52,1.52,0,0,1,1.176.77c.27.39.541.789.8,1.175.819,1.2,1.665,2.45,2.591,3.585a8.793,8.793,0,0,0,2.32,1.833,5.5,5.5,0,0,0,5.941-.023,10.5,10.5,0,0,0,2.236-1.759c3.112-3.286,4.769-7.445,6.05-11.161l-1.857-.628c-1.959-.661-3.809-1.286-5.686-1.95-.694-.246-1.376-.536-2.036-.817-.462-.2-.941-.4-1.413-.583a1.05,1.05,0,0,0-.357-.072.313.313,0,0,0-.1.012c-3.118,1.149-6.166,2.292-9.394,3.5l-1.692.634c.045.147.094.31.139.476a1.266,1.266,0,0,1-.8,1.7,1.424,1.424,0,0,1-.439.073,1.317,1.317,0,0,1-1.217-.973c-.1-.273-.189-.545-.281-.832v0l-.865.155c-.934.168-1.9.342-2.858.468a39.727,39.727,0,0,1-5.217.395,20.141,20.141,0,0,1-6.434-.962c-3.59-1.192-5.719-3.5-6.328-6.852a11.326,11.326,0,0,1,.683-5.976,26.781,26.781,0,0,1,2.923-5.7,46.353,46.353,0,0,1,3.911-5.015c.107-.122.216-.243.333-.374l-.174-.2c-.322-.368-.655-.748-.975-1.129a31.387,31.387,0,0,1-6.193-10.279,10.626,10.626,0,0,1-.339-6.248,8.255,8.255,0,0,1,2.273-3.855,10.325,10.325,0,0,1,3.845-2.217,19.338,19.338,0,0,1,6.292-.977c.778,0,1.595.039,2.429.114,1.64.149,3.3.375,4.9.593.584.08,1.185.161,1.783.239.134-.349.268-.7.4-1.048.406-1.074.827-2.185,1.293-3.274a26.331,26.331,0,0,1,4.785-7.742,10.685,10.685,0,0,1,5.607-3.47,8.716,8.716,0,0,1,1.838-.2,9.091,9.091,0,0,1,5.792,2.249,20.642,20.642,0,0,1,5.539,7.55c.67,1.428,1.277,2.92,1.864,4.364.218.536.442,1.087.67,1.636l.75-.136c.91-.167,1.852-.339,2.806-.464,1.118-.146,2.255-.234,3.355-.32l.839-.066c.135-.011.247-.016.35-.016a1.228,1.228,0,0,1,1.414,1.241,1.124,1.124,0,0,1-.543,1.106,2.251,2.251,0,0,1-.91.229l-.145.016c-1.955.233-3.941.5-5.863.752l-1.373.182c.079.338.159.676.238,1.006.257,1.076.522,2.188.72,3.3.236,1.32.44,2.664.636,3.964.146.967.3,1.967.461,2.946a1.309,1.309,0,0,0,.312.7c2.411,2.077,4.882,4.169,7.272,6.193l1.637,1.387a38.92,38.92,0,0,0,4.608-6.087,17.623,17.623,0,0,0,2.45-5.9,6.15,6.15,0,0,0-4.124-7.469c-.2-.08-.4-.149-.645-.232a1.437,1.437,0,0,1-.9-.736,1.245,1.245,0,0,1,.005-1.01,1.174,1.174,0,0,1,1.146-.786,2.055,2.055,0,0,1,.583.093,9.184,9.184,0,0,1,5.537,4.144,9.384,9.384,0,0,1,.845,6.926,26.635,26.635,0,0,1-5.395,10.191c-.56.719-1.151,1.413-1.723,2.084l-.507.6c.355.456.715.912,1.066,1.355.966,1.223,1.966,2.487,2.877,3.784a21.151,21.151,0,0,1,3.839,8.6,8.678,8.678,0,0,1-5.414,9.893,18.257,18.257,0,0,1-7.1,1.3c-.751,0-1.551-.035-2.375-.1-1.655-.139-3.337-.366-4.962-.586-.608-.082-1.233-.167-1.859-.247-.081.221-.162.447-.246.68-.3.823-.6,1.673-.947,2.518a28.909,28.909,0,0,1-5.3,8.9,10.629,10.629,0,0,1-5.619,3.451A8.588,8.588,0,0,1,4014.033,3271.134Zm-9.774-9.776a.341.341,0,0,0-.159.057c-.12.069-.233.134-.043.489a19.428,19.428,0,0,0,4.706,6.113,8.156,8.156,0,0,0,5.27,2.116,7.6,7.6,0,0,0,1.565-.168,9.545,9.545,0,0,0,5.091-3.152,27.271,27.271,0,0,0,5.1-8.595c.336-.826.639-1.667.933-2.48.133-.368.258-.716.386-1.061l.137-.372.393.049c.762.1,1.525.2,2.263.3,1.688.228,3.282.443,4.912.58.8.067,1.567.1,2.291.1a17.283,17.283,0,0,0,6.722-1.228,7.684,7.684,0,0,0,4.812-8.8,20.2,20.2,0,0,0-3.673-8.2c-.9-1.274-1.885-2.527-2.843-3.739-.434-.549-.882-1.116-1.32-1.683l-.246-.318.258-.308c.253-.3.517-.612.772-.911.565-.663,1.149-1.348,1.7-2.049,3.686-4.734,4.7-7.612,5.21-9.8a8.406,8.406,0,0,0-.737-6.2,8.207,8.207,0,0,0-4.954-3.685,1.1,1.1,0,0,0-.3-.052c-.116,0-.164.023-.217.157a.318.318,0,0,0-.026.221.552.552,0,0,0,.318.207c.2.068.451.154.692.249a7.141,7.141,0,0,1,4.738,8.583,18.559,18.559,0,0,1-2.576,6.232,40.452,40.452,0,0,1-5.038,6.585l-.3.329-.36-.266-.115-.083c-.072-.052-.135-.1-.2-.151l-1.731-1.466c-2.391-2.025-4.864-4.118-7.279-6.2a2.316,2.316,0,0,1-.645-1.293c-.165-.987-.316-1.991-.463-2.961-.2-1.294-.4-2.632-.632-3.938-.194-1.083-.456-2.181-.709-3.242-.115-.479-.233-.975-.344-1.466l-.094-.414.393-.16c.035-.014.069-.03.1-.047a1.155,1.155,0,0,1,.348-.117l1.569-.208c1.925-.256,3.915-.52,5.876-.754l.157-.017c.57-.061.569-.079.56-.3-.008-.193-.011-.281-.415-.281-.075,0-.161,0-.269.013l-.843.067c-1.087.085-2.212.173-3.3.315-.929.121-1.857.291-2.755.456-.4.073-.775.142-1.153.207l-.392.068-.154-.367c-.283-.676-.56-1.356-.827-2.015-.609-1.5-1.183-2.911-1.843-4.315a19.691,19.691,0,0,0-5.266-7.2,8.013,8.013,0,0,0-5.161-2.024,7.709,7.709,0,0,0-1.627.179,9.6,9.6,0,0,0-5.083,3.171,25.373,25.373,0,0,0-4.6,7.457c-.458,1.069-.874,2.17-1.277,3.235-.177.469-.361.954-.543,1.421l-.142.364-.388-.049c-.729-.093-1.467-.193-2.18-.291-1.593-.217-3.24-.441-4.857-.588-.8-.073-1.592-.11-2.339-.11a18.362,18.362,0,0,0-5.972.924c-2.958,1-4.749,2.764-5.475,5.392a9.664,9.664,0,0,0,.326,5.672,30.467,30.467,0,0,0,6.009,9.946c.313.373.643.75.961,1.114q.233.266.467.535l.289.333-.294.328-.22.246c-.145.161-.274.305-.4.45-4.334,4.929-5.828,8.143-6.645,10.393a10.362,10.362,0,0,0-.639,5.456,7.3,7.3,0,0,0,1.905,3.853,9.134,9.134,0,0,0,3.755,2.228,19.158,19.158,0,0,0,6.118.911,38.773,38.773,0,0,0,5.086-.386c.934-.123,1.846-.287,2.811-.461.424-.076.863-.155,1.3-.23l.424-.072.135.408c.048.145.093.286.137.424.088.275.172.536.266.787.055.148.148.324.28.324a.432.432,0,0,0,.13-.024c.119-.039.255-.083.146-.488-.07-.26-.153-.52-.213-.709-.023-.073-.043-.135-.058-.184l-.137-.449.44-.165,2.135-.8c3.229-1.21,6.279-2.354,9.4-3.5a1.3,1.3,0,0,1,.448-.074,2.045,2.045,0,0,1,.719.14c.487.189.973.4,1.442.6.646.275,1.314.559,1.979.794,1.87.662,3.717,1.285,5.672,1.946q1.156.39,2.334.79l.474.161-.161.473c-1.338,3.932-3.049,8.427-6.433,12a11.524,11.524,0,0,1-2.451,1.931,6.81,6.81,0,0,1-3.5,1.024h0a6.781,6.781,0,0,1-3.457-1,9.72,9.72,0,0,1-2.587-2.062c-.954-1.169-1.813-2.433-2.644-3.656-.261-.384-.531-.781-.8-1.167C4004.4,3261.392,4004.294,3261.359,4004.259,3261.359Zm-12.867-6.595h0a21.416,21.416,0,0,1-4.67-.482c-.345-.076-.707-.176-1.109-.3a8.088,8.088,0,0,1-4.77-3.564,7.957,7.957,0,0,1-.565-5.9,24.088,24.088,0,0,1,4.356-8.44c.661-.885,1.348-1.716,2.075-2.6.323-.39.656-.793.984-1.2l.313-.386.388.31.191.152c.1.076.173.136.251.2l1.744,1.478c2.287,1.938,4.652,3.942,6.963,5.932a2.431,2.431,0,0,1,.841,1.374,73.238,73.238,0,0,0,2.071,11.117c.037.135.06.265.086.417.013.075.028.16.047.257l.1.5-.5.088c-.394.069-.79.142-1.172.213-.824.152-1.677.309-2.518.428A35.988,35.988,0,0,1,3991.392,3254.764Zm-3.235-21.472c-.228.278-.455.553-.677.822-.719.869-1.4,1.69-2.044,2.556-2.9,3.887-3.76,6.361-4.187,8.082a6.892,6.892,0,0,0,.465,5.171,7.02,7.02,0,0,0,4.2,3.1c.372.118.707.21,1.021.28a20.412,20.412,0,0,0,4.454.458,35.041,35.041,0,0,0,4.96-.4c.821-.116,1.625-.264,2.477-.421l.685-.125c-.008-.036-.015-.069-.024-.1a74.189,74.189,0,0,1-2.1-11.266,1.452,1.452,0,0,0-.5-.73c-2.308-1.987-4.671-3.99-6.957-5.926l-1.745-1.479Zm49.119,21.464c-.525,0-1.073-.02-1.629-.059-1.705-.121-3.421-.368-5.08-.607-.681-.1-1.385-.2-2.076-.29a1.638,1.638,0,0,1-.425-.13c-.042-.018-.082-.034-.118-.047l-.416-.148.095-.431c.128-.58.261-1.163.39-1.726.3-1.329.592-2.584.827-3.876.217-1.2.392-2.427.56-3.617.109-.771.222-1.568.346-2.352a2.048,2.048,0,0,1,.561-1.271c2.489-2.062,4.948-4.063,7.552-6.182l2.011-1.638.378-.308.317.37c2.843,3.317,6.38,7.444,7.458,12.849a7.038,7.038,0,0,1-4.546,8.33A16.157,16.157,0,0,1,4037.276,3254.756Zm-8.575-1.937c.671.089,1.35.187,2.008.281,1.642.236,3.339.48,5.008.6.532.038,1.057.057,1.559.057a15.175,15.175,0,0,0,5.828-1.059,6.594,6.594,0,0,0,3.395-2.851,6.367,6.367,0,0,0,.548-4.357,19.318,19.318,0,0,0-2.8-6.666,49.085,49.085,0,0,0-4.118-5.357l-1.634,1.33c-2.6,2.118-5.06,4.118-7.545,6.176-.02.017-.127.129-.211.658-.123.776-.235,1.569-.344,2.335-.17,1.2-.346,2.439-.566,3.655-.239,1.314-.542,2.639-.836,3.92C4028.9,3251.96,4028.8,3252.389,4028.7,3252.819Zm-27.313.785-.145-.506a67.63,67.63,0,0,1-2.136-10.814l-.117-.988.862.5,8.461,4.864,4.97,2.857-1.041.358-7.76,2.669Zm-1.165-10.445a66.138,66.138,0,0,0,1.838,9.156l2.1-.721,6.719-2.311-3.062-1.76Zm26.8,10.3-.51-.125a67.747,67.747,0,0,1-10.49-3.555l-.926-.393.872-.5,12.505-7.183.949-.545Zm-9.677-4.211a65.925,65.925,0,0,0,8.9,2.988l1.78-9.121Zm-3.28-.512a2.148,2.148,0,0,1-.926-.228,91.8,91.8,0,0,1-13.511-7.808,2.039,2.039,0,0,1-.816-1.339,84.607,84.607,0,0,1-.012-15.793,2.044,2.044,0,0,1,.808-1.346,86.019,86.019,0,0,1,13.668-7.855,1.983,1.983,0,0,1,.811-.163,1.881,1.881,0,0,1,.766.152,93.216,93.216,0,0,1,13.757,7.854,1.916,1.916,0,0,1,.8,1.663c.1,2.073.193,4.1.282,6.068.033.723.065,1.424.1,2.1v.052c-.039.678-.075,1.33-.11,1.963-.1,1.837-.2,3.573-.33,5.275a2.01,2.01,0,0,1-.8,1.356,90.409,90.409,0,0,1-13.51,7.81A2.237,2.237,0,0,1,4014.071,3248.731Zm.021-33.531a1,1,0,0,0-.393.071,85.034,85.034,0,0,0-13.509,7.764,1.074,1.074,0,0,0-.39.621,83.6,83.6,0,0,0,.012,15.605,1.069,1.069,0,0,0,.395.616,90.787,90.787,0,0,0,13.364,7.722,1.166,1.166,0,0,0,.5.132,1.292,1.292,0,0,0,.544-.148,89.4,89.4,0,0,0,13.359-7.723,1.055,1.055,0,0,0,.381-.617c.132-1.691.228-3.42.329-5.252.034-.626.07-1.27.108-1.939-.031-.664-.062-1.357-.094-2.07-.089-1.963-.181-3.993-.282-6.065-.022-.447-.065-.68-.367-.887a92.2,92.2,0,0,0-13.608-7.77A.9.9,0,0,0,4014.092,3215.2Zm16.086,24.622v-16.758l3.567,3.075,5.706,4.92.439.378-.439.379-5.5,4.748Zm1-14.576v12.391l2.12-1.83,5.061-4.369-5.267-4.542Zm-33.2,14.284-.8-.581a66.484,66.484,0,0,1-8.266-7.141l-.341-.347.338-.35a66.782,66.782,0,0,1,8.265-7.17l.8-.6Zm-8-8.076a65.307,65.307,0,0,0,7,6.1v-12.206A64.776,64.776,0,0,0,3989.978,3231.454Zm-1.993-.491-.291-.358c-.308-.379-.626-.763-.934-1.135-.694-.838-1.411-1.7-2.08-2.593a24.388,24.388,0,0,1-4.183-7.722,7.581,7.581,0,0,1,6.24-10.528,22.132,22.132,0,0,1,4.713-.476,38.711,38.711,0,0,1,6,.535c.6.094,1.2.209,1.822.33.291.056.592.115.9.171l.514.1-.118.509c-.1.431-.2.858-.306,1.271-.223.907-.433,1.765-.587,2.638-.247,1.407-.474,2.844-.694,4.235-.186,1.177-.379,2.394-.583,3.59a2.1,2.1,0,0,1-.708,1.295,76.82,76.82,0,0,0-8.948,7.61,1.269,1.269,0,0,1-.226.172c-.039.025-.088.057-.15.1Zm3.466-21.813a21.143,21.143,0,0,0-4.5.454,6.6,6.6,0,0,0-5.494,9.262,23.443,23.443,0,0,0,4.025,7.41c.655.87,1.365,1.727,2.051,2.557.208.25.42.507.631.764a77.983,77.983,0,0,1,8.936-7.582,1.178,1.178,0,0,0,.314-.657c.2-1.19.4-2.4.581-3.578.22-1.394.448-2.836.7-4.251.16-.906.374-1.779.6-2.7.061-.246.122-.5.183-.751l-.39-.075c-.616-.12-1.2-.232-1.785-.323A37.757,37.757,0,0,0,3991.451,3209.15Zm7.281,12.593,1.2-6.142c.365-1.872.73-3.743,1.1-5.643l.1-.513.508.123a67.935,67.935,0,0,1,10.5,3.549l.931.391-.876.5-10.99,6.312Zm3.178-11.077-1,5.127-.779,3.993.574-.33,10.108-5.805A65.909,65.909,0,0,0,4001.911,3210.666Zm27.516,11.072-6.009-3.452-7.584-4.357-.955-.549,12.1-4.153Zm-12.14-8.127,6.629,3.808,4.108,2.36-1.808-9.233Zm-3.195-.737h0a6.592,6.592,0,0,1-2.6-.585c-2.006-.844-4.13-1.53-6.184-2.193-.865-.28-1.76-.568-2.637-.866-.123-.042-.25-.083-.409-.134l-.3-.1-.492-.16.177-.487c.127-.349.252-.7.374-1.043.258-.727.525-1.479.815-2.208a27.464,27.464,0,0,1,4.929-8.466,12.388,12.388,0,0,1,2.35-2.034,7.207,7.207,0,0,1,3.969-1.278,7.454,7.454,0,0,1,4.125,1.354,14.164,14.164,0,0,1,3.948,4.189,37.064,37.064,0,0,1,4.3,9.369l.146.46-.455.162c-.967.344-1.941.676-2.883,1-2.293.781-4.46,1.52-6.59,2.435A6.391,6.391,0,0,1,4014.092,3212.874Zm-11.335-4.669.234.078c.869.3,1.761.583,2.623.861,2.074.67,4.219,1.362,6.264,2.223a5.628,5.628,0,0,0,2.214.507h0a5.431,5.431,0,0,0,2.181-.5c2.166-.93,4.35-1.675,6.662-2.463.79-.27,1.6-.546,2.414-.831a35.54,35.54,0,0,0-4.033-8.659,13.043,13.043,0,0,0-3.666-3.907,6.479,6.479,0,0,0-3.573-1.188,6.227,6.227,0,0,0-3.421,1.115,11.4,11.4,0,0,0-2.159,1.871,26.536,26.536,0,0,0-4.74,8.162c-.283.711-.535,1.421-.8,2.173C4002.891,3207.827,4002.824,3208.015,4002.757,3208.2Z" transform="translate(-3978.877 -3192.262)" fill="#1d272b"/>
          <path id="Trazado_166609" data-name="Trazado 166609" d="M4132.658,3232.457c-.352-.506-.756-.838-.707-1.078a1.184,1.184,0,0,1,.772-.761.622.622,0,0,1,.708.8C4133.361,3231.727,4133.029,3231.978,4132.658,3232.457Z" transform="translate(-4072.132 -3215.623)" fill="#1d272b"/>
          <path id="Trazado_166609_-_Contorno" data-name="Trazado 166609 - Contorno" d="M4132.637,3233.3l-.389-.559c-.108-.156-.223-.294-.333-.428-.274-.331-.534-.644-.452-1.037a1.662,1.662,0,0,1,1.173-1.152,1.218,1.218,0,0,1,.211-.019,1.09,1.09,0,0,1,.858.411,1.185,1.185,0,0,1,.215,1.011,1.927,1.927,0,0,1-.528.836c-.108.122-.221.248-.337.4Zm-.163-1.891c.049.07.132.172.2.255a1.4,1.4,0,0,0,.27-.36.2.2,0,0,0-.022-.165.1.1,0,0,0-.11-.03A.806.806,0,0,0,4132.474,3231.411Z" transform="translate(-4072.132 -3215.623)" fill="#1d272b"/>
          <path id="Trazado_166610" data-name="Trazado 166610" d="M4040.048,3361.535c-.31.2-.636.564-.926.538a1.077,1.077,0,0,1-.711-.736.629.629,0,0,1,.78-.731c.31.061.569.374.852.575Z" transform="translate(-4015.14 -3294.813)" fill="#1d272b"/>
          <path id="Trazado_166610_-_Contorno" data-name="Trazado 166610 - Contorno" d="M4039.152,3362.574c-.025,0-.05,0-.075,0a1.553,1.553,0,0,1-1.159-1.15,1.119,1.119,0,0,1,1.118-1.331,1.313,1.313,0,0,1,.251.025,1.832,1.832,0,0,1,.823.478c.079.067.153.131.222.18l.206.147.013.888-.237.15c-.072.046-.156.111-.243.181A1.54,1.54,0,0,1,4039.152,3362.574Zm-.116-1.484a.141.141,0,0,0-.109.041.147.147,0,0,0-.023.121.767.767,0,0,0,.258.309,2.55,2.55,0,0,0,.291-.209l0,0a1.266,1.266,0,0,0-.362-.253A.3.3,0,0,0,4039.036,3361.091Z" transform="translate(-4015.14 -3294.813)" fill="#1d272b"/>
          <path id="Trazado_166611" data-name="Trazado 166611" d="M4055.738,3284.057c.209,1.366.394,2.631.6,3.892.231,1.433.039,1.665-1.428,1.665-1.529,0-3.058,0-4.586,0-1.128,0-1.356-.254-1.2-1.378.19-1.368.41-2.732.63-4.178-1.585,0-3.084,0-4.583,0-1.9-.007-2.785-.9-2.794-2.807a4.032,4.032,0,0,1,.047-1.325,1.3,1.3,0,0,1,.809-.76c.216-.04.664.385.762.683a4.8,4.8,0,0,1,.07,1.4c.014,1.048.092,1.137,1.128,1.138q6.682,0,13.364,0c.659,0,1.319-.015,1.977,0,.637.017.9-.272.9-.9q-.016-4.482,0-8.964a.8.8,0,0,0-.918-.915q-7.75,0-15.5,0c-.648,0-.975.3-.95.964a2.463,2.463,0,0,1-.052,1.086c-.15.314-.546.728-.813.714s-.685-.443-.776-.763a4.06,4.06,0,0,1-.014-1.482,2.3,2.3,0,0,1,2.324-2.135q8.026-.026,16.053,0a2.222,2.222,0,0,1,2.289,2.159q.087,4.873,0,9.748a2.23,2.23,0,0,1-2.379,2.147c-1.344.031-2.688.008-4.033.009Zm-4.351.129-.55,3.721h3.82c-.191-1.274-.371-2.475-.557-3.721Z" transform="translate(-4017.542 -3239.609)" fill="#1d272b"/>
          <path id="Trazado_166611_-_Contorno" data-name="Trazado 166611 - Contorno" d="M4052.1,3290.115l-1.78,0a1.432,1.432,0,0,1-1.693-1.948c.134-.963.28-1.909.435-2.91q.054-.347.108-.7h-2.29c-.574,0-1.143,0-1.713,0-2.174-.008-3.282-1.12-3.292-3.3,0-.111-.008-.228-.015-.351a2.834,2.834,0,0,1,.092-1.145,1.8,1.8,0,0,1,1.189-1.083.649.649,0,0,1,.12-.011,1.594,1.594,0,0,1,1.207,1.029,3.378,3.378,0,0,1,.1,1.183c0,.129-.009.251-.008.369a3.564,3.564,0,0,0,.042.609,3.409,3.409,0,0,0,.586.034l6.693,0h6.671l.622,0c.21,0,.419,0,.629,0,.282,0,.517,0,.739.009h.038a.451.451,0,0,0,.28-.058.557.557,0,0,0,.067-.34c-.01-2.7-.01-5.551,0-8.968a.512.512,0,0,0-.079-.333.527.527,0,0,0-.34-.081l-8.595,0h-6.9a.577.577,0,0,0-.379.09.532.532,0,0,0-.072.354c0,.071.009.147.015.228a2.111,2.111,0,0,1-.115,1.093c-.156.326-.667,1-1.251,1h-.039a1.631,1.631,0,0,1-1.231-1.126,4.228,4.228,0,0,1-.038-1.589l.009-.081a2.788,2.788,0,0,1,2.82-2.583c2.7-.009,5.385-.013,7.977-.013,2.73,0,5.449.005,8.08.015a2.858,2.858,0,0,1,1.941.748,2.634,2.634,0,0,1,.846,1.9c.06,3.344.059,6.63,0,9.767a2.717,2.717,0,0,1-2.868,2.637c-.487.011-1.014.017-1.659.017-.384,0-.768,0-1.152,0s-.765,0-1.147,0h-.425q.055.364.109.72c.135.9.263,1.74.4,2.592a1.586,1.586,0,0,1-1.922,2.245Zm-2.348-6.559h.582l-.087.575q-.1.648-.2,1.276c-.154,1-.3,1.94-.433,2.9-.083.6-.01.7,0,.711s.1.1.707.1q1.688,0,3.379,0h1.206c.785,0,.941-.084.971-.12s.087-.2-.036-.965c-.138-.856-.266-1.7-.4-2.6-.064-.423-.129-.854-.2-1.294l-.088-.576h1.59q.576,0,1.152,0c.383,0,.765,0,1.147,0,.636,0,1.156-.005,1.636-.016a1.739,1.739,0,0,0,1.891-1.657c.061-3.124.062-6.4,0-9.729a1.72,1.72,0,0,0-1.791-1.668c-2.63-.01-5.347-.015-8.076-.015-2.591,0-5.274,0-7.973.013a1.793,1.793,0,0,0-1.829,1.686l-.009.083a3.454,3.454,0,0,0,.006,1.212.915.915,0,0,0,.306.381,1.215,1.215,0,0,0,.351-.411,1.506,1.506,0,0,0,.02-.586c-.006-.086-.013-.175-.017-.264a1.426,1.426,0,0,1,.35-1.087,1.462,1.462,0,0,1,1.1-.4h6.9l8.6,0a1.295,1.295,0,0,1,1.418,1.416c-.009,3.415-.009,6.262,0,8.961a1.406,1.406,0,0,1-.359,1.05,1.372,1.372,0,0,1-1.053.352c-.213-.006-.439-.008-.713-.008-.207,0-.415,0-.622,0l-.629,0h-6.671l-6.694,0a1.72,1.72,0,0,1-1.3-.325,1.781,1.781,0,0,1-.324-1.306c0-.142,0-.281.008-.417a2.565,2.565,0,0,0-.053-.836.319.319,0,1,0-.625.09,2.073,2.073,0,0,0-.034.747c.008.132.016.269.017.407.008,1.634.673,2.3,2.3,2.309,1.028,0,2.055,0,3.11,0Zm5.486,4.851h-4.98l.7-4.721h3.575l.064.426.4,2.688Zm-3.822-1h2.66l-.069-.459-.339-2.262h-1.851Z" transform="translate(-4017.542 -3239.609)" fill="#1d272b"/>
          <path id="Trazado_166612" data-name="Trazado 166612" d="M4060.936,3282.14q-1.818,0-3.636,0a4.079,4.079,0,0,1-.709-.034.864.864,0,0,1,.076-1.726c.578-.034,1.159-.014,1.739-.014q3.241,0,6.482,0c.6,0,1.132.113,1.2.84.052.581-.379.92-1.194.93C4063.572,3282.15,4062.254,3282.139,4060.936,3282.14Z" transform="translate(-4025.733 -3245.934)" fill="#1d272b"/>
          <path id="Trazado_166612_-_Contorno" data-name="Trazado 166612 - Contorno" d="M4063.245,3282.643c-.727,0-1.454,0-2.181,0h-.468q-1.648,0-3.3,0h-.179a3.482,3.482,0,0,1-.617-.042,1.362,1.362,0,0,1,.134-2.717c.239-.014.5-.021.821-.021.159,0,.319,0,.478,0l.469,0h6.488a2.137,2.137,0,0,1,1.04.211,1.291,1.291,0,0,1,.648,1.084,1.242,1.242,0,0,1-.3.97,1.812,1.812,0,0,1-1.382.5C4064.413,3282.64,4063.888,3282.643,4063.245,3282.643Zm-2.181-1c.727,0,1.454,0,2.181,0,.639,0,1.16,0,1.639-.008.464-.005.616-.135.652-.174a.247.247,0,0,0,.05-.211c-.02-.223-.034-.384-.692-.384h-6.488l-.479,0c-.156,0-.312,0-.469,0-.3,0-.544.006-.762.019-.364.021-.4.178-.409.35-.006.139-.014.312.392.384a2.591,2.591,0,0,0,.441.027h.18q1.648,0,3.294,0Z" transform="translate(-4025.733 -3245.934)" fill="#1d272b"/>
          <path id="Trazado_166613" data-name="Trazado 166613" d="M4060.852,3293.038c-1.292,0-2.583.009-3.874,0-.81-.007-1.247-.344-1.194-.925.064-.723.594-.848,1.195-.848,2.636,0,5.271-.005,7.906,0,.815,0,1.243.337,1.193.924-.062.727-.6.847-1.193.849C4063.54,3293.041,4062.2,3293.038,4060.852,3293.038Z" transform="translate(-4025.729 -3252.575)" fill="#1d272b"/>
          <path id="Trazado_166613_-_Contorno" data-name="Trazado 166613 - Contorno" d="M4058.528,3293.541c-.6,0-1.094,0-1.554-.006a1.809,1.809,0,0,1-1.385-.5,1.236,1.236,0,0,1-.3-.968c.077-.864.647-1.3,1.693-1.3l4.4,0c1.367,0,2.48,0,3.5,0a1.8,1.8,0,0,1,1.381.49,1.249,1.249,0,0,1,.31.976,1.3,1.3,0,0,1-.649,1.091,2.138,2.138,0,0,1-1.041.217q-1.387,0-2.772,0-1.211,0-2.423,0Zm2.855-1.781-4.4,0c-.662,0-.677.173-.7.393a.242.242,0,0,0,.049.208c.036.04.189.169.652.173s.948.006,1.545.006c.775,0,1.55,0,2.324,0h4.031c.663,0,.678-.174.7-.391.012-.147-.033-.2-.05-.216-.035-.038-.186-.164-.646-.166C4063.861,3291.761,4062.749,3291.76,4061.383,3291.76Z" transform="translate(-4025.729 -3252.575)" fill="#1d272b"/>
          <path id="Trazado_166614" data-name="Trazado 166614" d="M4044.479,3286.125c-.515.388-.823.8-1.1.785a1.167,1.167,0,0,1-.83-.7.676.676,0,0,1,.776-.834C4043.645,3285.4,4043.942,3285.761,4044.479,3286.125Z" transform="translate(-4017.648 -3248.989)" fill="#1d272b"/>
          <path id="Trazado_166614_-_Contorno" data-name="Trazado 166614 - Contorno" d="M4043.248,3284.874c.038,0,.077,0,.115,0a1.794,1.794,0,0,1,.949.5c.137.11.28.223.448.337l.578.392-.558.42c-.159.12-.3.243-.429.361a1.5,1.5,0,0,1-.959.525h-.049a1.637,1.637,0,0,1-1.28-1.063,1.109,1.109,0,0,1,.175-.992A1.265,1.265,0,0,1,4043.248,3284.874Zm.428,1.274a1.756,1.756,0,0,0-.4-.272h-.03a.273.273,0,0,0-.212.085c-.01.013-.031.041-.01.117a.827.827,0,0,0,.347.324A3.378,3.378,0,0,0,4043.676,3286.147Z" transform="translate(-4017.648 -3248.989)" fill="#1d272b"/>
        </g>
      </g>
    </g>
  </g>
</svg>
