<svg id="Grupo_129307" data-name="Grupo 129307" xmlns="http://www.w3.org/2000/svg" width="252.93" height="240.495" viewBox="0 0 252.93 240.495">
  <g id="Grupo_128802" data-name="Grupo 128802" transform="translate(0 0)">
    <path id="Trazado_151846" data-name="Trazado 151846" d="M300.507,318.728a58.41,58.41,0,0,0,7.227-49.153c-3.2-10.341-9.354-19.949-10.14-30.732-1.573-21.561,18.25-38.992,22.362-60.226,1.808-9.332-.164-20.2-7.912-25.873-7.652-5.6-18.574-4.456-27.238-.535s-15.994,10.2-24.312,14.787-18.56,7.426-27.344,3.774c-8.9-3.7-13.944-13.024-16.771-22.113s-4.215-18.768-9.039-27c-7.952-13.57-24.906-20.969-40.705-19.055s-29.916,12.4-37.488,26.181-8.9,30.445-5.126,45.664c1.912,7.719,5.062,15.11,6.779,22.874s1.875,16.26-1.96,23.252c-8.018,14.622-29.171,16.661-40.248,29.2-9.142,10.349-9.429,26.143-4.241,38.87s14.939,23.053,24.661,32.878c45.346,1.5,91.5,1.6,136.849,3.1C263.484,325.2,282.9,319.748,300.507,318.728Z" transform="translate(-80.961 -98.176)" fill="#a4a4b4" opacity="0.354" style="mix-blend-mode: multiply;isolation: isolate"/>
    <path id="Trazado_151847" data-name="Trazado 151847" d="M359.21,167.171c-.116,12.447,11.716,23.28,9.657,35.555-1.1,6.568-6.106,13.226-3.2,19.217,2.573,5.3,9.943,6.22,15.579,4.5,13.191-4.035,21.208-17.519,25.043-30.77,3.607-12.464,4.5-26.386-1.274-38.005-4.654-9.361-15.393-17.626-26.3-16.861C368.731,141.5,359.3,157.8,359.21,167.171Z" transform="translate(-156.244 -100.811)" fill="#a4a4b4" opacity="0.31" style="mix-blend-mode: multiply;isolation: isolate"/>
    <path id="Trazado_151848" data-name="Trazado 151848" d="M115.337,142.5a64.3,64.3,0,0,0-1.283,62.569c3.3,6.056,7.759,11.7,13.778,15.068s13.785,4.119,19.776.7c9.086-5.183,11.1-17.408,10.373-27.844s-3.087-21.376.931-31.034c2.62-6.3,7.65-11.2,12.113-16.358s8.628-11.173,8.858-17.988c.6-17.666-18.158-16.346-29.46-12.677A64.238,64.238,0,0,0,115.337,142.5Z" transform="translate(-83.416 -99.169)" fill="#a4a4b4" opacity="0.31" style="mix-blend-mode: multiply;isolation: isolate"/>
    <g id="Grupo_107069" data-name="Grupo 107069" transform="translate(6.279)" style="mix-blend-mode: multiply;isolation: isolate">
      <path id="Trazado_151849" data-name="Trazado 151849" d="M298.5,320.4l-.968-.876c2.663-2.886,6.913-9.5,5.474-21.4a92.739,92.739,0,0,0-3.763-15.585c-.685-2.26-1.395-4.6-2.014-6.917a106.64,106.64,0,0,1,7.924-74.935c1.034-2.029,2.152-4.065,3.235-6.033,3.208-5.836,6.525-11.871,7.951-18.39,2.5-11.44-2.443-20.014-8.1-23.14-5.423-3-13.079-2.541-21,1.258-2.9,1.389-5.716,3.089-8.44,4.733a78.282,78.282,0,0,1-11.321,6.009c-15.727,6.258-35.39.939-45.736-12.369-4.973-6.4-7.78-14.125-10.5-21.6-1.052-2.9-2.14-5.892-3.336-8.758-3.721-8.911-10.532-20.1-21.845-22.771-9.941-2.352-20.009,2.817-26.7,7.567-12.808,9.089-21.836,21.4-25.423,34.658-2.418,8.942-2.515,18.675-2.61,28.088-.14,14.017-.285,28.512-8.267,40.185-3.631,5.31-8.625,9.547-13.454,13.645-4.523,3.837-9.2,7.806-12.687,12.616-7.9,10.9-9.837,26.328-5.313,42.333,4.065,14.38,12.351,27.14,20.365,39.479l-1.1.7c-8.066-12.42-16.406-25.263-20.524-39.831-4.632-16.387-2.623-32.222,5.51-43.442,3.579-4.937,8.317-8.957,12.9-12.845,4.764-4.042,9.69-8.222,13.222-13.387,7.76-11.349,7.9-25.008,8.041-39.469.1-9.494.193-19.31,2.655-28.412,3.664-13.55,12.872-26.114,25.925-35.378,6.916-4.907,17.347-10.24,27.77-7.774,11.851,2.8,18.914,14.347,22.751,23.538,1.209,2.894,2.3,5.9,3.359,8.815,2.681,7.38,5.452,15.012,10.3,21.246,10,12.865,29.009,18,44.212,11.956A77.415,77.415,0,0,0,278.122,158c2.75-1.66,5.595-3.377,8.55-4.793,8.312-3.986,16.408-4.433,22.211-1.224,6.061,3.352,11.382,12.464,8.739,24.55-1.466,6.7-4.829,12.82-8.082,18.737-1.077,1.96-2.192,3.986-3.215,6a105.33,105.33,0,0,0-7.827,74.017c.613,2.3,1.319,4.626,2,6.875a93.815,93.815,0,0,1,3.81,15.8C305.81,310.377,301.314,317.346,298.5,320.4Z" transform="translate(-87.906 -97.739)" fill="#a4a4b4"/>
    </g>
  </g>
  <g id="Grupo_129606" data-name="Grupo 129606" transform="translate(33.9 17.629)">
    <g id="Grupo_61598" data-name="Grupo 61598" transform="translate(74.052 22.471)">
      <path id="Trazado_129246" data-name="Trazado 129246" d="M10468.145,10162.783h0c1.38-2,2.137-3.5,3.117-4.764,1.2-1.549,1.588-2.274,1.308-2.483-.405-.274-.236-.189-2.824,2.326,0,0,3.66-3.62,2.249-3.457-.621.065-3.693,3.046-3.693,3.046,2.687-2.163,3.359-3.405,3.007-3.8-.5-.562-4.209,3.078-4.209,3.078a43.417,43.417,0,0,0,3.268-3.353c.385-.634-.511-.478-1.183-.144s-4.869,3.176-6.1,3.921a.843.843,0,0,1-1.262-.255,5.353,5.353,0,0,0-2.934-3.183.653.653,0,0,0-.451,1.131,7.982,7.982,0,0,1,1.1,1.8,5.08,5.08,0,0,1,.464,1.62c.072.654.111,1.2.131,1.68l-1.862,10.392,6.535,4.607Z" transform="translate(-10458.232 -10152.945)" fill="#b78876"/>
      <path id="Trazado_129247" data-name="Trazado 129247" d="M10473.4,10160.929a9.719,9.719,0,0,0,1.843-1.646,9.371,9.371,0,0,0,1.607-1.882,9.948,9.948,0,0,0-1.843,1.646,9.463,9.463,0,0,0-1.607,1.883Z" transform="translate(-10463.487 -10154.489)" fill="#aa6550"/>
      <path id="Trazado_129248" data-name="Trazado 129248" d="M10471.793,10159.625a21.1,21.1,0,0,0,3.908-3.535,21.18,21.18,0,0,0-3.921,3.536Z" transform="translate(-10462.927 -10154.035)" fill="#aa6550"/>
      <path id="Trazado_129249" data-name="Trazado 129249" d="M10470.1,10158.35a9.613,9.613,0,0,0,1.961-1.528,9.126,9.126,0,0,0,1.758-1.771,9.85,9.85,0,0,0-1.961,1.528A9.321,9.321,0,0,0,10470.1,10158.35Z" transform="translate(-10462.344 -10153.675)" fill="#aa6550"/>
    </g>
    <g id="Grupo_61606" data-name="Grupo 61606" transform="translate(27.085 0)">
      <g id="Grupo_61605" data-name="Grupo 61605" transform="translate(0 0.257)">
        <g id="Grupo_61599" data-name="Grupo 61599" transform="translate(2.94)">
          <path id="Trazado_129250" data-name="Trazado 129250" d="M10399.775,10118.984a9.634,9.634,0,0,1,10.371,9.023c.275,4.484.517,9.326.49,11.764-.064,5.229-5.307,6.053-5.307,6.053s.752,9.09.654,10.561l-13.855.653-1.255-27.99a9.646,9.646,0,0,1,8.881-10.052Z" transform="translate(-10390.864 -10118.954)" fill="#b78876"/>
          <path id="Trazado_129251" data-name="Trazado 129251" d="M10409.379,10158.961a12.2,12.2,0,0,1-6.829-1.961s1.614,3.771,6.835,3.268Z" transform="translate(-10394.913 -10132.136)" fill="#aa6550"/>
        </g>
        <g id="Grupo_61600" data-name="Grupo 61600" transform="translate(0 11.759)">
          <path id="Trazado_129252" data-name="Trazado 129252" d="M10389.852,10137.112c-.092-.039-3.6-1.065-3.483,2.516s3.68,2.726,3.686,2.614S10389.852,10137.112,10389.852,10137.112Z" transform="translate(-10386.365 -10136.947)" fill="#b78876"/>
          <path id="Trazado_129253" data-name="Trazado 129253" d="M10389.418,10141.5a1.028,1.028,0,0,1-.163.1.657.657,0,0,1-.471,0,1.565,1.565,0,0,1-.757-1.366,2.018,2.018,0,0,1,.149-.895.716.716,0,0,1,.451-.5.317.317,0,0,1,.373.164c.052.1,0,.17.052.176s.072-.064.039-.209a.378.378,0,0,0-.143-.223.491.491,0,0,0-.354-.078.871.871,0,0,0-.653.576,2.171,2.171,0,0,0-.184,1.006,1.628,1.628,0,0,0,.96,1.516.651.651,0,0,0,.569-.117C10389.354,10141.627,10389.418,10141.5,10389.418,10141.5Z" transform="translate(-10386.846 -10137.541)" fill="#aa6550"/>
        </g>
        <g id="Grupo_61604" data-name="Grupo 61604" transform="translate(9.488 7.332)">
          <g id="Grupo_61603" data-name="Grupo 61603" transform="translate(0.503 2.827)">
            <g id="Grupo_61601" data-name="Grupo 61601" transform="translate(7.905)">
              <path id="Trazado_129254" data-name="Trazado 129254" d="M10417.61,10137.651a.745.745,0,0,1-.719.751.7.7,0,0,1-.77-.652.746.746,0,0,1,.718-.753.713.713,0,0,1,.771.654Z" transform="translate(-10414.57 -10135.363)" fill="#344154"/>
              <path id="Trazado_129255" data-name="Trazado 129255" d="M10416.723,10135.284c-.092.1-.654-.32-1.465-.32s-1.391.405-1.482.307.053-.222.307-.405a2.011,2.011,0,0,1,1.19-.365,1.966,1.966,0,0,1,1.163.373C10416.723,10135.088,10416.788,10135.284,10416.723,10135.284Z" transform="translate(-10413.748 -10134.5)" fill="#344154"/>
            </g>
            <g id="Grupo_61602" data-name="Grupo 61602" transform="translate(0 0.197)">
              <path id="Trazado_129256" data-name="Trazado 129256" d="M10405.506,10137.652a.75.75,0,0,1-.726.752.714.714,0,0,1-.771-.654.752.752,0,0,1,.726-.752.714.714,0,0,1,.771.654Z" transform="translate(-10402.469 -10135.562)" fill="#344154"/>
              <path id="Trazado_129257" data-name="Trazado 129257" d="M10404.624,10135.584c-.1.1-.653-.32-1.464-.32s-1.4.405-1.483.308.053-.223.308-.405a2.008,2.008,0,0,1,1.189-.365,1.947,1.947,0,0,1,1.163.372C10404.624,10135.322,10404.689,10135.52,10404.624,10135.584Z" transform="translate(-10401.651 -10134.801)" fill="#344154"/>
            </g>
            <path id="Trazado_129258" data-name="Trazado 129258" d="M10410.506,10141.545a5.515,5.515,0,0,1,1.308-.235c.21,0,.405-.065.438-.2a1.073,1.073,0,0,0-.138-.607q-.294-.744-.608-1.568a27.022,27.022,0,0,1-1.364-4.091,26.451,26.451,0,0,1,1.691,3.974c.2.549.4,1.071.581,1.575a1.181,1.181,0,0,1,.105.8.487.487,0,0,1-.334.3,1.537,1.537,0,0,1-.354.051A5.428,5.428,0,0,1,10410.506,10141.545Z" transform="translate(-10404.594 -10134.618)" fill="#344154"/>
            <path id="Trazado_129259" data-name="Trazado 129259" d="M10407.022,10145.9c.131,0,.131.869.882,1.49s1.673.522,1.687.653-.21.17-.6.183a2.178,2.178,0,0,1-1.405-.49,1.905,1.905,0,0,1-.686-1.248C10406.826,10146.161,10406.957,10145.9,10407.022,10145.9Z" transform="translate(-10403.462 -10138.45)" fill="#344154"/>
          </g>
          <path id="Trazado_129260" data-name="Trazado 129260" d="M10404.554,10130.778c-.079.223-.882.118-1.823.229s-1.706.373-1.836.177c-.053-.092.078-.3.385-.51a3.117,3.117,0,0,1,1.359-.479,3.066,3.066,0,0,1,1.432.17C10404.423,10130.518,10404.619,10130.714,10404.554,10130.778Z" transform="translate(-10400.883 -10130.174)" fill="#344154"/>
          <path id="Trazado_129261" data-name="Trazado 129261" d="M10416.431,10131.766c-.144.184-.7,0-1.365,0s-1.229.125-1.359-.064.032-.281.28-.451a1.962,1.962,0,0,1,2.189.064C10416.431,10131.439,10416.5,10131.635,10416.431,10131.766Z" transform="translate(-10405.31 -10130.442)" fill="#344154"/>
        </g>
      </g>
      <path id="Trazado_129262" data-name="Trazado 129262" d="M10391.114,10130.611a5.6,5.6,0,0,0,0,1.646,1.859,1.859,0,0,0,.907,1.308,1.941,1.941,0,0,0,2.432-1.163,6,6,0,0,0,.2-2.974,14.54,14.54,0,0,1,.059-4.1,5.879,5.879,0,0,1,1.96-3.51,3.734,3.734,0,0,1,3.856-.562,22.679,22.679,0,0,1,2.039,1.5,3.142,3.142,0,0,0,2.162.549,2.035,2.035,0,0,0,1.66-1.386,2.222,2.222,0,0,0-.843-2.2,5.134,5.134,0,0,0-2.288-.914,12.284,12.284,0,0,0-6.8.529,8.853,8.853,0,0,0-4.928,4.574c-1.046,2.45-.339,4.392-.49,7.11" transform="translate(-10387.955 -10118.562)" fill="#344154"/>
    </g>
    <g id="Grupo_61608" data-name="Grupo 61608" transform="translate(16.396 28.479)">
      <g id="Grupo_61607" data-name="Grupo 61607" transform="translate(0 3.921)">
        <path id="Trazado_129263" data-name="Trazado 129263" d="M10436.989,10171.207l-8.562-2.065-5.652,15.331-15.619-13.972h0c-1.66-1.222-4.529-1.372-6.705-1.64h-.17c-.844-.1-1.255-.223-1.766-.281-3.764,2.83-10.207,3.006-13.906.092,0,0-2.8.652-4.477.953-5.274,1.007-9.07,4.85-10.123,8.4l6.6,15.227,1.262,14.463-3.653,12.945a2.247,2.247,0,0,0,1.882,2.843l32.676.5.537-.261a6.067,6.067,0,0,0,.875-4.145c-1.412-6.2-.425-24.683-.719-30.355,6.411,6.234,13.488,11.41,18.664,8.2C10432.479,10194.8,10436.989,10171.207,10436.989,10171.207Z" transform="translate(-10370.01 -10168.292)" fill="#fff"/>
        <path id="Trazado_129264" data-name="Trazado 129264" d="M10763.8,10380.8Z" transform="translate(-10748.906 -10380.8)" fill="#fff"/>
      </g>
      <path id="Trazado_129265" data-name="Trazado 129265" d="M10761.8,10380.027l.72-5.229,7.123,2.615,2.025,3.529,1.242-3.856,3.92-1.372,1.7,3.463-2.876,4.117-5.359,1.047Z" transform="translate(-10748.213 -10374.799)" fill="#fff"/>
      <path id="Trazado_129266" data-name="Trazado 129266" d="M10400.785,10170.5a1.949,1.949,0,0,1-.269-.215,9.121,9.121,0,0,1-.653-.707,10.446,10.446,0,0,1-1.719-2.967h.262c-.483,1.229-1.046,2.614-1.646,4.15-.288.705-.562,1.4-.83,2.045l-.085.216-.163-.157c-1.437-1.392-2.687-2.613-3.562-3.49l-1.013-1.038a1.955,1.955,0,0,1-.347-.4,1.78,1.78,0,0,1,.418.326l1.085.968c.908.836,2.183,2.025,3.633,3.4l-.255.059c.262-.653.536-1.346.824-2.059l1.68-4.131.137-.339.125.339a11.486,11.486,0,0,0,1.588,2.961A9.6,9.6,0,0,1,10400.785,10170.5Z" transform="translate(-10377.199 -10163.536)" fill="#344154"/>
      <path id="Trazado_129267" data-name="Trazado 129267" d="M10412.98,10167.777a5.329,5.329,0,0,1-.837,1.15,11.224,11.224,0,0,1-2.725,2.4l-.157.1-.065-.177c-.235-.653-.5-1.307-.791-2.032-.425-1.065-.829-2.085-1.138-2.979h.275c-.236,1.183-.523,2.149-.7,2.829a6.953,6.953,0,0,1-.314,1.072,4.448,4.448,0,0,1,.144-1.111c.131-.7.379-1.673.589-2.843l.091-.522.183.5c.327.889.738,1.888,1.17,2.96.288.713.549,1.405.778,2.046l-.222-.078a13.108,13.108,0,0,0,2.745-2.262A12.732,12.732,0,0,1,10412.98,10167.777Z" transform="translate(-10382.663 -10163.359)" fill="#344154"/>
      <path id="Trazado_129268" data-name="Trazado 129268" d="M10408.748,10225.9a3.137,3.137,0,0,1,.031-.549c.04-.379.1-.9.171-1.556s.138-1.5.209-2.463c0-.484.072-1,.111-1.543s.039-1.123.065-1.732c.111-2.43.1-5.318.045-8.534s-.254-6.737-.51-10.456c-.535-7.4-1.261-14.084-1.816-18.914-.268-2.4-.5-4.346-.654-5.725-.064-.652-.124-1.176-.162-1.555a2.8,2.8,0,0,1-.039-.549,3.332,3.332,0,0,1,.1.536c.053.386.131.9.223,1.556.189,1.346.457,3.268.758,5.705.607,4.829,1.373,11.509,1.908,18.952.256,3.706.426,7.241.484,10.456s0,6.117-.111,8.549c0,.607-.064,1.189-.092,1.738s-.09,1.059-.137,1.543c-.084.96-.156,1.79-.262,2.463s-.17,1.17-.229,1.555A3.939,3.939,0,0,1,10408.748,10225.9Z" transform="translate(-10382.548 -10165.667)" fill="#344154"/>
      <path id="Trazado_129269" data-name="Trazado 129269" d="M10450.417,10198.705a30.882,30.882,0,0,1,0-6.215A29.642,29.642,0,0,1,10450.417,10198.705Z" transform="translate(-10397.813 -10172.655)" fill="#344154"/>
      <path id="Trazado_129270" data-name="Trazado 129270" d="M10452.6,10199.1c0,.288-.437-.536-1.392-3.2a13.809,13.809,0,0,1-.863-3.393,31.469,31.469,0,0,1,1.165,3.268A30.163,30.163,0,0,1,10452.6,10199.1Z" transform="translate(-10397.846 -10172.661)" fill="#344154"/>
    </g>
    <g id="Grupo_61611" data-name="Grupo 61611" transform="translate(38.518 198.141)">
      <g id="Grupo_61610" data-name="Grupo 61610">
        <path id="Trazado_129271" data-name="Trazado 129271" d="M10415.389,10421.848l-.5,11.875s11.907,4.49,12.024,6.7l-23.056-.138v-18.533Z" transform="translate(-10403.86 -10421.75)" fill="#727997"/>
        <g id="Grupo_61609" data-name="Grupo 61609" transform="translate(0.026 16.658)" opacity="0.6">
          <path id="Trazado_129273" data-name="Trazado 129273" d="M10403.9,10449.108l.072-1.869,22.082.829s1.026.451.9,1.177Z" transform="translate(-10403.9 -10447.239)" fill="#fff"/>
        </g>
        <path id="Trazado_129274" data-name="Trazado 129274" d="M10420.28,10439.839c0,.118-.568.164-1.124.523s-.855.829-.96.784.071-.692.751-1.118S10420.28,10439.708,10420.28,10439.839Z" transform="translate(-10408.817 -10427.977)" fill="#344154"/>
        <path id="Trazado_129275" data-name="Trazado 129275" d="M10424.28,10441.386c0,.1-.465.294-.85.771s-.5.974-.615.967-.176-.653.314-1.222A1.218,1.218,0,0,1,10424.28,10441.386Z" transform="translate(-10410.398 -10428.543)" fill="#344154"/>
        <path id="Trazado_129276" data-name="Trazado 129276" d="M10427.029,10444.872c-.1,0-.254-.542.039-1.157s.824-.855.869-.764-.28.425-.516.934S10427.16,10444.807,10427.029,10444.872Z" transform="translate(-10411.843 -10429.09)" fill="#344154"/>
        <path id="Trazado_129277" data-name="Trazado 129277" d="M10419.828,10435.49c-.045.105-.562-.053-1.2,0s-1.131.236-1.189.138.418-.49,1.17-.529S10419.895,10435.425,10419.828,10435.49Z" transform="translate(-10408.563 -10426.374)" fill="#344154"/>
      </g>
      <path id="Trazado_129278" data-name="Trazado 129278" d="M10419.352,10431.013a2.189,2.189,0,0,1-1.15,0,5.415,5.415,0,0,1-1.209-.379,5.133,5.133,0,0,1-.654-.359,1.34,1.34,0,0,1-.346-.274.479.479,0,0,1-.047-.6.6.6,0,0,1,.49-.254,1.705,1.705,0,0,1,.438.058,3.845,3.845,0,0,1,.712.256,3.956,3.956,0,0,1,1.059.706c.537.5.713.915.654.94s-.314-.32-.855-.731a4.681,4.681,0,0,0-1.027-.588,4.429,4.429,0,0,0-.652-.2c-.242-.072-.452-.072-.518.039s0,.053,0,.124a.933.933,0,0,0,.256.2,5.789,5.789,0,0,0,.607.354,6.03,6.03,0,0,0,1.109.432A6.94,6.94,0,0,1,10419.352,10431.013Z" transform="translate(-10408.02 -10424.314)" fill="#344154"/>
      <path id="Trazado_129279" data-name="Trazado 129279" d="M10420.738,10430.359a1.836,1.836,0,0,1-.3-1.117,3.839,3.839,0,0,1,.17-1.262,4.061,4.061,0,0,1,.294-.7.972.972,0,0,1,.739-.581.556.556,0,0,1,.483.326,1.65,1.65,0,0,1,.117.426,2.593,2.593,0,0,1,0,.777,2.69,2.69,0,0,1-.5,1.189c-.459.595-.929.726-.936.654a6.588,6.588,0,0,0,.7-.844,2.559,2.559,0,0,0,.373-1.078,2.288,2.288,0,0,0,0-.653c-.039-.242-.131-.438-.222-.419a.829.829,0,0,0-.405.38,3.813,3.813,0,0,0-.288.621,3.89,3.89,0,0,0-.229,1.149C10420.673,10429.9,10420.8,10430.359,10420.738,10430.359Z" transform="translate(-10409.603 -10423.465)" fill="#344154"/>
    </g>
    <g id="Grupo_61614" data-name="Grupo 61614" transform="translate(0 194.71)">
      <path id="Trazado_129280" data-name="Trazado 129280" d="M10355.232,10416.5l-3.744,14.861-6.353,10.9a1.568,1.568,0,0,0,.653,2.2h0a1.559,1.559,0,0,0,1.438,0c2.855-1.543,13.318-7.254,13.527-8.358.249-1.275,4.993-15.41,4.993-15.41Z" transform="translate(-10344.921 -10416.5)" fill="#727997"/>
      <g id="Grupo_61612" data-name="Grupo 61612" transform="translate(0.901 18.599)" opacity="0.6">
        <path id="Trazado_129281" data-name="Trazado 129281" d="M10346.3,10454.331l15.24-9.371-.17.653a2.378,2.378,0,0,1-.946,1.307c-1.243.844-4.727,3.092-12.641,7.411a1.567,1.567,0,0,1-1.482,0Z" transform="translate(-10346.3 -10444.96)" fill="#fff"/>
      </g>
      <g id="Grupo_61613" data-name="Grupo 61613" transform="translate(13.817 12.966)" opacity="0.6">
        <path id="Trazado_129282" data-name="Trazado 129282" d="M10366.675,10436.379a.949.949,0,0,0-.582,1.124.921.921,0,0,0,1.112.589,1.006,1.006,0,0,0,.613-1.2.954.954,0,0,0-1.228-.484" transform="translate(-10366.063 -10436.34)" fill="#fff"/>
      </g>
      <path id="Trazado_129283" data-name="Trazado 129283" d="M10352.814,10449.639a3.407,3.407,0,0,0-2.614-2.307c0-.039.216-.105.575-.053a2.441,2.441,0,0,1,1.26.6,2.474,2.474,0,0,1,.739,1.182A1.158,1.158,0,0,1,10352.814,10449.639Z" transform="translate(-10346.75 -10427.157)" fill="#344154"/>
      <path id="Trazado_129284" data-name="Trazado 129284" d="M10350.362,10452.621c-.085.039-.425-.568-1.131-1a12.309,12.309,0,0,0-1.392-.582,1.714,1.714,0,0,1,1.568.295A1.6,1.6,0,0,1,10350.362,10452.621Z" transform="translate(-10345.933 -10428.44)" fill="#344154"/>
      <path id="Trazado_129285" data-name="Trazado 129285" d="M10356.242,10446.331a16.253,16.253,0,0,0-1.646-1.654,15.135,15.135,0,0,0-2.045-1.116,4.311,4.311,0,0,1,3.692,2.771Z" transform="translate(-10347.564 -10425.876)" fill="#344154"/>
      <path id="Trazado_129286" data-name="Trazado 129286" d="M10358.486,10440.273c-.064.078-.783-.49-1.836-.824s-1.96-.307-1.96-.411a3.116,3.116,0,0,1,2.077.091,3.03,3.03,0,0,1,1.721,1.144Z" transform="translate(-10348.306 -10424.262)" fill="#344154"/>
      <path id="Trazado_129287" data-name="Trazado 129287" d="M10360.287,10433.7a8.114,8.114,0,0,0-1.89-.9,7.694,7.694,0,0,0-2.1-.053c0-.032.2-.176.595-.28a3.449,3.449,0,0,1,2.994.718A2.1,2.1,0,0,1,10360.287,10433.7Z" transform="translate(-10348.863 -10422)" fill="#344154"/>
      <path id="Trazado_129288" data-name="Trazado 129288" d="M10358.909,10430.283a1.3,1.3,0,0,1,.131-.568,4.113,4.113,0,0,1,.85-1.309,1.8,1.8,0,0,1,.968-.613.651.651,0,0,1,.653.32,1.024,1.024,0,0,1,.053.731,2.224,2.224,0,0,1-2.425,1.464,2.573,2.573,0,0,1-2.078-1.96.9.9,0,0,1,.157-.726.613.613,0,0,1,.712-.145,2.194,2.194,0,0,1,.829.777,4.416,4.416,0,0,1,.693,1.426,1.342,1.342,0,0,1,.085.568,6.939,6.939,0,0,0-.968-1.85,1.951,1.951,0,0,0-.738-.653.34.34,0,0,0-.393.072.652.652,0,0,0-.071.49,2.3,2.3,0,0,0,1.816,1.687,1.96,1.96,0,0,0,2.078-1.209.769.769,0,0,0,0-.517.338.338,0,0,0-.353-.183,1.634,1.634,0,0,0-.83.51A5.884,5.884,0,0,0,10358.909,10430.283Z" transform="translate(-10349.119 -10420.284)" fill="#344154"/>
    </g>
    <g id="Grupo_61617" data-name="Grupo 61617" transform="translate(3.734 87.552)">
      <path id="Trazado_129297" data-name="Trazado 129297" d="M10402.109,10253.033l-2.287,118.288a1.451,1.451,0,0,1-1.464,1.419l-13.776-.118a1.451,1.451,0,0,1-1.437-1.483l2.13-101.825-17.919,101.067a2.615,2.615,0,0,1-2.653,2.149l-11.562-.4a2.615,2.615,0,0,1-2.478-3l18.149-116.6Z" transform="translate(-10350.635 -10252.531)" fill="#344154"/>
      <path id="Trazado_129298" data-name="Trazado 129298" d="M10363.1,10369.657a2.094,2.094,0,0,1,0-.282l.125-.815c.125-.726.295-1.777.51-3.124.458-2.726,1.111-6.641,1.915-11.476,1.614-9.705,3.849-23.09,6.307-37.9s4.614-28.207,6.144-37.905c.752-4.842,1.365-8.764,1.791-11.5.215-1.346.379-2.4.5-3.124.059-.347.1-.653.137-.816a2.347,2.347,0,0,1,.053-.274,2.237,2.237,0,0,1,0,.28c0,.2-.059.471-.1.817-.1.731-.241,1.784-.431,3.137-.373,2.719-.961,6.652-1.693,11.509-1.471,9.718-3.6,23.128-6.045,37.9s-4.719,28.174-6.4,37.858c-.85,4.823-1.535,8.737-2.014,11.463-.241,1.34-.437,2.386-.568,3.11-.064.347-.117.614-.156.811S10363.1,10369.657,10363.1,10369.657Z" transform="translate(-10354.951 -10255.965)" fill="#5e6178"/>
      <path id="Trazado_129299" data-name="Trazado 129299" d="M10417.086,10370.191c-.092,0,.064-24.076.346-53.766s.582-53.765.654-53.765-.065,24.069-.347,53.765S10417.151,10370.191,10417.086,10370.191Z" transform="translate(-10373.649 -10256.041)" fill="#5e6178"/>
      <path id="Trazado_129300" data-name="Trazado 129300" d="M10417.6,10427.717c0,.091-3.758.163-8.392.163s-8.391-.072-8.391-.163,3.758-.157,8.391-.157S10417.6,10427.651,10417.6,10427.717Z" transform="translate(-10368.022 -10313.175)" fill="#5e6178"/>
      <path id="Trazado_129301" data-name="Trazado 129301" d="M10368.439,10426.845a2.723,2.723,0,0,1-.653.065l-1.829.059-6.059.15c-2.365.046-4.51.064-6.058.053-.778,0-1.405,0-1.837-.039a2.992,2.992,0,0,1-.653-.06,2.383,2.383,0,0,1,.655-.064l1.828-.065,6.059-.144c2.365-.052,4.51-.071,6.058-.052.778,0,1.405,0,1.836.039A2.576,2.576,0,0,1,10368.439,10426.845Z" transform="translate(-10350.883 -10312.891)" fill="#5e6178"/>
      <path id="Trazado_129302" data-name="Trazado 129302" d="M10405.7,10255.4a12.331,12.331,0,0,1-.046,2.045c-.065,1.262-.189,3-.347,4.922-.079.96-.138,1.875-.255,2.712a5.111,5.111,0,0,1-.732,2.136,2.925,2.925,0,0,1-1.117,1.04,1.1,1.1,0,0,1-.529.163,3.475,3.475,0,0,0,1.444-1.307,5.323,5.323,0,0,0,.654-2.053c.1-.816.144-1.738.228-2.7.151-1.921.308-3.659.444-4.914A12.208,12.208,0,0,1,10405.7,10255.4Z" transform="translate(-10368.663 -10253.525)" fill="#5e6178"/>
    </g>
    <g id="Grupo_61621" data-name="Grupo 61621" transform="translate(6.212 41.354)">
      <g id="Grupo_61618" data-name="Grupo 61618" transform="translate(16.628 24.469)" opacity="0.3">
        <path id="Trazado_129303" data-name="Trazado 129303" d="M10380.021,10231.579a6.161,6.161,0,0,0,5.371,1.543c1.359-.269,2.614-1.007,4.02-.915,1.51.1,2.758,1.149,4.137,1.777,2.568,1.163,5.575.79,8.3.064a6.173,6.173,0,0,0,3.373-1.8,6.051,6.051,0,0,0,1.039-2.8,28.917,28.917,0,0,0,.405-5.555,5.345,5.345,0,0,0-.9-3.313,3.843,3.843,0,0,0-2.489-1.255,10.085,10.085,0,0,0-2.836.157,46.985,46.985,0,0,0-20.572,8.829" transform="translate(-10379.871 -10219.281)"/>
      </g>
      <path id="Trazado_129304" data-name="Trazado 129304" d="M10384.472,10212.464s-17.306,7.737-19.063,8.124c-5.843,1.307-12.521-4.236-10.666-10.529.653-2.34,10-28.219,10-28.219l8.861,12.247-3.751,12.534,9.8-.653Z" transform="translate(-10354.427 -10181.84)" fill="#fff"/>
      <path id="Trazado_129305" data-name="Trazado 129305" d="M10386.929,10212.628a3.143,3.143,0,0,1-.654.091l-1.888.164c-1.614.124-3.869.28-6.431.444h-.216l.059-.21c.189-.653.379-1.274.581-1.96.869-2.922,1.68-5.568,2.281-7.477l.726-2.255a4.674,4.674,0,0,1,.308-.816,5.252,5.252,0,0,1-.19.849c-.17.595-.379,1.359-.653,2.287-.549,1.922-1.307,4.575-2.2,7.5l-.588,1.961-.151-.189c2.568-.151,4.823-.269,6.438-.34l1.9-.072a2.994,2.994,0,0,1,.681.021Z" transform="translate(-10362.504 -10188.343)" fill="#344154"/>
      <path id="Trazado_129306" data-name="Trazado 129306" d="M10388.436,10230.3c0,.078-3.764,1.719-8.5,3.666s-8.567,3.457-8.6,3.379,3.764-1.719,8.5-3.666S10388.371,10230.233,10388.436,10230.3Z" transform="translate(-10360.287 -10198.629)" fill="#344154"/>
      <g id="Grupo_61620" data-name="Grupo 61620" transform="translate(24.49 16.024)">
        <g id="Grupo_61619" data-name="Grupo 61619">
          <path id="Trazado_129308" data-name="Trazado 129308" d="M10391.9,10212.7h0a1.81,1.81,0,0,1,1.691,1.156,3.914,3.914,0,0,0,1.15,1.844,4.112,4.112,0,0,0,3.072.45c.765-.371,3.836-3.143,4.379-2.836s.993,1,.457,1.614-3.378,2.457-2.836,3.071,6.535-2.091,7.443-1.85,1.458.8.922,1.177-4.575,1.9-4.836,2.438c0,0,6.143-1.608,6.371-1.229s.615,1,0,1.229-5.914,1.613-6.371,1.843a11.424,11.424,0,0,1-2.367.692c-.169,0-1.371.405-2.476.784a5.4,5.4,0,0,1-3.816-.1l-.654-.248a2.438,2.438,0,0,1-1.509-2.405l.124-2.1-.653-1.726Z" transform="translate(-10391.9 -10208.557)" fill="#b78876"/>
        </g>
        <path id="Trazado_129309" data-name="Trazado 129309" d="M10407.007,10209.953a.653.653,0,1,1-.653-.653A.653.653,0,0,1,10407.007,10209.953Z" transform="translate(-10396.682 -10207.378)" fill="#fafafa"/>
      </g>
    </g>
  </g>
  <g id="Grupo_129607" data-name="Grupo 129607" transform="translate(94.849 58.139)">
    <g id="Grupo_61629" data-name="Grupo 61629" transform="translate(24.309 151.88)">
      <g id="Grupo_61628" data-name="Grupo 61628">
        <path id="Trazado_129343" data-name="Trazado 129343" d="M10480.117,10416.9l4.438,11.018s-9.712,8.215-9.091,10.332l21.684-7.842-6.215-17.462Z" transform="translate(-10475.399 -10412.95)" fill="#727997"/>
        <g id="Grupo_61627" data-name="Grupo 61627" transform="translate(0 15.743)" opacity="0.6">
          <path id="Trazado_129345" data-name="Trazado 129345" d="M10497.155,10438.778l-.7-1.738-20.526,8.169s-.817.765-.458,1.405Z" transform="translate(-10475.379 -10437.04)" fill="#fff"/>
        </g>
        <path id="Trazado_129346" data-name="Trazado 129346" d="M10488.8,10435.739c.039.105.588-.038,1.234.111s1.079.5,1.164.418-.295-.653-1.078-.8S10488.732,10435.674,10488.8,10435.739Z" transform="translate(-10480.027 -10420.741)" fill="#344154"/>
        <path id="Trazado_129347" data-name="Trazado 129347" d="M10485.8,10438.535c0,.111.536.124,1.059.443s.8.752.9.706-.045-.653-.705-1.045A1.2,1.2,0,0,0,10485.8,10438.535Z" transform="translate(-10478.99 -10421.772)" fill="#344154"/>
        <path id="Trazado_129348" data-name="Trazado 129348" d="M10484.606,10442.676c.1,0,.059-.6-.418-1.079s-1.064-.536-1.078-.432.411.308.8.706S10484.476,10442.676,10484.606,10442.676Z" transform="translate(-10478.059 -10422.711)" fill="#344154"/>
        <path id="Trazado_129349" data-name="Trazado 129349" d="M10487.7,10431.433c.078.085.51-.242,1.124-.418s1.149-.151,1.17-.262-.562-.327-1.308-.111S10487.63,10431.366,10487.7,10431.433Z" transform="translate(-10479.644 -10419.048)" fill="#344154"/>
      </g>
      <path id="Trazado_129350" data-name="Trazado 129350" d="M10486.4,10427.032a2.129,2.129,0,0,0,1.084-.392,5.3,5.3,0,0,0,1.014-.766,5.753,5.753,0,0,0,.5-.555,1.582,1.582,0,0,0,.235-.373.5.5,0,0,0-.158-.581.649.649,0,0,0-.548-.072,1.6,1.6,0,0,0-.392.2,4.014,4.014,0,0,0-.588.478,3.89,3.89,0,0,0-.766,1.02,1.919,1.919,0,0,0-.32,1.11c.059,0,.184-.4.563-.973a4.418,4.418,0,0,1,.771-.9,3.949,3.949,0,0,1,.549-.418c.209-.143.4-.215.5-.137s.039.046,0,.131a1.074,1.074,0,0,1-.176.275,5.417,5.417,0,0,1-.457.535,6.33,6.33,0,0,1-.9.784A10.224,10.224,0,0,0,10486.4,10427.032Z" transform="translate(-10479.198 -10416.87)" fill="#344154"/>
      <path id="Trazado_129351" data-name="Trazado 129351" d="M10485.412,10426.924a1.9,1.9,0,0,0-.1-1.15,3.789,3.789,0,0,0-.574-1.137,3.71,3.71,0,0,0-.517-.562.954.954,0,0,0-.888-.294.546.546,0,0,0-.348.464,1.5,1.5,0,0,0,.033.438,2.577,2.577,0,0,0,.268.732,2.607,2.607,0,0,0,.869.954c.621.411,1.111.379,1.1.339a4.66,4.66,0,0,1-.941-.562,2.564,2.564,0,0,1-.712-.9,2.321,2.321,0,0,1-.209-.653c-.053-.241-.033-.457.064-.47a.83.83,0,0,1,.511.222,3.831,3.831,0,0,1,.478.489,4.122,4.122,0,0,1,.607,1.008C10485.281,10426.531,10485.346,10426.989,10485.412,10426.924Z" transform="translate(-10478.014 -10416.696)" fill="#344154"/>
    </g>
    <g id="Grupo_61632" data-name="Grupo 61632" transform="translate(44.702 149.926)">
      <g id="Grupo_61631" data-name="Grupo 61631">
        <path id="Trazado_129352" data-name="Trazado 129352" d="M10511.317,10413.906l4.438,11.025s-9.712,8.215-9.091,10.332l21.684-7.842-6.215-17.463Z" transform="translate(-10506.602 -10409.959)" fill="#727997"/>
        <g id="Grupo_61630" data-name="Grupo 61630" transform="translate(0 15.671)" opacity="0.6">
          <path id="Trazado_129354" data-name="Trazado 129354" d="M10528.357,10435.678l-.7-1.738-20.527,8.169s-.811.771-.458,1.411Z" transform="translate(-10506.583 -10433.939)" fill="#fff"/>
        </g>
        <path id="Trazado_129355" data-name="Trazado 129355" d="M10520,10432.638c.046.1.588-.039,1.234.117s1.079.5,1.164.418-.295-.653-1.078-.8A1.47,1.47,0,0,0,10520,10432.638Z" transform="translate(-10511.232 -10417.712)" fill="#344154"/>
        <path id="Trazado_129356" data-name="Trazado 129356" d="M10517.1,10435.434c0,.111.535.124,1.059.443s.8.752.9.713-.046-.653-.7-1.053S10517.032,10435.368,10517.1,10435.434Z" transform="translate(-10510.225 -10418.743)" fill="#344154"/>
        <path id="Trazado_129357" data-name="Trazado 129357" d="M10515.81,10439.578c.1,0,.059-.595-.418-1.078s-1.059-.529-1.071-.425.405.3.79.706S10515.744,10439.644,10515.81,10439.578Z" transform="translate(-10509.265 -10419.686)" fill="#344154"/>
        <path id="Trazado_129358" data-name="Trazado 129358" d="M10518.9,10428.328c.079.079.51-.241,1.124-.418s1.15-.157,1.17-.268-.562-.327-1.307-.111S10518.83,10428.264,10518.9,10428.328Z" transform="translate(-10510.847 -10416.017)" fill="#344154"/>
      </g>
      <path id="Trazado_129359" data-name="Trazado 129359" d="M10517.6,10423.928a2.193,2.193,0,0,0,1.085-.4,5.256,5.256,0,0,0,1.014-.758,6.1,6.1,0,0,0,.5-.562,1.439,1.439,0,0,0,.234-.373.5.5,0,0,0-.156-.582.655.655,0,0,0-.549-.071,1.568,1.568,0,0,0-.392.2,4.183,4.183,0,0,0-.589.478,4.235,4.235,0,0,0-.763,1.02,1.961,1.961,0,0,0-.322,1.111c.06,0,.19-.4.563-.974a4.518,4.518,0,0,1,1.32-1.314c.209-.137.405-.215.5-.131s.039.047,0,.131a1.2,1.2,0,0,1-.177.275c-.144.189-.3.372-.451.535a6.461,6.461,0,0,1-.908.779A8.184,8.184,0,0,0,10517.6,10423.928Z" transform="translate(-10510.4 -10413.838)" fill="#344154"/>
      <path id="Trazado_129360" data-name="Trazado 129360" d="M10516.606,10423.824a1.873,1.873,0,0,0-.091-1.15,4.053,4.053,0,0,0-.582-1.137,3.753,3.753,0,0,0-.516-.555.956.956,0,0,0-.89-.3.556.556,0,0,0-.347.471,1.493,1.493,0,0,0,0,.438,2.677,2.677,0,0,0,1.137,1.686c.654.405,1.111.373,1.111.334a8.115,8.115,0,0,1-.947-.562,2.536,2.536,0,0,1-.713-.9,2.211,2.211,0,0,1-.209-.653c-.053-.242,0-.458.065-.464a.915.915,0,0,1,.51.216,3.708,3.708,0,0,1,.478.489,4.2,4.2,0,0,1,.607,1.008C10516.541,10423.433,10516.541,10423.89,10516.606,10423.824Z" transform="translate(-10509.211 -10413.669)" fill="#344154"/>
    </g>
    <g id="Grupo_61633" data-name="Grupo 61633" transform="translate(43.476)">
      <path id="Trazado_129361" data-name="Trazado 129361" d="M10525.7,10193.7l-2.071,16.992,3.222,7.842-12.744.451-2.614-6.11s-6.307-.712-6.535-4.758c-.157-2.614,4-21.39,4-21.39Z" transform="translate(-10504.793 -10182.69)" fill="#ffbf9d"/>
      <path id="Trazado_129362" data-name="Trazado 129362" d="M10521.563,10211.755a6.4,6.4,0,0,0,2.921-3.392c.66-1.693,1.085-3.471,1.836-5.124s1.928-3.268,2.705-5.039a7.017,7.017,0,0,0,.419-5.542s-.274-2.241-3.269-3.059c0,0-1.705-4.75-5.613-5.229-5.319-.607-5.137-2.17-8.606-3.5a3.367,3.367,0,0,0-4.5,1.621,5.048,5.048,0,0,0-2.613,2.936v.052a4.64,4.64,0,0,0,2.17,5.1l.652.379a4.543,4.543,0,0,1,1.635,1.307,3.86,3.86,0,0,1,.2,3.045,8.4,8.4,0,0,0-.483,3.085c.052.353.255.771.614.752s.523-.581.654-.993a1.789,1.789,0,0,1,3.018-.653,1.894,1.894,0,0,1,.079,2.365c-.588.765-1.606,1.242-1.96,2.144-.653,1.523.941,3.307,1.465,4.32a6.881,6.881,0,0,0,.653,1.025,15.271,15.271,0,0,0,4.443,3.869,4.087,4.087,0,0,0,4.169.209" transform="translate(-10504.708 -10180.548)" fill="#344154"/>
    </g>
    <g id="Grupo_61634" data-name="Grupo 61634" transform="translate(0 38.883)">
      <path id="Trazado_129363" data-name="Trazado 129363" d="M10446.1,10252.824h0c-2.235-.954-3.68-1.816-5.176-2.359-1.844-.654-2.562-1.078-2.412-1.418.2-.444.1-.281,3.633.457,0,0-5.032-1.1-3.757-1.719.568-.273,4.758.6,4.758.6-3.432-.393-4.66-1.085-4.575-1.6.131-.744,5.229.359,5.229.359a37.041,37.041,0,0,1-4.522-1.111c-.6-.346.176-.653.922-.758s5.816.085,7.254.059a.843.843,0,0,0,.928-.889,5.329,5.329,0,0,1,.777-4.254c.438-.4,1.131.078.987.711a7.721,7.721,0,0,0,.032,2.111,5.023,5.023,0,0,0,.465,1.621c.287.589.555,1.079.79,1.484l7.124,7.789-3.078,7.4Z" transform="translate(-10438.183 -10240.045)" fill="#ffbf9d"/>
      <path id="Trazado_129364" data-name="Trazado 129364" d="M10444.854,10254.7a18.316,18.316,0,0,1-4.8-1.137,19,19,0,0,1,4.8,1.136Z" transform="translate(-10438.83 -10244.728)" fill="#ff9a6c"/>
      <path id="Trazado_129365" data-name="Trazado 129365" d="M10445.327,10252.822a20.937,20.937,0,0,1-5.228-.9A21.89,21.89,0,0,1,10445.327,10252.822Z" transform="translate(-10438.847 -10244.159)" fill="#ff9a6c"/>
    </g>
    <g id="Grupo_61635" data-name="Grupo 61635" transform="translate(11.432 83.934)">
      <path id="Trazado_129367" data-name="Trazado 129367" d="M10498.758,10309.974l-30.461,4.574a14.828,14.828,0,0,0-10.208,6.535h0a14.828,14.828,0,0,0-1.823,12.254l16.083,51.295,14.528-5.5-8.921-45.348,47.119-3.156v-20.7l-26.317-.947" transform="translate(-10455.675 -10308.98)" fill="#12263f"/>
      <path id="Trazado_129368" data-name="Trazado 129368" d="M10531.656,10309.99l-30.468,4.575a14.859,14.859,0,0,0-10.208,6.536h0a14.852,14.852,0,0,0-1.823,12.253l14.031,48.244,16.221-4.287-8.555-43.512,31.474-2.111v-20.7l-10.672-1.961" transform="translate(-10467.071 -10308.997)" fill="#12263f"/>
    </g>
    <g id="Grupo_61638" data-name="Grupo 61638" transform="translate(10.119 33.213)">
      <path id="Trazado_129369" data-name="Trazado 129369" d="M10458.982,10252.3c.652-.092,21.324,16.043,21.324,16.043l-13.208,5.229-13.4-13.286S10452.9,10253.148,10458.982,10252.3Z" transform="translate(-10453.667 -10238.622)" fill="#00978e"/>
      <g id="Grupo_61637" data-name="Grupo 61637" transform="translate(12.334)">
        <path id="Trazado_129370" data-name="Trazado 129370" d="M10532.441,10238.709c-3.45-5-9.318-6.726-11.352-7.189a5.549,5.549,0,0,0-1.307-.15h-17.606a12.344,12.344,0,0,0-8.556,3.4,42.188,42.188,0,0,0-6.762,8.713l-8.869,12.324-5.45,9.15,1.11,1.4a9.148,9.148,0,0,0,10.947,2.784,11.36,11.36,0,0,0,4.332-4.2c2.229-3.268,4.575-6.811,6.092-9.509l8.888,25.415-4.751,3.02,20.031,8.1,20.866-8.921-5.765-20.527h0s9.15.889,9.979-2.7S10536.689,10244.852,10532.441,10238.709Z" transform="translate(-10472.54 -10231.369)" fill="#00978e"/>
        <path id="Trazado_129371" data-name="Trazado 129371" d="M10561.084,10256.754a84.616,84.616,0,0,1,4.163,7.7c.17.347.653.046.51-.294a66,66,0,0,0-4.339-7.594C10561.28,10256.354,10560.954,10256.564,10561.084,10256.754Z" transform="translate(-10503.207 -10240.068)" fill="#fafafa"/>
        <path id="Trazado_129372" data-name="Trazado 129372" d="M10567.385,10254.451a84.01,84.01,0,0,1,4.163,7.7c.17.34.653.047.51-.294a66.7,66.7,0,0,0-4.339-7.6c-.138-.2-.464,0-.333.2Z" transform="translate(-10505.392 -10239.269)" fill="#fafafa"/>
        <path id="Trazado_129373" data-name="Trazado 129373" d="M10555,10257.7c.883,3.41,1.575,6.874,2.137,10.357.079.484.823.281.739-.209a69.019,69.019,0,0,0-2.562-10.234.163.163,0,0,0-.313.084Z" transform="translate(-10501.109 -10240.425)" fill="#fafafa"/>
        <path id="Trazado_129374" data-name="Trazado 129374" d="M10540.494,10259.176a41.482,41.482,0,0,1,1.719,10.267c0,.484.771.484.752,0a34.166,34.166,0,0,0-2.1-10.365c-.079-.235-.445-.137-.366.1Z" transform="translate(-10496.081 -10240.923)" fill="#fafafa"/>
        <path id="Trazado_129375" data-name="Trazado 129375" d="M10550.713,10266.688a46.338,46.338,0,0,1-2.281-9.678c-.046-.445-.719-.465-.713,0a19.389,19.389,0,0,0,2.615,9.8.2.2,0,0,0,.372-.157Z" transform="translate(-10498.587 -10240.135)" fill="#fafafa"/>
        <path id="Trazado_129376" data-name="Trazado 129376" d="M10534.085,10259.6a44.11,44.11,0,0,0,1.425,9.765.34.34,0,1,0,.653-.19c-.614-3.209-1.2-6.4-1.732-9.627,0-.209-.379-.156-.372.053Z" transform="translate(-10493.854 -10241.087)" fill="#fafafa"/>
        <path id="Trazado_129377" data-name="Trazado 129377" d="M10526.3,10260.508c.882,3.581,1.535,7.188,2.177,10.8.064.346.653.268.614-.078a58.332,58.332,0,0,0-2.523-10.8.139.139,0,1,0-.269.071Z" transform="translate(-10491.163 -10241.404)" fill="#fafafa"/>
        <path id="Trazado_129378" data-name="Trazado 129378" d="M10519.2,10261.706a42.688,42.688,0,0,0,1.091,9.98c.091.358.581.2.536-.145a91.849,91.849,0,0,1-1.2-9.8.216.216,0,0,0-.432,0Z" transform="translate(-10488.706 -10241.819)" fill="#fafafa"/>
        <path id="Trazado_129379" data-name="Trazado 129379" d="M10496.507,10270.836a73.84,73.84,0,0,0,7.5-8.895c.2-.269-.248-.653-.471-.366a67.461,67.461,0,0,0-7.188,9.149c-.072.117.091.235.189.144Z" transform="translate(-10480.784 -10241.8)" fill="#fafafa"/>
        <path id="Trazado_129380" data-name="Trazado 129380" d="M10491.551,10266.969a31.425,31.425,0,0,0,6.43-7.9.3.3,0,0,0-.521-.308c-1.915,2.79-4.053,5.327-6.144,7.979a.164.164,0,1,0,.235.229Z" transform="translate(-10479.028 -10240.808)" fill="#fafafa"/>
        <path id="Trazado_129381" data-name="Trazado 129381" d="M10491.751,10256.772c-1.843,2.065-3.751,4.1-5.489,6.248-.235.288.156.7.411.411,1.85-2.071,3.549-4.28,5.3-6.437C10492.1,10256.845,10491.889,10256.622,10491.751,10256.772Z" transform="translate(-10477.27 -10240.153)" fill="#fafafa"/>
        <path id="Trazado_129382" data-name="Trazado 129382" d="M10511.99,10262.455c.785,3.313,1.249,6.687,1.961,10.006.072.32.607.254.575-.072a75.292,75.292,0,0,0-2.11-10.058.228.228,0,0,0-.437.124Z" transform="translate(-10486.203 -10242.046)" fill="#fafafa"/>
        <g id="Grupo_61636" data-name="Grupo 61636" transform="translate(37.461 27.534)" opacity="0.3">
          <path id="Trazado_129383" data-name="Trazado 129383" d="M10544.983,10273.5a4.881,4.881,0,0,0-3.745,1.87,11.7,11.7,0,0,0-1.961,3.842,39.893,39.893,0,0,0-2.078,13.6c0,1.405.047,3.025-1.02,3.921-.914.791-2.268.732-3.4,1.17-1.8.706-3.339,3.11-2.816,4.967l10.072,3.816Z" transform="translate(-10529.861 -10273.5)"/>
        </g>
      </g>
    </g>
    <path id="Trazado_129384" data-name="Trazado 129384" d="M10531.241,10306.1a3.3,3.3,0,0,1-1.144.444,13.157,13.157,0,0,1-2.935.462,13.025,13.025,0,0,1-2.961-.2,3.6,3.6,0,0,1-1.183-.339,40.8,40.8,0,0,0,4.13.2,38.724,38.724,0,0,0,4.091-.569Z" transform="translate(-10467.576 -10224.049)" fill="#344154"/>
    <g id="Grupo_61639" data-name="Grupo 61639" transform="translate(19.421 51.859)">
      <path id="Trazado_129385" data-name="Trazado 129385" d="M10846.873,10560.9l-7.973,67.247h3.464l8.5-67.247Z" transform="translate(-10838.9 -10503.168)" fill="#5e6178"/>
      <path id="Trazado_129386" data-name="Trazado 129386" d="M10900,10560.9l7.385,67.247h3.725l-7.123-67.247Z" transform="translate(-10860.07 -10503.168)" fill="#5e6178"/>
      <path id="Trazado_129387" data-name="Trazado 129387" d="M10959.7,10560.9l6.144,67.247h4.248l-7.058-67.247H10958" transform="translate(-10880.166 -10503.168)" fill="#5e6178"/>
      <path id="Trazado_129388" data-name="Trazado 129388" d="M10550.262,10259.9h29.7a4.62,4.62,0,0,1,4.575,5.28l-7.025,49.027a3.975,3.975,0,0,1-3.922,3.411H10535.1Z" transform="translate(-10491.184 -10259.9)" fill="#5e6178"/>
      <path id="Trazado_129389" data-name="Trazado 129389" d="M10474.1,10317.678c.078-.745,0-4.457,0-4.457l36.839.692a5.66,5.66,0,0,0,5.686-4.738l7.34-44.857a5.227,5.227,0,0,1,5.176-4.4h0l-8.006,50.5a8.606,8.606,0,0,1-8.5,7.261Z" transform="translate(-10470.048 -10259.907)" fill="#5e6178"/>
      <path id="Trazado_129390" data-name="Trazado 129390" d="M10551.055,10259.9a.426.426,0,0,1,0,.157l-.053.457c-.059.425-.143,1-.248,1.738l-.954,6.385-3.3,21.044c-.654,4.1-1.307,8.019-1.85,11.58-.295,1.777-.568,3.47-.823,5.052a34.6,34.6,0,0,1-.9,4.386,11.892,11.892,0,0,1-1.517,3.365,8.325,8.325,0,0,1-1.9,2.046,6.183,6.183,0,0,1-1.536.863,3.344,3.344,0,0,1-.589.175,7.885,7.885,0,0,0,2.046-1.143,10.068,10.068,0,0,0,3.267-5.379,35.875,35.875,0,0,0,.85-4.353c.243-1.588.512-3.268.785-5.059.563-3.568,1.184-7.477,1.83-11.587,1.307-8.2,2.523-15.626,3.393-21.03.443-2.667.811-4.837,1.064-6.372.131-.726.236-1.307.307-1.726.039-.183.065-.326.092-.451a.554.554,0,0,1,.033-.148Z" transform="translate(-10491.976 -10259.9)" fill="#344154"/>
    </g>
    <path id="Trazado_129391" data-name="Trazado 129391" d="M10559.057,10257.617a14.057,14.057,0,0,1-1.79-2.534,13.911,13.911,0,0,1-1.5-2.713,29.047,29.047,0,0,1,3.268,5.228Z" transform="translate(-10478.924 -10205.433)" fill="#344154"/>
    <path id="Trazado_129392" data-name="Trazado 129392" d="M10475,10273.3a28.348,28.348,0,0,1,2.308-3.588,26.676,26.676,0,0,1,2.613-3.386,27.267,27.267,0,0,1-2.3,3.582A26.864,26.864,0,0,1,10475,10273.3Z" transform="translate(-10450.939 -10210.27)" fill="#344154"/>
    <path id="Trazado_129393" data-name="Trazado 129393" d="M10506.814,10258.8a4.456,4.456,0,0,1-.405.759l-1.17,2.006c-1,1.687-2.412,4-4.039,6.536s-3.162,4.744-4.312,6.339c-.568.8-1.046,1.432-1.379,1.869a4.1,4.1,0,0,1-.549.653,4.054,4.054,0,0,1,.438-.731l1.306-1.961c1.1-1.627,2.614-3.875,4.222-6.392l4.124-6.45c.522-.83.954-1.5,1.261-1.961A3.6,3.6,0,0,1,10506.814,10258.8Z" transform="translate(-10457.854 -10207.66)" fill="#344154"/>
  </g>
</svg>
