<svg xmlns="http://www.w3.org/2000/svg" xmlns:xlink="http://www.w3.org/1999/xlink" width="158.954" height="179.905" viewBox="0 0 158.954 179.905">
  <defs>
    <radialGradient id="radial-gradient" cx="0.076" cy="0.019" r="1.465" gradientTransform="translate(0)" gradientUnits="objectBoundingBox">
      <stop offset="0" stop-color="#f6f6f7"/>
      <stop offset="0.477" stop-color="#f9f9fa"/>
      <stop offset="0.715" stop-color="#fff"/>
    </radialGradient>
  </defs>
  <g id="Grupo_129523" data-name="Grupo 129523" transform="translate(31.446 27.663)">
    <g id="Grupo_87605" data-name="Grupo 87605" transform="translate(-6.446)">
      <rect id="Rectángulo_32801" data-name="Rectángulo 32801" width="108.528" height="152.242" rx="5" fill="#00978e"/>
    </g>
    <g id="Grupo_91879" data-name="Grupo 91879" transform="translate(-421.555 -2837.405)">
      <g id="Grupo_91843" data-name="Grupo 91843" transform="translate(390.109 2809.742)">
        <g id="Grupo_91009" data-name="Grupo 91009" transform="translate(0 0)">
          <g id="Grupo_42274" data-name="Grupo 42274">
            <g id="Grupo_18423" data-name="Grupo 18423" transform="translate(0 0)">
              <g id="Grupo_18421" data-name="Grupo 18421">
                <g id="Grupo_18420" data-name="Grupo 18420">
                  <g id="Grupo_18419" data-name="Grupo 18419">
                    <path id="Trazado_40936" data-name="Trazado 40936" d="M353.577,2225.2a79.477,79.477,0,1,1-79.476-79.476A79.476,79.476,0,0,1,353.577,2225.2Z" transform="translate(-194.623 -2145.721)" fill="#fff"/>
                  </g>
                </g>
              </g>
              <path id="Trazado_40937" data-name="Trazado 40937" d="M352.4,2223.915a79.475,79.475,0,1,0-79.476,79.481A79.164,79.164,0,0,0,352.4,2223.915Z" transform="translate(-193.477 -2144.398)" fill="url(#radial-gradient)"/>
              <path id="Trazado_40938" data-name="Trazado 40938" d="M336.112,2219.854a67.27,67.27,0,1,0-67.27,67.271A67.029,67.029,0,0,0,336.112,2219.854Z" transform="translate(-189.208 -2140.204)" fill="none" stroke="#008f85" stroke-miterlimit="10" stroke-width="5"/>
              <g id="Grupo_18422" data-name="Grupo 18422" transform="translate(14.08 44.621)">
                <path id="Trazado_40939" data-name="Trazado 40939" d="M337.382,2164.488a79.486,79.486,0,0,1-136.837,79.149,79.234,79.234,0,0,0,136.837-79.149Z" transform="translate(-200.545 -2164.488)" fill="#eceef0"/>
              </g>
            </g>
          </g>
        </g>
      </g>
      <g id="u0O9Ym" transform="translate(439.109 2851.995)">
        <g id="Grupo_129605" data-name="Grupo 129605" transform="translate(0 0)">
          <path id="Trazado_166615" data-name="Trazado 166615" d="M3518.947,2825.508c.052-6.141-.064-12.29.232-18.418a48.907,48.907,0,0,1,1.667-8.418c1.323-5.756,2.819-11.475,4.033-17.253a26.053,26.053,0,0,0-.973-13.776,28.1,28.1,0,0,0-10.93-14.511,26.921,26.921,0,0,0-11.978-4.667,27.742,27.742,0,0,0-24.021,7.994,26.892,26.892,0,0,0-8.042,16.1c-.229,1.739-.2,3.512-.308,5.267a4.34,4.34,0,0,1-.237,1.313c-1.95,4.9-3.926,9.8-5.89,14.7-1.19,2.967.423,5.377,3.6,5.384,1.635,0,3.27,0,5.02,0,0,.337,0,.629,0,.922.012,2.215-.05,4.434.052,6.646a7.277,7.277,0,0,0,6.893,6.761c.981.04,1.964.009,2.946.018a2.8,2.8,0,0,1,3.01,3.025c.014,2.971.009,5.942.011,8.914Zm-32.63-2.33c0-.321,0-.591,0-.862,0-2.04.038-4.081-.021-6.119a4.986,4.986,0,0,0-4.866-4.9c-.855-.037-1.712-.014-2.568-.019a5.055,5.055,0,0,1-5.429-5.422c-.007-2.694,0-5.389,0-8.083v-.835c-2.512,0-4.9,0-7.295,0-1.588,0-2.09-.75-1.5-2.23q3.069-7.666,6.135-15.334a2.43,2.43,0,0,0,.2-1.014,26.13,26.13,0,0,1,13.99-24.941,26,26,0,0,1,24.871.464,25.746,25.746,0,0,1,10.963,12.1,24.223,24.223,0,0,1,1.814,15.045c-1.241,5.979-2.7,11.916-4.207,17.834a54.718,54.718,0,0,0-1.824,15.308c.086,2.717.015,5.439.015,8.159v.848Z" transform="translate(-3462.109 -2748.186)" fill="#1d272b"/>
          <path id="Trazado_166616" data-name="Trazado 166616" d="M3529.2,2790.151h-3.011c-.176,0-.464.066-.511-.013a21.379,21.379,0,0,1-1.1-2.021.708.708,0,0,1,.148-.624c.773-.791,1.583-1.547,2.312-2.249l-5.9-5.893c-.638.659-1.4,1.42-2.13,2.218-.311.343-.566.257-.971.177-1.667-.327-2.03-1.372-1.808-2.868a11.772,11.772,0,0,0,.013-1.685H3508c0,1.068-.02,2.141.01,3.212.012.442-.175.6-.544.831a2.151,2.151,0,0,1-3.3-.737,15.194,15.194,0,0,0-1.115-1.293l-5.84,5.88,2.682,2.5-1.061,2.572h-3.787v8.2c1.044,0,2.068.026,3.089-.011.524-.019.716.2,1,.643.849,1.355.515,2.314-.708,3.177a9.747,9.747,0,0,0-1.171,1.125l5.838,5.837c.649-.656,1.421-1.411,2.162-2.195.284-.3.542-.413.91-.17a1.416,1.416,0,0,0,.545.252c1.184.166,1.434.895,1.314,1.962a21.382,21.382,0,0,0-.016,2.321h8.248c0-1.039.033-2.066-.013-3.09-.024-.554.158-.857.7-.954a.344.344,0,0,0,.144-.044c1.207-.906,2.063-.384,2.853.645a14.413,14.413,0,0,0,1.277,1.311l5.852-5.919c-.681-.644-1.451-1.4-2.251-2.114-.314-.282-.281-.515-.2-.908a2.184,2.184,0,0,1,2.9-1.882,10.122,10.122,0,0,0,1.7.015Zm-2.312,5.933h-3.121l-2.183,5.275,2.16,2.063-2.612,2.627-2.039-2.27-5.2,2.143v3.1h-3.6c0-.941.022-1.842-.016-2.741a.809.809,0,0,0-.343-.618c-1.552-.622-3.122-1.2-4.884-1.859l-1.965,2.105-2.687-2.68,2.168-1.98c-.635-1.63-1.252-3.108-1.771-4.619-.156-.455-.322-.591-.769-.576-.894.029-1.789.009-2.693.009v-3.641h3.262c.3-.939.52-1.8.857-2.6.346-.827.81-1.6,1.292-2.538l-2.269-2.079,2.617-2.626,1.994,2.164c1.637-.645,3.084-1.27,4.574-1.771.527-.177.66-.387.642-.885-.031-.868-.009-1.739-.009-2.592h3.621c0,.957-.028,1.862.02,2.763a.861.861,0,0,0,.431.625c1.528.62,3.076,1.192,4.907,1.889l1.9-2.142,2.591,2.6c-.6.587-1.283,1.223-1.924,1.9a.7.7,0,0,0-.127.616c.665,1.533,1.365,3.051,2.12,4.715h3.048Z" transform="translate(-3476.537 -2767.836)" fill="#1d272b"/>
          <path id="Trazado_166617" data-name="Trazado 166617" d="M3536.19,2970.936v2.194h12.768v-2.194Z" transform="translate(-3509.566 -2899.082)" fill="#1d272b"/>
          <path id="Trazado_166618" data-name="Trazado 166618" d="M3585.991,2777.94l1.933,1.239a23.11,23.11,0,0,1,7.268-7.066l-1.194-1.978A24.736,24.736,0,0,0,3585.991,2777.94Z" transform="translate(-3571.864 -2763.055)" fill="#1d272b"/>
          <path id="Trazado_166619" data-name="Trazado 166619" d="M3511.47,2970.919v2.263h3.994c2.1,0,2.1,0,1.759-2.263Z" transform="translate(-3470.027 -2899.071)" fill="#1d272b"/>
          <path id="Trazado_166620" data-name="Trazado 166620" d="M3612.288,2805.281l2.208.65c.477-1.2.938-2.359,1.43-3.6l-2.039-1.048Z" transform="translate(-3601.082 -2784.156)" fill="#1d272b"/>
          <path id="Trazado_166621" data-name="Trazado 166621" d="M3519.031,2810.461a9.338,9.338,0,1,0,18.668-.388,9.5,9.5,0,0,0-9.34-9A9.4,9.4,0,0,0,3519.031,2810.461Zm9.3,6.928a6.96,6.96,0,1,1,.059-13.92,6.96,6.96,0,1,1-.059,13.92Z" transform="translate(-3492.776 -2784.015)" fill="#1d272b"/>
          <path id="Trazado_166622" data-name="Trazado 166622" d="M3533.145,2820.021a4.785,4.785,0,1,0,4.783-4.822A4.806,4.806,0,0,0,3533.145,2820.021Zm2.295-.016a2.493,2.493,0,0,1,4.986,0,2.545,2.545,0,0,1-2.5,2.505A2.517,2.517,0,0,1,3535.44,2820.005Z" transform="translate(-3502.34 -2793.583)" fill="#1d272b"/>
        </g>
      </g>
    </g>
  </g>
</svg>
