<svg xmlns="http://www.w3.org/2000/svg" xmlns:xlink="http://www.w3.org/1999/xlink" width="1240" height="290.245" viewBox="0 0 1240 290.245">
  <defs>
    <clipPath id="clip-path">
      <rect id="Rect치ngulo_35992" data-name="Rect치ngulo 35992" width="1240" height="290.245" rx="5" transform="translate(-10831.976 -13900)" fill="#fff" stroke="#707070" stroke-width="1"/>
    </clipPath>
    <linearGradient id="linear-gradient" x1="0.5" x2="0.5" y2="1" gradientUnits="objectBoundingBox">
      <stop offset="0" stop-color="#fff" stop-opacity="0"/>
      <stop offset="0.153" stop-color="#fff"/>
      <stop offset="0.182" stop-color="#fff"/>
      <stop offset="1" stop-color="#f5f5f5"/>
    </linearGradient>
  </defs>
  <g id="Enmascarar_grupo_235" data-name="Enmascarar grupo 235" transform="translate(10831.976 13900)" clip-path="url(#clip-path)">
    <rect id="Rect치ngulo_35991" data-name="Rect치ngulo 35991" width="290.245" height="1240" transform="translate(-10831.976 -13609.755) rotate(-90)" fill="url(#linear-gradient)"/>
    <g id="Grupo_131757" data-name="Grupo 131757" transform="translate(-10863.3 -13993.742)">
      <g id="Grupo_131754" data-name="Grupo 131754" transform="translate(0 309.339)">
        <path id="Trazado_168579" data-name="Trazado 168579" d="M-25.574,236c11.311-17.371,36.174-23.512,49.221-11.032,35.169,33.645-16.444,73.145,0,81.92,13.7,8.779,43.847-2.925,46.588,20.48,2.743,26.33,10.963,61.44,41.11,52.665,19.184-5.854,35.767-12.617,54.808-8.78,35.275,7.108,22.656,40.483,21.609,41.695H-25.574Z" transform="translate(26.184 -206.418)" fill="#d1ebea"/>
        <g id="Grupo_131753" data-name="Grupo 131753">
          <path id="Trazado_168580" data-name="Trazado 168580" d="M190.286,395.013a33.541,33.541,0,0,0-1.032-8.466c-2.8-10.732-10.915-17.581-24.107-20.356-16.6-3.489-31.556,1.459-47.392,6.7-2.441.808-4.916,1.627-7.435,2.429-8.741,2.655-16.2,1.489-22.162-3.467-9.213-7.662-15.189-24.619-17.762-50.4-1.807-16.1-14.862-16.948-27.487-17.766-7.059-.457-14.357-.929-19.228-4.186a5.17,5.17,0,0,1-2.7-3.237c-1.068-3.968,1.994-10.606,5.543-18.294,8.089-17.526,19.168-41.527-2.723-63.382-5.606-5.6-13.586-7.982-22.471-6.716a39.66,39.66,0,0,0-27.57,18.321l1.221,1.116a38.671,38.671,0,0,1,26.528-17.6c8.466-1.205,16.037,1.035,21.319,6.307,20.906,20.87,10.188,44.1,2.361,61.052-3.877,8.4-6.94,15.03-5.661,19.771a6.881,6.881,0,0,0,3.467,4.314c5.128,3.431,12.605,3.915,19.836,4.383,12.556.812,24.417,1.579,26.052,16.152,2.663,26.689,8.687,43.6,18.413,51.688,6.339,5.272,14.216,6.528,23.41,3.735,2.533-.807,5.013-1.627,7.458-2.437,15.666-5.183,30.462-10.08,46.725-6.66,12.028,2.529,19.613,8.524,22.546,17.82,3.5,11.1-.973,23.122-1.49,23.91l1.1,1.279C187.638,410.308,190.286,403.319,190.286,395.013Z" transform="translate(26.243 -207.541)" fill="#d1ebea"/>
        </g>
      </g>
      <g id="Grupo_131756" data-name="Grupo 131756" transform="translate(1087.005)">
        <path id="Trazado_168581" data-name="Trazado 168581" d="M702.142,155.22c-11.31,17.371-36.174,23.513-49.22,11.032-35.17-33.646,16.443-73.144,0-81.921-13.7-8.779-43.848,2.925-46.589-20.48-2.743-26.33-10.963-61.44-41.11-52.664C546.04,17.04,529.457,23.8,510.416,19.966c-35.275-7.107-22.655-40.483-21.609-41.694H702.142Z" transform="translate(-485.765 21.728)" fill="#d1ebea"/>
        <g id="Grupo_131755" data-name="Grupo 131755" transform="translate(0.458 3.046)">
          <path id="Trazado_168582" data-name="Trazado 168582" d="M486.267-2.957A33.533,33.533,0,0,0,487.3,5.509c2.8,10.733,10.915,17.581,24.107,20.356,16.6,3.49,31.557-1.459,47.391-6.7,2.442-.808,4.916-1.627,7.435-2.429,8.742-2.655,16.2-1.49,22.163,3.467,9.213,7.662,15.189,24.618,17.762,50.4,1.806,16.1,14.862,16.948,27.487,17.765,7.059.457,14.357.93,19.228,4.186a5.176,5.176,0,0,1,2.7,3.237c1.068,3.968-1.994,10.606-5.543,18.294-8.089,17.526-19.168,41.528,2.723,63.382,5.606,5.6,13.586,7.982,22.472,6.717a39.669,39.669,0,0,0,27.57-18.322l-1.222-1.115a38.669,38.669,0,0,1-26.528,17.6c-8.466,1.206-16.037-1.034-21.318-6.306-20.907-20.871-10.188-44.1-2.362-61.052,3.877-8.4,6.94-15.031,5.661-19.772a6.875,6.875,0,0,0-3.466-4.313c-5.129-3.431-12.606-3.915-19.837-4.384-12.556-.812-24.416-1.579-26.052-16.152-2.663-26.689-8.687-43.6-18.413-51.688-6.339-5.272-14.216-6.527-23.41-3.734-2.533.806-5.013,1.627-7.458,2.437-15.665,5.183-30.462,10.079-46.725,6.66-12.028-2.529-19.613-8.525-22.546-17.821-3.5-11.1.973-23.121,1.49-23.909l-1.1-1.28C488.916-18.251,486.267-11.262,486.267-2.957Z" transform="translate(-486.267 18.968)" fill="#d1ebea"/>
        </g>
      </g>
      <path id="Trazado_168583" data-name="Trazado 168583" d="M676.26,275.656c-26-4.427-54.481-8.269-76.754,8.548-18.621,14.059-29.1,40.017-47,55.381-18.417,15.807-42.554,18.476-65,15.43s-44.214-11.2-66.573-15.027-46.369-2.9-65.843,10.929c-22.824,16.206-35.913,48.743-36.146,80.753H676.26Z" transform="translate(598.35 50.858)" fill="#bdc2b5" opacity="0.128"/>
      <path id="Trazado_168584" data-name="Trazado 168584" d="M-47.53,188.659c39.331-6.8,76.85-28.215,106.2-60.6C69.811,115.76,79.8,101.939,91.479,90.4s25.541-20.9,40.589-22.128c13.46-1.1,26.614,4.325,39.564,8.9,21.663,7.651,44.4,13.113,66.743,9.242s44.365-18.417,54.916-42.547,6.478-57.952-12.152-73.358H-47.53Z" transform="translate(66.611 53.565)" fill="#bdc2b5" opacity="0.128"/>
    </g>
  </g>
</svg>
