<svg xmlns="http://www.w3.org/2000/svg" xmlns:xlink="http://www.w3.org/1999/xlink" width="455.044" height="320.559" viewBox="0 0 455.044 320.559">
  <defs>
    <linearGradient id="linear-gradient" x1="0.5" x2="0.5" y2="1" gradientUnits="objectBoundingBox">
      <stop offset="0" stop-color="#f5f5f5"/>
      <stop offset="0.25" stop-color="#f5f5f5"/>
      <stop offset="1" stop-color="#a7b3cf"/>
    </linearGradient>
  </defs>
  <g id="Grupo_131439" data-name="Grupo 131439" transform="translate(-894.002 -168.092)">
    <g id="Grupo_129764" data-name="Grupo 129764" transform="translate(828.68 64.212)">
      <g id="Grupo_129744" data-name="Grupo 129744">
        <g id="Grupo_129712" data-name="Grupo 129712">
          <g id="Grupo_129711" data-name="Grupo 129711">
            <g id="Grupo_129671" data-name="Grupo 129671">
              <path id="Trazado_166702" data-name="Trazado 166702" d="M139.494,391.279H123.376L109.162,279.115l-.032-.267-.016.267-6.306,112.164H86.69l-1.91-113.63-.032-2.169-.17-9.973,10.734-.526,2.056-.105,6.363-.316,2.008-.1,4.995-.243,2.032-.105,10.232-.5,2.445-.122,8.945-.437.275,6.832v.008l.081,2.121Z" fill="#181817"/>
              <g id="Grupo_129661" data-name="Grupo 129661">
                <path id="Trazado_166703" data-name="Trazado 166703" d="M102.808,391.28l-1.142,11.738-.34,3.513H67.489c.008-.47,1.692-1.838,4.129-3.513a96.776,96.776,0,0,1,14.6-8.314l.478-3.424Z" fill="#2e2e2e"/>
              </g>
              <g id="Grupo_129662" data-name="Grupo 129662">
                <path id="Trazado_166704" data-name="Trazado 166704" d="M158.7,406.531H124.859l-.34-3.513-1.142-11.738h16.117l.478,3.424a95.707,95.707,0,0,1,14.6,8.314C157,404.693,158.68,406.061,158.7,406.531Z" fill="#2e2e2e"/>
              </g>
              <g id="Grupo_129663" data-name="Grupo 129663">
                <path id="Trazado_166705" data-name="Trazado 166705" d="M71.618,403.018h30.048l-.34,3.513H67.489C67.5,406.061,69.181,404.693,71.618,403.018Z" fill="#181817"/>
                <path id="Trazado_166706" data-name="Trazado 166706" d="M158.7,406.531H124.859l-.34-3.513h30.048C157,404.693,158.68,406.061,158.7,406.531Z" fill="#181817"/>
              </g>
              <g id="Grupo_129670" data-name="Grupo 129670">
                <g id="Grupo_129664" data-name="Grupo 129664">
                  <path id="Trazado_166707" data-name="Trazado 166707" d="M97.367,264.876c-.874,6.638-6.775,10.232-12.588,12.774l-.032-2.17c4.792-2.137,9.674-5.148,10.564-10.5Z" fill="#2e2e2e"/>
                </g>
                <g id="Grupo_129665" data-name="Grupo 129665">
                  <path id="Trazado_166708" data-name="Trazado 166708" d="M102.983,278.794a32.476,32.476,0,0,0,12.931-.681,1.013,1.013,0,0,0-.538-1.951,29.885,29.885,0,0,1-11.855.681c-1.274-.184-1.824,1.766-.538,1.951Z" fill="#2e2e2e"/>
                </g>
                <g id="Grupo_129668" data-name="Grupo 129668">
                  <g id="Grupo_129666" data-name="Grupo 129666">
                    <path id="Trazado_166709" data-name="Trazado 166709" d="M107.033,278.257a69.88,69.88,0,0,1-3.3-13.7l2.007-.1a68.11,68.11,0,0,0,3.247,13.26C109.413,278.953,107.462,279.479,107.033,278.257Z" fill="#2e2e2e"/>
                  </g>
                  <g id="Grupo_129667" data-name="Grupo 129667">
                    <path id="Trazado_166710" data-name="Trazado 166710" d="M112.764,264.115a116.676,116.676,0,0,0-.7,13.462,1.013,1.013,0,0,1-2.024,0,114.989,114.989,0,0,1,.7-13.357Z" fill="#2e2e2e"/>
                  </g>
                </g>
                <g id="Grupo_129669" data-name="Grupo 129669">
                  <path id="Trazado_166711" data-name="Trazado 166711" d="M134.742,272.016a22.691,22.691,0,0,1-11.746-8.4l2.445-.121a20.512,20.512,0,0,0,9.22,6.395v.008Z" fill="#2e2e2e"/>
                </g>
              </g>
            </g>
            <g id="Grupo_129675" data-name="Grupo 129675">
              <g id="Grupo_129674" data-name="Grupo 129674">
                <g id="Grupo_129673" data-name="Grupo 129673">
                  <g id="Grupo_129672" data-name="Grupo 129672">
                    <path id="Trazado_166712" data-name="Trazado 166712" d="M80.067,284.6c-.993,1.628-5.083,2.127-5.083,2.127s-2.82-5.134-4.467-7.989c-.439-.754-.793-1.348-.989-1.648-.947-1.424-.643-10.385-.643-10.385l10.589,1.242c1.152,1.769-1.157,6.738-1.157,6.738a16.284,16.284,0,0,1,.094,4.17c-.02.26-.032.418-.032.418a.876.876,0,0,1,.119-.117,1.767,1.767,0,0,1,1.708-.216Z" fill="#ff7d6f"/>
                    <path id="Trazado_166713" data-name="Trazado 166713" d="M78.5,279.159a.873.873,0,0,0-.122.105.445.445,0,0,0,0-.1c.013-.07.018-.176.029-.318s.014-.32.036-.52l.027-.711a10.291,10.291,0,0,0-.157-2.935s2.314-4.969,1.16-6.741l-.833-1.986.657-1.5H69.315l-.075.389-.354,1.854s-.229,6.737.322,9.454a2.884,2.884,0,0,0,.318.929c.2.3.546.894.984,1.645.806,1.412,1.911,3.369,2.81,4.993.425.749.789,1.421,1.078,1.942.367.66.59,1.053.59,1.053a.381.381,0,0,0,.106-.011c.667-.093,4.078-.642,4.968-2.114l.149-5.652A1.77,1.77,0,0,0,78.5,279.159Zm-1.929,4.4c-.114-.346-.255-.707-.4-1.056-.174-.425-.376-.852-.6-1.269a11.836,11.836,0,0,0-2.217-2.986,21.8,21.8,0,0,0-.447-5.468,9.021,9.021,0,0,0,1.8,2.44c.664.645,0,1.69.066,2.543a3.5,3.5,0,0,0,.943,2.356,1.772,1.772,0,0,0,.245.194,2.048,2.048,0,0,0,.6.3,2.573,2.573,0,0,0,1.228.149,5.853,5.853,0,0,0,.107,2.643C77.437,283.517,77.034,283.461,76.572,283.564Z" fill="#ffbda7"/>
                  </g>
                </g>
              </g>
            </g>
            <path id="Trazado_166714" data-name="Trazado 166714" d="M86.067,168.178S76.606,173.54,74.2,179.022c-1.8,4.112-10.293,68.694-8.675,76.424s3.643,9.579,3.643,9.579l10.389.756L93.05,231.026l-1.08-35.213Z" fill="#181817"/>
            <g id="Grupo_129677" data-name="Grupo 129677">
              <path id="Trazado_166715" data-name="Trazado 166715" d="M139.064,233.672c-.907-7.561-2.04-16.611-3.189-25.572v-.008c-2.639-20.651-5.335-40.775-5.335-40.775l-5.78-2.186-9.633-3.65-11.244.445-8.257,2.9-9.56,3.351S85.354,186.559,83.1,206.5c-1.02,9.042-2.016,18.335-2.752,26.252-.915,9.917-1.417,17.672-1.053,20.092.883,5.731,5.262,12.669,5.262,12.669l49.866-1.045s6.524-6.9,6.5-12.725C140.918,249.846,140.165,242.868,139.064,233.672Z" fill="#2e2e2e"/>
              <g id="Grupo_129676" data-name="Grupo 129676">
                <path id="Trazado_166716" data-name="Trazado 166716" d="M85.784,260.191a166.039,166.039,0,0,0,47.346-.8c.641-.1.369-1.078-.269-.976a165.14,165.14,0,0,1-47.077.76c-.645-.082-.639.931,0,1.012Z" fill="#181817"/>
              </g>
            </g>
            <g id="Grupo_129703" data-name="Grupo 129703">
              <g id="Grupo_129702" data-name="Grupo 129702">
                <g id="Grupo_129701" data-name="Grupo 129701">
                  <path id="Trazado_166717" data-name="Trazado 166717" d="M102.745,151.5l1.493,12.449a5.512,5.512,0,0,0,5.473,4.857h0a5.513,5.513,0,0,0,5.507-5.768l-.566-12.22Z" fill="#ffa07f"/>
                  <g id="Grupo_129700" data-name="Grupo 129700">
                    <g id="Grupo_129699" data-name="Grupo 129699">
                      <g id="Grupo_129698" data-name="Grupo 129698">
                        <g id="Grupo_129697" data-name="Grupo 129697">
                          <g id="Grupo_129696" data-name="Grupo 129696">
                            <g id="Grupo_129695" data-name="Grupo 129695">
                              <g id="Grupo_129686" data-name="Grupo 129686">
                                <g id="Grupo_129681" data-name="Grupo 129681">
                                  <g id="Grupo_129678" data-name="Grupo 129678">
                                    <path id="Trazado_166718" data-name="Trazado 166718" d="M125.284,145.634a9.5,9.5,0,0,0,6.188-4.314,7.525,7.525,0,0,0,.552-1.044c.717-1.7.387-7.3-2.029-8.353-1.694-.738-2.719.7-3.181,1.627v0c-.2.394-1.1,2.213-1.1,2.213Z" fill="#ffbda7"/>
                                  </g>
                                  <g id="Grupo_129680" data-name="Grupo 129680">
                                    <path id="Trazado_166719" data-name="Trazado 166719" d="M130.91,136.136a2.4,2.4,0,0,1,.037,1.359c-.426,1.933-2.142,3.554-3.789,5.064a4.712,4.712,0,0,0,.319-2.99c-.074-.343-.185-.679-.225-1.027C127.092,137.143,129.959,133.575,130.91,136.136Z" fill="#ff7d6f"/>
                                    <g id="Grupo_129679" data-name="Grupo 129679">
                                      <path id="Trazado_166720" data-name="Trazado 166720" d="M126.317,143.185l.1-.068c.061-.046.16-.109.27-.2a4.077,4.077,0,0,0,.8-.888,3.631,3.631,0,0,0,.569-1.559,3.116,3.116,0,0,0-.431-1.939,1.671,1.671,0,0,0-.156-.231l-.042-.056,0-.007v0h0l0-.01.024-.057.049-.112c.034-.075.067-.149.1-.221a8.324,8.324,0,0,1,.457-.826c.163-.259.334-.5.5-.72a5.115,5.115,0,0,1,.51-.585,1.264,1.264,0,0,1,.551-.316.925.925,0,0,1,.5.03.469.469,0,0,1,.24.176.366.366,0,0,1,.041.09.222.222,0,0,0-.016-.1.442.442,0,0,0-.21-.234,1,1,0,0,0-.583-.119,1.585,1.585,0,0,0-.743.3,5.091,5.091,0,0,0-.643.572,7.516,7.516,0,0,0-.618.716,6.688,6.688,0,0,0-.552.854c-.043.076-.082.154-.121.232l-.057.119-.074.168-.051.117c.02.036.049.07.073.1l.107.149a1.5,1.5,0,0,1,.134.2,3.3,3.3,0,0,1,.47,1.705,3.727,3.727,0,0,1-.323,1.466,4.145,4.145,0,0,1-.584.932c-.085.105-.165.179-.213.234Z" fill="#fc5b68"/>
                                    </g>
                                  </g>
                                </g>
                                <g id="Grupo_129685" data-name="Grupo 129685">
                                  <g id="Grupo_129682" data-name="Grupo 129682">
                                    <path id="Trazado_166721" data-name="Trazado 166721" d="M99.313,148.359a9.5,9.5,0,0,1-6.949-2.936,7.65,7.65,0,0,1-.756-.906c-1.054-1.514-1.893-7.058.251-8.592,1.5-1.074,2.805.119,3.449.931v0c.274.345,1.532,1.937,1.532,1.937Z" fill="#ffbda7"/>
                                  </g>
                                  <g id="Grupo_129684" data-name="Grupo 129684">
                                    <path id="Trazado_166722" data-name="Trazado 166722" d="M91.838,140.235a2.41,2.41,0,0,0,.246,1.337c.819,1.8,2.833,3.032,4.758,4.168a4.713,4.713,0,0,1-.933-2.859c0-.35.04-.7.007-1.051C95.783,140.428,92.237,137.533,91.838,140.235Z" fill="#ff7d6f"/>
                                    <g id="Grupo_129683" data-name="Grupo 129683">
                                      <path id="Trazado_166723" data-name="Trazado 166723" d="M97.795,146.177l-.108-.046c-.069-.033-.178-.073-.306-.142a4.071,4.071,0,0,1-.964-.7,3.606,3.606,0,0,1-.88-1.407,3.113,3.113,0,0,1,.019-1.986,1.729,1.729,0,0,1,.1-.259l.029-.063,0-.008v0h0l-.006-.009-.035-.051-.072-.1c-.048-.065-.1-.131-.146-.194a8.356,8.356,0,0,0-.619-.713c-.212-.219-.43-.419-.643-.6a5.068,5.068,0,0,0-.62-.466,1.256,1.256,0,0,0-.6-.194.912.912,0,0,0-.484.133.475.475,0,0,0-.2.221.435.435,0,0,0-.022.1.246.246,0,0,1-.005-.1.444.444,0,0,1,.158-.273,1.006,1.006,0,0,1,.545-.237,1.575,1.575,0,0,1,.789.139,4.931,4.931,0,0,1,.747.425,7.423,7.423,0,0,1,.754.572,6.792,6.792,0,0,1,.718.721c.057.065.111.134.166.2l.08.105.108.148.074.1c-.012.038-.033.078-.05.117l-.074.168a1.4,1.4,0,0,0-.089.225,3.28,3.28,0,0,0-.106,1.765,3.715,3.715,0,0,0,.621,1.367,4.149,4.149,0,0,0,.764.79c.105.085.2.142.257.186Z" fill="#fc5b68"/>
                                    </g>
                                  </g>
                                </g>
                              </g>
                              <g id="Grupo_129687" data-name="Grupo 129687">
                                <path id="Trazado_166724" data-name="Trazado 166724" d="M125.791,124.657c.372,5.063.5,10.138.8,15.2.243,4.113-4.313,15.655-5.159,16.4-3.356,2.952-9.795,3.029-14.235,2.511-3.488-.407-9.7-11.639-10.438-15.558-.224-1.191-2.494-15.249-2.3-15.269Z" fill="#ffbda7"/>
                              </g>
                              <g id="Grupo_129688" data-name="Grupo 129688">
                                <path id="Trazado_166725" data-name="Trazado 166725" d="M124.927,124.748c.359,4.865.492,9.741.784,14.609.237,3.952-4.049,15.034-4.848,15.748-3.167,2.83-9.252,2.894-13.448,2.389-3.3-.4-9.188-11.2-9.891-14.966-.214-1.145-2.383-14.655-2.2-14.675Z" fill="#ffbda7"/>
                              </g>
                              <path id="Trazado_166726" data-name="Trazado 166726" d="M105.267,130.594c2.324.49,1.344,1.3,1.344,1.3l-5.808,3.046S102.943,130.1,105.267,130.594Z" fill="#3f0727"/>
                              <path id="Trazado_166727" data-name="Trazado 166727" d="M119.413,129.416c-2.2.893-1.094,1.514-1.094,1.514l6.254,1.974S121.615,128.524,119.413,129.416Z" fill="#3f0727"/>
                              <g id="Grupo_129689" data-name="Grupo 129689">
                                <path id="Trazado_166728" data-name="Trazado 166728" d="M122.487,137.521c.145,1.381-.435,2.574-1.295,2.664s-1.675-.956-1.82-2.337.435-2.574,1.295-2.664S122.342,136.14,122.487,137.521Z" fill="#161818"/>
                                <path id="Trazado_166729" data-name="Trazado 166729" d="M123.828,135.969a3.225,3.225,0,0,1-3.291,1.752,3.223,3.223,0,0,1,3.291-1.752Z" fill="#fff0e7"/>
                              </g>
                              <g id="Grupo_129694" data-name="Grupo 129694">
                                <path id="Trazado_166730" data-name="Trazado 166730" d="M104.531,138.7c.159,1.509,1.049,2.653,1.989,2.555s1.574-1.4,1.416-2.912-1.049-2.654-1.989-2.555S104.373,137.187,104.531,138.7Z" fill="#161818"/>
                                <g id="Grupo_129691" data-name="Grupo 129691">
                                  <g id="Grupo_129690" data-name="Grupo 129690">
                                    <path id="Trazado_166731" data-name="Trazado 166731" d="M112.978,144.376a7.22,7.22,0,0,0,1.306-.184,7.58,7.58,0,0,0,1.321-.432c.436-.19,1.116-.526,1.137-.769.129-.15-.645-.521-1.043-.864a6.2,6.2,0,0,1-1.041-1.065,5.166,5.166,0,0,1-.691-1.164,9.142,9.142,0,0,0,.942.928,9.33,9.33,0,0,0,1.128.828c.225.141.45.264.718.407a1.661,1.661,0,0,1,.444.33.857.857,0,0,1,.225.7,1.3,1.3,0,0,1-.788.887,5.384,5.384,0,0,1-.833.326,5.468,5.468,0,0,1-1.479.228,5.189,5.189,0,0,1-.993-.081A3.483,3.483,0,0,1,112.978,144.376Z" fill="#f05d69"/>
                                  </g>
                                </g>
                                <g id="Grupo_129693" data-name="Grupo 129693">
                                  <g id="Grupo_129692" data-name="Grupo 129692">
                                    <path id="Trazado_166732" data-name="Trazado 166732" d="M115.537,152.059a6.632,6.632,0,0,1-5.484.662,2.852,2.852,0,0,0,2.638,1.128A4.706,4.706,0,0,0,115.537,152.059Z" fill="#ff7d6f"/>
                                  </g>
                                </g>
                                <path id="Trazado_166733" data-name="Trazado 166733" d="M102.745,137.342a3.522,3.522,0,0,0,3.917,1.126,3.522,3.522,0,0,0-3.917-1.126Z" fill="#fff0e7"/>
                              </g>
                              <path id="Trazado_166734" data-name="Trazado 166734" d="M125.768,141.757c.318.849-1,2.128-2.946,2.855s-3.779.629-4.1-.22,1-2.127,2.946-2.855S125.45,140.908,125.768,141.757Z" fill="#ff7d6f"/>
                              <path id="Trazado_166735" data-name="Trazado 166735" d="M100.091,143.977c-.134.9,1.421,1.874,3.475,2.182s3.827-.169,3.961-1.066-1.421-1.873-3.474-2.181S100.226,143.081,100.091,143.977Z" fill="#ff7d6f"/>
                            </g>
                          </g>
                        </g>
                      </g>
                    </g>
                  </g>
                </g>
              </g>
              <path id="Trazado_166736" data-name="Trazado 166736" d="M135.855,107.975a4.475,4.475,0,0,0-3-3.623,9.991,9.991,0,0,0-4.957-.3,23.168,23.168,0,0,0-12.627,6.162,12.772,12.772,0,0,0-6.61-.287c-2.774.787-4.86,3.021-6.8,5.158a10.964,10.964,0,0,0-5.957.4,6.9,6.9,0,0,0-4.116,4.158,8.152,8.152,0,0,0-.159,3.71,10.694,10.694,0,0,0,1.584,4.256,28.123,28.123,0,0,0-.515,7.931l3.348,2.258c2.075-1.483,2.518-10.284,2.518-10.284,4.383,1.464,25.442-2.727,25.442-2.727s.708,6.742,2.241,10.467l.305-.828a3.043,3.043,0,0,1,3.438-2.5s-.253-2.473-.864-5.6a7.093,7.093,0,0,0,2.108-1.949,3.912,3.912,0,0,0,.181-4.31c-.2-.284-.662-.9-1.1-.739a8.315,8.315,0,0,0,2.822-2.434,11.465,11.465,0,0,0,2.315-4.476A10.268,10.268,0,0,0,135.855,107.975Z" fill="#3f0727"/>
            </g>
            <g id="Grupo_129705" data-name="Grupo 129705">
              <g id="Grupo_129704" data-name="Grupo 129704">
                <path id="Trazado_166737" data-name="Trazado 166737" d="M170.9,225.464c-6.248-11.508-30.92-48.49-31.4-50.709-.54-2.485-8.953-7.437-8.953-7.437l4.505,34.322,13.18,23.824Z" fill="#181817"/>
              </g>
            </g>
            <g id="Grupo_129706" data-name="Grupo 129706">
              <path id="Trazado_166738" data-name="Trazado 166738" d="M70.774,262.552l.126-2.429c.034-.651-.978-.649-1.011,0l-.127,2.429c-.034.65.978.649,1.012,0Z" fill="#2e2e2e"/>
            </g>
            <g id="Grupo_129707" data-name="Grupo 129707">
              <path id="Trazado_166739" data-name="Trazado 166739" d="M73.238,262.96l.4-3.238c.081-.645-.932-.639-1.011,0l-.4,3.238c-.081.644.932.639,1.012,0Z" fill="#2e2e2e"/>
            </g>
            <g id="Grupo_129708" data-name="Grupo 129708">
              <path id="Trazado_166740" data-name="Trazado 166740" d="M76.031,263.5l.4-2.968c.087-.636-.888-.912-.976-.269l-.4,2.968c-.087.637.888.913.976.269Z" fill="#2e2e2e"/>
            </g>
            <g id="Grupo_129709" data-name="Grupo 129709">
              <path id="Trazado_166741" data-name="Trazado 166741" d="M79.017,263.092v-2.833a.506.506,0,0,0-1.011,0v2.833a.506.506,0,0,0,1.011,0Z" fill="#2e2e2e"/>
            </g>
            <g id="Grupo_129710" data-name="Grupo 129710">
              <path id="Trazado_166742" data-name="Trazado 166742" d="M69.055,260.537a31.085,31.085,0,0,1,10.939.352c.636.133.907-.842.269-.976a32.6,32.6,0,0,0-11.477-.352c-.642.093-.369,1.068.269.976Z" fill="#2e2e2e"/>
            </g>
          </g>
          <path id="Trazado_166743" data-name="Trazado 166743" d="M107.319,150.988a5.779,5.779,0,0,1,5.064-2.794,6.281,6.281,0,0,1,5.051,3.168c-.862-1.491-3.409-2.156-4.88-2.221A7.345,7.345,0,0,0,107.319,150.988Z" fill="#f05c69"/>
          <path id="Trazado_166744" data-name="Trazado 166744" d="M116.977,162.182l1.064-2.855H100.8l.844,3.384-6.021,2.113c3.7,10.556,14.919,42.515,14.9,42.062-.032-.43,10.014-29.523,14.239-41.755Z" fill="#181817"/>
        </g>
        <g id="Grupo_129743" data-name="Grupo 129743">
          <g id="Grupo_129742" data-name="Grupo 129742">
            <path id="Trazado_166745" data-name="Trazado 166745" d="M182,154.979a26.2,26.2,0,0,1-3.037,17.122c-1.148,2.017-2.578,3.907-3.3,6.113-.8,2.46-.662,5.125-1.176,7.663-2.3,11.371-13.58,21.745-23.248,27.312-5.177,2.981-11.358,2.338-16.82.381-5.655-2.027-10.763-6.032-12.568-11.956-2.133-7,.781-14.671,4.943-20.333,2.338-3.182,5.821-5.476,7.836-8.875,1.993-3.364,1.527-7.592.835-11.441-.73-4.058-1.4-8.53-.448-12.614.882-3.788,4.716-7.2,7.938-9.045,10.569-6.044,25.462-5.291,33.763,4.268A23.107,23.107,0,0,1,182,154.979Z" fill="#3f0727"/>
            <g id="Grupo_129717" data-name="Grupo 129717">
              <g id="Grupo_129716" data-name="Grupo 129716">
                <g id="Grupo_129715" data-name="Grupo 129715">
                  <g id="Grupo_129714" data-name="Grupo 129714">
                    <g id="Grupo_129713" data-name="Grupo 129713">
                      <path id="Trazado_166746" data-name="Trazado 166746" d="M188.227,294.762c1.1,1.414,4.964,1.449,4.964,1.449s2.09-5.085,3.325-7.92c.33-.75.6-1.341.749-1.641.733-1.428-.494-9.753-.494-9.753l-9.744,2.274c-.888,1.77,1.789,6.161,1.789,6.161a15.246,15.246,0,0,0,.351,3.9l.074.386a.891.891,0,0,0-.123-.1,1.658,1.658,0,0,0-1.616-.023Z" fill="#ff7d6f"/>
                      <path id="Trazado_166747" data-name="Trazado 166747" d="M187.5,289.506l.733,5.255c.986,1.279,4.224,1.432,4.856,1.448a.392.392,0,0,0,.1,0s.167-.391.439-1.045c.215-.516.484-1.18.8-1.924.668-1.61,1.492-3.551,2.1-4.952.33-.747.592-1.341.745-1.638a2.7,2.7,0,0,0,.2-.9c.229-2.592-.694-8.851-.694-8.851l-.526-1.691-.11-.356-9.312,1.052c.282.484.54.929.77,1.326l-.568,1.94c-.889,1.773,1.792,6.164,1.792,6.164a9.656,9.656,0,0,0,.162,2.753l.1.661c.042.184.063.35.089.481s.041.23.06.293a.45.45,0,0,0,.012.089.739.739,0,0,0-.125-.086A1.663,1.663,0,0,0,187.5,289.506Zm2.626,3.925a5.486,5.486,0,0,0-.178-2.476,2.417,2.417,0,0,0,1.13-.268,1.924,1.924,0,0,0,.522-.347,1.7,1.7,0,0,0,.209-.206,3.291,3.291,0,0,0,.631-2.3c-.029-.8-.758-1.707-.206-2.379a8.5,8.5,0,0,0,1.422-2.464,20.453,20.453,0,0,0,.158,5.146,11.114,11.114,0,0,0-1.753,3.017c-.16.412-.3.832-.421,1.246-.1.341-.19.692-.26,1.027C190.936,293.383,190.566,293.479,190.124,293.431Z" fill="#ffa07f"/>
                    </g>
                  </g>
                </g>
              </g>
              <path id="Trazado_166748" data-name="Trazado 166748" d="M171.36,186.11s8.007,3.889,10.826,8.748c1.155,1.99,1.078,18.979,4.52,40.06,2.86,17.52,9.429,39.935,9.429,39.935l-9.312,1.052-19.042-62.684Z" fill="#ffbda7"/>
            </g>
            <g id="Grupo_129718" data-name="Grupo 129718">
              <path id="Trazado_166749" data-name="Trazado 166749" d="M183.082,354.532l.652,38.628-10.248-.277L166.974,354.1Z" fill="#ffa07f"/>
              <path id="Trazado_166750" data-name="Trazado 166750" d="M173.483,392.882l.532,6.794.47,6.068,29.087.787a76.9,76.9,0,0,0-7.408-5.3c-5.662-3.762-12.43-8.074-12.43-8.074Z" fill="#ffa07f"/>
              <path id="Trazado_166751" data-name="Trazado 166751" d="M174.015,399.676l.47,6.068,29.087.787a76.9,76.9,0,0,0-7.408-5.3c-.368.673-1.179,1.188-2.726,1.284C189.343,402.773,178.2,400.554,174.015,399.676Z" fill="#181817"/>
            </g>
            <g id="Grupo_129719" data-name="Grupo 129719">
              <path id="Trazado_166752" data-name="Trazado 166752" d="M146.484,354.532l.652,38.628-10.248-.277L130.377,354.1Z" fill="#ffa07f"/>
              <path id="Trazado_166753" data-name="Trazado 166753" d="M136.886,392.882l.531,6.794.47,6.068,29.087.787a76.619,76.619,0,0,0-7.408-5.3c-5.661-3.762-12.43-8.074-12.43-8.074Z" fill="#ffa07f"/>
              <path id="Trazado_166754" data-name="Trazado 166754" d="M137.417,399.676l.47,6.068,29.087.787a76.619,76.619,0,0,0-7.408-5.3c-.368.673-1.178,1.188-2.725,1.284C152.745,402.773,141.6,400.554,137.417,399.676Z" fill="#181817"/>
            </g>
            <path id="Trazado_166755" data-name="Trazado 166755" d="M139.619,246.539c.155-4.412.341-9.173.561-14.008L136.865,192.5s3.672-5.737,14.934-7.411c2.3-.349,7.906-.438,7.906-.438l3.356-.187s7.882,1.511,8.548,1.649c2.1,3.706,14.9,24.945,10.775,31.178-4.494,6.784-4.884,7.686-4.884,7.686l-2.226,21.119s2.568,8.117,6.232,20.565c7.045,23.962,18.144,63.94,22.768,92.818,0,0-57.781,14.219-87.739,3.656Z" fill="#181817"/>
            <g id="Grupo_129735" data-name="Grupo 129735">
              <path id="Trazado_166756" data-name="Trazado 166756" d="M163.88,180.04l-.613,4.21a5.264,5.264,0,0,1-5.644,4.489h0a5.264,5.264,0,0,1-4.812-4.793l-.42-4.857Z" fill="#ebad98"/>
              <g id="Grupo_129730" data-name="Grupo 129730">
                <path id="Trazado_166763" data-name="Trazado 166763" d="M144.7,149.964c.52,10.59-.581,30.934,13.542,32.257,13.2,1.229,17.135-25.358,17.69-29.673Z" fill="#ffbda7"/>
                <path id="Trazado_166764" data-name="Trazado 166764" d="M145.112,150c.345,11.159-.031,29.986,13.2,31.227,11.869,1.11,16.206-21.382,17.3-28.7Z" fill="#ffbda7"/>
                <g id="Grupo_129729" data-name="Grupo 129729">
                  <path id="Trazado_166765" data-name="Trazado 166765" d="M164.643,162.163a4.861,4.861,0,0,0,6.275.6,3.662,3.662,0,0,1-2.779,1.769,3.876,3.876,0,0,1-3.159-1.242A2.355,2.355,0,0,1,164.643,162.163Z" fill="#161818"/>
                  <path id="Trazado_166766" data-name="Trazado 166766" d="M150.119,161.456a4.861,4.861,0,0,0,6.275.6,3.666,3.666,0,0,1-2.78,1.769,3.881,3.881,0,0,1-3.159-1.242A2.365,2.365,0,0,1,150.119,161.456Z" fill="#161818"/>
                </g>
              </g>
              <g id="Grupo_129734" data-name="Grupo 129734">
                <path id="Trazado_166767" data-name="Trazado 166767" d="M154.633,155.177c2.648,1.15,1.33,1.874,1.33,1.874l-7.471,2.223S151.985,154.026,154.633,155.177Z" fill="#3f0727"/>
                <path id="Trazado_166768" data-name="Trazado 166768" d="M166.7,156.314c-2.6,1.255-1.254,1.926-1.254,1.926L173,160.165S169.3,155.06,166.7,156.314Z" fill="#3f0727"/>
                <path id="Trazado_166769" data-name="Trazado 166769" d="M146,165.244c-.289.829,1.015,2.039,2.914,2.7s3.674.529,3.964-.3-1.015-2.039-2.915-2.7S146.29,164.415,146,165.244Z" fill="#ff7d6f"/>
                <path id="Trazado_166770" data-name="Trazado 166770" d="M172.348,167.424c.149.866-1.337,1.845-3.319,2.187s-3.711-.082-3.86-.948,1.336-1.844,3.319-2.187S172.2,166.558,172.348,167.424Z" fill="#ff7d6f"/>
                <g id="Grupo_129733" data-name="Grupo 129733">
                  <g id="Grupo_129731" data-name="Grupo 129731">
                    <path id="Trazado_166771" data-name="Trazado 166771" d="M153.256,175.089l.116-.068a2.279,2.279,0,0,1,.34-.157,3.068,3.068,0,0,1,1.259-.186,3.1,3.1,0,0,1,1.231.344,2.371,2.371,0,0,1,.321.2l.108.083-.136-.035c-.085-.024-.211-.053-.364-.085a8.7,8.7,0,0,0-2.366-.15c-.154.013-.282.026-.37.039Z" fill="#ff7d6f"/>
                  </g>
                  <path id="Trazado_166772" data-name="Trazado 166772" d="M151.8,172.7a5.153,5.153,0,0,1,8.468,1.969c-.46-1.307-2.491-2.247-3.72-2.542A6.8,6.8,0,0,0,151.8,172.7Z" fill="#f05c69"/>
                  <g id="Grupo_129732" data-name="Grupo 129732">
                    <path id="Trazado_166773" data-name="Trazado 166773" d="M163.34,158.538a1.425,1.425,0,0,0-.5.271,2.274,2.274,0,0,0-.761,1.27,13.337,13.337,0,0,0,.093,5.041c.1.485.216.953.353,1.4a7.164,7.164,0,0,1,.381,1.4,1.275,1.275,0,0,1-.2.792,1.754,1.754,0,0,1-.516.487,4.7,4.7,0,0,1-2.631.736,3.977,3.977,0,0,1-.583-.054,4.969,4.969,0,0,0,.576-.059,5.235,5.235,0,0,0,1.468-.467,4.88,4.88,0,0,0,.877-.558.835.835,0,0,0,.394-.822,9.337,9.337,0,0,0-.432-1.239,11.05,11.05,0,0,1-.4-1.474,10.358,10.358,0,0,1,.275-5.3,2.362,2.362,0,0,1,1.045-1.251A1.331,1.331,0,0,1,163.34,158.538Z" fill="#f05c69"/>
                  </g>
                </g>
              </g>
              <path id="Trazado_166774" data-name="Trazado 166774" d="M176.575,160.726l-3.8,4.684.673-4.16s-12.186-4.968-15.41-10.182c0,0-10.082,1.81-13.3,1.044l.491,9.82s-1.608-3.969-3.165-4.178l.261-9.84,35.864,2.967Z" fill="#3f0727"/>
            </g>
            <g id="Grupo_129741" data-name="Grupo 129741">
              <path id="Trazado_166775" data-name="Trazado 166775" d="M136.865,192.5s6.235-2.78,7.83,1.657-9.171,42.5-9.171,42.5,24.072,9.466,27.525,11.9l-2.133,6.7s-34.432-6.4-36.361-8.633S130.181,195.646,136.865,192.5Z" fill="#ffbda7"/>
              <g id="Grupo_129740" data-name="Grupo 129740">
                <g id="Grupo_129739" data-name="Grupo 129739">
                  <path id="Trazado_166776" data-name="Trazado 166776" d="M166.574,247.852s3.75-4.553,5.213-3.608-1.252,4.879-1.252,4.879Z" fill="#ff7d6f"/>
                  <path id="Trazado_166777" data-name="Trazado 166777" d="M181.61,248.924c-.173,1.328-9.149-.892-9.149-.892L171,250.148l3.664,1.279,3.805,4.184s-.43,1.012-1.031,2.22c-.074.152-.153.3-.232.459a21.961,21.961,0,0,1-1.194,2.086c-.036.061-.079.121-.116.18a7.031,7.031,0,0,1-.618.782,1.526,1.526,0,0,1-.617.442l-3.6-2.541s-5.85,1.646-6.748,1.431a13.6,13.6,0,0,1-2.71-2.579,8.187,8.187,0,0,1-1.763-3.026l1.333-1.335,1.874-5.167c.532-.276,2.39-.831,3.2-1.2v0c.4-.18.816-.361,1.247-.54a18.581,18.581,0,0,1,4.713-1.38,4.524,4.524,0,0,1,1.609.065C176.968,246.325,181.783,247.6,181.61,248.924Z" fill="#ffbda7"/>
                  <g id="Grupo_129738" data-name="Grupo 129738">
                    <g id="Grupo_129736" data-name="Grupo 129736">
                      <path id="Trazado_166778" data-name="Trazado 166778" d="M176.016,260.376c-.036.061-.079.121-.116.18-.136-.124-.31-.289-.522-.486-.483-.446-1.145-1.038-1.874-1.663a14.7,14.7,0,0,0-2-1.463l-.391-.219c-.122-.055-.225-.1-.312-.142l-.274-.131s.111,0,.314,0c.1,0,.227.006.371.014s.3.049.482.084a5.764,5.764,0,0,1,2.457,1.221,6.9,6.9,0,0,1,1.613,2.045C175.873,260.033,175.955,260.222,176.016,260.376Z" fill="#f05c69"/>
                    </g>
                    <g id="Grupo_129737" data-name="Grupo 129737">
                      <path id="Trazado_166779" data-name="Trazado 166779" d="M177.442,257.831c-.074.152-.153.3-.232.459-.03-.023-.058-.051-.086-.076-.483-.446-1.145-1.038-1.873-1.661a14.632,14.632,0,0,0-2-1.465c-.144-.081-.273-.154-.388-.217l-.313-.144-.273-.129s.108,0,.311,0c.1,0,.227,0,.371.016s.3.048.481.081a5.767,5.767,0,0,1,2.458,1.224A6.817,6.817,0,0,1,177.442,257.831Z" fill="#f05c69"/>
                    </g>
                  </g>
                </g>
              </g>
            </g>
          </g>
          <path id="Trazado_166780" data-name="Trazado 166780" d="M168.941,189.178c1.08.465,5.872-3.023,4.407-1.965s-5.008,7.12-4.008,7.987,9.265-4.946,9.265-4.946-5.366,5.969-3.109,7.253c.738.419,2.1-.064,3.6-.9-.482,1.859-.533,3.449.766,3.351,3.059-.232,5.99-8.274,5.99-8.274,2.412-9.651-13.369-9.425-13.369-9.425S167.861,188.714,168.941,189.178Z" fill="#fdb197"/>
        </g>
      </g>
      <g id="Grupo_129763" data-name="Grupo 129763">
        <g id="Grupo_129762" data-name="Grupo 129762">
          <g id="Grupo_129745" data-name="Grupo 129745">
            <rect id="Rectángulo_35901" data-name="Rectángulo 35901" width="302.333" height="9" transform="translate(96.482 298.198)" fill="#481b01"/>
            <rect id="Rectángulo_35902" data-name="Rectángulo 35902" width="302.333" height="2.417" transform="translate(96.482 301.489)" fill="#ff9e2b"/>
            <path id="Trazado_166781" data-name="Trazado 166781" d="M386.4,314.2H108.9a7,7,0,0,1-7-7H393.4A7,7,0,0,1,386.4,314.2Z" fill="#996232"/>
          </g>
          <g id="Grupo_129746" data-name="Grupo 129746">
            <rect id="Rectángulo_35903" data-name="Rectángulo 35903" width="302.333" height="9" transform="translate(398.815 406.531) rotate(180)" fill="#481b01"/>
            <rect id="Rectángulo_35904" data-name="Rectángulo 35904" width="302.333" height="2.417" transform="translate(398.815 403.239) rotate(180)" fill="#ff9e2b"/>
            <path id="Trazado_166782" data-name="Trazado 166782" d="M108.9,390.531H386.4a7,7,0,0,1,7,7H101.9A7,7,0,0,1,108.9,390.531Z" fill="#996232"/>
          </g>
          <path id="Trazado_166783" data-name="Trazado 166783" d="M380.459,380.494a83.255,83.255,0,0,0,4.46,10.04H110.379a84.857,84.857,0,0,0,4.46-10.04q.93-2.475,1.67-5a79.923,79.923,0,0,0,0-46.259q-.735-2.521-1.67-5a84.943,84.943,0,0,0-4.46-10.041h274.54a83.338,83.338,0,0,0-4.46,10.041c-.63,1.649-1.18,3.319-1.67,5a79.923,79.923,0,0,0,0,46.259C379.279,377.174,379.829,378.844,380.459,380.494Z" fill="#481b01"/>
          <g id="Grupo_129747" data-name="Grupo 129747">
            <path id="Trazado_166784" data-name="Trazado 166784" d="M384.919,298.194H110.369l10.85-8.79,19.17-15.54H354.9Z" fill="#996232"/>
          </g>
          <g id="Grupo_129760" data-name="Grupo 129760">
            <g id="Grupo_129753" data-name="Grupo 129753">
              <g id="Grupo_129748" data-name="Grupo 129748">
                <rect id="Rectángulo_35905" data-name="Rectángulo 35905" width="36.63" height="6.815" rx="3.407" transform="translate(154.286 343.995)" fill="#2d0d01"/>
              </g>
              <g id="Grupo_129752" data-name="Grupo 129752">
                <g id="Grupo_129750" data-name="Grupo 129750">
                  <g id="Grupo_129749" data-name="Grupo 129749">
                    <rect id="Rectángulo_35906" data-name="Rectángulo 35906" width="54.852" height="6.5" transform="translate(145.175 354.234)" fill="#6c3508"/>
                    <rect id="Rectángulo_35907" data-name="Rectángulo 35907" width="9.111" height="6.5" transform="translate(145.175 354.234)" fill="#ff9e2b"/>
                  </g>
                  <rect id="Rectángulo_35908" data-name="Rectángulo 35908" width="9.111" height="6.5" transform="translate(190.916 354.234)" fill="#ff9e2b"/>
                </g>
                <g id="Grupo_129751" data-name="Grupo 129751">
                  <rect id="Rectángulo_35909" data-name="Rectángulo 35909" width="4.833" height="16.74" transform="translate(159.018 343.995)" fill="#ff9e2b"/>
                  <rect id="Rectángulo_35910" data-name="Rectángulo 35910" width="4.833" height="16.74" transform="translate(181.351 343.995)" fill="#ff9e2b"/>
                </g>
              </g>
            </g>
            <g id="Grupo_129759" data-name="Grupo 129759">
              <g id="Grupo_129754" data-name="Grupo 129754">
                <rect id="Rectángulo_35911" data-name="Rectángulo 35911" width="36.63" height="6.815" rx="3.407" transform="translate(304.381 343.995)" fill="#2d0d01"/>
              </g>
              <g id="Grupo_129758" data-name="Grupo 129758">
                <g id="Grupo_129756" data-name="Grupo 129756">
                  <g id="Grupo_129755" data-name="Grupo 129755">
                    <rect id="Rectángulo_35912" data-name="Rectángulo 35912" width="54.852" height="6.5" transform="translate(295.27 354.234)" fill="#6c3508"/>
                    <rect id="Rectángulo_35913" data-name="Rectángulo 35913" width="9.111" height="6.5" transform="translate(295.27 354.234)" fill="#ff9e2b"/>
                  </g>
                  <rect id="Rectángulo_35914" data-name="Rectángulo 35914" width="9.111" height="6.5" transform="translate(341.01 354.234)" fill="#ff9e2b"/>
                </g>
                <g id="Grupo_129757" data-name="Grupo 129757">
                  <rect id="Rectángulo_35915" data-name="Rectángulo 35915" width="4.833" height="16.74" transform="translate(309.112 343.995)" fill="#ff9e2b"/>
                  <rect id="Rectángulo_35916" data-name="Rectángulo 35916" width="4.833" height="16.74" transform="translate(331.446 343.995)" fill="#ff9e2b"/>
                </g>
              </g>
            </g>
          </g>
          <g id="Grupo_129761" data-name="Grupo 129761">
            <path id="Trazado_166785" data-name="Trazado 166785" d="M380.459,324.235c-.63,1.649-1.18,3.319-1.67,5H116.509q-.735-2.521-1.67-5Z" fill="#6c3508"/>
            <path id="Trazado_166786" data-name="Trazado 166786" d="M380.459,380.494H114.839q.93-2.475,1.67-5h262.28C379.279,377.174,379.829,378.844,380.459,380.494Z" fill="#6c3508"/>
          </g>
          <path id="Trazado_166787" data-name="Trazado 166787" d="M384.919,298.194H110.369l10.85-8.79c37.22,2.71,131.31,8.54,167.83,1.13,19.2-3.9,29.46-10.41,34.89-16.67H354.9Z" fill="#6c3508"/>
        </g>
      </g>
    </g>
    <g id="Grupo_131437" data-name="Grupo 131437" transform="translate(985.149 240)">
      <g id="Grupo_131436" data-name="Grupo 131436">
        <path id="Trazado_168251" data-name="Trazado 168251" d="M74.677,412.3h350.88c3.594,0,6.508-2.458,6.508-5.49h0c0-3.032-2.914-5.491-6.508-5.491H74.677c-3.594,0-6.508,2.458-6.508,5.491h0C68.169,409.84,71.083,412.3,74.677,412.3Z" transform="translate(-68.169 -163.647)" fill="#1d272b"/>
        <g id="Grupo_131433" data-name="Grupo 131433" transform="translate(186.402)">
          <path id="Trazado_151853" data-name="Trazado 151853" d="M272.563,299.923a28.8,28.8,0,0,0,8.589-41.906c-3.705-5.028-9.262-9.329-9.962-15.536-.725-6.431,4.091-12.006,6.31-18.087a23.745,23.745,0,0,0-3.561-22.376c-3.524-4.487-8.723-7.739-11.076-12.937-1.479-3.267-1.656-6.947-2.066-10.51s-1.165-7.283-3.51-10-6.745-3.947-9.6-1.781c-5.417-5.592-11.793-12.371-18.971-15.384s-15.8-3.438-22.517.5c-5.315,3.113-8.85,8.5-13.517,12.517-4.01,3.452-8.8,5.849-13.128,8.9s-8.354,7.037-9.68,12.159c-2.179,8.418,3.447,16.874,3.708,25.566.253,8.445-4.549,16.229-5.618,24.611-1.084,8.5,1.788,17.132,6.318,24.408s10.643,13.412,16.7,19.477c2.455,10.955,10.529,18.713,20.83,23.179s21.828,5.231,33.048,4.823C253.993,307.214,264.68,304.556,272.563,299.923Z" transform="translate(-149.212 -149.055)" fill="#1d272b"/>
          <path id="Trazado_151854" data-name="Trazado 151854" d="M274.263,281.425c2.334-3.09,2.267-7.4,1.292-11.146s-2.738-7.27-3.508-11.065c-1.04-5.127-.21-10.438.854-15.56s2.368-10.262,2.27-15.492-1.811-10.7-5.813-14.066c-14.031-11.814-36.75-7.706-54.992-5.786-9.219.971-15.523,9.865-18.445,18.663s-1.931,18.6,1.552,27.192,9.312,16.065,15.936,22.551c3.951,3.869,10.951.764,16.377,1.828,5.319,1.044,9.905,4.289,14.9,6.386a36.326,36.326,0,0,0,25.4.908C272.5,285.022,274.533,283.954,274.263,281.425Z" transform="translate(-163.433 -152.709)" fill="#1d272b"/>
          <path id="Trazado_151855" data-name="Trazado 151855" d="M171.577,293.3a48.862,48.862,0,0,1,26.576-17.377c4.807-1.2,9.792-1.666,14.52-3.148a27.538,27.538,0,0,0,3.931-1.58,86.675,86.675,0,0,0,2.71-22.162h27.71a86.675,86.675,0,0,0,2.71,22.162,27.534,27.534,0,0,0,3.931,1.58c4.728,1.482,9.713,1.946,14.52,3.148A48.434,48.434,0,0,1,304.862,323.4v68.478L181.244,390.07a20.063,20.063,0,0,1-19.769-20.061V323.4A48.858,48.858,0,0,1,171.577,293.3Z" transform="translate(-161.472 -155.466)" fill="#ffbda7"/>
          <path id="Trazado_151856" data-name="Trazado 151856" d="M212.588,390.446c-2.36-6.186-2.563-12.944-3.419-19.509-1.642-12.6-5.748-24.719-8.662-37.083s-5.5-25.835-2.3-38.129a224.953,224.953,0,0,0,54.326-.085c6.82,2.859,10.359,11.465,11.625,18.751s.34,14.745.2,22.138c-.154,8.087.638,16.179.256,24.26s-2.047,16.347-6.615,23.022a41.583,41.583,0,0,1-10.735,10.317l-33.164-.485A23.758,23.758,0,0,1,212.588,390.446Z" transform="translate(-154.419 -158.455)" fill="#fff"/>
          <g id="Grupo_107073" data-name="Grupo 107073" transform="translate(42.323 137.185)">
            <path id="Trazado_151857" data-name="Trazado 151857" d="M264.151,320.838c-1.266-7.285-4.806-15.891-11.625-18.75a224.953,224.953,0,0,1-54.326.084,46.519,46.519,0,0,0-1.378,9.146,51.732,51.732,0,0,1,1.378-15.594,224.953,224.953,0,0,0,54.326-.085c6.82,2.859,10.359,11.465,11.625,18.751a59.13,59.13,0,0,1,.59,12.114A44.9,44.9,0,0,0,264.151,320.838Z" transform="translate(-196.738 -295.64)" fill="#ededed"/>
            <path id="Trazado_151858" data-name="Trazado 151858" d="M196.869,346.168c0-.253.017-.506.023-.759.119,5.548.434,11.1.292,16.64C197.068,356.756,196.768,351.461,196.869,346.168Z" transform="translate(-129.258 -298.832)" fill="#ededed"/>
          </g>
          <path id="Trazado_151859" data-name="Trazado 151859" d="M251.012,260.814a58.937,58.937,0,0,1-28.508-7.719c.053-1.354.085-2.708.075-4.063h27.71A86.245,86.245,0,0,0,251.012,260.814Z" transform="translate(-164.738 -155.466)" fill="#de9880"/>
          <g id="Grupo_107074" data-name="Grupo 107074" transform="translate(96.073 51.617)">
            <path id="Trazado_151860" data-name="Trazado 151860" d="M198.755,210.359a12.849,12.849,0,0,1,4.516-5.33c2.044-1.178,4.941-1.174,6.513.587,1.276,1.43,1.363,3.541,1.247,5.454-.236,3.87-1.087,7.844-3.419,10.939s-6.411,5.1-10.158,4.111C196.916,220.853,196.246,215.021,198.755,210.359Z" transform="translate(-196.949 -204.209)" fill="#ffbda7"/>
            <path id="Trazado_151861" data-name="Trazado 151861" d="M199.124,214.686l-.4.065a23.293,23.293,0,0,1,1.78-3.725,7.83,7.83,0,0,1,2.932-2.845,4.733,4.733,0,0,1,3.992-.245,3.421,3.421,0,0,1,2.086,3.263,3.407,3.407,0,0,0-3.218-.908,3.294,3.294,0,0,0-2.431,2.211,2.508,2.508,0,0,1,1.9,2.074,4.921,4.921,0,0,1-.438,2.889,4.533,4.533,0,0,1-.906,1.457,2.155,2.155,0,0,1-1.534.683,3.182,3.182,0,0,0,2.258,1.278,6.139,6.139,0,0,1-5.977-.387A26.741,26.741,0,0,1,199.124,214.686Z" transform="translate(-197.063 -204.427)" fill="#d6a56d"/>
          </g>
          <g id="Grupo_107075" data-name="Grupo 107075" transform="translate(34.92 53.639)">
            <path id="Trazado_151862" data-name="Trazado 151862" d="M274.6,212.519a12.868,12.868,0,0,0-4.516-5.33c-2.045-1.178-4.942-1.174-6.513.587-1.276,1.43-1.364,3.541-1.247,5.455.235,3.869,1.087,7.843,3.418,10.939s6.411,5.1,10.159,4.11C276.442,223.013,277.113,217.181,274.6,212.519Z" transform="translate(-262.292 -206.369)" fill="#ffbda7"/>
            <path id="Trazado_151863" data-name="Trazado 151863" d="M274.462,216.846l.4.065a23.461,23.461,0,0,0-1.781-3.725,7.816,7.816,0,0,0-2.932-2.845,4.736,4.736,0,0,0-3.992-.245,3.422,3.422,0,0,0-2.086,3.264,3.406,3.406,0,0,1,3.219-.908,3.29,3.29,0,0,1,2.43,2.211,2.509,2.509,0,0,0-1.9,2.075,4.924,4.924,0,0,0,.439,2.889,4.547,4.547,0,0,0,.9,1.457,2.158,2.158,0,0,0,1.535.682,3.19,3.19,0,0,1-2.259,1.279,6.141,6.141,0,0,0,5.978-.388A26.749,26.749,0,0,0,274.462,216.846Z" transform="translate(-262.405 -206.587)" fill="#d6a56d"/>
          </g>
          <ellipse id="Elipse_4259" data-name="Elipse 4259" cx="7.975" cy="7.975" rx="7.975" ry="7.975" transform="translate(92.544 53.756)" fill="#1d272b"/>
          <ellipse id="Elipse_4260" data-name="Elipse 4260" cx="7.975" cy="7.975" rx="7.975" ry="7.975" transform="translate(36.087 53.756)" fill="#1d272b"/>
          <path id="Trazado_168252" data-name="Trazado 168252" d="M28.276,0C43.893,0,56.553,17.025,56.553,38.027S43.893,76.055,28.276,76.055,0,59.029,0,38.027,12.66,0,28.276,0Z" transform="translate(44.063 25.431)" fill="#ffbda7"/>
          <path id="Trazado_151864" data-name="Trazado 151864" d="M229.573,201.333c.883-.408-.643-1.939-2.942-2.56-6.092-1.643-12.834-2.342-17.9,1.422-.2,1.05,1.144,2.3,2.2,2.426a6.928,6.928,0,0,0,3.1-.663A27.523,27.523,0,0,1,229.573,201.333Z" transform="translate(-130.646 -152.158)" fill="#0c1f36"/>
          <path id="Trazado_151865" data-name="Trazado 151865" d="M243.5,201.333c-.883-.408.643-1.939,2.942-2.56,6.092-1.643,12.835-2.342,17.9,1.422.2,1.05-1.144,2.3-2.2,2.426a6.934,6.934,0,0,1-3.1-.663A27.522,27.522,0,0,0,243.5,201.333Z" transform="translate(-197.489 -152.158)" fill="#0c1f36"/>
          <path id="Trazado_151866" data-name="Trazado 151866" d="M212.194,226.579c0,1.1,3.5,1.988,7.808,1.988s7.808-.89,7.808-1.988-3.5-1.988-7.808-1.988S212.194,225.481,212.194,226.579Z" transform="translate(-131.886 -153.899)" fill="#de9880"/>
          <path id="Trazado_151867" data-name="Trazado 151867" d="M245.446,226.579c0,1.1,3.5,1.988,7.808,1.988s7.808-.89,7.808-1.988-3.5-1.988-7.808-1.988S245.446,225.481,245.446,226.579Z" transform="translate(-196.258 -153.899)" fill="#de9880"/>
          <path id="Trazado_151868" data-name="Trazado 151868" d="M232.6,208.079a20.965,20.965,0,0,0,3.512,14.833,5.182,5.182,0,0,1,1.321,2.943,3.053,3.053,0,0,1-2.312,2.6,7.628,7.628,0,0,1-3.68-.1" transform="translate(-159.518 -152.84)" fill="none" stroke="#d9d9d9" stroke-linecap="round" stroke-linejoin="round" stroke-width="2" style="mix-blend-mode: multiply;isolation: isolate"/>
          <g id="Grupo_107079" data-name="Grupo 107079" transform="translate(43.713 44.217)">
            <g id="Grupo_107076" data-name="Grupo 107076" transform="translate(31.614)">
              <path id="Trazado_151869" data-name="Trazado 151869" d="M219.88,221.495a12.6,12.6,0,1,0-12.6-12.6A12.61,12.61,0,0,0,219.88,221.495Zm0-23.142A10.546,10.546,0,1,1,209.335,208.9,10.558,10.558,0,0,1,219.88,198.352Z" transform="translate(-207.284 -196.302)" fill="#1d272b"/>
            </g>
            <g id="Grupo_107077" data-name="Grupo 107077">
              <path id="Trazado_151870" data-name="Trazado 151870" d="M253.66,221.495a12.6,12.6,0,1,0-12.6-12.6A12.611,12.611,0,0,0,253.66,221.495Zm0-23.142A10.546,10.546,0,1,1,243.114,208.9,10.558,10.558,0,0,1,253.66,198.352Z" transform="translate(-241.063 -196.302)" fill="#1d272b"/>
            </g>
            <g id="Grupo_107078" data-name="Grupo 107078" transform="translate(23.573 10.245)">
              <path id="Trazado_151871" data-name="Trazado 151871" d="M240.946,210.437l1.186-1.672a8.518,8.518,0,0,0-9.659,0l1.19,1.67C237.253,207.875,240.91,210.409,240.946,210.437Z" transform="translate(-232.473 -207.249)" fill="#1d272b"/>
            </g>
          </g>
          <path id="Trazado_151872" data-name="Trazado 151872" d="M246.24,235.443a16.766,16.766,0,0,1-17.518-.656" transform="translate(-165.784 -154.553)" fill="none" stroke="#d9d9d9" stroke-linecap="round" stroke-linejoin="round" stroke-width="2" style="mix-blend-mode: multiply;isolation: isolate"/>
          <path id="Trazado_151873" data-name="Trazado 151873" d="M239.931,242.106a10.925,10.925,0,0,1-5.278.42" transform="translate(-165.027 -155.022)" fill="none" stroke="#d9d9d9" stroke-linecap="round" stroke-linejoin="round" stroke-width="2" style="mix-blend-mode: multiply;isolation: isolate"/>
          <path id="Trazado_151874" data-name="Trazado 151874" d="M273.826,215.831A59.559,59.559,0,0,1,252.932,187.9a35.776,35.776,0,0,1-25.412,9.211,10.715,10.715,0,0,0,4.228-4.081c-8.836,2.09-16.433,7.451-22.254,14.42-2.364,2.831-4.368,5.979-7.042,8.52s-6.245,4.467-9.912,4.072c2.285-9.727,4.512-19.781,8.175-29.077,2.249-5.706,4.9-11.522,9.6-15.468,5.843-4.911,14-6.158,21.611-5.6a51.989,51.989,0,0,1,23.082,7.271,49.641,49.641,0,0,1,20.681,25.151,18.623,18.623,0,0,1,1.409,7.153A8.52,8.52,0,0,1,273.826,215.831Z" transform="translate(-162.794 -150.383)" fill="#1d272b"/>
          <path id="Trazado_151875" data-name="Trazado 151875" d="M201.74,225.473a2.576,2.576,0,1,0,2.576-2.575A2.575,2.575,0,0,0,201.74,225.473Z" transform="translate(-101.184 -153.79)" fill="#db8804"/>
          <path id="Trazado_151876" data-name="Trazado 151876" d="M267.609,225.473a2.575,2.575,0,1,0,2.576-2.575A2.575,2.575,0,0,0,267.609,225.473Z" transform="translate(-228.697 -153.79)" fill="#db8804"/>
          <path id="Trazado_151877" data-name="Trazado 151877" d="M221.64,205.739a2.576,2.576,0,0,1,2.167,1.872l-2.167,2.167,2.167,2.167a2.576,2.576,0,0,1-2.167,1.872c-1.423,0-2.576-1.808-2.576-4.039S220.218,205.739,221.64,205.739Z" transform="translate(-134.314 -152.69)" fill="#453e18"/>
          <path id="Trazado_151878" data-name="Trazado 151878" d="M253.783,205.739a2.575,2.575,0,0,1,2.167,1.872l-2.167,2.167,2.167,2.167a2.575,2.575,0,0,1-2.167,1.872c-1.423,0-2.575-1.808-2.575-4.039S252.36,205.739,253.783,205.739Z" transform="translate(-196.538 -152.69)" fill="#453e18"/>
          <path id="Trazado_151879" data-name="Trazado 151879" d="M264.977,197.891a28.523,28.523,0,0,0-1.243-12.528,30.949,30.949,0,0,0-6.571-11.144,31.559,31.559,0,0,0-10.7-7.654,32.344,32.344,0,0,0-25.955-.006,31.546,31.546,0,0,0-10.7,7.654,30.957,30.957,0,0,0-6.572,11.147,28.493,28.493,0,0,0-1.236,12.53,33.93,33.93,0,0,1,10.635-20.849,30.972,30.972,0,0,1,41.7-.006A33.9,33.9,0,0,1,264.977,197.891Z" transform="translate(-159.532 -150.003)" fill="#db8804"/>
          <g id="Grupo_107080" data-name="Grupo 107080" transform="translate(0 117.757)">
            <path id="Trazado_151880" data-name="Trazado 151880" d="M280.347,277.6c3.983-1,8.087-1.493,12.067-2.474a936.874,936.874,0,0,1,17.722,117.306l-46.7-.683a20.063,20.063,0,0,1-19.769-20.061V325.075A48.434,48.434,0,0,1,280.347,277.6Z" transform="translate(-243.667 -274.896)" fill="#1d272b"/>
            <path id="Trazado_151881" data-name="Trazado 151881" d="M179.255,274.881c4.254,1.14,8.674,1.629,12.952,2.7a48.434,48.434,0,0,1,36.678,47.48v68.478l-67.413-.986A936.881,936.881,0,0,1,179.255,274.881Z" transform="translate(-85.495 -274.881)" fill="#1d272b"/>
          </g>
          <path id="Trazado_151882" data-name="Trazado 151882" d="M217.3,277.637c1.452.363,2.884.8,4.3,1.3q4.881,13.872,8.9,27.936c-5.095,2.941-10.019,6.6-15.564,8.926,2,4.88,4.14,10.281,6.14,15.16a459,459,0,0,0-26.117,61.748l-8.395-.1a783.848,783.848,0,0,1,21.383-116.842C211.058,276.394,214.213,276.866,217.3,277.637Z" transform="translate(-110.584 -157.181)" fill="#009fcf" opacity="0.18" style="mix-blend-mode: multiply;isolation: isolate"/>
          <path id="Trazado_151883" data-name="Trazado 151883" d="M252.882,330.967c1.955-4.88,4.048-10.281,6-15.16-5.422-2.325-10.236-5.986-15.218-8.926q3.856-13.853,8.563-27.525a47.36,47.36,0,0,1,5.413-1.713c2.94-.735,5.945-1.2,8.918-1.787a799.953,799.953,0,0,1,20.871,116.618l-9.137-.134A464.339,464.339,0,0,0,252.882,330.967Z" transform="translate(-220.963 -157.186)" fill="#009fcf" opacity="0.18" style="mix-blend-mode: multiply;isolation: isolate"/>
          <path id="Trazado_151884" data-name="Trazado 151884" d="M212.633,274.881c3.457.927,7.022,1.427,10.533,2.154q4.335,14.781,7.861,29.782c-4.2,2.94-8.251,6.6-12.816,8.926,1.647,4.88,3.409,10.28,5.057,15.16a516.8,516.8,0,0,0-21.505,61.748l-6.912-.1A936.883,936.883,0,0,1,212.633,274.881Z" transform="translate(-118.874 -157.124)" fill="#868695"/>
          <path id="Trazado_151885" data-name="Trazado 151885" d="M251.41,277.445c3.772-.89,7.634-1.4,11.39-2.324a936.874,936.874,0,0,1,17.722,117.306l-7.688-.112a516.463,516.463,0,0,0-21.407-61.395c1.647-4.88,3.409-10.281,5.056-15.16-4.565-2.325-8.619-5.986-12.815-8.926Q247.134,292.037,251.41,277.445Z" transform="translate(-214.053 -157.139)" fill="#868695"/>
          <g id="Grupo_107085" data-name="Grupo 107085" transform="translate(80.737 62.397)">
            <path id="Trazado_151889" data-name="Trazado 151889" d="M203.9,242.572h.05a52.378,52.378,0,0,0,8.855-1.029,17.943,17.943,0,0,0,8.175-4.028,18.3,18.3,0,0,0,5.171-9.948,52.217,52.217,0,0,0,.618-11.008.871.871,0,0,0-.856-.832.844.844,0,0,0-.832.856,51.031,51.031,0,0,1-.586,10.654,16.642,16.642,0,0,1-4.654,9.031,16.279,16.279,0,0,1-7.419,3.629,50.953,50.953,0,0,1-8.569.987.844.844,0,0,0,.048,1.687Z" transform="translate(-203.054 -215.727)" fill="#1d272b"/>
          </g>
          <path id="Trazado_151890" data-name="Trazado 151890" d="M223.364,243.285c0,1.263,1.423,2.288,3.179,2.288s3.179-1.025,3.179-2.288S228.3,241,226.543,241,223.364,242.021,223.364,243.285Z" transform="translate(-144.252 -154.951)" fill="#db8804"/>
          <path id="Trazado_151891" data-name="Trazado 151891" d="M155.138,295.218c9.568,9.829,16.15,22.243,20.754,35.164s7.33,26.421,10.042,39.866c.78,3.868,1.557,7.894.581,11.716-2,7.836-10.657,12.116-18.689,13.055s-16.256-.409-24.2,1.08C137.71,362.683,140.174,325.677,155.138,295.218Z" transform="translate(-24.095 -158.428)" fill="#1d272b"/>
          <path id="Trazado_151892" data-name="Trazado 151892" d="M250.679,383.718c-5.9-1.725-11.841-3.459-17.957-4.081s-12.483-.073-18.023,2.591-10.146,7.651-11.406,13.667c-.4,1.917,3.29,2.43,5.172,2.97a17.633,17.633,0,0,0,5.837.326l19.55-1.09c4.653-.259,9.729.885,13.631-1.666a8.954,8.954,0,0,0,3.572-5.8C251.519,388.347,250.826,386.047,250.679,383.718Z" transform="translate(-146.93 -163.827)" fill="#ffbda7"/>
          <path id="Trazado_151894" data-name="Trazado 151894" d="M184.3,370.668a54.924,54.924,0,0,1,19.509-5.632,170.55,170.55,0,0,1-.683-29.319c-2.484,7.864-4.279,15.938-4.173,24.186C193.193,362,187.5,365.432,184.3,370.668Z" transform="translate(-81.79 -161.025)" fill="#009fcf" opacity="0.18" style="mix-blend-mode: multiply;isolation: isolate"/>
        </g>
        <g id="Grupo_131434" data-name="Grupo 131434" transform="translate(91.529 147.69)">
          <path id="Rectángulo_34155" data-name="Rectángulo 34155" d="M0,0H194.466a0,0,0,0,1,0,0V1.341a4.187,4.187,0,0,1-4.187,4.187H4.187A4.187,4.187,0,0,1,0,1.341V0A0,0,0,0,1,0,0Z" transform="translate(28.594 82.868)" fill="#e0e8ff"/>
          <path id="Rectángulo_34156" data-name="Rectángulo 34156" d="M0,0H194.466a0,0,0,0,1,0,0V1.341a4.187,4.187,0,0,1-4.187,4.187H4.187A4.187,4.187,0,0,1,0,1.341V0A0,0,0,0,1,0,0Z" transform="translate(28.594 82.868)" fill="url(#linear-gradient)" style="mix-blend-mode: multiply;isolation: isolate"/>
          <path id="Trazado_151895" data-name="Trazado 151895" d="M177.721,397.021v-1.609h67.747v1.609a3.918,3.918,0,0,1-3.918,3.918H181.64A3.918,3.918,0,0,1,177.721,397.021Z" transform="translate(-22.408 -312.544)" fill="#d0d8ed" style="mix-blend-mode: multiply;isolation: isolate"/>
          <g id="Grupo_107087" data-name="Grupo 107087">
            <path id="Trazado_151896" data-name="Trazado 151896" d="M278.7,389.734H405.423L377.166,312.1a8.279,8.279,0,0,0-7.139-5.234H253.776c-2.891,0-4.381,2.343-3.329,5.234Z" transform="translate(-250.11 -306.865)" fill="url(#linear-gradient)"/>
            <path id="Trazado_151897" data-name="Trazado 151897" d="M325.193,350.58c1.636,4.495,6.605,8.138,11.1,8.138s6.812-3.643,5.176-8.138-6.606-8.138-11.1-8.138S323.557,346.086,325.193,350.58Z" transform="translate(-256.459 -309.147)" fill="#1d272b"/>
          </g>
          <path id="Trazado_151898" data-name="Trazado 151898" d="M230.832,399.317h4.4a1,1,0,0,0,1.005-1.005h0a1,1,0,0,0-1.005-1.005h-4.4a1,1,0,0,0-1.005,1.005h0A1,1,0,0,0,230.832,399.317Z" transform="translate(-61.94 -312.665)" fill="#d0d8ed" style="mix-blend-mode: multiply;isolation: isolate"/>
          <path id="Trazado_151899" data-name="Trazado 151899" d="M221.3,399.317h4.4a1.006,1.006,0,0,0,1.006-1.005h0a1,1,0,0,0-1.006-1.005h-4.4a1,1,0,0,0-1.005,1.005h0A1,1,0,0,0,221.3,399.317Z" transform="translate(-43.486 -312.665)" fill="#d0d8ed" style="mix-blend-mode: multiply;isolation: isolate"/>
          <path id="Trazado_151900" data-name="Trazado 151900" d="M211.767,399.317h4.4a1,1,0,0,0,1.005-1.005h0a1,1,0,0,0-1.005-1.005h-4.4a1,1,0,0,0-1.005,1.005h0A1,1,0,0,0,211.767,399.317Z" transform="translate(-25.033 -312.665)" fill="#d0d8ed" style="mix-blend-mode: multiply;isolation: isolate"/>
        </g>
      </g>
      <g id="Grupo_107018" data-name="Grupo 107018" transform="translate(27.947 130.994)">
        <g id="Grupo_107015" data-name="Grupo 107015" transform="translate(77.893 0)">
          <path id="Trazado_151637" data-name="Trazado 151637" d="M55.172,346.54c.281,1.287.579,2.586.893,3.878,3.705,15.478,9.1,30.912,9.1,30.912a17.33,17.33,0,0,0,3.6.953,71.445,71.445,0,0,0,12.762.957h.027c12.21-.005,16.365-1.91,16.365-1.91s5.394-15.434,9.094-30.906c.314-1.3.611-2.6.9-3.884,1.753-7.968,2.889-15.608,2.424-20.758-.633-7.054-3.96-13.513-7.465-18.523v-.006a60.3,60.3,0,0,0-9.083-10.278H69.3a59.186,59.186,0,0,0-7.644,8.3v.005c-3.987,5.221-8.185,12.475-8.91,20.5C52.283,330.932,53.419,338.571,55.172,346.54Z" transform="translate(-52.643 -273.74)" fill="#1d272b"/>
          <path id="Trazado_151638" data-name="Trazado 151638" d="M52.647,331.494v.076c.005.243.005.486.01.73v.011a83.914,83.914,0,0,0,1.661,13.054c.259,1.347.546,2.71.849,4.09.281,1.287.579,2.586.893,3.878,3.705,15.478,9.1,30.912,9.1,30.912a17.332,17.332,0,0,0,3.6.953,71.454,71.454,0,0,0,12.762.957h.027c12.21-.005,16.365-1.91,16.365-1.91s5.394-15.434,9.094-30.906c.314-1.3.611-2.6.9-3.884,1.753-7.969,2.889-15.608,2.424-20.758a29.9,29.9,0,0,0-1.13-5.826l-.005-.005a44.336,44.336,0,0,0-6.329-12.691c6.794,29.937-12.118,37.3-27.59,36.078S52.718,327.626,61.654,308.2c-3.987,5.221-8.185,12.475-8.91,20.5A27.108,27.108,0,0,0,52.647,331.494Z" transform="translate(-52.64 -276.655)" fill="#2c3352" opacity="0.1" style="mix-blend-mode: multiply;isolation: isolate"/>
          <path id="Trazado_151639" data-name="Trazado 151639" d="M69.768,278v3.024s.141.379.389.99c.335.828.882,2.094,1.558,3.419a24.532,24.532,0,0,0,2.034,3.392,30.682,30.682,0,0,0,24.484,0,37.935,37.935,0,0,0,3.976-7.8V278a72.679,72.679,0,0,0-6.135-6.059c-3.034-2.651-6.751-5.378-10.073-6.352-3.2.828-6.421,2.965-9.148,5.237A55.252,55.252,0,0,0,69.768,278Z" transform="translate(-57.091 -265.588)" fill="#1d272b"/>
          <path id="Trazado_151640" data-name="Trazado 151640" d="M78.055,270.825c.358,4.4,18.367,5.518,19.221,1.115-3.034-2.651-6.751-5.378-10.073-6.352C84.006,266.416,80.782,268.553,78.055,270.825Z" transform="translate(-58.291 -265.588)" fill="#434d7d" opacity="0.4"/>
          <path id="Trazado_151641" data-name="Trazado 151641" d="M69.768,284.427v1.488s.141.379.389.99l28.942.979s-3.906,3.879-14.108,4.393a30.76,30.76,0,0,1-13.276-1.953,24.534,24.534,0,0,0,2.034,3.392,30.682,30.682,0,0,0,24.484,0,37.935,37.935,0,0,0,3.976-7.8v-1.488Z" transform="translate(-57.091 -270.481)" fill="#2c3352" opacity="0.4" style="mix-blend-mode: multiply;isolation: isolate"/>
          <path id="Trazado_151642" data-name="Trazado 151642" d="M56.059,363.928c.281,1.287.579,2.586.893,3.878,4.8.358,18.436,1.3,25.453,1.3.006,0,.006.006.011.006h.027a.018.018,0,0,0,.011-.006c7.016,0,20.639-.946,25.447-1.3.314-1.3.611-2.6.9-3.884-4.6.184-18.826.73-26.367.73S60.647,364.106,56.059,363.928Z" transform="translate(-53.531 -291.128)" fill="#fff" opacity="0.3" style="mix-blend-mode: screen;isolation: isolate"/>
          <path id="Trazado_151643" data-name="Trazado 151643" d="M102.711,281.667l-.264,4.092L68.129,285.3v-3.366Z" transform="translate(-56.378 -269.764)" fill="#434d7d"/>
          <path id="Trazado_151644" data-name="Trazado 151644" d="M78.391,322.689H84.9l-.169-7.922h5l-.2,7.922h7.516l-.731,5.119H89.391l-.4,15.478H85.338l-.331-15.478H78.391Z" transform="translate(-58.302 -278.36)" fill="#fff"/>
          <path id="Trazado_151645" data-name="Trazado 151645" d="M52.643,350.51c.259,1.347.546,2.71.849,4.09.281,1.287.579,2.586.893,3.878,3.705,15.478,9.1,30.912,9.1,30.912a17.329,17.329,0,0,0,3.6.953,71.447,71.447,0,0,0,12.762.957h.027c12.21-.005,16.365-1.91,16.365-1.91s5.394-15.434,9.094-30.906c.314-1.3.611-2.6.9-3.884,1.753-7.969,2.889-15.608,2.424-20.758a29.9,29.9,0,0,0-1.13-5.826l-.005-.005c2.256,14.7-14.391,54.8-29.565,57.062C66.07,386.842,56.387,367.486,52.643,350.51Z" transform="translate(-50.964 -281.8)" fill="#2c3352" opacity="0.3" style="mix-blend-mode: multiply;isolation: isolate"/>
          <path id="Trazado_151646" data-name="Trazado 151646" d="M72.1,285.224l.4-2.282-2.489-.153-.158,2.358.3.02.138-2.055,1.845.114-.295,1.693H70.819l.038-1.059.574.031-.05.429-.239-.019-.025.3.533.042.121-1.044-1.209-.066-.06,1.686Z" transform="translate(-27.445 -270.055)" fill="#2c3352"/>
          <path id="Trazado_151647" data-name="Trazado 151647" d="M77.639,285.224l.4-2.282-2.489-.153-.158,2.358.3.02.138-2.055,1.845.114-.294,1.693H76.355l.038-1.059.574.031-.05.429-.239-.019-.025.3.533.042.121-1.044-1.209-.066-.06,1.686Z" transform="translate(-37.079 -270.055)" fill="#2c3352"/>
          <path id="Trazado_151648" data-name="Trazado 151648" d="M83.175,285.224l.4-2.282-2.489-.153-.158,2.358.3.02.138-2.055,1.845.114-.294,1.693H81.891l.038-1.059.574.031-.05.429-.239-.019-.025.3.533.042.121-1.044-1.209-.066-.06,1.686Z" transform="translate(-46.713 -270.055)" fill="#2c3352"/>
          <path id="Trazado_151649" data-name="Trazado 151649" d="M88.711,285.224l.4-2.282-2.489-.153-.158,2.358.3.02.138-2.055,1.845.114-.294,1.693H87.427l.038-1.059.574.031-.05.429-.239-.019-.025.3.533.042.121-1.044-1.209-.066-.06,1.686Z" transform="translate(-56.346 -270.055)" fill="#2c3352"/>
          <path id="Trazado_151650" data-name="Trazado 151650" d="M94.247,285.224l.4-2.282-2.489-.153L92,285.146l.3.02.138-2.055,1.845.114-.294,1.693H92.962L93,283.859l.574.031-.05.429-.239-.019-.025.3.533.042.121-1.044-1.209-.066-.06,1.686Z" transform="translate(-65.98 -270.055)" fill="#2c3352"/>
          <path id="Trazado_151651" data-name="Trazado 151651" d="M99.783,285.224l.4-2.282-2.489-.153-.158,2.358.3.02.138-2.055,1.845.114-.294,1.693H98.5l.038-1.059.574.031-.05.429-.239-.019-.025.3.533.042.121-1.044-1.209-.066-.06,1.686Z" transform="translate(-75.614 -270.055)" fill="#2c3352"/>
          <path id="Trazado_151652" data-name="Trazado 151652" d="M105.318,285.224l.4-2.282-2.489-.153-.158,2.358.3.02.138-2.055,1.845.114-.294,1.693h-1.028l.038-1.059.574.031-.05.429-.239-.019-.025.3.533.042.121-1.044-1.209-.066-.06,1.686Z" transform="translate(-85.248 -270.055)" fill="#2c3352"/>
          <path id="Trazado_151653" data-name="Trazado 151653" d="M110.854,285.224l.4-2.282-2.489-.153-.158,2.358.3.02.138-2.055,1.845.114-.294,1.693H109.57l.038-1.059.574.031-.05.429-.239-.019-.025.3.533.042.121-1.044-1.209-.066-.06,1.686Z" transform="translate(-94.882 -270.055)" fill="#2c3352"/>
        </g>
        <g id="Grupo_107017" data-name="Grupo 107017" transform="translate(0 23.636)">
          <rect id="Rectángulo_34124" data-name="Rectángulo 34124" width="67.944" height="85.864" fill="#1d272b"/>
          <rect id="Rectángulo_34125" data-name="Rectángulo 34125" width="74.525" height="56.604" transform="translate(62.274 5.67) rotate(90)" fill="#dedff1"/>
          <path id="Trazado_151654" data-name="Trazado 151654" d="M183.987,372l5.8.735,5.8-.735.5,6.556-6.258,1.01v.012l-.038-.006-.038.006v-.012l-6.258-1.01Z" transform="translate(-157.255 -316.859)" fill="#ffc3aa"/>
          <path id="Trazado_151655" data-name="Trazado 151655" d="M155.053,390.09V397.5h52.315c-.477-2.829-1.545-7.148-3.737-9.146-3.411-3.1-17.207-7.352-17.207-7.352l-6.4.908L173.616,381s-13.791,4.248-17.2,7.352A7.475,7.475,0,0,0,155.053,390.09Z" transform="translate(-147.491 -319.198)" fill="#8c94ad"/>
          <path id="Trazado_151656" data-name="Trazado 151656" d="M194.064,378.139l-2.122,2.577,6.215,5.457,2.956-5Z" transform="translate(-168.545 -318.454)" fill="#9aa1b9"/>
          <path id="Trazado_151657" data-name="Trazado 151657" d="M196.262,372.127v7.98l14.013,15.09h7.8Z" transform="translate(-188.7 -316.893)" fill="#2c3352"/>
          <g id="Grupo_107016" data-name="Grupo 107016" transform="translate(16.326 11.502)">
            <path id="Trazado_151658" data-name="Trazado 151658" d="M176.312,344.952s2.207,6.591.794,8.724-4.591,1.259-4.591,1.259l1.059-8.748Z" transform="translate(-146.956 -321.337)" fill="#ffc3aa"/>
            <path id="Trazado_151659" data-name="Trazado 151659" d="M205.147,344.952s-2.207,6.591-.794,8.724,4.591,1.259,4.591,1.259l-1.059-8.748Z" transform="translate(-201.54 -321.337)" fill="#ffc3aa"/>
            <path id="Trazado_151660" data-name="Trazado 151660" d="M199.172,339.533c.854,1.468-.581,1.662-.581,1.662a72.992,72.992,0,0,1-2.2,13.63c-1.783,6.255-13.925,7-17.174,2.786-3.761-4.88-3.646-15.755-3.646-15.755a2,2,0,0,1-.922-2.92c-2.836-.241-3.872-4.724-2.285-4.787-2.367-1.761-.289-2.815-.218-3.26-2.67-2.721-1.441-5.155.019-6.184-1.777-4.7,1.585-4.569,2.746-4.262-.4-5.55,4.846-6.995,7.054-4.786,2.926-4.18,10.585-2.629,9.8-.213,6.626,0,8.379,1.875,7.306,3.773,3.1,2.35,1.69,4.982,1.341,5.084,3.52,1.613,1.334,5.853.286,6.159,1.746,1.7.777,2.73.777,2.73,2.456,1.758.4,2.776-.583,3.181C201.857,338.19,199.172,339.533,199.172,339.533Z" transform="translate(-170.575 -313.053)" fill="#96492c"/>
            <path id="Trazado_151661" data-name="Trazado 151661" d="M179.686,350.789a20.4,20.4,0,0,0,9.192,2.462c4.314.017,8.568-2.156,8.893-3,.512-1.325.8-5.507.531-9.738-.777.078-.78-.905-.624-1.493-1.968,2.145-3.134.905-3.428.184-1.655,2.038-6.338.942-7.4-1.219-2.368.965-2.853-.024-3.286-.744-1.647,1.078-2.3-.688-2.6-1.409-.657,1.359-.911.632-1.232.323.182,1.923-.47,2.719-1.013,3.048C178.119,344.208,178.33,349.751,179.686,350.789Z" transform="translate(-172.137 -318.968)" fill="#ffc3aa"/>
            <path id="Trazado_151662" data-name="Trazado 151662" d="M193.805,358.505s-.971,2.119-2.736,2.295-3.09-2.383-3.09-2.383Z" transform="translate(-174.629 -324.834)" fill="#ffc3aa"/>
          </g>
          <path id="Trazado_151663" data-name="Trazado 151663" d="M186.705,378.139l2.122,2.577-6.215,5.457-2.956-5Z" transform="translate(-147.165 -318.454)" fill="#9aa1b9"/>
        </g>
      </g>
    </g>
    <g id="Grupo_131438" data-name="Grupo 131438" transform="translate(1064.98 256.012)">
      <path id="Trazado_114631" data-name="Trazado 114631" d="M12280.351,4199.84h75.238a15.774,15.774,0,0,1,15.773,15.773v47.633l-14.609-14.628h-76.338a15.774,15.774,0,0,1-15.775-15.773v-17.33A15.768,15.768,0,0,1,12280.351,4199.84Z" transform="translate(-12264.64 -4199.839)" fill="#12263f"/>
      <path id="Trazado_114632" data-name="Trazado 114632" d="M12274.736,4213.325h71.094a2.621,2.621,0,0,0,2.623-2.6h0a2.643,2.643,0,0,0-2.623-2.623h-71.094a2.645,2.645,0,0,0-2.625,2.623h0A2.627,2.627,0,0,0,12274.736,4213.325Z" transform="translate(-12256.459 -4191.814)" fill="#e7e7e7"/>
      <path id="Trazado_114633" data-name="Trazado 114633" d="M12274.715,4219.465h46.887a2.64,2.64,0,0,0,2.625-2.622h-.006a2.631,2.631,0,0,0-2.619-2.623h-46.887a2.64,2.64,0,0,0-2.625,2.623h0A2.634,2.634,0,0,0,12274.715,4219.465Z" transform="translate(-12232.187 -4185.868)" fill="#e7e7e7"/>
    </g>
  </g>
</svg>
