<svg xmlns="http://www.w3.org/2000/svg" xmlns:xlink="http://www.w3.org/1999/xlink" width="109.978" height="109.978" viewBox="0 0 109.978 109.978">
  <defs>
    <radialGradient id="radial-gradient" cx="0.076" cy="0.019" r="1.465" gradientTransform="translate(0.001)" gradientUnits="objectBoundingBox">
      <stop offset="0" stop-color="#f6f6f7"/>
      <stop offset="0.477" stop-color="#f9f9fa"/>
      <stop offset="0.715" stop-color="#fff"/>
    </radialGradient>
  </defs>
  <g id="Grupo_129556" data-name="Grupo 129556" transform="translate(0.03 0.188)">
    <g id="Grupo_42274" data-name="Grupo 42274" transform="translate(-0.03 -0.188)">
      <g id="Grupo_18423" data-name="Grupo 18423" transform="translate(0 0)">
        <g id="Grupo_18421" data-name="Grupo 18421">
          <g id="Grupo_18420" data-name="Grupo 18420">
            <g id="Grupo_18419" data-name="Grupo 18419">
              <path id="Trazado_40936" data-name="Trazado 40936" d="M304.6,2200.708a54.989,54.989,0,1,1-54.988-54.988A54.988,54.988,0,0,1,304.6,2200.708Z" transform="translate(-194.623 -2145.721)" fill="#fff"/>
            </g>
          </g>
        </g>
        <path id="Trazado_40937" data-name="Trazado 40937" d="M304.05,2200.108a54.987,54.987,0,1,0-54.988,54.99A54.771,54.771,0,0,0,304.05,2200.108Z" transform="translate(-194.072 -2145.121)" fill="url(#radial-gradient)"/>
        <path id="Trazado_40938" data-name="Trazado 40938" d="M286.162,2195.259a41.973,41.973,0,1,0-41.973,41.972A41.817,41.817,0,0,0,286.162,2195.259Z" transform="translate(-189.034 -2140.088)" fill="none" stroke="#1d272b" stroke-miterlimit="10" stroke-width="2"/>
        <g id="Grupo_18422" data-name="Grupo 18422" transform="translate(9.742 30.872)">
          <path id="Trazado_40939" data-name="Trazado 40939" d="M295.221,2164.488a55,55,0,0,1-94.676,54.761,54.821,54.821,0,0,0,94.676-54.761Z" transform="translate(-200.545 -2164.488)" fill="#eceef0"/>
        </g>
      </g>
    </g>
    <g id="IBvqyb" transform="translate(-3787.985 -2712.939)">
      <g id="Grupo_129652" data-name="Grupo 129652" transform="translate(3821.455 2744.251)">
        <path id="Trazado_166647" data-name="Trazado 166647" d="M3822.837,2791.973a2.416,2.416,0,0,1-1.705-2.628q.037-17.257.015-34.514a2.123,2.123,0,0,1,1.5-2.232,1.791,1.791,0,0,1,.506-.084c1.361-.009,2.724-.029,4.084.009a1.008,1.008,0,0,1,.692.426.7.7,0,0,1-.095.671,1.17,1.17,0,0,1-.746.278c-1.142.028-2.285.012-3.428.012-.933,0-1.1.167-1.1,1.082v34.515c0,.862.191,1.057,1.037,1.057h23.292c.825,0,1.03-.2,1.03-1.017q0-7.772,0-15.543v-.533H3832a2.149,2.149,0,0,1-2.4-2.411q0-12.4,0-24.794a2.14,2.14,0,0,1,2.377-2.38h20.615a2.137,2.137,0,0,1,2.365,2.346q0,3.264,0,6.527c0,.094,0,.188,0,.281a.711.711,0,0,1-.68.7.693.693,0,0,1-.719-.708c-.018-.641-.006-1.283-.006-1.925q0-2.442,0-4.884c0-.7-.233-.932-.925-.933q-10.354,0-20.708,0c-.666,0-.906.239-.906.9q0,12.468,0,24.935c0,.694.235.928.931.928H3852.6c.722,0,.948-.229.948-.958q0-7.467,0-14.933c0-.815.2-1.014,1.031-1.015q1.855,0,3.71,0c.556,0,.877.251.891.681.014.448-.321.724-.895.726-1.092,0-2.184,0-3.3,0v2.818h.625c.923,0,1.847-.006,2.771,0a.708.708,0,1,1,.006,1.4c-1.124.008-2.248,0-3.4,0v2.818h.43c.97,0,1.941,0,2.911,0,.537,0,.864.285.854.719-.01.417-.325.685-.838.687-1.109.005-2.217,0-3.355,0v2.817h2.959c.157,0,.313-.005.469,0a.706.706,0,1,1-.021,1.4c-.955.009-1.91,0-2.864,0h-.58v2.817h2.881a6.025,6.025,0,0,1,.7.009.657.657,0,0,1,.64.684.664.664,0,0,1-.618.7,2.47,2.47,0,0,1-.421.011h-8.79v2.817h8.762a3.121,3.121,0,0,1,.422.007.679.679,0,0,1,.648.681.693.693,0,0,1-.663.715,4.056,4.056,0,0,1-.422.005h-8.746v4.415h11.667c.779,0,.988-.215.988-1.012v-30.382c0-.835-.19-1.03-1.012-1.032-1.205,0-2.411,0-3.616,0a1.937,1.937,0,0,1-.42-.024.658.658,0,0,1-.575-.739.622.622,0,0,1,.636-.63c1.533-.01,3.069-.04,4.6.023a2.029,2.029,0,0,1,1.79,1.936c.01.156.006.313.006.47v30.335a2.172,2.172,0,0,1-2.483,2.464h-11.575v4.227h.42q3.521,0,7.043,0c.729,0,.956-.226.958-.948,0-.375-.01-.751,0-1.127a.706.706,0,0,1,.689-.74.7.7,0,0,1,.71.717c.016.516.026,1.034,0,1.549a2.1,2.1,0,0,1-2.135,1.954c-2.379.01-4.758,0-7.138,0h-.592a2.353,2.353,0,0,1-1.677,2.818Z" transform="translate(-3821.132 -2743.884)" fill="#12263f"/>
        <path id="Trazado_166647_-_Contorno" data-name="Trazado 166647 - Contorno" d="M3847.714,2792.473h-24.96l-.078-.027a2.908,2.908,0,0,1-2.044-3.1c.019-8.811.018-17.771.016-26.435q0-4.039,0-8.078a2.62,2.62,0,0,1,1.852-2.71,2.269,2.269,0,0,1,.649-.106l.66,0c.525,0,1.068-.008,1.6-.008.7,0,1.287.007,1.839.023a1.489,1.489,0,0,1,1.1.65,1.168,1.168,0,0,1-.157,1.3,1.676,1.676,0,0,1-1.089.427c-.467.012-.96.017-1.6.017l-.9,0-.893,0h-.05a1.435,1.435,0,0,0-.551.056,1.371,1.371,0,0,0-.053.526v34.515c0,.4.05.49.059.5a1.067,1.067,0,0,0,.477.054h23.292c.389,0,.467-.053.474-.059s.056-.082.056-.457q0-7.772,0-15.543v-.033H3832a2.643,2.643,0,0,1-2.9-2.911q0-12.4,0-24.794a2.633,2.633,0,0,1,2.877-2.88h20.615a2.626,2.626,0,0,1,2.865,2.846q0,2.285,0,4.571v1.957c0,.023,0,.045,0,.068,0,.076,0,.162-.006.255a1.206,1.206,0,0,1-1.162,1.161h-.041a1.191,1.191,0,0,1-1.194-1.194c-.013-.469-.011-.941-.009-1.4,0-.18,0-.361,0-.541q0-.872,0-1.745,0-1.569,0-3.138c0-.314-.058-.375-.059-.376s-.06-.057-.367-.057q-10.353,0-20.708,0c-.289,0-.349.056-.35.057s-.056.059-.056.347c0,7.826,0,15.982,0,24.935,0,.309.057.369.058.37s.062.058.373.058H3852.6c.329,0,.389-.057.39-.057s.059-.063.059-.4q0-4.267,0-8.533,0-3.2,0-6.4a1.558,1.558,0,0,1,.354-1.169,1.6,1.6,0,0,1,1.176-.345h.671q1.521,0,3.04,0a1.235,1.235,0,0,1,1.389,1.165,1.13,1.13,0,0,1-.312.843,1.465,1.465,0,0,1-1.081.4c-.769,0-1.539,0-2.318,0h-.486v1.818h.125l1.662,0c.43,0,.784,0,1.113,0a1.355,1.355,0,0,1,.98.39,1.158,1.158,0,0,1,.317.848,1.21,1.21,0,0,1-1.292,1.166c-.417,0-.87,0-1.425,0h-1.477v1.818h1.694q.575,0,1.15,0a1.41,1.41,0,0,1,1.034.392,1.134,1.134,0,0,1,.317.839,1.217,1.217,0,0,1-1.335,1.175c-.427,0-.894,0-1.469,0h-1.389v1.817h2.459l.28,0c.082,0,.149,0,.213,0a1.215,1.215,0,0,1,1.242,1.221,1.2,1.2,0,0,1-1.282,1.182c-.358,0-.75.005-1.234.005l-1.525,0h-.189v1.817h2.382l.189,0,.212,0a3.026,3.026,0,0,1,.36.019,1.2,1.2,0,0,1,.049,2.377,1.654,1.654,0,0,1-.285.022c-.074,0-.149,0-.222,0h-8.29v1.817h8.262c.078,0,.156,0,.234,0a1.873,1.873,0,0,1,.256.016,1.174,1.174,0,0,1,1.079,1.144,1.187,1.187,0,0,1-1.11,1.245,2.21,2.21,0,0,1-.237.011c-.079,0-.159,0-.237,0h-8.246v3.415h11.167c.359,0,.427-.054.429-.057s.059-.073.059-.455v-30.382a1.09,1.09,0,0,0-.055-.478,1.062,1.062,0,0,0-.458-.054h-3.745a1.782,1.782,0,0,1-.4-.037,1.153,1.153,0,0,1-.962-1.267,1.117,1.117,0,0,1,1.131-1.09l.79-.006c.528,0,1.074-.01,1.612-.01.861,0,1.567.012,2.223.039a2.532,2.532,0,0,1,2.269,2.4c.009.139.008.272.007.4,0,.034,0,.068,0,.1v30.335a2.659,2.659,0,0,1-2.983,2.964h-11.075v3.227h6.964c.337,0,.4-.058.4-.059s.057-.061.059-.391c0-.125,0-.25,0-.375,0-.25,0-.509.006-.768a1.206,1.206,0,0,1,1.18-1.222h.021a1.2,1.2,0,0,1,1.2,1.2c.015.48.028,1.039-.006,1.6a2.592,2.592,0,0,1-2.632,2.423c-.895,0-1.867.006-3.06.006l-4.08,0h-.062a2.754,2.754,0,0,1-2.049,2.792Zm-24.791-1h24.626a1.861,1.861,0,0,0,1.265-2.259l-.066-.559h1.155l4.08,0c1.191,0,2.162,0,3.055-.006a1.6,1.6,0,0,0,1.638-1.484c.031-.513.019-1.045,0-1.5,0-.07-.026-.233-.2-.233s-.2.141-.2.258c-.009.238-.007.475-.005.725,0,.129,0,.258,0,.386,0,1-.454,1.445-1.458,1.446h-7.964v-5.227h12.075c1.39,0,1.983-.587,1.983-1.964V2750.72c0-.036,0-.071,0-.107,0-.117,0-.227-.005-.332a1.534,1.534,0,0,0-1.312-1.468c-.642-.026-1.335-.038-2.182-.038-.534,0-1.077,0-1.6.01l-.791.006c-.06,0-.128,0-.141.17-.008.1-.013.165.188.211a.919.919,0,0,0,.179.012h3.746c1.1,0,1.511.417,1.511,1.532V2781.1c0,1.074-.431,1.512-1.488,1.512h-12.167V2777.2h9.246c.079,0,.158,0,.237,0a1.245,1.245,0,0,0,.133-.006c.109-.011.223-.074.216-.187-.009-.142-.042-.193-.216-.217a.941.941,0,0,0-.121-.006c-.078,0-.156,0-.234,0h-9.262v-3.817h9.29c.074,0,.148,0,.222,0a.726.726,0,0,0,.113-.007c.207-.036.206-.11.2-.2s-.012-.173-.2-.2a2.043,2.043,0,0,0-.243-.012l-.19,0-.211,0h-3.381v-3.817h1.189l1.525,0c.48,0,.87,0,1.225-.005.288,0,.291-.151.292-.2,0-.159-.154-.2-.287-.2-.05,0-.1,0-.168,0l-.28,0h-3.459v-3.817h2.389c.573,0,1.039,0,1.464,0,.336,0,.339-.14.341-.2a.145.145,0,0,0-.035-.118.445.445,0,0,0-.322-.089c-.645,0-1.291,0-1.937,0h-1.9v-3.818h.5l1.977,0c.552,0,1,0,1.418,0,.293,0,.3-.149.3-.2a.157.157,0,0,0-.039-.125.385.385,0,0,0-.268-.082c-.326,0-.677,0-1.1,0l-1.662,0h-1.125v-3.818h2.453l1.348,0a.544.544,0,0,0,.365-.094c.009-.01.034-.035.031-.116,0-.064-.006-.2-.392-.2q-1.518,0-3.037,0h-.672c-.39,0-.469.053-.476.059s-.055.082-.055.456q0,3.2,0,6.4,0,4.267,0,8.533c0,1.008-.447,1.458-1.448,1.458h-20.662a1.247,1.247,0,0,1-1.431-1.427c0-8.953,0-17.11,0-24.935a1.235,1.235,0,0,1,1.406-1.4q10.354,0,20.708,0a1.247,1.247,0,0,1,1.425,1.432q0,1.57,0,3.14,0,.872,0,1.744c0,.182,0,.364,0,.546,0,.449,0,.913.008,1.365,0,.137.078.222.195.222h.008c.155-.005.191-.155.2-.244,0-.045,0-.1,0-.16q0-.04,0-.081V2750.8q0-2.285,0-4.57a1.646,1.646,0,0,0-1.865-1.847q-10.237,0-20.476,0h-.139a1.652,1.652,0,0,0-1.877,1.88q0,12.4,0,24.794a1.66,1.66,0,0,0,1.9,1.911h16.419V2774q0,7.772,0,15.543c0,1.091-.429,1.517-1.53,1.517h-23.292a1.594,1.594,0,0,1-1.192-.355,1.65,1.65,0,0,1-.344-1.2v-34.515a1.652,1.652,0,0,1,.352-1.24,1.718,1.718,0,0,1,1.251-.341h.051l.9,0,.893,0c.631,0,1.117-.005,1.575-.016a.767.767,0,0,0,.383-.113.43.43,0,0,0,.02-.1.575.575,0,0,0-.257-.159c-.541-.015-1.116-.022-1.81-.022-.531,0-1.072,0-1.594.008l-.662,0a1.3,1.3,0,0,0-.363.063,1.661,1.661,0,0,0-1.144,1.754q0,4.039,0,8.077c0,8.665,0,17.625-.016,26.438A1.918,1.918,0,0,0,3822.923,2791.473Z" transform="translate(-3821.132 -2743.884)" fill="#12263f"/>
        <path id="Trazado_166648" data-name="Trazado 166648" d="M3884.019,2776.871h-6.8c-.626,0-.788-.158-.78-.8.011-.8-.012-1.595.064-2.384a3.12,3.12,0,0,1,1.887-2.636c.575-.272,1.2-.439,1.773-.714a3.987,3.987,0,0,0,1.115-.751c.3-.308.23-.478-.1-.759a4.107,4.107,0,0,1-1.621-3,17.833,17.833,0,0,1,.1-3.816,4.507,4.507,0,0,1,8.863.492,20.893,20.893,0,0,1-.011,3.465,4.087,4.087,0,0,1-1.692,2.921c-.208.162-.267.334-.126.51a2.889,2.889,0,0,0,.728.714,8.747,8.747,0,0,0,1.234.5c.269.106.542.2.807.317a3.416,3.416,0,0,1,2.174,3.289c.018.651.007,1.3,0,1.954,0,.505-.19.689-.706.689Q3887.474,2776.873,3884.019,2776.871Zm-6.444-1.11h12.964c0-.59.028-1.157-.006-1.72a2.314,2.314,0,0,0-1.572-2.14c-.313-.125-.629-.242-.947-.354-1.036-.366-2.05-.758-2.409-1.889a13.12,13.12,0,0,1-1.584.18,12.822,12.822,0,0,1-1.556-.186,2.809,2.809,0,0,1-1.893,1.71c-.561.219-1.133.408-1.683.652a2.054,2.054,0,0,0-1.3,1.775C3877.532,2774.432,3877.574,2775.084,3877.574,2775.761Zm9.965-11.549-.044,0c0-.4.014-.8,0-1.194a3.472,3.472,0,0,0-3.046-3.37,3.348,3.348,0,0,0-3.749,2.668,13.818,13.818,0,0,0-.087,3.278,3.435,3.435,0,0,0,6.778.489A13.523,13.523,0,0,0,3887.54,2764.212Z" transform="translate(-3862.888 -2752.828)" fill="#12263f"/>
        <path id="Trazado_166648_-_Contorno" data-name="Trazado 166648 - Contorno" d="M3887.962,2777.371h-10.747a1.1,1.1,0,0,1-1.28-1.3c0-.2,0-.4,0-.6,0-.6,0-1.215.063-1.829a3.614,3.614,0,0,1,2.17-3.04c.3-.144.616-.259.918-.37s.584-.214.853-.343a3.532,3.532,0,0,0,.956-.632l-.051-.043a4.572,4.572,0,0,1-1.8-3.361v-.007a18.179,18.179,0,0,1,.112-3.916,4.538,4.538,0,0,1,1.743-2.828,5.343,5.343,0,0,1,3.222-1.058c.1,0,.21,0,.314.009a4.871,4.871,0,0,1,3.076,1.369,4.8,4.8,0,0,1,1.5,3.043,21.421,21.421,0,0,1-.01,3.549,4.574,4.574,0,0,1-1.812,3.218,2,2,0,0,0,.476.454,4.594,4.594,0,0,0,.772.325c.128.045.261.092.393.144l.261.1c.184.07.373.142.562.224a3.89,3.89,0,0,1,2.475,3.734c.014.514.011,1.032.008,1.534q0,.218,0,.436a1.073,1.073,0,0,1-1.206,1.187Zm-3.944-1h6.912a.769.769,0,0,0,.19-.017.721.721,0,0,0,.016-.174q0-.219,0-.438c0-.493.007-1-.007-1.5a2.925,2.925,0,0,0-1.874-2.844c-.167-.073-.338-.138-.519-.207l-.271-.1c-.116-.045-.235-.087-.361-.132a5.377,5.377,0,0,1-.943-.4,3.307,3.307,0,0,1-.866-.833.786.786,0,0,1-.182-.593.932.932,0,0,1,.39-.623,3.58,3.58,0,0,0,1.5-2.567,20.457,20.457,0,0,0,.011-3.382,3.967,3.967,0,0,0-3.633-3.5c-.086,0-.173-.007-.259-.007a4.336,4.336,0,0,0-2.617.854,3.494,3.494,0,0,0-1.364,2.2,17.452,17.452,0,0,0-.1,3.7v.007a3.616,3.616,0,0,0,1.443,2.637,1.085,1.085,0,0,1,.475.765.981.981,0,0,1-.334.729,4.4,4.4,0,0,1-1.256.851c-.311.149-.631.267-.94.38-.294.108-.571.21-.835.335a2.626,2.626,0,0,0-1.6,2.232c-.055.568-.057,1.135-.058,1.737,0,.2,0,.4,0,.607a.2.2,0,0,0,.28.289h6.8Zm7.02-.11h-13.964v-.5c0-.2,0-.412-.008-.613a13.813,13.813,0,0,1,.02-1.4,2.559,2.559,0,0,1,1.6-2.191c.374-.166.756-.307,1.126-.444.191-.07.388-.143.578-.217.94-.367,1.4-.771,1.6-1.393l.125-.4.416.054c.173.022.342.049.5.074a6.606,6.606,0,0,0,.99.108h.01a6.8,6.8,0,0,0,.99-.1c.168-.025.341-.052.522-.074l.412-.051.126.4c.275.866,1.043,1.2,2.1,1.569.35.124.667.242.966.361a2.811,2.811,0,0,1,1.886,2.574c.024.405.018.813.012,1.208,0,.177-.005.361-.005.542Zm-12.969-1h11.974c0-.019,0-.038,0-.057.006-.394.011-.765-.01-1.133a1.824,1.824,0,0,0-1.258-1.706c-.287-.114-.591-.228-.928-.347a4.084,4.084,0,0,1-2.559-1.812l-.117.018a7.634,7.634,0,0,1-1.139.114h-.013a7.463,7.463,0,0,1-1.142-.12l-.1-.015a3.531,3.531,0,0,1-2.028,1.624c-.2.078-.4.152-.6.224-.371.137-.722.266-1.066.419a1.56,1.56,0,0,0-1.008,1.359,12.991,12.991,0,0,0-.017,1.3C3878.067,2775.172,3878.068,2775.216,3878.069,2775.261Zm5.933-5.994h0c-.087,0-.175,0-.262-.008a3.9,3.9,0,0,1-3.627-3.635,14.281,14.281,0,0,1,.094-3.4,3.662,3.662,0,0,1,1.358-2.263,4.072,4.072,0,0,1,2.5-.838,4.355,4.355,0,0,1,.437.022,3.986,3.986,0,0,1,3.5,3.847c.01.252.009.5.007.747l.076,0-.036.5c-.014.186-.021.372-.028.569a7.781,7.781,0,0,1-.133,1.368A3.915,3.915,0,0,1,3884,2769.266Zm.059-9.141a2.808,2.808,0,0,0-2.87,2.273,13.374,13.374,0,0,0-.081,3.158,2.9,2.9,0,0,0,2.69,2.7c.067,0,.135.006.2.006a2.886,2.886,0,0,0,2.9-2.292,6.918,6.918,0,0,0,.111-1.194l0-.1H3887v-.468c0-.127,0-.254,0-.381,0-.274.006-.533,0-.792a2.981,2.981,0,0,0-2.6-2.893C3884.285,2760.131,3884.172,2760.125,3884.06,2760.125Z" transform="translate(-3862.888 -2752.828)" fill="#12263f"/>
      </g>
    </g>
  </g>
</svg>
