<svg id="Grupo_129307" data-name="Grupo 129307" xmlns="http://www.w3.org/2000/svg" width="252.93" height="231.325" viewBox="0 0 252.93 231.325">
  <g id="Grupo_128802" data-name="Grupo 128802" transform="translate(0 0)">
    <path id="Trazado_151846" data-name="Trazado 151846" d="M300.507,318.728a58.41,58.41,0,0,0,7.227-49.153c-3.2-10.341-9.354-19.949-10.14-30.732-1.573-21.561,18.25-38.992,22.362-60.226,1.808-9.332-.164-20.2-7.912-25.873-7.652-5.6-18.574-4.456-27.238-.535s-15.994,10.2-24.312,14.787-18.56,7.426-27.344,3.774c-8.9-3.7-13.944-13.024-16.771-22.113s-4.215-18.768-9.039-27c-7.952-13.57-24.906-20.969-40.705-19.055s-29.916,12.4-37.488,26.181-8.9,30.445-5.126,45.664c1.912,7.719,5.062,15.11,6.779,22.874s1.875,16.26-1.96,23.252c-8.018,14.622-29.171,16.661-40.248,29.2-9.142,10.349-9.429,26.143-4.241,38.87s14.939,23.053,24.661,32.878c45.346,1.5,91.5,1.6,136.849,3.1C263.484,325.2,282.9,319.748,300.507,318.728Z" transform="translate(-80.961 -98.176)" fill="#a4a4b4" opacity="0.354" style="mix-blend-mode: multiply;isolation: isolate"/>
    <path id="Trazado_151847" data-name="Trazado 151847" d="M359.21,167.171c-.116,12.447,11.716,23.28,9.657,35.555-1.1,6.568-6.106,13.226-3.2,19.217,2.573,5.3,9.943,6.22,15.579,4.5,13.191-4.035,21.208-17.519,25.043-30.77,3.607-12.464,4.5-26.386-1.274-38.005-4.654-9.361-15.393-17.626-26.3-16.861C368.731,141.5,359.3,157.8,359.21,167.171Z" transform="translate(-156.244 -100.811)" fill="#a4a4b4" opacity="0.31" style="mix-blend-mode: multiply;isolation: isolate"/>
    <path id="Trazado_151848" data-name="Trazado 151848" d="M115.337,142.5a64.3,64.3,0,0,0-1.283,62.569c3.3,6.056,7.759,11.7,13.778,15.068s13.785,4.119,19.776.7c9.086-5.183,11.1-17.408,10.373-27.844s-3.087-21.376.931-31.034c2.62-6.3,7.65-11.2,12.113-16.358s8.628-11.173,8.858-17.988c.6-17.666-18.158-16.346-29.46-12.677A64.238,64.238,0,0,0,115.337,142.5Z" transform="translate(-83.416 -99.169)" fill="#a4a4b4" opacity="0.31" style="mix-blend-mode: multiply;isolation: isolate"/>
    <g id="Grupo_107069" data-name="Grupo 107069" transform="translate(6.279)" style="mix-blend-mode: multiply;isolation: isolate">
      <path id="Trazado_151849" data-name="Trazado 151849" d="M298.5,320.4l-.968-.876c2.663-2.886,6.913-9.5,5.474-21.4a92.739,92.739,0,0,0-3.763-15.585c-.685-2.26-1.395-4.6-2.014-6.917a106.64,106.64,0,0,1,7.924-74.935c1.034-2.029,2.152-4.065,3.235-6.033,3.208-5.836,6.525-11.871,7.951-18.39,2.5-11.44-2.443-20.014-8.1-23.14-5.423-3-13.079-2.541-21,1.258-2.9,1.389-5.716,3.089-8.44,4.733a78.282,78.282,0,0,1-11.321,6.009c-15.727,6.258-35.39.939-45.736-12.369-4.973-6.4-7.78-14.125-10.5-21.6-1.052-2.9-2.14-5.892-3.336-8.758-3.721-8.911-10.532-20.1-21.845-22.771-9.941-2.352-20.009,2.817-26.7,7.567-12.808,9.089-21.836,21.4-25.423,34.658-2.418,8.942-2.515,18.675-2.61,28.088-.14,14.017-.285,28.512-8.267,40.185-3.631,5.31-8.625,9.547-13.454,13.645-4.523,3.837-9.2,7.806-12.687,12.616-7.9,10.9-9.837,26.328-5.313,42.333,4.065,14.38,12.351,27.14,20.365,39.479l-1.1.7c-8.066-12.42-16.406-25.263-20.524-39.831-4.632-16.387-2.623-32.222,5.51-43.442,3.579-4.937,8.317-8.957,12.9-12.845,4.764-4.042,9.69-8.222,13.222-13.387,7.76-11.349,7.9-25.008,8.041-39.469.1-9.494.193-19.31,2.655-28.412,3.664-13.55,12.872-26.114,25.925-35.378,6.916-4.907,17.347-10.24,27.77-7.774,11.851,2.8,18.914,14.347,22.751,23.538,1.209,2.894,2.3,5.9,3.359,8.815,2.681,7.38,5.452,15.012,10.3,21.246,10,12.865,29.009,18,44.212,11.956A77.415,77.415,0,0,0,278.122,158c2.75-1.66,5.595-3.377,8.55-4.793,8.312-3.986,16.408-4.433,22.211-1.224,6.061,3.352,11.382,12.464,8.739,24.55-1.466,6.7-4.829,12.82-8.082,18.737-1.077,1.96-2.192,3.986-3.215,6a105.33,105.33,0,0,0-7.827,74.017c.613,2.3,1.319,4.626,2,6.875a93.815,93.815,0,0,1,3.81,15.8C305.81,310.377,301.314,317.346,298.5,320.4Z" transform="translate(-87.906 -97.739)" fill="#a4a4b4"/>
    </g>
  </g>
  <g id="Grupo_129608" data-name="Grupo 129608" transform="translate(-741.633 -5208.783)">
    <g id="Grupo_60100" data-name="Grupo 60100" transform="translate(766.777 5327.006)">
      <g id="Grupo_60095" data-name="Grupo 60095" transform="translate(9.039)">
        <path id="Trazado_118865" data-name="Trazado 118865" d="M13664.264,3770.616s-2.053,1.553-2.053,3.613v10.521h15.342v-10.991s-.217-2.7-2.018-3.169Z" transform="translate(-13658.886 -3748.67)" fill="#e8f3fc"/>
        <path id="Trazado_118866" data-name="Trazado 118866" d="M13664.2,3789.678a29.915,29.915,0,0,1-.229-3.237,2.605,2.605,0,0,1,1.8-2.383,5.884,5.884,0,0,1,2.486.212,6.624,6.624,0,0,0,3.973-.592c1.057-.528,1.98-1.32,3.131-1.425a1.7,1.7,0,0,1,1.834,1.014,2.533,2.533,0,0,1,0,1.056,36.739,36.739,0,0,0,.068,5.192c-4.295.2-8.746.058-13.045.153" transform="translate(-13659.716 -3754.169)" fill="#1d272b"/>
        <path id="Trazado_118867" data-name="Trazado 118867" d="M14031.4,4011.544l2.326-1.484h13.994l2.219,1.484H14031.4" transform="translate(-14029.03 -3973.981)" fill="#839eb6"/>
        <path id="Trazado_118868" data-name="Trazado 118868" d="M13659.6,3732.428v15.66h19.014v18.57h-18.568v4.448h31.986v-38.678a3.339,3.339,0,0,0-3.34-3.338H13662.9A3.339,3.339,0,0,0,13659.6,3732.428Z" transform="translate(-13657.652 -3729.09)" fill="#a7c1ce"/>
        <path id="Trazado_118869" data-name="Trazado 118869" d="M13692,3735.958c0,.074-7.268.137-16.23.137s-16.236-.063-16.236-.137,7.268-.137,16.236-.137S13692,3735.883,13692,3735.958Z" transform="translate(-13657.619 -3732.265)" fill="#839eb6"/>
        <path id="Trazado_118870" data-name="Trazado 118870" d="M13703.877,3771.2c-.074,0-.137-9.38-.137-20.952s.063-20.952.137-20.952.139,9.38.139,20.952S13703.932,3771.2,13703.877,3771.2Z" transform="translate(-13678.479 -3729.189)" fill="#839eb6"/>
        <path id="Trazado_118871" data-name="Trazado 118871" d="M13656.119,3778.57l-.2-4.753a6.4,6.4,0,0,1,1.057-3.872,3.393,3.393,0,0,1,2.793-1.7h12.818v1.252h-12.58s-2.266.237-2.561,3.338a30.745,30.745,0,0,0,0,5.72Z" transform="translate(-13655.913 -3747.567)" fill="#5c6366"/>
      </g>
      <g id="Grupo_60099" data-name="Grupo 60099" transform="translate(0 42.016)">
        <rect id="Rectángulo_10656" data-name="Rectángulo 10656" width="5.62" height="10.13" transform="translate(20.916 60.739)" fill="#acc1d1"/>
        <rect id="Rectángulo_10657" data-name="Rectángulo 10657" width="5.62" height="10.13" transform="translate(45.739 60.739)" fill="#acc1d1"/>
        <rect id="Rectángulo_10658" data-name="Rectángulo 10658" width="46.547" height="60.739" transform="translate(8.556)" fill="#a7c1ce"/>
        <rect id="Rectángulo_10659" data-name="Rectángulo 10659" width="45.338" height="60.739" fill="#e8f3fc"/>
        <rect id="Rectángulo_10660" data-name="Rectángulo 10660" width="5.62" height="10.13" transform="translate(4.014 60.739)" fill="#87959c"/>
        <rect id="Rectángulo_10661" data-name="Rectángulo 10661" width="5.62" height="10.13" transform="translate(36.338 60.739)" fill="#87959c"/>
        <g id="Grupo_60096" data-name="Grupo 60096" transform="translate(2.736 38.625)">
          <path id="Trazado_118872" data-name="Trazado 118872" d="M13682.967,3896.949v-4.024c0-2.583,0-6.338-.037-10.97l.064.063-38.9.027h0l.088-.09v14.994l-.088-.09,27.871.042h.043l-27.936.042h-.088V3881.77h.094l38.9.032h.063v.063c0,4.664,0,8.413-.031,11.007v3.729A.66.66,0,0,1,13682.967,3896.949Z" transform="translate(-13643.98 -3881.77)" fill="#839eb6"/>
          <path id="Trazado_118873" data-name="Trazado 118873" d="M13681.021,3895.191a.815.815,0,0,0-.068-.275,1.185,1.185,0,0,0-.434-.607,1.126,1.126,0,0,0-1.057-.143,1.1,1.1,0,1,0,1.057,1.907,1.166,1.166,0,0,0,.434-.6c.053-.174.053-.28.068-.28a.509.509,0,0,1,0,.3,1.214,1.214,0,0,1-.422.692,1.254,1.254,0,1,1,0-1.97,1.187,1.187,0,0,1,.422.687A.509.509,0,0,1,13681.021,3895.191Z" transform="translate(-13660.308 -3887.512)" fill="#839eb6"/>
        </g>
        <g id="Grupo_60097" data-name="Grupo 60097" transform="translate(2.736 20.788)">
          <path id="Trazado_118874" data-name="Trazado 118874" d="M13682.967,3863.058v-4.019c0-2.588,0-6.338-.037-10.976l.064.063-38.9.032h0l.088-.1v14.995l-.088-.089,27.871.042h.043l-27.936.042h-.088V3848h.094l38.9.026h.063v.063c0,4.664,0,8.419-.031,11.013v3.729A.384.384,0,0,1,13682.967,3863.058Z" transform="translate(-13643.98 -3848)" fill="#839eb6"/>
          <path id="Trazado_118875" data-name="Trazado 118875" d="M13681.023,3861.2a.852.852,0,0,0-.068-.28,1.182,1.182,0,0,0-.434-.6,1.109,1.109,0,0,0-1.057-.142,1.094,1.094,0,0,0,0,2.049,1.14,1.14,0,0,0,1.057-.142,1.183,1.183,0,0,0,.432-.608c.055-.174.055-.274.07-.274a.542.542,0,0,1,0,.3,1.18,1.18,0,0,1-.424.687,1.237,1.237,0,0,1-1.182.2,1.257,1.257,0,0,1,0-2.366,1.239,1.239,0,0,1,1.182.2,1.181,1.181,0,0,1,.424.692A.542.542,0,0,1,13681.023,3861.2Z" transform="translate(-13660.309 -3853.636)" fill="#839eb6"/>
        </g>
        <g id="Grupo_60098" data-name="Grupo 60098" transform="translate(2.736 2.968)">
          <path id="Trazado_118876" data-name="Trazado 118876" d="M13682.967,3829.439V3825.4c0-2.583,0-6.337-.037-10.97l.064.058-38.9.032h0l.088-.09v15l-.088-.084,27.871.037h.043l-27.936.042h-.088V3814.26h.094l38.9.032h.063v.063c0,4.664,0,8.414-.031,11.007v3.729A.723.723,0,0,1,13682.967,3829.439Z" transform="translate(-13643.98 -3814.26)" fill="#839eb6"/>
          <path id="Trazado_118877" data-name="Trazado 118877" d="M13681.023,3827.659a.854.854,0,0,0-.068-.28,1.18,1.18,0,0,0-.434-.6,1.109,1.109,0,0,0-1.057-.143,1.094,1.094,0,0,0,0,2.049,1.109,1.109,0,0,0,1.057-.142,1.182,1.182,0,0,0,.434-.6c.053-.174.053-.28.068-.28a.546.546,0,0,1,0,.3,1.184,1.184,0,0,1-.424.687,1.24,1.24,0,0,1-1.182.2,1.257,1.257,0,0,1,0-2.366,1.213,1.213,0,0,1,1.605.887A.542.542,0,0,1,13681.023,3827.659Z" transform="translate(-13660.309 -3819.99)" fill="#839eb6"/>
        </g>
      </g>
      <path id="Trazado_118878" data-name="Trazado 118878" d="M13692.029,3808.517c0,.079-7.055.137-15.76.137s-15.771-.058-15.771-.137,7.063-.137,15.771-.137S13692.029,3808.443,13692.029,3808.517Z" transform="translate(-13649.036 -3766.501)" fill="#839eb6"/>
    </g>
    <g id="Grupo_60109" data-name="Grupo 60109" transform="translate(834.609 5234.609)">
      <rect id="Rectángulo_10711" data-name="Rectángulo 10711" width="2.593" height="55.742" transform="translate(38.065 0)" fill="#1d2c3e"/>
      <rect id="Rectángulo_10712" data-name="Rectángulo 10712" width="37.214" height="55.389" rx="0.07" transform="translate(0.46 0.428)" fill="#a4a4b4"/>
      <path id="Trazado_118907" data-name="Trazado 118907" d="M13805.295,3610.4h-38.027a.038.038,0,0,1-.027-.011.044.044,0,0,1-.012-.027l0-56.175a.035.035,0,0,1,.035-.037h38.029a.036.036,0,0,1,.037.037v56.176A.036.036,0,0,1,13805.295,3610.4Zm-37.131-.872h36.275a.044.044,0,0,0,.043-.037v-54.454a.044.044,0,0,0-.043-.037h-36.275a.036.036,0,0,0-.035.037v54.491A.035.035,0,0,0,13768.164,3609.528Z" transform="translate(-13767.229 -3554.15)" fill="#12263f"/>
      <rect id="Rectángulo_10713" data-name="Rectángulo 10713" width="29.783" height="48.517" rx="0.07" transform="translate(4.21 3.845)" fill="#fafafa"/>
      <rect id="Rectángulo_10714" data-name="Rectángulo 10714" width="16.722" height="19.6" rx="0.06" transform="translate(10.707 17.604)" fill="#fc9c96"/>
      <path id="Trazado_118908" data-name="Trazado 118908" d="M13803.191,3606.267a3.722,3.722,0,0,1-2.375.238,5.711,5.711,0,0,1-2.668-1.056,5.42,5.42,0,0,1-2.078-3.259,4.7,4.7,0,0,1,1.586-4.457,4.179,4.179,0,0,1,1.2-.708,3.3,3.3,0,0,1,1.506-.174,2.651,2.651,0,0,1,1.5.661,1.962,1.962,0,0,1,.592,1.753,2.822,2.822,0,0,1-.824,1.5,5.487,5.487,0,0,1-1.262.93,6.937,6.937,0,0,1-3.006.861,6,6,0,0,1-3.2-.729,5.8,5.8,0,0,1-2.355-2.445,4.973,4.973,0,0,1-.428-3.422,5.123,5.123,0,0,1,1.807-2.821,4.421,4.421,0,0,1,1.51-.761,3.735,3.735,0,0,1,1.707-.053,2.743,2.743,0,0,1,1.541.872,2.538,2.538,0,0,1,.609,1.647,3.19,3.19,0,0,1-.406,1.585,4.284,4.284,0,0,1-.951,1.146,6.4,6.4,0,0,1-2.373,1.257,6,6,0,0,1-2.492.2,5.1,5.1,0,0,1-2.166-.83,4.693,4.693,0,0,1-2.074-3.285,3.957,3.957,0,0,1,.77-2.81,3.362,3.362,0,0,1,1.422-1.135c.391-.148.613-.143.623-.105s-.18.137-.5.349a3.678,3.678,0,0,0-1.1,1.188,3.5,3.5,0,0,0-.455,2.4,3.929,3.929,0,0,0,1.844,2.578,4.536,4.536,0,0,0,3.8.364,5.37,5.37,0,0,0,1.9-1.056,2.336,2.336,0,0,0,.887-1.781,1.278,1.278,0,0,0-1.145-1.268,2.576,2.576,0,0,0-1.094.053,3.188,3.188,0,0,0-1.057.528,3.772,3.772,0,0,0-1.3,2.076,3.627,3.627,0,0,0,.322,2.488,4.494,4.494,0,0,0,1.8,1.87,4.68,4.68,0,0,0,2.471.576,5.648,5.648,0,0,0,2.436-.666,4.148,4.148,0,0,0,.973-.687,1.692,1.692,0,0,0,.5-.8.706.706,0,0,0-.2-.645,1.5,1.5,0,0,0-.809-.359,2.032,2.032,0,0,0-.945.084,2.907,2.907,0,0,0-.883.48,3.7,3.7,0,0,0-1.348,3.412,4.7,4.7,0,0,0,1.586,2.821,5.639,5.639,0,0,0,2.291,1.146C13802.293,3606.309,13803.191,3606.146,13803.191,3606.267Z" transform="translate(-13777.063 -3571.461)" fill="#839eb6"/>
    </g>
    <g id="Grupo_60139" data-name="Grupo 60139" transform="translate(857.675 5355.612)">
      <path id="Trazado_119007" data-name="Trazado 119007" d="M14188.9,4086.526l8.768-77.186,7.4,2.614-12.1,74.571Z" transform="translate(-14185.203 -4002.247)" fill="#344154"/>
      <path id="Trazado_140574" data-name="Trazado 140574" d="M14205.064,4086.526l-8.77-77.186-7.395,2.614,12.1,74.571Z" transform="translate(-14106.942 -4002.247)" fill="#344154"/>
      <rect id="Rectángulo_10718" data-name="Rectángulo 10718" width="93.944" height="9.766" transform="translate(0 0.914)" fill="#5e6178"/>
      <path id="Trazado_119008" data-name="Trazado 119008" d="M13858.458,3785.25a.521.521,0,0,1-.074.1,3.6,3.6,0,0,1-.232.3,4.7,4.7,0,0,1-1.119.9,6.246,6.246,0,0,1-2.16.724,15.513,15.513,0,0,1-3.006.132,28.716,28.716,0,0,1-3.623-.417,32.468,32.468,0,0,0-4.125-.491,25.541,25.541,0,0,0-9.285,1.8c-3.18,1.141-6.158,2.435-9.006,3.222a24.666,24.666,0,0,1-4.109.813,17.185,17.185,0,0,1-3.654,0,12.481,12.481,0,0,1-5.006-1.584,7.91,7.91,0,0,1-1.549-1.162l.111.069c.08.063.174.137.295.222a9.755,9.755,0,0,0,1.193.776,12.753,12.753,0,0,0,4.977,1.5,17.245,17.245,0,0,0,3.605-.027,24.719,24.719,0,0,0,4.063-.829c2.826-.8,5.811-2.113,8.979-3.238a25.838,25.838,0,0,1,9.387-1.8,32.148,32.148,0,0,1,4.15.528,30.113,30.113,0,0,0,3.592.443,15.375,15.375,0,0,0,2.979-.09,6.327,6.327,0,0,0,2.113-.666A5.591,5.591,0,0,0,13858.458,3785.25Z" transform="translate(-13811.188 -3784.194)" fill="#344154"/>
      <path id="Trazado_119009" data-name="Trazado 119009" d="M13835.96,3785.525a4.842,4.842,0,0,1-.676.581,15.623,15.623,0,0,1-2.033,1.311,17.834,17.834,0,0,1-3.334,1.357,18.05,18.05,0,0,1-4.352.676,16.667,16.667,0,0,1-7.785-1.584,4.9,4.9,0,0,1-1.875-1.532,2.491,2.491,0,0,1-.307-.591.73.73,0,0,1-.059-.222,5.708,5.708,0,0,0,.451.75,5.051,5.051,0,0,0,1.877,1.42,17.2,17.2,0,0,0,7.688,1.505,18.026,18.026,0,0,0,7.605-1.933,19.826,19.826,0,0,0,2.063-1.226A6.479,6.479,0,0,1,13835.96,3785.525Z" transform="translate(-13813.09 -3784.321)" fill="#344154"/>
      <path id="Trazado_119010" data-name="Trazado 119010" d="M13937.514,3793.467a2.693,2.693,0,0,1,.35.127,7.473,7.473,0,0,0,1.029.275,6.081,6.081,0,0,0,3.9-.613v.122a9.3,9.3,0,0,0-4.844-1.886,9.413,9.413,0,0,0-6.3,1.637,1.018,1.018,0,0,0-.492.634.678.678,0,0,0,.424.629,2.816,2.816,0,0,0,.859.307l.949.216c1.279.28,2.6.565,3.969.766a23.574,23.574,0,0,0,4.225.285,15.8,15.8,0,0,0,2.164-.206c.359-.063.719-.132,1.057-.227a5.446,5.446,0,0,0,1.057-.337,3.419,3.419,0,0,0,1.352-.978,1.539,1.539,0,0,0,.26-1.5,2.539,2.539,0,0,0-1.057-1.183,7.978,7.978,0,0,0-1.479-.724,20.227,20.227,0,0,0-6.2-1.288,25.613,25.613,0,0,0-10.562,1.642,26.085,26.085,0,0,0-6.369,3.481c-.682.528-1.205.94-1.543,1.246l-.391.338a1.074,1.074,0,0,1-.143.105,1.376,1.376,0,0,1,.121-.126l.375-.359c.322-.317.84-.75,1.512-1.289a25.381,25.381,0,0,1,6.369-3.581,25.7,25.7,0,0,1,10.668-1.711,20.531,20.531,0,0,1,6.291,1.289,8.632,8.632,0,0,1,1.531.745,2.865,2.865,0,0,1,1.168,1.32,1.818,1.818,0,0,1-.3,1.764,3.716,3.716,0,0,1-1.457,1.057,5.379,5.379,0,0,1-1.088.348,10.993,10.993,0,0,1-1.1.232,15.5,15.5,0,0,1-2.2.211,24.015,24.015,0,0,1-4.268-.3c-1.373-.206-2.7-.5-3.977-.781l-.951-.222a3.161,3.161,0,0,1-.934-.333,1.293,1.293,0,0,1-.4-.343.772.772,0,0,1-.143-.528,1.24,1.24,0,0,1,.592-.8,9.619,9.619,0,0,1,6.463-1.643,9.435,9.435,0,0,1,4.92,1.97l.088.074-.1.053a6.065,6.065,0,0,1-3.994.555,4.361,4.361,0,0,1-1.408-.47Z" transform="translate(-13899.55 -3786.073)" fill="#344154"/>
      <path id="Trazado_119011" data-name="Trazado 119011" d="M14000.877,3785.73a1.434,1.434,0,0,1,.223.491,3.808,3.808,0,0,1,.143,1.468,7.192,7.192,0,0,1-2.172,4.263,11,11,0,0,1-2.033,1.728,9.121,9.121,0,0,1-1.959.95,9.518,9.518,0,0,1-1.422.354,2.242,2.242,0,0,1-.525.047c0-.052.748-.158,1.883-.586a9.673,9.673,0,0,0,1.893-.977,11.787,11.787,0,0,0,1.969-1.707,7.387,7.387,0,0,0,2.182-4.093A5.412,5.412,0,0,0,14000.877,3785.73Z" transform="translate(-13953.642 -3784.42)" fill="#344154"/>
      <path id="Trazado_119012" data-name="Trazado 119012" d="M14054.629,3796.706a13.565,13.565,0,0,0-1.025-.992,7.192,7.192,0,0,0-3.49-1.585,7.689,7.689,0,0,0-2.641.074,11.348,11.348,0,0,1-3.117.286,6.24,6.24,0,0,1-3.105-1.521,10.549,10.549,0,0,0-3.115-1.848,11.468,11.468,0,0,0-6.926-.106,16.458,16.458,0,0,0-5.117,2.593,28.689,28.689,0,0,0-2.975,2.535l-.756.75a2.406,2.406,0,0,1-.273.254,1.581,1.581,0,0,1,.232-.291c.16-.185.4-.455.725-.787a23.99,23.99,0,0,1,2.932-2.641,16.117,16.117,0,0,1,5.166-2.684,11.573,11.573,0,0,1,7.086.09,10.736,10.736,0,0,1,3.17,1.9,6.064,6.064,0,0,0,2.969,1.484,11.335,11.335,0,0,0,3.053-.264,8.04,8.04,0,0,1,2.725-.042,7.208,7.208,0,0,1,3.529,1.685A4.808,4.808,0,0,1,14054.629,3796.706Z" transform="translate(-13984.56 -3786.544)" fill="#344154"/>
      <path id="Trazado_119013" data-name="Trazado 119013" d="M14120,3785.16a2.121,2.121,0,0,1-.244.333c-.174.206-.4.528-.76.908a21.105,21.105,0,0,1-3.26,2.895,26.419,26.419,0,0,1-5.656,3.137,23.724,23.724,0,0,1-3.648,1.162,18.656,18.656,0,0,1-4.078.528,20.242,20.242,0,0,1-7.744-1.584,25.708,25.708,0,0,1-5.625-3.169,21.987,21.987,0,0,1-3.238-2.921c-.354-.37-.586-.7-.758-.9a3.091,3.091,0,0,1-.25-.332,2.249,2.249,0,0,1,.291.3,10.63,10.63,0,0,0,.8.866,23.807,23.807,0,0,0,3.273,2.842,26.349,26.349,0,0,0,5.6,3.11,20.244,20.244,0,0,0,7.643,1.585,18.876,18.876,0,0,0,4.025-.528,23.585,23.585,0,0,0,3.613-1.136,26.653,26.653,0,0,0,5.633-3.058,22.155,22.155,0,0,0,3.3-2.81c.369-.354.613-.676.8-.872A2.455,2.455,0,0,1,14120,3785.16Z" transform="translate(-14037.436 -3784.151)" fill="#344154"/>
      <path id="Trazado_119014" data-name="Trazado 119014" d="M14121.878,3785a1.75,1.75,0,0,1-.189.153c-.129.09-.322.232-.58.391a22.724,22.724,0,0,1-2.236,1.268,23.513,23.513,0,0,1-3.533,1.437,15.637,15.637,0,0,1-4.611.792,19.011,19.011,0,0,1-8.186-2.07,17.1,17.1,0,0,1-2.213-1.3c-.254-.164-.439-.317-.566-.412a.816.816,0,0,1-.186-.158,6.539,6.539,0,0,1,.809.48,21.981,21.981,0,0,0,2.24,1.22,19.719,19.719,0,0,0,8.1,1.97,16.031,16.031,0,0,0,4.535-.755,25.8,25.8,0,0,0,3.525-1.373c.971-.465,1.742-.882,2.264-1.183a8,8,0,0,1,.826-.454Z" transform="translate(-14043.23 -3784.076)" fill="#344154"/>
      <path id="Trazado_119015" data-name="Trazado 119015" d="M14164.575,3786.617a.877.877,0,0,1-.258,0l-.729-.048-.529-.042h-.629c-.449,0-.961,0-1.531.026l-.889.048-.953.111c-.668.058-1.363.216-2.113.337a29.182,29.182,0,0,0-9.037,3.544c-.635.407-1.246.766-1.781,1.173l-.781.56-.691.56c-.455.348-.822.7-1.158,1.008-.168.148-.32.291-.463.423s-.26.258-.371.375l-.527.528a1.091,1.091,0,0,1-.2.168.909.909,0,0,1,.152-.206l.482-.56.352-.4.455-.444a14.684,14.684,0,0,1,1.135-1.056l.688-.576c.248-.19.527-.38.781-.581.529-.417,1.148-.787,1.781-1.2a28.087,28.087,0,0,1,9.121-3.576c.744-.116,1.447-.264,2.113-.311l.965-.1.9-.032c.57-.032,1.088,0,1.543,0l.633.032.529.063.729.1A1.082,1.082,0,0,1,14164.575,3786.617Z" transform="translate(-14096.434 -3784.705)" fill="#344154"/>
      <path id="Trazado_119016" data-name="Trazado 119016" d="M14191.123,3783.25a.588.588,0,0,1,0,.185,3.992,3.992,0,0,1-.047.528,7.153,7.153,0,0,1-.527,1.87,10.95,10.95,0,0,1-4.168,4.79,21.806,21.806,0,0,1-5.875,2.51c-.785.222-1.426.38-1.869.486a4.006,4.006,0,0,1-.7.132,3.353,3.353,0,0,1,.664-.238l1.844-.57a23.7,23.7,0,0,0,5.777-2.546,11.284,11.284,0,0,0,4.143-4.637A11.968,11.968,0,0,0,14191.123,3783.25Z" transform="translate(-14113.42 -3783.25)" fill="#344154"/>
      <path id="Trazado_119017" data-name="Trazado 119017" d="M14051.176,3794.956a11.045,11.045,0,0,0-1.232-1.458,11.327,11.327,0,0,0-4.5-2.514,23.958,23.958,0,0,0-3.506-.776c-1.285-.206-2.643-.364-4.111-.612a34.047,34.047,0,0,1-4.457-1.12,29.262,29.262,0,0,0-4.754-1.146,19.8,19.8,0,0,0-9.264,1.278,33.822,33.822,0,0,0-3.771,1.7c-1.158.591-2.213,1.172-3.168,1.716-1.922,1.088-3.455,2.013-4.506,2.641l-1.215.745-.316.19a.75.75,0,0,1-.115.058l.1-.085.3-.211c.27-.185.672-.454,1.189-.787,1.055-.671,2.551-1.626,4.469-2.736.953-.528,2.01-1.151,3.168-1.753a34.183,34.183,0,0,1,3.787-1.728,19.9,19.9,0,0,1,9.385-1.315,28.92,28.92,0,0,1,4.8,1.167,35.738,35.738,0,0,0,4.426,1.125c1.432.253,2.809.422,4.094.634a23.719,23.719,0,0,1,3.539.818,11.221,11.221,0,0,1,4.512,2.641,5.83,5.83,0,0,1,1.145,1.532Z" transform="translate(-13976.188 -3784.99)" fill="#344154"/>
      <path id="Trazado_119018" data-name="Trazado 119018" d="M13986.074,3785.25a2.188,2.188,0,0,1-.031.628,7.188,7.188,0,0,1-.439,1.648,9.467,9.467,0,0,1-3.434,4.389,22.883,22.883,0,0,1-5.086,2.34c-.676.227-1.236.391-1.623.491a2.727,2.727,0,0,1-.611.127,2.658,2.658,0,0,1,.58-.232l1.586-.57a25.9,25.9,0,0,0,5-2.388,9.79,9.79,0,0,0,3.4-4.226A13.549,13.549,0,0,0,13986.074,3785.25Z" transform="translate(-13940.055 -3784.194)" fill="#344154"/>
      <path id="Trazado_119019" data-name="Trazado 119019" d="M13897.9,3794.869a3.866,3.866,0,0,1,.529-.528c.357-.328.9-.771,1.584-1.3a46.459,46.459,0,0,1,5.693-3.666c2.318-1.278,4.488-2.3,6.063-3.021.787-.359,1.428-.644,1.871-.834a4.522,4.522,0,0,1,.7-.274,3.615,3.615,0,0,1-.656.37l-1.832.919c-1.553.766-3.7,1.812-6.016,3.079a56.088,56.088,0,0,0-5.709,3.586c-.7.528-1.258.93-1.637,1.225A4.27,4.27,0,0,1,13897.9,3794.869Z" transform="translate(-13880.113 -3784.189)" fill="#344154"/>
      <path id="Trazado_119020" data-name="Trazado 119020" d="M13886.776,3785.9c0,.031-.527-.063-1.441,0a10.177,10.177,0,0,0-3.725,1.13,33.862,33.862,0,0,0-4.838,3.249,25.067,25.067,0,0,1-2.914,1.891,16.489,16.489,0,0,1-3.486,1.342,32.317,32.317,0,0,1-7.131.855c-2.207.063-4.193,0-5.852.09a28.539,28.539,0,0,0-3.914.38c-.459.084-.812.153-1.057.211a2.685,2.685,0,0,1-.369.068,1.6,1.6,0,0,1,.354-.121c.238-.074.586-.164,1.057-.264a25.47,25.47,0,0,1,3.924-.47c1.668-.1,3.656-.069,5.854-.148a33.036,33.036,0,0,0,7.072-.872,15.979,15.979,0,0,0,3.426-1.315,23.948,23.948,0,0,0,2.889-1.854,33.445,33.445,0,0,1,4.9-3.217,9.773,9.773,0,0,1,3.809-1.056,7.012,7.012,0,0,1,1.057.032,2.006,2.006,0,0,1,.387.068Z" transform="translate(-13830.316 -3784.451)" fill="#344154"/>
      <path id="Trazado_119021" data-name="Trazado 119021" d="M14144.269,3784.787c0,.074-9.33.137-20.838.137s-20.842-.063-20.842-.137,9.328-.137,20.842-.137S14144.269,3784.708,14144.269,3784.787Z" transform="translate(-14077.866 -3783.91)" fill="#344154"/>
    </g>
    <g id="Grupo_60180" data-name="Grupo 60180" transform="translate(862.412 5271.382)">
      <g id="Grupo_60164" data-name="Grupo 60164" transform="translate(36.916 0)">
        <g id="Grupo_60162" data-name="Grupo 60162">
          <path id="Trazado_119073" data-name="Trazado 119073" d="M13913.523,3629.507a3.8,3.8,0,0,1,1.213-5.086,4.925,4.925,0,0,1,5.461.386,5.19,5.19,0,0,1,1.734,4.943c-.191,1.3-2.219,3.935-4.152,2.778" transform="translate(-13900.724 -3623.773)" fill="#344154"/>
          <path id="Trazado_119074" data-name="Trazado 119074" d="M13890.893,3644.657c-4.295-8.319,4.7-13.051,9.787-11.883,4.785,1.1,6.918,3.343,7.85,6.464a15.614,15.614,0,0,1,0,9.607c-.529,1.516-1.586,3.074-3.17,3.338" transform="translate(-13889.764 -3627.937)" fill="#344154"/>
          <g id="Grupo_60161" data-name="Grupo 60161" transform="translate(1.112 7.715)">
            <g id="Grupo_60160" data-name="Grupo 60160">
              <path id="Trazado_119075" data-name="Trazado 119075" d="M13904.932,3640.081a1.61,1.61,0,0,1,1.514,1.584h0l.17,21.7c.094,2.562-3.57,4.193-6.311,4.273h0c-2.768.079-2.926-1.273-3.09-3.7-.27-4.062-.344-5.588-.344-5.567s-3.523-.407-4.475-4.928a52.211,52.211,0,0,1-.525-9.021c.035-2.747,1.678-6.19,4.42-6.042Z" transform="translate(-13891.871 -3638.382)" fill="#ffbf9d"/>
              <g id="Grupo_60158" data-name="Grupo 60158" transform="translate(0.913 7.233)">
                <path id="Trazado_119076" data-name="Trazado 119076" d="M13894.2,3654.523a.579.579,0,0,0,.592.56.556.556,0,0,0,.576-.528.593.593,0,0,0-.594-.565A.557.557,0,0,0,13894.2,3654.523Z" transform="translate(-13893.883 -3652.978)" fill="#344154"/>
                <path id="Trazado_119077" data-name="Trazado 119077" d="M13893.6,3652.749c.078.074.527-.274,1.135-.306s1.1.264,1.168.18-.049-.169-.26-.306a1.618,1.618,0,0,0-.939-.238,1.582,1.582,0,0,0-.9.338A.656.656,0,0,0,13893.6,3652.749Z" transform="translate(-13893.6 -3652.076)" fill="#344154"/>
              </g>
              <g id="Grupo_60159" data-name="Grupo 60159" transform="translate(7.093 7.048)">
                <path id="Trazado_119078" data-name="Trazado 119078" d="M13905.4,3653.959a.579.579,0,0,0,.592.56.558.558,0,0,0,.576-.554.587.587,0,0,0-.592-.565.559.559,0,0,0-.578.56Z" transform="translate(-13905.346 -3652.516)" fill="#344154"/>
                <path id="Trazado_119079" data-name="Trazado 119079" d="M13905.3,3652.4c.078.074.527-.274,1.135-.306s1.1.259,1.166.18-.047-.169-.254-.307a1.641,1.641,0,0,0-.943-.237,1.511,1.511,0,0,0-.893.338A.654.654,0,0,0,13905.3,3652.4Z" transform="translate(-13905.301 -3651.726)" fill="#344154"/>
              </g>
              <path id="Trazado_119081" data-name="Trazado 119081" d="M13901.3,3674.453a11.619,11.619,0,0,0,6.027-1.933s-1.326,3.206-5.912,3Z" transform="translate(-13896.318 -3654.489)" fill="#ff9a6c"/>
              <path id="Trazado_119082" data-name="Trazado 119082" d="M13902.053,3664.464a1.135,1.135,0,0,1,.992-.476,1.059,1.059,0,0,1,.734.349.663.663,0,0,1,.09.75.764.764,0,0,1-.818.248,2.323,2.323,0,0,1-.824-.438.671.671,0,0,1-.189-.18.2.2,0,0,1,0-.232" transform="translate(-13896.649 -3650.463)" fill="#ff9a6c"/>
              <path id="Trazado_119083" data-name="Trazado 119083" d="M13903.281,3662.69c-.105,0-.068.681-.633,1.193s-1.289.476-1.289.576.17.122.475.117a1.735,1.735,0,0,0,1.057-.438,1.479,1.479,0,0,0,.482-1C13903.441,3662.854,13903.334,3662.685,13903.281,3662.69Z" transform="translate(-13896.347 -3649.851)" fill="#344154"/>
            </g>
            <path id="Trazado_119084" data-name="Trazado 119084" d="M13904.7,3650.453c.072.169.7.058,1.436.105s1.352.228,1.441.068c.043-.074-.068-.232-.322-.385a2.37,2.37,0,0,0-1.057-.317,2.426,2.426,0,0,0-1.113.185C13904.8,3650.231,13904.7,3650.374,13904.7,3650.453Z" transform="translate(-13897.925 -3643.825)" fill="#344154"/>
            <path id="Trazado_119085" data-name="Trazado 119085" d="M13893.882,3649.248c.115.137.527-.032,1.057-.063s.971.048,1.057-.105-.031-.217-.232-.343a1.528,1.528,0,0,0-.877-.19,1.49,1.49,0,0,0-.842.333C13893.882,3649.031,13893.829,3649.184,13893.882,3649.248Z" transform="translate(-13892.81 -3643.174)" fill="#344154"/>
          </g>
        </g>
        <path id="Trazado_119086" data-name="Trazado 119086" d="M13894.363,3637.757a4.4,4.4,0,0,0,1.855,4.226,8.7,8.7,0,0,0,2.592,1.019l1.738.476a14.259,14.259,0,0,0,3.918.681c-.068,1.489-.242,2.493.561,3.75a2.85,2.85,0,0,0,3.119,1.584,45.208,45.208,0,0,0,.529-8.91,4.2,4.2,0,0,0-.455-2.224c-.686-1.056-2.111-1.268-3.395-1.368l-5.33-.422a10.734,10.734,0,0,0-2.607,0,3.593,3.593,0,0,0-2.252,1.215" transform="translate(-13891.915 -3629.773)" fill="#344154"/>
        <path id="Trazado_119087" data-name="Trazado 119087" d="M13912.4,3643.94h-.2a1.442,1.442,0,0,1-.564-.127,2.422,2.422,0,0,1-.746-.528c-.248-.253-.486-.586-.762-.93a4.348,4.348,0,0,0-1.057-.966,5.7,5.7,0,0,0-1.488-.687,12.708,12.708,0,0,0-3.756-.412,17.352,17.352,0,0,1-3.818-.264,5.488,5.488,0,0,1-2.748-1.463,4.284,4.284,0,0,1-.729-.972,3.464,3.464,0,0,1-.3-.861,2.325,2.325,0,0,1-.039-.771c.027,0,0,.28.105.755a3.835,3.835,0,0,0,.33.829,4.24,4.24,0,0,0,.727.924,5.371,5.371,0,0,0,2.693,1.394,17.579,17.579,0,0,0,3.781.243,12.545,12.545,0,0,1,3.809.433,5.778,5.778,0,0,1,1.521.724,4.408,4.408,0,0,1,1.057,1.014c.275.354.5.687.734.94a2.445,2.445,0,0,0,.7.528,1.837,1.837,0,0,0,.752.2Z" transform="translate(-13892.791 -3629.523)" fill="#5e6178"/>
        <path id="Trazado_119088" data-name="Trazado 119088" d="M13912.213,3640.854a1.294,1.294,0,0,0-.088-.649,2.65,2.65,0,0,0-1.369-1.125,8.96,8.96,0,0,0-2.6-.7,22.564,22.564,0,0,0-3.32,0,15.815,15.815,0,0,1-3.354-.116,6.709,6.709,0,0,1-2.553-.993,4.363,4.363,0,0,1-1.3-1.31,3.99,3.99,0,0,1-.229-.448.811.811,0,0,1-.059-.164,6.191,6.191,0,0,0,.35.576,4.6,4.6,0,0,0,1.311,1.241,6.73,6.73,0,0,0,2.514.93,16.075,16.075,0,0,0,3.311.105,21.6,21.6,0,0,1,3.354,0,8.986,8.986,0,0,1,2.643.75,2.644,2.644,0,0,1,1.373,1.215,1.059,1.059,0,0,1,.066.528A.417.417,0,0,1,13912.213,3640.854Z" transform="translate(-13893.338 -3629.236)" fill="#5e6178"/>
        <path id="Trazado_119089" data-name="Trazado 119089" d="M13924.109,3629.22a.645.645,0,0,1,.072.3,1.9,1.9,0,0,1-.146.845,4.747,4.747,0,0,1-1.9,2.022,4.462,4.462,0,0,1-1.447.561,4.326,4.326,0,0,1-1.26.037,5.232,5.232,0,0,1-.83-.153,1.115,1.115,0,0,1-.3-.1c0-.037.434.079,1.137.126a4.535,4.535,0,0,0,1.219-.079,4.413,4.413,0,0,0,1.385-.528,4.889,4.889,0,0,0,1.873-1.917A2.235,2.235,0,0,0,13924.109,3629.22Z" transform="translate(-13903.228 -3626.343)" fill="#5e6178"/>
        <path id="Trazado_119090" data-name="Trazado 119090" d="M13921.727,3625.41a.9.9,0,0,1,0,.307,4.483,4.483,0,0,1-.158.818,5.425,5.425,0,0,1-3.725,3.761,4.133,4.133,0,0,1-.818.163.841.841,0,0,1-.3,0c0-.031.428-.068,1.057-.29a5.743,5.743,0,0,0,3.643-3.7A9.855,9.855,0,0,1,13921.727,3625.41Z" transform="translate(-13902.482 -3624.545)" fill="#5e6178"/>
        <path id="Trazado_119091" data-name="Trazado 119091" d="M13910.6,3651.5a.809.809,0,0,1,0-.238v-.691a7.631,7.631,0,0,0-.465-2.472,4.93,4.93,0,0,0-.887-1.474,4.045,4.045,0,0,0-1.627-1.092,14.263,14.263,0,0,0-4.543-.486,13.972,13.972,0,0,1-4.549-.871,7.721,7.721,0,0,1-3.078-2.176,5.825,5.825,0,0,1-1.184-2.255,4.247,4.247,0,0,1-.121-.682c0-.081,0-.162,0-.243a6.218,6.218,0,0,0,.2.908,5.868,5.868,0,0,0,1.215,2.187,7.544,7.544,0,0,0,3.041,2.113,13.862,13.862,0,0,0,4.49.845,14.814,14.814,0,0,1,4.6.528,4.185,4.185,0,0,1,1.678,1.151,4.978,4.978,0,0,1,.893,1.526,7.375,7.375,0,0,1,.418,2.519v.692a1.2,1.2,0,0,1-.084.212Z" transform="translate(-13891.83 -3630.873)" fill="#5e6178"/>
        <path id="Trazado_119092" data-name="Trazado 119092" d="M13918.584,3637.32a9.45,9.45,0,0,1-.648-.7,11.323,11.323,0,0,0-1.738-1.494,11.117,11.117,0,0,0-2.006-1.094c-.529-.227-.893-.338-.881-.364a3.534,3.534,0,0,1,.928.243,9.233,9.233,0,0,1,2.066,1.057,8.95,8.95,0,0,1,1.727,1.558A3.628,3.628,0,0,1,13918.584,3637.32Z" transform="translate(-13900.874 -3628.443)" fill="#d9a171"/>
        <g id="Grupo_60163" data-name="Grupo 60163" transform="translate(15.135 16.707)">
          <path id="Trazado_119093" data-name="Trazado 119093" d="M13918.514,3655.682c.07-.032,2.387-1.2,2.553,1.526a2.063,2.063,0,0,1-2.643,2.25C13918.393,3659.379,13918.514,3655.682,13918.514,3655.682Z" transform="translate(-13918.419 -3655.405)" fill="#ffbf9d"/>
          <path id="Trazado_119094" data-name="Trazado 119094" d="M13919.9,3659.06a.992.992,0,0,0,.133.063.472.472,0,0,0,.357,0,1.181,1.181,0,0,0,.482-1.088,1.575,1.575,0,0,0-.174-.671.53.53,0,0,0-.381-.343.244.244,0,0,0-.275.148.176.176,0,0,0,0,.137c0,.005-.062-.042-.047-.158a.291.291,0,0,1,.094-.175.365.365,0,0,1,.26-.084.658.658,0,0,1,.527.391,1.634,1.634,0,0,1,.213.75,1.239,1.239,0,0,1-.625,1.22.485.485,0,0,1-.437-.048C13919.9,3659.144,13919.9,3659.06,13919.9,3659.06Z" transform="translate(-13919.118 -3656.105)" fill="#ff9a6c"/>
        </g>
      </g>
      <g id="Grupo_60166" data-name="Grupo 60166" transform="translate(0 35.78)">
        <path id="Trazado_119095" data-name="Trazado 119095" d="M13831.822,3697.133a30.489,30.489,0,0,0-2.3-3.951,22.26,22.26,0,0,0-4.908-1.658c-.342.116-5.279,1.056-4.7,1.616s4.014-.116,4.014-.116l.465.227a22.011,22.011,0,0,0-3.592.893c-.623.364-.357,1.056.184.982s3.123-.607,3.281-.528-2.8.745-3.123.94c-.426.259-.459,1.025.086.978.322-.027,3.105-.792,3.105-.792a24.259,24.259,0,0,0-2.4,1.088c-.334.322-.059.8.422.686.328-.074,1.879-.85,2.324-.951,0,0,.412.1.8.93s3.121,2.9,3.121,2.9Z" transform="translate(-13819.871 -3691.518)" fill="#ffbf9d"/>
        <g id="Grupo_60165" data-name="Grupo 60165" transform="translate(4.936 2.993)">
          <path id="Trazado_119096" data-name="Trazado 119096" d="M13835.235,3699.963a.986.986,0,0,1-1.148,0c-.357-.207-.633-.529-.969-.761-1.016-.692-2.463-.5-3.445-1.241-.137-.1-.275-.27-.2-.428s.258-.164.416-.164l4.072.037" transform="translate(-13829.326 -3697.272)" fill="#ffbf9d"/>
          <path id="Trazado_119097" data-name="Trazado 119097" d="M13833.855,3697.335a1.477,1.477,0,0,0-.437-.053c-.287,0-.7-.031-1.205-.042l-1.781-.042h-.525a.784.784,0,0,0-.6.132.334.334,0,0,0-.059.379.669.669,0,0,0,.205.259,2.551,2.551,0,0,0,.529.307,15.532,15.532,0,0,0,2.111.571,2.984,2.984,0,0,1,.842.369,7.277,7.277,0,0,1,.643.529,1.437,1.437,0,0,0,1.15.385c.3-.063.4-.227.387-.227a1.161,1.161,0,0,1-.4.137,1.391,1.391,0,0,1-1.057-.422,7.8,7.8,0,0,0-.639-.528,3.124,3.124,0,0,0-.887-.412,17.259,17.259,0,0,1-2.086-.576,2.465,2.465,0,0,1-.465-.274c-.137-.106-.2-.249-.133-.3a.837.837,0,0,1,.428-.068h2.309c.527,0,.918,0,1.205-.032A1.729,1.729,0,0,0,13833.855,3697.335Z" transform="translate(-13829.215 -3697.185)" fill="#ff9a6c"/>
        </g>
        <path id="Trazado_119098" data-name="Trazado 119098" d="M13820,3694.365a2.245,2.245,0,0,0,.9.237,5.689,5.689,0,0,0,1.02.026c.375-.047.787-.116,1.221-.179l.924-.154h-.059a13.252,13.252,0,0,0,2.145.639,13,13,0,0,0-2.07-.845h-.031l-.914.137-1.205.2a7.178,7.178,0,0,1-.988.027C13820.372,3694.407,13820,3694.333,13820,3694.365Z" transform="translate(-13819.931 -3692.731)" fill="#ff9a6c"/>
      </g>
      <g id="Grupo_60169" data-name="Grupo 60169" transform="translate(24.458 141.097)">
        <g id="Grupo_60168" data-name="Grupo 60168">
          <path id="Trazado_119099" data-name="Trazado 119099" d="M13868.18,3894.95l4.441,8.239s-6.865,7.279-6.209,8.879l16.277-8.028-6.387-13.12Z" transform="translate(-13866.268 -3890.92)" fill="#d9a171"/>
          <path id="Trazado_119100" data-name="Trazado 119100" d="M13886.488,3908.1a.742.742,0,0,1,.832.528.706.706,0,0,1-.527.83.777.777,0,0,1-.877-.565.737.737,0,0,1,.635-.808" transform="translate(-13875.488 -3899.017)" fill="#839eb6"/>
          <g id="Grupo_60167" data-name="Grupo 60167" transform="translate(0 11.82)" opacity="0.6">
            <path id="Trazado_119101" data-name="Trazado 119101" d="M13882.563,3914.6l-.691-1.3-15.354,8.186s-.57.671-.232,1.141Z" transform="translate(-13866.178 -3913.3)" fill="#fff"/>
          </g>
          <path id="Trazado_119102" data-name="Trazado 119102" d="M13877.6,3913.964c.043.079.455-.084.971,0s.895.3.951.227-.289-.47-.914-.528S13877.543,3913.9,13877.6,3913.964Z" transform="translate(-13871.563 -3901.647)" fill="#344154"/>
          <path id="Trazado_119103" data-name="Trazado 119103" d="M13875,3917.041c0,.084.434.053.871.253s.688.528.768.48-.1-.528-.646-.76S13875,3916.951,13875,3917.041Z" transform="translate(-13870.341 -3903.177)" fill="#344154"/>
          <path id="Trazado_119104" data-name="Trazado 119104" d="M13873.935,3921.019c.08,0,0-.47-.422-.808s-.877-.322-.883-.243.348.206.686.486S13873.829,3921.019,13873.935,3921.019Z" transform="translate(-13869.222 -3904.604)" fill="#344154"/>
          <path id="Trazado_119105" data-name="Trazado 119105" d="M13876.081,3909.716c.068.058.381-.232.844-.423s.883-.221.895-.311-.471-.206-1.016.026S13875.976,3909.674,13876.081,3909.716Z" transform="translate(-13870.841 -3899.39)" fill="#344154"/>
        </g>
        <path id="Trazado_119106" data-name="Trazado 119106" d="M13874.4,3905.171a1.68,1.68,0,0,0,.813-.407,4.029,4.029,0,0,0,.725-.682,4.377,4.377,0,0,0,.348-.481,1.026,1.026,0,0,0,.148-.311.385.385,0,0,0-.17-.438.473.473,0,0,0-.437,0,1.174,1.174,0,0,0-.283.19,3.51,3.51,0,0,0-.424.428,3.041,3.041,0,0,0-.529.861,1.5,1.5,0,0,0-.152.9c.047,0,.111-.328.354-.808a3.288,3.288,0,0,1,.529-.766,2.925,2.925,0,0,1,.395-.375c.154-.132.295-.206.381-.153s.037.032,0,.1a.946.946,0,0,1-.111.233q-.152.245-.311.459a5.261,5.261,0,0,1-.641.687C13874.717,3904.959,13874.4,3905.129,13874.4,3905.171Z" transform="translate(-13870.058 -3896.525)" fill="#344154"/>
        <path id="Trazado_119107" data-name="Trazado 119107" d="M13872.82,3905.346a1.42,1.42,0,0,0-.168-.892,3.14,3.14,0,0,0-.527-.84,3.059,3.059,0,0,0-.451-.391.761.761,0,0,0-.723-.153.436.436,0,0,0-.232.4,1.25,1.25,0,0,0,.064.338,2.027,2.027,0,0,0,.273.528,2.073,2.073,0,0,0,.762.67c.527.264.908.2.9.164a7.882,7.882,0,0,1-.787-.354,2.045,2.045,0,0,1-.639-.639,1.87,1.87,0,0,1-.215-.476c-.061-.19-.064-.359,0-.375a.523.523,0,0,1,.414.126,2.991,2.991,0,0,1,.424.344,3.237,3.237,0,0,1,.555.734C13872.715,3905.019,13872.768,3905.357,13872.82,3905.346Z" transform="translate(-13868.32 -3896.637)" fill="#344154"/>
      </g>
      <g id="Grupo_60172" data-name="Grupo 60172" transform="translate(18.612 152.263)">
        <g id="Grupo_60171" data-name="Grupo 60171">
          <path id="Trazado_119108" data-name="Trazado 119108" d="M13867.2,3912.06l-1.691,9.2s-9.918,1.373-10.4,3.047l17.729,3.914,3.217-14.234Z" transform="translate(-13855.109 -3912.06)" fill="#d9a171"/>
          <path id="Trazado_119109" data-name="Trazado 119109" d="M13884.6,3930.259a.741.741,0,0,1,.322.935.719.719,0,0,1-.93.328.786.786,0,0,1-.326-1,.74.74,0,0,1,1-.227" transform="translate(-13868.554 -3920.615)" fill="#839eb6"/>
          <g id="Grupo_60170" data-name="Grupo 60170" transform="translate(0.011 11.503)" opacity="0.6">
            <path id="Trazado_119110" data-name="Trazado 119110" d="M13872.861,3938.5l.27-1.447-17.1-3.211s-.865.169-.9.745Z" transform="translate(-13855.131 -3933.84)" fill="#fff"/>
          </g>
          <path id="Trazado_119111" data-name="Trazado 119111" d="M13874.3,3929.145c0,.09.406.222.77.6s.527.787.6.766.068-.528-.381-.988S13874.3,3929.045,13874.3,3929.145Z" transform="translate(-13864.165 -3920.097)" fill="#344154"/>
          <path id="Trazado_119112" data-name="Trazado 119112" d="M13870.5,3929.851c-.043.079.3.311.527.739s.213.84.3.856.252-.465,0-.993S13870.5,3929.766,13870.5,3929.851Z" transform="translate(-13862.368 -3920.444)" fill="#344154"/>
          <path id="Trazado_119113" data-name="Trazado 119113" d="M13867.174,3932.174c.072.037.289-.37.168-.893s-.48-.8-.527-.739.143.375.232.808A7.373,7.373,0,0,0,13867.174,3932.174Z" transform="translate(-13860.629 -3920.777)" fill="#344154"/>
          <path id="Trazado_119114" data-name="Trazado 119114" d="M13875.5,3925.154c0,.085.438.053.922.2s.83.38.889.316-.238-.454-.8-.612S13875.444,3925.075,13875.5,3925.154Z" transform="translate(-13864.727 -3918.161)" fill="#344154"/>
        </g>
        <path id="Trazado_119115" data-name="Trazado 119115" d="M13876.2,3920.94a1.737,1.737,0,0,0,.887.19,4.256,4.256,0,0,0,.992-.079,4.361,4.361,0,0,0,.572-.158,1.211,1.211,0,0,0,.311-.153.384.384,0,0,0,.143-.449.489.489,0,0,0-.338-.28,1.145,1.145,0,0,0-.344-.032,3.423,3.423,0,0,0-.59.069,3.223,3.223,0,0,0-.941.359c-.492.291-.705.581-.682.6a8.757,8.757,0,0,0,.781-.412,3.868,3.868,0,0,1,.895-.27,3.508,3.508,0,0,1,.525-.043c.2,0,.359.027.393.117s0,.052-.043.095a.809.809,0,0,1-.232.111,4.487,4.487,0,0,1-.529.164,5.164,5.164,0,0,1-.928.143A5.572,5.572,0,0,0,13876.2,3920.94Z" transform="translate(-13865.063 -3915.796)" fill="#344154"/>
        <path id="Trazado_119116" data-name="Trazado 119116" d="M13875.6,3919.421a1.812,1.812,0,0,0,.42-.808,2.784,2.784,0,0,0-.016-1.584.734.734,0,0,0-.463-.576.427.427,0,0,0-.428.169,1.235,1.235,0,0,0-.16.3,2.123,2.123,0,0,0-.137.6,2.063,2.063,0,0,0,.182,1c.242.529.58.719.6.692a6.71,6.71,0,0,1-.4-.771,2.189,2.189,0,0,1-.1-.9,1.769,1.769,0,0,1,.133-.528c.068-.185.168-.322.238-.285a.673.673,0,0,1,.246.359,3.252,3.252,0,0,1,.113.528,3.33,3.33,0,0,1,0,.924C13875.754,3919.093,13875.545,3919.378,13875.6,3919.421Z" transform="translate(-13864.404 -3914.129)" fill="#344154"/>
      </g>
      <g id="Grupo_60173" data-name="Grupo 60173" transform="translate(8.935 66.536)">
        <path id="Trazado_119117" data-name="Trazado 119117" d="M13866.688,3751.071l-27.232,35.076a12.708,12.708,0,0,0-1.99,11.889l19.732,40.235,6.611-11.244-11.295-31.78,14.734-17.73,6.57-27.127Z" transform="translate(-13836.786 -3750.052)" fill="#344154"/>
        <path id="Trazado_119118" data-name="Trazado 119118" d="M13873.3,3843.3l12.2-85.124.6-7.616,14.959-.808s5.227,8.145,5.477,13.13-13.605,39.861-13.605,39.861l-1.992,13.917-8.371,29.472Z" transform="translate(-13854.015 -3749.75)" fill="#344154"/>
        <path id="Trazado_119119" data-name="Trazado 119119" d="M13885.973,3754.28c.074,0-2.7,20.429-6.2,45.6s-6.4,45.57-6.475,45.559,2.7-20.418,6.205-45.6S13885.922,3754.269,13885.973,3754.28Z" transform="translate(-13854.014 -3751.887)" fill="#5e6178"/>
        <path id="Trazado_119120" data-name="Trazado 119120" d="M13860.526,3834.132c-.031.037-.334-.222-.895-.528a5.648,5.648,0,0,0-4.754-.185c-.578.249-.9.486-.928.444a2.311,2.311,0,0,1,.844-.618,5.165,5.165,0,0,1,4.916.189,2.347,2.347,0,0,1,.814.7Z" transform="translate(-13844.886 -3788.895)" fill="#5e6178"/>
        <path id="Trazado_119121" data-name="Trazado 119121" d="M13919.906,3757.88a1.786,1.786,0,0,1-.322.19,5.129,5.129,0,0,1-.967.343,6.7,6.7,0,0,1-1.51.211,7.452,7.452,0,0,1-3.617-.829,6.832,6.832,0,0,1-1.262-.851,5,5,0,0,1-.725-.733c-.148-.19-.223-.3-.205-.312s.375.381,1.055.893a8.048,8.048,0,0,0,1.258.776,8.684,8.684,0,0,0,1.7.6,8.462,8.462,0,0,0,1.8.2,7.441,7.441,0,0,0,1.475-.148C13919.379,3758.065,13919.854,3757.833,13919.906,3757.88Z" transform="translate(-13871.943 -3752.652)" fill="#5e6178"/>
        <path id="Trazado_119122" data-name="Trazado 119122" d="M13841.039,3834.573a6.447,6.447,0,0,1-.471-.834c-.291-.528-.7-1.336-1.187-2.324a36.271,36.271,0,0,1-1.549-3.56,19.1,19.1,0,0,1-.658-2.2,12.056,12.056,0,0,1-.338-2.45,10.506,10.506,0,0,1,.217-2.472,13.357,13.357,0,0,1,.713-2.2,19.38,19.38,0,0,1,1.91-3.38c.635-.9,1.2-1.584,1.586-2.076.2-.237.354-.417.461-.528s.168-.185.174-.174a7.1,7.1,0,0,1-.531.781c-.367.491-.9,1.2-1.508,2.113a20.466,20.466,0,0,0-1.844,3.37,13.8,13.8,0,0,0-.682,2.15,10.6,10.6,0,0,0-.205,2.408,12.262,12.262,0,0,0,.326,2.4,19.583,19.583,0,0,0,.639,2.176c.477,1.368,1.02,2.562,1.48,3.56l1.109,2.361.289.65A.567.567,0,0,1,13841.039,3834.573Z" transform="translate(-13836.808 -3779.301)" fill="#5e6178"/>
      </g>
      <g id="Grupo_60176" data-name="Grupo 60176" transform="translate(7.78 29.401)">
        <path id="Trazado_119123" data-name="Trazado 119123" d="M14233.436,3904.67l-10.143,11.635-13.1-7.257-4.6,4.595,17.061,11.667,7.605-.122,6.443-12.776Z" transform="translate(-14205.6 -3898.031)" fill="#fc9c96"/>
        <path id="Trazado_119124" data-name="Trazado 119124" d="M13880.3,3694.672l5.631,23.71,18.883-1.622,2.434-18.649,5.057-7.96a9.4,9.4,0,0,0-9.561-7.542l-1.348-3.169-9.949.834-1.189,2.894s-8.191.586-8,8.023Z" transform="translate(-13856.161 -3679.44)" fill="#fc9c96"/>
        <g id="Grupo_60174" data-name="Grupo 60174" transform="translate(28.331 29.356)" opacity="0.3">
          <path id="Trazado_119125" data-name="Trazado 119125" d="M13888.8,3741.042a9.862,9.862,0,0,0,8.451-1.616,3,3,0,0,1,1.125-.65,2.727,2.727,0,0,1,1.352.2,25.275,25.275,0,0,0,6.264,1.12,4.374,4.374,0,0,0,2.172-.291,1.71,1.71,0,0,0,1.01-1.791,58.178,58.178,0,0,0-9.824-2.641,13.444,13.444,0,0,0-5.252-.143,15.43,15.43,0,0,0-4.832,2.4,2.113,2.113,0,0,0-.961.993c-.3.877.582,1.785.4,2.694" transform="translate(-13888.239 -3735.022)"/>
        </g>
        <path id="Trazado_119126" data-name="Trazado 119126" d="M13912.48,3698.414c.529.476,7.559,12.523,7.559,12.523l-11.225,2.451-.385,5.53,11.031,1.584,4.961.528a6.38,6.38,0,0,0,5.752-2.477h0a6.391,6.391,0,0,0,.787-6.375l-5.727-14.588Z" transform="translate(-13869.436 -3688.003)" fill="#fc9c96"/>
        <path id="Trazado_119127" data-name="Trazado 119127" d="M13923.514,3722.773c0,.074-3.17.692-7.135,1.384s-7.17,1.183-7.18,1.109,3.17-.691,7.131-1.384S13923.514,3722.7,13923.514,3722.773Z" transform="translate(-13869.797 -3699.883)" fill="#344154"/>
        <path id="Trazado_119128" data-name="Trazado 119128" d="M13926.791,3709.671a3.377,3.377,0,0,1-.295-.6l-.729-1.674c-.6-1.421-1.41-3.385-2.293-5.562-.434-1.093-.85-2.113-1.229-3.079a5.514,5.514,0,0,1-.486-2.688,2.692,2.692,0,0,1,.807-1.653,2.075,2.075,0,0,1,.408-.3c.1-.047.158-.073.162-.063a3.418,3.418,0,0,0-.5.438,2.76,2.76,0,0,0-.693,1.585,5.548,5.548,0,0,0,.529,2.567l1.246,3.069c.883,2.181,1.67,4.156,2.225,5.593l.641,1.706A2.841,2.841,0,0,1,13926.791,3709.671Z" transform="translate(-13875.719 -3686.336)" fill="#344154"/>
        <path id="Trazado_119129" data-name="Trazado 119129" d="M13926.285,3740.112a3.422,3.422,0,0,1-.707,0c-.455,0-1.117,0-1.924-.058-1.621-.084-3.859-.286-6.338-.629s-4.668-.723-6.264-1l-1.891-.338a3.526,3.526,0,0,1-.691-.164,4.032,4.032,0,0,1,.707.058c.449.048,1.1.137,1.906.254,1.586.227,3.82.581,6.27.918s4.674.576,6.291.708l1.918.148A3.713,3.713,0,0,1,13926.285,3740.112Z" transform="translate(-13869.454 -3707.033)" fill="#344154"/>
        <path id="Trazado_119130" data-name="Trazado 119130" d="M13885.807,3716.314a6.721,6.721,0,0,0-.295-2.007c-.168-.6-.447-1.3-.66-2.113a4.2,4.2,0,0,1-.148-1.341,5.753,5.753,0,0,1,.3-1.416,22.575,22.575,0,0,1,2.383-4.373l.818-1.262a.281.281,0,1,1,.09.052c-.162.317-.416.766-.744,1.31a26.829,26.829,0,0,0-2.281,4.363,5.442,5.442,0,0,0-.3,1.341,4.02,4.02,0,0,0,.127,1.268c.191.808.449,1.521.6,2.145a5.444,5.444,0,0,1,.2,1.505,2.666,2.666,0,0,1-.049.412A.286.286,0,0,0,13885.807,3716.314Z" transform="translate(-13858.236 -3690.703)" fill="#344154"/>
        <path id="Trazado_119131" data-name="Trazado 119131" d="M13904.218,3684.238a5.252,5.252,0,0,1-.037-1.722,5.73,5.73,0,0,1,.238-1.706,5.252,5.252,0,0,1,.037,1.722A5.549,5.549,0,0,1,13904.218,3684.238Z" transform="translate(-13867.404 -3680.086)" fill="#344154"/>
        <path id="Trazado_119132" data-name="Trazado 119132" d="M13910.706,3683.669a5.394,5.394,0,0,1-.4-1.658,5.194,5.194,0,0,1-.133-1.7,10.716,10.716,0,0,1,.527,3.359Z" transform="translate(-13870.248 -3679.85)" fill="#344154"/>
        <path id="Trazado_119133" data-name="Trazado 119133" d="M13916.582,3683.043a3.991,3.991,0,0,1-.527-1.347,4.1,4.1,0,0,1-.275-1.426,7.627,7.627,0,0,1,.814,2.773Z" transform="translate(-13872.903 -3679.831)" fill="#344154"/>
        <g id="Grupo_60175" data-name="Grupo 60175" transform="translate(46.32 12.058)" opacity="0.3">
          <path id="Trazado_119134" data-name="Trazado 119134" d="M13922.3,3702.27c.064,3.612.7,6.607.762,10.226a2.275,2.275,0,0,0,.18,1.024c.4.781,1.32.528,2.2.5a8.231,8.231,0,0,0,1.342-.285,1.189,1.189,0,0,0-.111-.8c-1.453-3.755-2.91-6.909-4.367-10.664" transform="translate(-13922.299 -3702.27)"/>
        </g>
      </g>
      <g id="Grupo_60179" data-name="Grupo 60179" transform="translate(14.223 47.369)">
        <g id="Grupo_60177" data-name="Grupo 60177">
          <path id="Trazado_119135" data-name="Trazado 119135" d="M14217.8,3927.71l5.439,5.234,8.77,8.44,15.053-.75-12.2-13.775Z" transform="translate(-14217.799 -3926.469)" fill="#344154"/>
          <path id="Trazado_119136" data-name="Trazado 119136" d="M13849.755,3714.93s-3.941,1.743.068,4.754,9.506,4.146,10.33,6.337a3.7,3.7,0,0,1-.527,3.7l11.545-.528s3.422-2.958.867-5.6-9.26-6.443-10.035-7.468,1.092-1.854,1.092-1.854Z" transform="translate(-13847.377 -3713.842)" fill="#839eb6"/>
          <path id="Trazado_119137" data-name="Trazado 119137" d="M14228.822,3927.034l-.424-.528,6.232-.386v.645Z" transform="translate(-14222.8 -3926.12)" fill="#5e6178"/>
          <path id="Trazado_119138" data-name="Trazado 119138" d="M13863.059,3718.52a7.339,7.339,0,0,1-1.547.232c-.961.106-2.291.217-3.766.3s-2.811.111-3.781.09a6.655,6.655,0,0,1-1.584-.132,13.1,13.1,0,0,1,1.584-.063c.965-.027,2.3-.09,3.766-.169l3.766-.216a10.919,10.919,0,0,1,1.563-.042Z" transform="translate(-13849.434 -3715.843)" fill="#fafafa"/>
          <path id="Trazado_119139" data-name="Trazado 119139" d="M13865.879,3721.814a47.371,47.371,0,0,1-5.045.375,45.338,45.338,0,0,1-5.055.1,47.372,47.372,0,0,1,5.045-.375A45.23,45.23,0,0,1,13865.879,3721.814Z" transform="translate(-13851.036 -3717.388)" fill="#fafafa"/>
          <path id="Trazado_119140" data-name="Trazado 119140" d="M13871.1,3724.56a7.331,7.331,0,0,1-1.447.253c-.9.122-2.113.253-3.518.359s-2.641.169-3.535.19a7.256,7.256,0,0,1-1.467-.032,8.188,8.188,0,0,1,1.455-.164l3.525-.269,3.518-.275A7.377,7.377,0,0,1,13871.1,3724.56Z" transform="translate(-13853.562 -3718.692)" fill="#fafafa"/>
          <path id="Trazado_119141" data-name="Trazado 119141" d="M13875.672,3728.3a32.808,32.808,0,0,1-4.316.48,35.3,35.3,0,0,1-4.336.211,33.649,33.649,0,0,1,4.316-.481A35.246,35.246,0,0,1,13875.672,3728.3Z" transform="translate(-13856.34 -3720.46)" fill="#fafafa"/>
          <path id="Trazado_119142" data-name="Trazado 119142" d="M13881,3731.66a31.132,31.132,0,0,1-4.172.581,32.482,32.482,0,0,1-4.227.3,32.642,32.642,0,0,1,4.174-.576A33.016,33.016,0,0,1,13881,3731.66Z" transform="translate(-13858.972 -3722.048)" fill="#fafafa"/>
          <path id="Trazado_119143" data-name="Trazado 119143" d="M13883.213,3736.389a5.425,5.425,0,0,1-1.252.211c-.771.09-1.848.18-3.037.244s-2.27.074-3.051.063a5.37,5.37,0,0,1-1.264-.084,6.129,6.129,0,0,1,1.258-.111l3.041-.143,3.037-.164A6.583,6.583,0,0,1,13883.213,3736.389Z" transform="translate(-13859.922 -3724.268)" fill="#fafafa"/>
        </g>
        <g id="Grupo_60178" data-name="Grupo 60178" transform="translate(17.514 5.783)">
          <path id="Trazado_119144" data-name="Trazado 119144" d="M13895.033,3731.477l-2.863-.449-10.664.259s-.555-.164-.072-.465c.238-.148,4.156-1.12,4.156-1.12l-5.631.454a7.467,7.467,0,0,1,2.152-2.567,14.678,14.678,0,0,1,4-1.532l-1.705-1.294s5.566-.729,6.285-.095q.832.773,1.586,1.626l3.078-.032" transform="translate(-13879.959 -3724.41)" fill="#ffbf9d"/>
          <path id="Trazado_119145" data-name="Trazado 119145" d="M13887.612,3733.772c0,.079-1.678.132-3.742.333s-3.7.454-3.74.375a4.119,4.119,0,0,1,1.057-.28,26.087,26.087,0,0,1,2.641-.37c1.055-.1,1.98-.132,2.641-.132a3.946,3.946,0,0,1,1.146.074Z" transform="translate(-13880.04 -3728.786)" fill="#ff9a6c"/>
          <path id="Trazado_119146" data-name="Trazado 119146" d="M13887.949,3731.21a18.7,18.7,0,0,1-3.2.6,19.1,19.1,0,0,1-3.236.316,19.7,19.7,0,0,1,3.2-.591A19.482,19.482,0,0,1,13887.949,3731.21Z" transform="translate(-13880.693 -3727.618)" fill="#ff9a6c"/>
        </g>
      </g>
    </g>
    <g id="Grupo_60209" data-name="Grupo 60209" transform="translate(788.199 5272.326)">
      <g id="Grupo_60185" data-name="Grupo 60185" transform="translate(37.944 26.387)">
        <g id="Grupo_60182" data-name="Grupo 60182" transform="translate(21.977)">
          <g id="Grupo_60181" data-name="Grupo 60181">
            <path id="Trazado_119147" data-name="Trazado 119147" d="M14165.477,3888.18l-.477,1.574h7.658l-.422-1.072Z" transform="translate(-14164.372 -3888.18)" fill="#5e6178"/>
            <path id="Trazado_119148" data-name="Trazado 119148" d="M14172.635,3897.545l-.105-.106h-7.869l-.16.106Z" transform="translate(-14164.137 -3892.549)" fill="#344154"/>
            <path id="Trazado_119149" data-name="Trazado 119149" d="M13800.078,3690.867l1.615-11.937H13793l1.621,11.937A18.936,18.936,0,0,0,13800.078,3690.867Z" transform="translate(-13792.899 -3677.129)" fill="#344154"/>
            <path id="Trazado_119150" data-name="Trazado 119150" d="M13801.732,3678.506h-8.922v-.143a.708.708,0,0,1,.715-.713h7.492a.713.713,0,0,1,.713.713Z" transform="translate(-13792.811 -3676.525)" fill="#5e6178"/>
            <path id="Trazado_119151" data-name="Trazado 119151" d="M14172,3902.3h-6.867l-.635-4.658h8.135Z" transform="translate(-14164.137 -3892.643)" fill="#839eb6"/>
            <path id="Trazado_119152" data-name="Trazado 119152" d="M13800.539,3688.61c.443-.792.688-1.764-.2-2.324a1.411,1.411,0,0,0-1.779.476c-.725.8-1.057,1.727-.48,2.44C13798.8,3690.063,13800.117,3689.4,13800.539,3688.61Zm-1.389-.126a1.851,1.851,0,0,0-.744.882c-.086-.57.158-.882.992-1.531a2.118,2.118,0,0,0,.871-1.442c.48,1.066-.523,1.685-1.1,2.091Z" transform="translate(-13795.158 -3680.534)" fill="#344154"/>
          </g>
          <path id="Trazado_119153" data-name="Trazado 119153" d="M14165.558,3888.8l1.48.216v.307h-1.639Z" transform="translate(-14164.56 -3888.472)" fill="#344154"/>
        </g>
        <g id="Grupo_60184" data-name="Grupo 60184" transform="translate(0 3.999)">
          <g id="Grupo_60183" data-name="Grupo 60183">
            <path id="Trazado_119154" data-name="Trazado 119154" d="M13776.814,3687.269s-12.8,12.866-13.932,13.23c0,0-3.883-7.564-4.227-7.838l-7.457,4.194,4.373,9.38a6.971,6.971,0,0,0,11.836,2.028l12.57-14.82,2.535-2.81a6.545,6.545,0,0,0,1.006-2.562,4.594,4.594,0,0,0-.107-1.711,1.726,1.726,0,0,0-.068-1.326,1,1,0,0,0-.687-.454c.529-1.373-.949-2.049-1.705-.914" transform="translate(-13751.199 -3683.092)" fill="#aa6550"/>
            <path id="Trazado_119155" data-name="Trazado 119155" d="M13796.181,3689.214a2.97,2.97,0,0,0-1.158-1.584,3.2,3.2,0,0,0-1.773-.7s.152-.919,1.674-.718,1.924,1.183,3.8.718l.4,1.748Z" transform="translate(-13771.041 -3684.552)" fill="#aa6550"/>
            <path id="Trazado_119156" data-name="Trazado 119156" d="M13809.475,3685.507c.07,0-.146.576-.648,1.057a2.326,2.326,0,0,1-1.057.676c0-.063.412-.385.877-.866S13809.422,3685.465,13809.475,3685.507Z" transform="translate(-13777.892 -3684.23)" fill="#995037"/>
            <path id="Trazado_119157" data-name="Trazado 119157" d="M13811.139,3689.248c.068.031-.043.417-.359.792s-.67.555-.713.5.217-.328.529-.671S13811.086,3689.216,13811.139,3689.248Z" transform="translate(-13778.973 -3685.996)" fill="#995037"/>
          </g>
          <path id="Trazado_119158" data-name="Trazado 119158" d="M13771.258,3720.984a8.6,8.6,0,0,1,.158-2.784,8.515,8.515,0,0,1,.793-2.641c.072,0-.26,1.215-.529,2.715S13771.363,3720.984,13771.258,3720.984Z" transform="translate(-13760.643 -3698.412)" fill="#995037"/>
        </g>
      </g>
      <g id="Grupo_60190" data-name="Grupo 60190" transform="translate(0 27.284)">
        <g id="Grupo_60187" data-name="Grupo 60187" transform="translate(1.453)">
          <g id="Grupo_60186" data-name="Grupo 60186">
            <path id="Trazado_119159" data-name="Trazado 119159" d="M14054.83,3889.88l-.529,1.574h7.658l-.422-1.066Z" transform="translate(-14053.673 -3889.88)" fill="#5e6178"/>
            <path id="Trazado_119160" data-name="Trazado 119160" d="M14062.033,3899.25l-.16-.1H14054l-.1.1Z" transform="translate(-14053.483 -3894.254)" fill="#344154"/>
            <path id="Trazado_119161" data-name="Trazado 119161" d="M13689.458,3692.566l1.615-11.937h-8.715l1.623,11.937A18.876,18.876,0,0,0,13689.458,3692.566Z" transform="translate(-13682.227 -3678.829)" fill="#344154"/>
            <path id="Trazado_119162" data-name="Trazado 119162" d="M13691.031,3680.236h-8.92v-.143a.713.713,0,0,1,.713-.713h7.488a.719.719,0,0,1,.719.713Z" transform="translate(-13682.111 -3678.239)" fill="#5e6178"/>
            <path id="Trazado_119163" data-name="Trazado 119163" d="M14061.4,3904h-6.865l-.633-4.659h8.133Z" transform="translate(-14053.483 -3894.343)" fill="#839eb6"/>
            <path id="Trazado_119164" data-name="Trazado 119164" d="M13689.938,3690.31c.445-.787.688-1.759-.207-2.324a1.4,1.4,0,0,0-1.771.48c-.725.792-1.057,1.722-.482,2.44C13688.2,3691.768,13689.464,3691.1,13689.938,3690.31Zm-1.389-.122a1.872,1.872,0,0,0-.744.882c-.084-.57.158-.888.988-1.532a2.135,2.135,0,0,0,.875-1.447c.428,1.072-.521,1.684-1.1,2.1Z" transform="translate(-13684.505 -3682.235)" fill="#344154"/>
          </g>
          <path id="Trazado_119165" data-name="Trazado 119165" d="M14054.957,3890.51l1.48.217v.306h-1.637Z" transform="translate(-14053.909 -3890.177)" fill="#344154"/>
        </g>
        <g id="Grupo_60189" data-name="Grupo 60189" transform="translate(0 3.871)">
          <path id="Trazado_119166" data-name="Trazado 119166" d="M13683.217,3716.248s-1.518-1.79-1.121-14.572l-.1-6.866,5.957-1.79,4.111,23.1Z" transform="translate(-13680.604 -3688.546)" fill="#aa6550"/>
          <g id="Grupo_60188" data-name="Grupo 60188">
            <path id="Trazado_119167" data-name="Trazado 119167" d="M13688.72,3690.906a3.884,3.884,0,0,1,1.3-1.8,3.287,3.287,0,0,1,1.773-.7s-.152-.919-1.674-.719-1.922,1.189-3.8.719l-2.172,3.882Z" transform="translate(-13681.619 -3686.02)" fill="#aa6550"/>
            <path id="Trazado_119168" data-name="Trazado 119168" d="M13684.5,3687.26c-.09-.243-3.17-2.71-3.17-2.71s-1.584.064-.992,1.506a1.3,1.3,0,0,0-.6,1.928s-.7.5-.205,1.9a13.01,13.01,0,0,0,1.342,2.641Z" transform="translate(-13679.358 -3684.55)" fill="#aa6550"/>
          </g>
          <path id="Trazado_119169" data-name="Trazado 119169" d="M13687.408,3715.53l-3.465,8.276a4.7,4.7,0,0,0,3.039,5.889h0a4.686,4.686,0,0,0,5.881-2.958l2.779-8.16Z" transform="translate(-13681.417 -3699.168)" fill="#aa6550"/>
          <path id="Trazado_119170" data-name="Trazado 119170" d="M13684.7,3723.271a4.64,4.64,0,0,1,.281-1.146c.217-.7.527-1.648.961-2.678s.844-1.949,1.172-2.593a4.937,4.937,0,0,1,.6-1.025,5.867,5.867,0,0,1-.418,1.1c-.285.671-.682,1.584-1.094,2.614s-.775,1.965-1.057,2.641a5.422,5.422,0,0,1-.441,1.083Z" transform="translate(-13681.877 -3699.309)" fill="#995037"/>
          <path id="Trazado_119171" data-name="Trazado 119171" d="M13687.367,3718.215a11.887,11.887,0,0,0-1.182.575c-.592.412-.9.924-.967.888s.143-.666.813-1.115A1.614,1.614,0,0,1,13687.367,3718.215Z" transform="translate(-13682.117 -3700.421)" fill="#995037"/>
        </g>
      </g>
      <g id="Grupo_60194" data-name="Grupo 60194" transform="translate(7.53)">
        <path id="Trazado_119172" data-name="Trazado 119172" d="M13706.07,3634.52c.344.993-.834,1.843-1.859,2.076s-2.264.385-2.734,1.325c-.412.813,0,1.854-.371,2.688-.7,1.584-3.555,1.252-4.107,2.9-.387,1.125.67,2.292.525,3.475-.109,1.02-1.055,1.711-1.863,2.329s-1.686,1.474-1.551,2.488c.146,1.178,1.582,1.991,1.451,3.169s-1.7,1.7-1.918,2.847c-.27,1.357,1.432,2.234,1.98,3.5.418.972.16,2.224.861,3.016s2.008.645,3.068.422l10.563-2.239c-.713-1.674-.043-3.628.977-5.134s2.379-2.773,3.254-4.368,1.162-3.724,0-5.134" transform="translate(-13693.614 -3629.788)" fill="#344154"/>
        <path id="Trazado_119173" data-name="Trazado 119173" d="M13750.467,3648.12a11.077,11.077,0,0,0-.352-1.669,1.606,1.606,0,0,0-.42-.681c-.207-.2-.482-.074-.65.211a5.171,5.171,0,0,0,0,4.283c.168.285.443.412.65.211a1.594,1.594,0,0,0,.422-.687,11.034,11.034,0,0,0,.35-1.668,1.312,1.312,0,0,1,.037.47,4.647,4.647,0,0,1-.2,1.268,1.852,1.852,0,0,1-.461.8.57.57,0,0,1-.564.126.913.913,0,0,1-.443-.375,5.159,5.159,0,0,1,0-4.568.967.967,0,0,1,.443-.381.591.591,0,0,1,.566.132,1.841,1.841,0,0,1,.457.8,4.579,4.579,0,0,1,.2,1.268A1.287,1.287,0,0,1,13750.467,3648.12Z" transform="translate(-13719.418 -3634.938)" fill="#344154"/>
        <g id="Grupo_60193" data-name="Grupo 60193" transform="translate(10.582)">
          <path id="Trazado_119174" data-name="Trazado 119174" d="M13716.846,3650.064c-1.912-3.232-2.461-7.537-2.947-11.261-.227-1.753-.629-4.225.607-5.345,1.32-1.173,1.447-2.984,2.963-3.893a4.676,4.676,0,0,1,5.008.058" transform="translate(-13713.65 -3627.121)" fill="#344154"/>
          <g id="Grupo_60192" data-name="Grupo 60192" transform="translate(1.978)">
            <g id="Grupo_60191" data-name="Grupo 60191">
              <path id="Trazado_119175" data-name="Trazado 119175" d="M13725.969,3663.066h0a5.185,5.185,0,0,0,5.592-4.954c.117-2.825.217-5.677.217-5.677s4.277-.386,4.6-4.622.213-14,.213-14h0a14.741,14.741,0,0,0-14.91.914l.221,14.9v8.012C13721.848,3660.325,13723.273,3662.85,13725.969,3663.066Z" transform="translate(-13719.417 -3628.699)" fill="#aa6550"/>
              <path id="Trazado_119176" data-name="Trazado 119176" d="M13730.127,3639.525a2.17,2.17,0,0,0-2.889-.644,2.459,2.459,0,0,0-.83,3.073,3.248,3.248,0,0,0,2.076,1.584,1.621,1.621,0,0,1,1.268,1.753c-.127,1.057-1.9,1.458-2.693,2.335-1.246,1.363-3.971,1.933-5.811,2.144s-1.584.228-2.641-1.257a5.685,5.685,0,0,1-1.02-3.444q-.082-4.679-.168-9.359a13.362,13.362,0,0,1,.223-3.359,4.515,4.515,0,0,1,1.777-2.773,14.124,14.124,0,0,1,3.514-1.1,28.943,28.943,0,0,0,4.088-2.139,5.014,5.014,0,0,1,4.432-.417c.986.528,1.648,1.49,2.609,2.039,1.361.782,3.227.607,3.889,2.641a3.414,3.414,0,0,1-.033,2.149,4.978,4.978,0,0,1-6.771,2.641,6.685,6.685,0,0,1-.084,2.963c-.158.465-.217,1.178-.949,1.194" transform="translate(-13717.396 -3625.561)" fill="#344154"/>
            </g>
            <path id="Trazado_119177" data-name="Trazado 119177" d="M13738.645,3655.1a.377.377,0,0,1-.064.185.608.608,0,0,1-.469.232,1.161,1.161,0,0,1-1.094-1.167,1.214,1.214,0,0,1,.313-.9,1.29,1.29,0,0,1,.664-.381c.439-.089.688.074.67.1a5.088,5.088,0,0,0-.613.105,1.054,1.054,0,0,0-.732,1.057.991.991,0,0,0,.791.972C13738.434,3655.331,13738.592,3655.078,13738.645,3655.1Z" transform="translate(-13726.652 -3638.531)" fill="#995037"/>
          </g>
        </g>
        <path id="Trazado_119178" data-name="Trazado 119178" d="M13747.271,3650.14a30.419,30.419,0,0,1-5.74.939A30.427,30.427,0,0,1,13747.271,3650.14Z" transform="translate(-13716.225 -3637.158)" fill="#344154"/>
        <path id="Trazado_119179" data-name="Trazado 119179" d="M13719.471,3668.424a1.232,1.232,0,0,0,1.475.586,3.518,3.518,0,0,0,1.42-.961,3.709,3.709,0,0,1,1.412-.987c1.129-.344,2.508.411,3.457-.291.865-.639.75-2.081,1.584-2.741.449-.348,1.057-.391,1.539-.729a2,2,0,0,0,0-2.841,5.776,5.776,0,0,0-2.832-1.389l-9.094,3.877Z" transform="translate(-13705.324 -3641.372)" fill="#344154"/>
        <path id="Trazado_119180" data-name="Trazado 119180" d="M13721.756,3645.65l-.074.058a1.949,1.949,0,0,1-.242.132,4.724,4.724,0,0,1-.994.359,11.222,11.222,0,0,1-1.654.264,16.53,16.53,0,0,0-2.17.3,4.12,4.12,0,0,0-2.25,1.225,12.7,12.7,0,0,0-1.314,2.726,3.507,3.507,0,0,1-1.055,1.336,5.584,5.584,0,0,1-1.586.782,9.3,9.3,0,0,0-3.281,1.384,2.362,2.362,0,0,0-.84,1.489,10.1,10.1,0,0,0,0,1.769,2.9,2.9,0,0,1-1.566,2.926c-.951.56-1.951.856-2.748,1.363a3.256,3.256,0,0,0-.977.9,2.41,2.41,0,0,0-.371,1.162,8.159,8.159,0,0,0,.3,2.149,5.818,5.818,0,0,1,.154,1.674,2.435,2.435,0,0,1-.307,1.014,1.158,1.158,0,0,1-.229.291,2.53,2.53,0,0,0,.422-1.315,5.716,5.716,0,0,0-.193-1.627,7.982,7.982,0,0,1-.34-2.2,2.582,2.582,0,0,1,.387-1.262,3.409,3.409,0,0,1,1.057-.982c.828-.528,1.828-.845,2.736-1.389a2.637,2.637,0,0,0,1.43-2.7,10.081,10.081,0,0,1,0-1.817,2.636,2.636,0,0,1,.93-1.653,9.739,9.739,0,0,1,3.371-1.437,5.291,5.291,0,0,0,1.51-.734,3.266,3.266,0,0,0,.994-1.236,12,12,0,0,1,1.371-2.762,4.258,4.258,0,0,1,2.373-1.268,16.16,16.16,0,0,1,2.2-.264,12.426,12.426,0,0,0,1.643-.211,7.383,7.383,0,0,0,1.316-.45Z" transform="translate(-13696.834 -3635.04)" fill="#5e6178"/>
        <path id="Trazado_119181" data-name="Trazado 119181" d="M13725.383,3648.5a8.16,8.16,0,0,0-.889.126,4.022,4.022,0,0,0-2.037,1.215,3.783,3.783,0,0,0-.814,1.426,6.382,6.382,0,0,0-.162,1.9,5.013,5.013,0,0,1-.318,2.176,2.272,2.272,0,0,1-.791.892,9.581,9.581,0,0,1-1.057.56,2.775,2.775,0,0,0-.9.645,1.579,1.579,0,0,0-.355.972,5.383,5.383,0,0,1-.242,2.171,3.567,3.567,0,0,1-1.416,1.4c-.527.322-1.057.528-1.49.819a3.718,3.718,0,0,0-1.055.866,2.494,2.494,0,0,0-.455.918,2.284,2.284,0,0,0,0,.877.678.678,0,0,1-.09-.216,1.67,1.67,0,0,1,0-.682,2.306,2.306,0,0,1,.434-.988,3.675,3.675,0,0,1,1.057-.94c.443-.285.961-.528,1.473-.845a3.4,3.4,0,0,0,1.3-1.321,5.229,5.229,0,0,0,.207-2.081,1.889,1.889,0,0,1,.412-1.125,3.031,3.031,0,0,1,.992-.719,3.156,3.156,0,0,0,1.721-1.325,4.819,4.819,0,0,0,.307-2.055,6.406,6.406,0,0,1,.2-1.964,3.883,3.883,0,0,1,.887-1.489,4.016,4.016,0,0,1,2.16-1.188,2.862,2.862,0,0,1,.678-.053A.673.673,0,0,1,13725.383,3648.5Z" transform="translate(-13702.892 -3636.368)" fill="#5e6178"/>
      </g>
      <g id="Grupo_60198" data-name="Grupo 60198" transform="translate(4.855 14.851)">
        <g id="Grupo_60197" data-name="Grupo 60197" transform="translate(0 12.618)">
          <path id="Trazado_119182" data-name="Trazado 119182" d="M13699.139,3715.234l2.947-8.562-2.043-10.389-1.584,4.584-9.908-3.639s6.416-12.824,6.738-13.5c2.932-6.158,10.744-6.158,10.744-6.158l9.949.259a10.845,10.845,0,0,1,8.541,3.316c2.846,2.869,9.342,15.417,9.342,15.417l-10.467,3.259-2.072-3.866.6,8.166,2.063,12.443Z" transform="translate(-13688.551 -3677.57)" fill="#868695"/>
          <path id="Trazado_119183" data-name="Trazado 119183" d="M13731.887,3683.537c0,.08-6.041.138-13.492.138s-13.494-.058-13.494-.138,6.041-.137,13.494-.137S13731.887,3683.463,13731.887,3683.537Z" transform="translate(-13696.265 -3680.32)" fill="#d9a171"/>
          <path id="Trazado_119184" data-name="Trazado 119184" d="M13745.164,3683.058c0,.032-.273.042-.729.227a3.364,3.364,0,0,0-1.516,1.358,4.509,4.509,0,0,0-.617,2.931,11.491,11.491,0,0,0,1.172,3.592c1.156,2.466,2.176,4.721,2.9,6.338.34.776.625,1.426.852,1.938a.392.392,0,1,1-.105.053c-.248-.5-.566-1.141-.936-1.9-.781-1.611-1.828-3.845-2.988-6.338a11.423,11.423,0,0,1-1.18-3.7,4.674,4.674,0,0,1,.721-3.074,3.323,3.323,0,0,1,1.65-1.347,2.075,2.075,0,0,1,.572-.126C13745.061,3683.047,13745.164,3683.047,13745.164,3683.058Z" transform="translate(-13713.765 -3680.137)" fill="#344154"/>
          <path id="Trazado_119185" data-name="Trazado 119185" d="M13709.922,3711.992c-.084,0-1.273-5.376-2.641-12.042s-2.451-12.079-2.367-12.1,1.273,5.371,2.641,12.042S13709.975,3711.971,13709.922,3711.992Z" transform="translate(-13696.268 -3682.421)" fill="#344154"/>
          <path id="Trazado_119186" data-name="Trazado 119186" d="M13730.433,3718.25a2.459,2.459,0,0,1,0,.718,6.836,6.836,0,0,1-.475,1.9,9.248,9.248,0,0,1-4.354,4.637,12.84,12.84,0,0,1-6.273,1.257,14.7,14.7,0,0,1-1.939-.2,3.02,3.02,0,0,1-.691-.164c0-.058,1.008.132,2.641.148a13.373,13.373,0,0,0,6.133-1.315,9.39,9.39,0,0,0,4.289-4.453,10.4,10.4,0,0,0,.668-2.53Z" transform="translate(-13701.832 -3696.764)" fill="#344154"/>
          <path id="Trazado_119187" data-name="Trazado 119187" d="M13732.828,3691.987c0,.079-7.395.138-16.494.138s-16.494-.059-16.494-.138,7.395-.137,16.494-.137S13732.828,3691.929,13732.828,3691.987Z" transform="translate(-13693.877 -3684.307)" fill="#d9a171"/>
          <path id="Trazado_119188" data-name="Trazado 119188" d="M13733.652,3699.877c0,.08-8.355.138-18.666.138s-18.666-.058-18.666-.138,8.355-.137,18.666-.137S13733.652,3699.787,13733.652,3699.877Z" transform="translate(-13692.217 -3688.031)" fill="#d9a171"/>
          <path id="Trazado_119189" data-name="Trazado 119189" d="M13733.48,3707.047c0,.079-9.18.137-20.49.137s-20.5-.058-20.5-.137,9.176-.137,20.5-.137S13733.48,3706.958,13733.48,3707.047Z" transform="translate(-13690.408 -3691.414)" fill="#d9a171"/>
          <path id="Trazado_119190" data-name="Trazado 119190" d="M13700.318,3713.7a8.592,8.592,0,0,1-1.426-.386c-.871-.264-2.074-.618-3.412-.978s-2.561-.639-3.447-.845a8.2,8.2,0,0,1-1.432-.37,7.645,7.645,0,0,1,1.467.18c.9.158,2.113.417,3.482.771s2.545.745,3.4,1.057a7.538,7.538,0,0,1,1.365.571Z" transform="translate(-13689.519 -3693.4)" fill="#d9a171"/>
          <path id="Trazado_119191" data-name="Trazado 119191" d="M13731.786,3714.373a4.869,4.869,0,0,1-.844,0h-2.3l-7.605-.074h-9.91a4.5,4.5,0,0,1-.846-.032,5.082,5.082,0,0,1,.846-.074c.527,0,1.332-.059,2.3-.09,1.947-.053,4.637-.1,7.609-.084s5.658.084,7.605.164c.973.038,1.76.074,2.3.111A5.266,5.266,0,0,1,13731.786,3714.373Z" transform="translate(-13698.801 -3694.767)" fill="#d9a171"/>
          <path id="Trazado_119192" data-name="Trazado 119192" d="M13763.21,3711.062c0-.026.041,0-.053,0l-.322.063-1.189.206c-1,.169-2.393.4-3.924.629s-2.926.433-3.941.565a.828.828,0,1,1-.025-.19c1-.185,2.387-.412,3.924-.65s2.926-.428,3.941-.528c.527-.063.914-.106,1.2-.122a2.541,2.541,0,0,1,.334,0h.094C13763.282,3711.035,13763.21,3711.062,13763.21,3711.062Z" transform="translate(-13718.553 -3693.357)" fill="#d9a171"/>
          <path id="Trazado_119193" data-name="Trazado 119193" d="M13727.785,3721.547c0,.074-3.512.137-7.844.137s-7.842-.063-7.842-.137,3.512-.137,7.842-.137S13727.785,3721.468,13727.785,3721.547Z" transform="translate(-13699.661 -3698.256)" fill="#d9a171"/>
          <path id="Trazado_119194" data-name="Trazado 119194" d="M13746.619,3723.947a26.168,26.168,0,0,1-5.348,0,26.064,26.064,0,0,1,5.348,0Z" transform="translate(-13713.426 -3699.387)" fill="#d9a171"/>
          <path id="Trazado_119195" data-name="Trazado 119195" d="M13725.231,3730.109a9.338,9.338,0,0,1-1.654.126c-1.02.032-2.43.047-3.988,0s-2.969-.116-3.986-.2a9.322,9.322,0,0,1-1.643-.2,10.092,10.092,0,0,1,1.652,0l3.982.117,3.982.068a11.368,11.368,0,0,1,1.654.084Z" transform="translate(-13700.539 -3702.217)" fill="#d9a171"/>
          <path id="Trazado_119196" data-name="Trazado 119196" d="M13742.595,3732.387a105.652,105.652,0,0,1-10.756,0A105.371,105.371,0,0,1,13742.595,3732.387Z" transform="translate(-13708.976 -3703.37)" fill="#d9a171"/>
          <path id="Trazado_119197" data-name="Trazado 119197" d="M13734.058,3739.2a5.579,5.579,0,0,1-.865.037h-2.357c-1.99,0-4.754-.074-7.781-.169s-5.781-.216-7.768-.343c-1-.063-1.8-.116-2.355-.169a4.9,4.9,0,0,1-.861-.111,6.119,6.119,0,0,1,.867,0l2.354.09,7.775.258,7.775.249,2.355.095a4.987,4.987,0,0,1,.861.064Z" transform="translate(-13699.646 -3706.286)" fill="#d9a171"/>
          <path id="Trazado_119198" data-name="Trazado 119198" d="M13733.744,3747.038a7.014,7.014,0,0,1-.939,0l-2.566-.1c-2.162-.1-5.145-.248-8.451-.428s-6.285-.369-8.451-.528l-2.562-.185a5.694,5.694,0,0,1-.934-.111,7.091,7.091,0,0,1,.934,0l2.563.1c2.166.1,5.148.248,8.451.433s6.285.364,8.451.528l2.559.19A5.517,5.517,0,0,1,13733.744,3747.038Z" transform="translate(-13698.595 -3709.702)" fill="#d9a171"/>
          <g id="Grupo_60195" data-name="Grupo 60195" transform="translate(14.261 21.385)" opacity="0.2">
            <path id="Trazado_119199" data-name="Trazado 119199" d="M13715.682,3725.581c1.869,1.395,4.617.93,6.92.528a10.033,10.033,0,0,0,6.025-3.264,4.042,4.042,0,0,0,1.113-2.852,2.019,2.019,0,0,0-2.047-1.922c-1.193.143-1.771,1.479-2.342,2.535a9.25,9.25,0,0,1-9.631,4.521S13715.365,3725.327,13715.682,3725.581Z" transform="translate(-13715.551 -3718.059)"/>
          </g>
          <g id="Grupo_60196" data-name="Grupo 60196" transform="translate(28.6 8.646)" opacity="0.2">
            <path id="Trazado_119200" data-name="Trazado 119200" d="M13742.7,3693.939c.582,4.7,1.342,8.541,2.324,13.167.48,2.276,1.057,4.648,2.643,6.364l-.9-10.4Z" transform="translate(-13742.699 -3693.939)"/>
          </g>
        </g>
        <path id="Trazado_119201" data-name="Trazado 119201" d="M13700.8,3653.68" transform="translate(-13694.329 -3653.68)" fill="none" stroke="#7a9198" stroke-miterlimit="10" stroke-width="1" opacity="0"/>
        <path id="Trazado_119202" data-name="Trazado 119202" d="M13714.748,3673.059a3.371,3.371,0,0,0-1.584,5.034,1.668,1.668,0,0,1,.434.935c-.047.84-1.395.861-1.822,1.584a1.292,1.292,0,0,0,.365,1.511,10.453,10.453,0,0,0,1.389.935,1.7,1.7,0,0,1,.855,1.357c.471,0,.75-.586.678-1.057a4.613,4.613,0,0,0-.578-1.283,1.346,1.346,0,0,1-.059-1.347c.309-.438.936-.459,1.438-.649a2.007,2.007,0,0,0,1.057-2.583c-.3-.682-1.008-1.368-.666-2.028a2.041,2.041,0,0,1,.992-.708,2.589,2.589,0,0,0,.34-4.31" transform="translate(-13699.458 -3661.593)" fill="#344154"/>
      </g>
      <g id="Grupo_60201" data-name="Grupo 60201" transform="translate(5.779 106.657)">
        <path id="Trazado_119203" data-name="Trazado 119203" d="M14067.657,4040.16l-2.957,54.591,9.031,2.176,6.707-55.615Z" transform="translate(-14062.904 -4040.16)" fill="#aa6550"/>
        <g id="Grupo_60200" data-name="Grupo 60200" transform="translate(0 54.38)">
          <path id="Trazado_119204" data-name="Trazado 119204" d="M14062.831,4143.12l-1.531,6.745h10.352l.477-4.4Z" transform="translate(-14061.3 -4143.12)" fill="#d9a171"/>
          <path id="Trazado_119205" data-name="Trazado 119205" d="M13701.1,3941.062a6.969,6.969,0,0,1-1.512.09c-.934,0-2.223,0-3.639-.069l-3.639-.153a8.569,8.569,0,0,1-1.5-.121,7.735,7.735,0,0,1,1.512-.084c.934,0,2.223,0,3.637.074l3.633.148A9.066,9.066,0,0,1,13701.1,3941.062Z" transform="translate(-13690.541 -3935.3)" fill="#344154"/>
          <path id="Trazado_119206" data-name="Trazado 119206" d="M13700.955,3933a8.325,8.325,0,0,1,0,2.182,1.093,1.093,0,1,1,0-2.182Z" transform="translate(-13694.776 -3931.656)" fill="#344154"/>
          <g id="Grupo_60199" data-name="Grupo 60199" transform="translate(0 5.509)" opacity="0.6">
            <path id="Trazado_119207" data-name="Trazado 119207" d="M14061.3,4154.785h10.352l.105-.982-10.244-.253-.213,1.115" transform="translate(-14061.3 -4153.55)" fill="#fff"/>
          </g>
        </g>
      </g>
      <g id="Grupo_60206" data-name="Grupo 60206" transform="translate(43.12 148.477)">
        <path id="Trazado_119208" data-name="Trazado 119208" d="M14132,4119.34l2.166,16.468,7.975-.555-1.691-15.1Z" transform="translate(-14132 -4119.34)" fill="#aa6550"/>
        <g id="Grupo_60205" data-name="Grupo 60205" transform="translate(2.023 11.371)">
          <g id="Grupo_60204" data-name="Grupo 60204" transform="translate(0 2.598)">
            <path id="Trazado_119209" data-name="Trazado 119209" d="M13773,3933.429h0s8.953,3.027,9.1,4.659l-17.117.5-.152-4.474.633.126A12.718,12.718,0,0,0,13773,3933.429Z" transform="translate(-13764.83 -3933.27)" fill="#d9a171"/>
            <g id="Grupo_60202" data-name="Grupo 60202" transform="translate(1.569 1.6)" opacity="0.6">
              <path id="Trazado_119210" data-name="Trazado 119210" d="M13768.274,3936.18a.7.7,0,0,0-.459.808.669.669,0,0,0,.8.465.737.737,0,0,0,.482-.86.7.7,0,0,0-.887-.391" transform="translate(-13767.8 -3936.158)" fill="#fff"/>
            </g>
            <g id="Grupo_60203" data-name="Grupo 60203" transform="translate(0.195 3.925)" opacity="0.6">
              <path id="Trazado_119211" data-name="Trazado 119211" d="M13765.2,3941.949v-1.389l16.408.042s.771.307.705.851Z" transform="translate(-13765.201 -3940.56)" fill="#fff"/>
            </g>
            <path id="Trazado_119212" data-name="Trazado 119212" d="M13779.53,3933.192c0,.084-.418.132-.818.412s-.613.639-.693.607.031-.528.529-.845S13779.53,3933.113,13779.53,3933.192Z" transform="translate(-13771.042 -3933.128)" fill="#344154"/>
            <path id="Trazado_119213" data-name="Trazado 119213" d="M13783.309,3934.53c0,.08-.338.233-.607.592s-.348.74-.434.74-.146-.476.2-.919S13783.309,3934.446,13783.309,3934.53Z" transform="translate(-13773.026 -3933.773)" fill="#344154"/>
            <path id="Trazado_119214" data-name="Trazado 119214" d="M13786.3,3937.265c-.074,0-.205-.4,0-.86s.592-.655.629-.587-.2.317-.359.7A6.357,6.357,0,0,1,13786.3,3937.265Z" transform="translate(-13774.908 -3934.391)" fill="#344154"/>
          </g>
          <path id="Trazado_119215" data-name="Trazado 119215" d="M13778.125,3931.976a1.694,1.694,0,0,1-.861,0,3.67,3.67,0,0,1-.9-.254,3.818,3.818,0,0,1-.529-.243,1.073,1.073,0,0,1-.264-.195.372.372,0,0,1-.053-.444.465.465,0,0,1,.365-.2,1.216,1.216,0,0,1,.322.031,3.42,3.42,0,0,1,.527.169,3.056,3.056,0,0,1,.8.5c.406.354.555.666.529.682s-.238-.227-.652-.528a3.329,3.329,0,0,0-.773-.413,4.378,4.378,0,0,0-.5-.137c-.186-.042-.338-.037-.381.042s0,.047,0,.1a.97.97,0,0,0,.2.137,3.872,3.872,0,0,0,.461.248,4.582,4.582,0,0,0,.84.291,6.1,6.1,0,0,1,.871.216Z" transform="translate(-13769.849 -3929.356)" fill="#344154"/>
          <path id="Trazado_119216" data-name="Trazado 119216" d="M13780.065,3930.951a1.383,1.383,0,0,1-.254-.818,2.807,2.807,0,0,1,.09-.946,2.866,2.866,0,0,1,.207-.528.714.714,0,0,1,.527-.449.406.406,0,0,1,.363.233,1.153,1.153,0,0,1,.1.311,1.9,1.9,0,0,1,0,.576,2,2,0,0,1-.344.9c-.324.454-.666.56-.676.528a5.119,5.119,0,0,0,.527-.645,1.891,1.891,0,0,0,.217-1.31c-.033-.179-.1-.322-.17-.3a.617.617,0,0,0-.295.285,3.128,3.128,0,0,0-.2.47,3.059,3.059,0,0,0-.141.86C13780.013,3930.629,13780.118,3930.935,13780.065,3930.951Z" transform="translate(-13771.895 -3928.209)" fill="#344154"/>
        </g>
      </g>
      <g id="Grupo_60208" data-name="Grupo 60208" transform="translate(7.522 65.133)">
        <g id="Grupo_60207" data-name="Grupo 60207">
          <path id="Trazado_119217" data-name="Trazado 119217" d="M13701.521,3748.88s-6.338,10.563-6.338,16.87l-1.584,76.9,10.928,1.584,7.617-75.152s17.5,76.13,18.094,76.13,9.676-1.632,9.676-1.632l-13.775-94.377Z" transform="translate(-13693.6 -3748.88)" fill="#12263f"/>
          <path id="Trazado_119218" data-name="Trazado 119218" d="M13728.788,3787.152c0,.084-3.35-.66-7.426-1.658s-7.395-1.87-7.363-1.949,3.348.66,7.432,1.658S13728.788,3787.073,13728.788,3787.152Z" transform="translate(-13703.224 -3765.233)" fill="#344154"/>
        </g>
        <path id="Trazado_119219" data-name="Trazado 119219" d="M13709.482,3784.73a.817.817,0,0,1,0,.2l-.08.565c-.084.528-.2,1.236-.342,2.166-.312,1.88-.74,4.605-1.248,7.976-1.02,6.739-2.281,16.072-3.342,26.408s-1.713,19.743-2.082,26.55c-.186,3.4-.316,6.159-.4,8.065l-.105,2.192-.031.57a1.549,1.549,0,0,1,0,.19,1.087,1.087,0,0,1,0-.2v-.571c0-.528,0-1.251.051-2.192.043-1.907.15-4.664.307-8.07.322-6.808.947-16.215,2-26.567s2.355-19.685,3.422-26.408c.527-3.37.992-6.09,1.336-7.965.17-.925.3-1.653.391-2.16l.111-.56A.882.882,0,0,1,13709.482,3784.73Z" transform="translate(-13697.494 -3765.795)" fill="#344154"/>
        <path id="Trazado_119220" data-name="Trazado 119220" d="M13746.2,3787.14c.074,0,3.123,16.864,6.8,37.689s6.607,37.732,6.529,37.743-3.115-16.859-6.8-37.695S13746.146,3787.151,13746.2,3787.14Z" transform="translate(-13718.416 -3766.932)" fill="#344154"/>
      </g>
    </g>
    <path id="Trazado_119221" data-name="Trazado 119221" d="M13694.115,3666.75a2.029,2.029,0,0,1,.387.465,6,6,0,0,1,.8,1.442,2.842,2.842,0,0,1,.184,1.141,2.423,2.423,0,0,1-.437,1.268c-.26.4-.592.745-.887,1.13a2.344,2.344,0,0,0-.555,1.31,2.665,2.665,0,0,0,.4,1.384,13.214,13.214,0,0,0,.8,1.167,5.151,5.151,0,0,1,.666,1.136,2.864,2.864,0,0,1,.215,1.135,3.7,3.7,0,0,0,.088.9,1.3,1.3,0,0,0,.316.576,1.042,1.042,0,0,0,.527.264.625.625,0,0,1-.576-.185,1.4,1.4,0,0,1-.4-.613,3.977,3.977,0,0,1-.131-.935,2.927,2.927,0,0,0-.227-1.056,5.732,5.732,0,0,0-.666-1.057,11.748,11.748,0,0,1-.83-1.183,2.817,2.817,0,0,1-.443-1.526,2.554,2.554,0,0,1,.617-1.463c.313-.4.639-.739.887-1.109a2.369,2.369,0,0,0,.281-2.2,7.11,7.11,0,0,0-.7-1.447A2.812,2.812,0,0,1,13694.115,3666.75Z" transform="translate(-12897.762 1627.331)" fill="#5e6178"/>
  </g>
</svg>
